<svg xmlns="http://www.w3.org/2000/svg" width="200" height="186.546" viewBox="0 0 200 186.546"><g transform="translate(0.033 -1.6)"><path d="M52.707,156.6H9.452c-2.324,0-3.1,0-3.1-4.21V142.376a3.123,3.123,0,1,0-6.246,0v10.014a8.919,8.919,0,0,0,9.348,10.456H52.707a3.123,3.123,0,1,0,0-6.246ZM3.227,132.545a3.123,3.123,0,0,0,3.123-3.123V26.188l94.523.162V78.421a3.123,3.123,0,0,0,6.246,0V26.351a6.371,6.371,0,0,0-6.308-6.429H9L23.281,7.846h90.775a5,5,0,0,1,5,5V76.219a3.123,3.123,0,0,0,6.246,0V12.843A11.243,11.243,0,0,0,114.056,1.6H22.14a3.119,3.119,0,0,0-2.015.737L1.574,18.052a4.647,4.647,0,0,0-1.008,1.57A3.065,3.065,0,0,0,.1,21.171V129.435a3.123,3.123,0,0,0,3.123,3.111Z" transform="translate(0 0)" fill="#fff"/><path d="M93.5,70.44a3.123,3.123,0,0,0,3.123-3.123V13.222a9.3,9.3,0,0,0-9.273-9.29L9.292,3.77h0a3.123,3.123,0,0,0,0,6.246l78.062.162a3.048,3.048,0,0,1,3.04,3.044V67.317A3.123,3.123,0,0,0,93.5,70.44Zm43.014,59.453a3.123,3.123,0,0,0-3.123,3.123v25.967a3.748,3.748,0,0,1-.416,1.753c-1.757,3.352-10.085,14.3-43.4,14.3S47.938,164.1,46.16,160.744A3.747,3.747,0,0,1,45.744,159V134.34a3.123,3.123,0,1,0-6.246,0v24.642a10.06,10.06,0,0,0,1.116,4.66c2.807,5.3,13.154,17.639,48.964,17.639s46.154-12.325,48.939-17.622A9.994,9.994,0,0,0,139.642,159V133.016a3.123,3.123,0,0,0-3.127-3.123Z" transform="translate(19.622 6.866)" fill="#fff"/><path d="M184.1,48.731l-82.622-27.6a3.048,3.048,0,0,0-1.945,0L6.46,50.971A3.127,3.127,0,0,0,6.415,56.9L93.442,86.311a3.165,3.165,0,0,0,1,.167,3.127,3.127,0,0,0,1.049-.183l63.88-22.81v14.99A10.5,10.5,0,0,0,151.9,88.493v6.3a10.527,10.527,0,1,0,21.053,0v-6.3a10.51,10.51,0,0,0-7.341-9.994V61.252l18.534-6.617a3.123,3.123,0,0,0-.062-5.9Zm-17.4,46.058a4.281,4.281,0,1,1-8.561,0v-6.3a4.281,4.281,0,1,1,8.561,0ZM162.048,55.9l-66.262-7.15a3.123,3.123,0,1,0-.666,6.209l53.42,5.763L94.408,80.057,17.4,54.023l83.063-26.65,73.082,24.413Z" transform="translate(13.743 61.295)" fill="#fff"/></g></svg>