<svg xmlns="http://www.w3.org/2000/svg" width="200" height="186.682" viewBox="0 0 200 186.682"><path d="M4.384,1.989a3.331,3.331,0,0,0-3.279,3.37V131.78q-.008.162,0,.325v52.236a3.331,3.331,0,0,0,.95,3.317,3.331,3.331,0,0,0,3.253.9H184.29a3.331,3.331,0,1,0,0-6.662H160.976V105.5a3.331,3.331,0,0,0,4.5,1.106l.117-.065,17.1,29.924a9.836,9.836,0,0,0,13.388,3.578h.013a9.917,9.917,0,0,0,3.617-13.414l-4.9-8.6-2.563-4.462-3.006-5.282-3.552-6.206-3.109-5.438a3.331,3.331,0,0,0,1.2-4.515L178.1,82.171a33.864,33.864,0,0,0,2.03-36.6A33.074,33.074,0,0,0,134.76,33.291a33.774,33.774,0,0,0-14.077,41.828L98.63,95.6,70.892,72.687a3.331,3.331,0,0,0-4.319.078L7.766,124.559V5.358a3.331,3.331,0,0,0-3.383-3.37ZM153.208,35.529a26.509,26.509,0,0,1,21.168,13.4,26.955,26.955,0,0,1-9.719,36.689,26.389,26.389,0,0,1-3.682,1.678V78.763a3.331,3.331,0,0,0-3.33-3.331H137.661a3.331,3.331,0,0,0-3.331,3.33v4.1a26.662,26.662,0,0,1-5.426-6.3l25.409-23.6v5.7a3.331,3.331,0,1,0,6.662,0V45.755a3.331,3.331,0,0,0-3.279-3.786v.013a3.331,3.331,0,0,0-.442.026H144.323a3.331,3.331,0,1,0,0,6.662h4.839L125.991,70.189a26.885,26.885,0,0,1,12.074-31.108A26.271,26.271,0,0,1,153.208,35.529Zm-84.372,44.1,27.8,22.95a3.331,3.331,0,0,0,4.384-.143L123.909,81.2a32.851,32.851,0,0,0,10.422,9.784v90.916H121.008V118.613a3.331,3.331,0,0,0-3.33-3.331H97.694a3.331,3.331,0,0,0-3.331,3.33v63.282H81.041v-76.6a3.331,3.331,0,0,0-3.33-3.331H57.726a3.331,3.331,0,0,0-3.331,3.33v76.6H41.073V138.6a3.331,3.331,0,0,0-3.33-3.331H17.758c-1.839,0-3.33,1.491-3.331,46.629H7.766V133.432Zm104.59,7.794,2.928,5.126-11.332,6.609-2.9-5.087a33.032,33.032,0,0,0,5.842-2.667A33.374,33.374,0,0,0,173.426,87.427Zm3.4,12.568,3.07,5.373,3.552,6.206,3.018,5.282,2.55,4.462,4.918,8.6a3.154,3.154,0,0,1-1.2,4.345,3,3,0,0,1-4.254-1.106l-17.121-29.976Z" transform="translate(-0.988 -1.988)" fill="#fff"/></svg>