<svg xmlns="http://www.w3.org/2000/svg" width="200" height="142.843" viewBox="0 0 200 142.843"><path d="M121.958,1.587a7.143,7.143,0,0,0-7.143,7.142v7.144h-7.143a7.143,7.143,0,0,0-7.143,7.142V44.445a7.143,7.143,0,0,0,7.142,7.143h7.144V58.73a7.143,7.143,0,0,0,7.142,7.143h21.429a7.143,7.143,0,0,0,7.143-7.142V51.587h7.143a7.143,7.143,0,0,0,7.143-7.142V23.016a7.143,7.143,0,0,0-7.142-7.143h-7.144V8.73a7.143,7.143,0,0,0-7.142-7.143ZM129.1,15.873h7.143v7.143a7.143,7.143,0,0,0,7.142,7.143h7.144V37.3h-7.143a7.143,7.143,0,0,0-7.143,7.142v7.144H129.1V44.445a7.143,7.143,0,0,0-7.142-7.143h-7.144V30.159h7.143a7.143,7.143,0,0,0,7.143-7.142ZM6.961,58.758A7.144,7.144,0,0,0,.529,65.873v71.443a7.144,7.144,0,0,0,7.115,7.114H36.23a7.144,7.144,0,0,0,7.171-7.114h76.981a7.144,7.144,0,0,0,2.539-.475l55.678-21.3c13.911-4.4,21.931-15.555,21.931-26.465,0-5.455-2.436-11.273-7.534-14.494s-11.766-3.412-18.722-1.214q-.189.044-.376.1l-54.827,21H108.2c.494-2.758,1.564-5.424,1.1-8.287a24.5,24.5,0,0,0-7.059-13.811,24.248,24.248,0,0,0-16.922-6.487H43.4a7.144,7.144,0,0,0-7.171-7.115H7.644q-.342-.016-.684,0Zm7.868,14.23H29.115v57.156H14.829ZM43.4,80.159H85.323c3.639,0,5.524,1.054,7,2.484a10.465,10.465,0,0,1,2.86,5.8,10.328,10.328,0,0,1-.531,5.482c-.207.418-.2.486-.181.531H64.8a7.145,7.145,0,0,0,0,14.286h55.581a7.144,7.144,0,0,0,2.539-.475l55.678-21.3c4.346-1.374,6.185-.67,6.738-.321s.907.739.907,2.427c0,3.376-3.278,10.116-11.97,12.863q-.19.051-.376.112L119.07,123.03H43.4V80.159Z" transform="translate(-0.529 -1.587)" fill="#fff"/></svg>