<svg xmlns="http://www.w3.org/2000/svg" width="200" height="157.454" viewBox="0 0 200 157.454"><g transform="translate(-2 -8)"><path d="M62.3,131.953H192.955a3.35,3.35,0,0,1,2.345.938L202,108.5H133.826L117.98,121.166a3.35,3.35,0,0,1-2.077.737H2v5.9a12.094,12.094,0,0,0,6.7,10.854,12.094,12.094,0,0,1,6.7,10.854v15.946H160.794a33.5,33.5,0,0,0,32.161-24.523l.67-2.379a2.848,2.848,0,0,1-.67.1H62.3a3.35,3.35,0,1,1,0-6.7ZM179.554,115.2a3.35,3.35,0,1,1-3.35,3.35A3.35,3.35,0,0,1,179.554,115.2Zm-16.75,0a3.35,3.35,0,1,1-3.35,3.35A3.35,3.35,0,0,1,162.8,115.2Zm-16.75,0a3.35,3.35,0,1,1-3.35,3.35A3.35,3.35,0,0,1,146.054,115.2ZM25.451,14.7h6.7v6.7h6.7V14.7h6.7a3.35,3.35,0,0,0,0-6.7h-20.1a3.35,3.35,0,0,0,0,6.7Z" transform="translate(0)" fill="#fff"/><path d="M178.2,87.7V67.6h-67v32.563l10.05-8.141a3.115,3.115,0,0,1,0-.972v-13.4a3.35,3.35,0,1,1,6.7,0V87.7h13.4V77.652a3.35,3.35,0,1,1,6.7,0V87.7h13.4V77.652a3.35,3.35,0,1,1,6.7,0V87.7ZM54.251,101.1H104.5V67.6H54.251ZM84.4,77.652a3.35,3.35,0,0,1,6.7,0v13.4a3.35,3.35,0,1,1-6.7,0Zm-20.1,0a3.35,3.35,0,0,1,6.7,0v13.4a3.35,3.35,0,1,1-6.7,0ZM14.05,101.1h33.5V30.75l10.05-6.7V14H4V24.05l10.05,6.7Zm13.4-80.4h6.7a3.35,3.35,0,1,1,0,6.7h-6.7a3.35,3.35,0,0,1,0-6.7Zm0,13.4h6.7a3.35,3.35,0,1,1,0,6.7h-6.7a3.35,3.35,0,1,1,0-6.7Zm0,13.4h6.7a3.35,3.35,0,1,1,0,6.7h-6.7a3.35,3.35,0,0,1,0-6.7Z" transform="translate(4.7 14.1)" fill="#fff"/><path d="M19,51.5H82.652V18H26.705L19,23.159ZM65.9,28.05a3.35,3.35,0,1,1,6.7,0v13.4a3.35,3.35,0,0,1-6.7,0Zm-20.1,0a3.35,3.35,0,0,1,6.7,0v13.4a3.35,3.35,0,0,1-6.7,0Zm-20.1,0a3.35,3.35,0,0,1,6.7,0v13.4a3.35,3.35,0,0,1-6.7,0Z" transform="translate(39.951 23.501)" fill="#fff"/></g></svg>