<svg xmlns="http://www.w3.org/2000/svg" width="200" height="160" viewBox="0 0 200 160"><g transform="translate(-1 -4)"><path d="M201,44a6.667,6.667,0,0,0-1.467-4.133L178.867,14a26.667,26.667,0,0,0-20.8-10H43.933a26.667,26.667,0,0,0-20.8,10L2.467,39.867A6.667,6.667,0,0,0,1,44,26.667,26.667,0,0,0,14.333,66.933v90.4A6.667,6.667,0,0,0,21,164H181a6.667,6.667,0,0,0,6.667-6.667v-90.4A26.667,26.667,0,0,0,201,44ZM33.533,22.333a13.333,13.333,0,0,1,10.4-5H158.067a13.333,13.333,0,0,1,10.4,5l19.2,23.8a13.434,13.434,0,0,1-25.533,3.2,6.667,6.667,0,0,0-12.267,0,13.333,13.333,0,0,1-24.4,0,6.667,6.667,0,0,0-12.267,0,13.333,13.333,0,0,1-24.4,0,6.667,6.667,0,0,0-12.267,0,13.333,13.333,0,0,1-24.4,0,6.667,6.667,0,0,0-12.267,0,13.434,13.434,0,0,1-25.533-3.2Zm20.8,128.333V97.333H81v53.333Zm120,0h-80v-60A6.667,6.667,0,0,0,87.667,84h-40A6.667,6.667,0,0,0,41,90.667v60H27.667v-80A26.667,26.667,0,0,0,46,63.4a26.667,26.667,0,0,0,36.667,0,26.667,26.667,0,0,0,36.667,0A26.667,26.667,0,0,0,156,63.4a26.667,26.667,0,0,0,18.333,7.267Z" transform="translate(0 0)" fill="#fff"/><path d="M23.667,16A6.667,6.667,0,0,0,17,22.667v40a6.667,6.667,0,0,0,6.667,6.667h40a6.667,6.667,0,0,0,6.667-6.667v-40A6.667,6.667,0,0,0,63.667,16ZM57,56H30.333V29.333H57Z" transform="translate(90.667 68)" fill="#fff"/></g></svg>