<svg xmlns="http://www.w3.org/2000/svg" width="200" height="183.112" viewBox="0 0 200 183.112"><g transform="translate(0.002 -2.695)"><path d="M97.145,185.807a92.043,92.043,0,0,1-59.365-21.653,3.037,3.037,0,1,1,3.937-4.624,84.758,84.758,0,0,0,82.643,15.747A85.684,85.684,0,0,0,178.132,67.326a3.308,3.308,0,0,1-.156-.969,3.027,3.027,0,0,1,5.968-.719,91.453,91.453,0,0,1-86.8,120.168ZM16.876,135.1h0a3.047,3.047,0,0,1-2.781-1.75,96.243,96.243,0,0,1-3.874-9.686A90.792,90.792,0,0,1,5.878,85.135c.125-1.375.312-2.812.531-4.187A91.47,91.47,0,0,1,124.39,6.96c.125.031.219.062.312.094l1.187.375a91.792,91.792,0,0,1,40.056,26.683,3.033,3.033,0,1,1-4.562,4,86.068,86.068,0,0,0-37.432-24.934l-.437-.156c-.219-.062-.406-.125-.625-.187-.062,0-.094-.031-.156-.031A85.434,85.434,0,0,0,12.377,81.855c-.187,1.281-.375,2.531-.469,3.843a84.867,84.867,0,0,0,4.062,35.994c1.062,3.093,2.25,6.062,3.531,8.874a3.018,3.018,0,0,1-2.625,4.531Z" transform="translate(11.465 0)" fill="#fff"/><path d="M113.771,159.558a9.559,9.559,0,0,1-2.312-.281c-4.968-1.219-7.561-5.905-8.717-8.749-6.093-.187-10.936,1.968-13.935,3.312-1.812.812-3.374,1.5-4.749,1.281-1.469.219-5.093.812-5.718.937a3.064,3.064,0,0,1-3.718-3.562c.344-5.749.187-8.186.031-9.124a2.955,2.955,0,0,1-.875-1.625,3.047,3.047,0,0,1,2.406-3.562,3.516,3.516,0,0,1,2.906.781c1.156,1,2.031,2.5,1.75,10.4a20.733,20.733,0,0,1,3.687-.344c.375-.125,1.156-.469,1.812-.781,3.624-1.625,10.373-4.656,19-3.687a3.039,3.039,0,0,1,2.593,2.25c.406,1.469,2.187,5.812,5.03,6.5,2.437.594,6-1.5,9.967-5.874a2.61,2.61,0,0,1,.937-.687c1.344-.656,1.5-1.375,1.344-2.281-.656-3.718-8.311-11.311-23.84-12.9a3.03,3.03,0,0,1,.594-6.03c17.247,1.75,27.9,10.53,29.183,17.872a7.818,7.818,0,0,1-4.124,8.5C122.3,157.027,117.864,159.558,113.771,159.558Zm-27.527-9.873Zm0,0Zm-1.656-.562a6.04,6.04,0,0,1,.844.125A3.057,3.057,0,0,0,84.588,149.122Zm-7.28-4.905Zm16.31-42.649a2.631,2.631,0,0,1-.844-.125,3.043,3.043,0,0,1-2.093-3.749,40.757,40.757,0,0,1,1.812-5.218,20.754,20.754,0,0,0,0-11.9A11.182,11.182,0,0,1,87.338,83.7a10.615,10.615,0,0,1-4.718.156,27.147,27.147,0,0,1-9.03,13c-3.874,2.843-6.936,2.625-8.811,1.906a3.077,3.077,0,0,1-1.156-.75c-5.187-5.5-9.967-17.4-10.186-17.9a3.034,3.034,0,0,1,.781-3.374c2.531-2.25,2.187-5.468,1.656-7.436a10.248,10.248,0,0,1-7.749-5.155,3.115,3.115,0,0,1-.156-2.531,19.173,19.173,0,0,0,.844-5.624,8.558,8.558,0,0,1-7.061-4.968,2.94,2.94,0,0,1-.156-2.062,11.5,11.5,0,0,0-.5-6.28c-2.156-5.937,6.28-13.81,8.9-16.091,11.342-8.436,19.684-4.593,25.183-2.031,1,.469,1.937.906,2.843,1.25,4.687-3.687,4.5-6.343,4.312-8.9-.125-1.906-.281-4.281,1.562-6.28,2.468-2.656,7.468-3.562,19.778-3.593h0a2.365,2.365,0,0,1,.469.031c1.156.187,11.342,1.937,15.06,8.03a9.251,9.251,0,0,1,1.281,6.03c2.25,1.968,4.5,4.374,5.03,6.405.437,1.406,2,7.061-1.344,10.342-2.093,2.031-5.28,2.437-9.467,1.156a10.535,10.535,0,0,0-5.718,6.468,8.741,8.741,0,0,1,4.468,2.093c1.375,1.25,2.906,3.624,2.593,7.811.312,1.843,1.5,6.249,3.968,7.5,1.281.625,3.031.344,5.187-.844a23.852,23.852,0,0,1,10.842-2.656l.094,6.062h-.031a18.225,18.225,0,0,0-8.03,1.906c-5,2.75-8.655,2.031-10.842.906-5.905-3-7.155-11.467-7.28-12.4a2.533,2.533,0,0,1,0-.687c.125-1.062.094-2.437-.594-3.093-.844-.781-2.75-.75-3.531-.594a3.183,3.183,0,0,1-2.625-.75,3.1,3.1,0,0,1-.969-2.531c1.281-12.623,11.279-15.216,11.686-15.31a3.046,3.046,0,0,1,1.75.094c2.937,1.031,4.093.719,4.249.594.437-.437.344-2.625-.187-4.218l-.094-.375a30.385,30.385,0,0,0-4.437-4.343,3.107,3.107,0,0,1-.969-3.312,3.3,3.3,0,0,0-.219-3.031c-1.843-3.062-8.186-4.749-10.592-5.155-12.342.062-14.685,1.187-15.123,1.656a11.062,11.062,0,0,0,.031,1.718c.219,3.374.625,9.061-8.061,15.185a3.07,3.07,0,0,1-2.5.469,29.678,29.678,0,0,1-5.187-2.031c-5.437-2.531-10.561-4.905-18.841,1.281-3.718,3.218-7.28,7.9-7,9.28a17.551,17.551,0,0,1,.937,8.561c1.187,1.281,3.374.75,3.406.75a3.04,3.04,0,0,1,2.531.5,2.994,2.994,0,0,1,1.219,2.281,37.335,37.335,0,0,1-.719,9.436A3.864,3.864,0,0,0,57.5,63.355a3.021,3.021,0,0,1,3.156,1.625c1.531,3.062,3.062,9.655-.875,14.748,1.375,3.156,4.468,9.842,7.624,13.56A5.277,5.277,0,0,0,70,92.1c4-2.937,7.343-9.217,7.186-12.123a3.033,3.033,0,0,1,4.749-2.656h0a5.325,5.325,0,0,0,3.874.625c2.156-.594,3.718-3.062,4.624-5a3.054,3.054,0,0,1,2.625-1.75,2.91,2.91,0,0,1,2.75,1.531c.25.437,6.062,10.78,2.343,22.028-.094.281-.875,2.093-1.625,4.718A3.07,3.07,0,0,1,93.618,101.567ZM26.91,127.095a3.017,3.017,0,0,1-2.406-1.187c-.906-1.187-3.687-4.874-4.718-5.437-4.343-2.406-8.186-15.154-10.092-22.528a4.165,4.165,0,0,1-.094-.875c.406-9.9,11.4-15,11.873-15.216a3.152,3.152,0,0,1,2.843.156,3.021,3.021,0,0,1,1.437,2.437c.062,1,3.093,2.593,6.218,3.281,3.093-.437,8.092.406,10.342,3.812,1.062,1.625,2.312,5.124-1.437,10.217a5.08,5.08,0,0,0-1.187,4.093c.469,2.281,2.968,4.156,3.874,4.687a3.018,3.018,0,0,1,1.156,1.187c1.187,2.187,3.187,4.843,4.343,5.343a3.036,3.036,0,0,1-2.437,5.562c-3.124-1.375-5.812-5.5-6.874-7.343-1.593-1.094-5.093-3.874-6-8.186a10.967,10.967,0,0,1,2.218-8.967c1.25-1.718,1.531-2.906,1.281-3.312-.562-.875-3.062-1.469-4.624-1.125a3.2,3.2,0,0,1-1.219.031c-1.406-.25-7.124-1.5-10-4.905-2.312,1.593-5.343,4.343-5.687,8,2.25,8.655,5.53,17.154,7.093,18.31,1.75.969,3.656,3.218,6.561,7.03a3.062,3.062,0,0,1-.562,4.249A3.109,3.109,0,0,1,26.91,127.095Z" transform="translate(20.398 9.189)" fill="#fff"/><path d="M47.557,163.3c-24.059,0-35.776-10.342-41.337-19C-5.153,126.648-.841,103.058,18.406,77.874a3.031,3.031,0,1,1,4.812,3.687C13.063,94.9-2.029,120.336,11.313,141.02c4.749,7.405,14.9,16.216,36.244,16.216,1.156,0,2.281-.031,3.468-.094,22.746-.969,51.148-11.467,77.956-28.87,22.4-14.529,41.087-32.245,52.617-49.867a90.661,90.661,0,0,0,8-14.9c7.624-18.4,3.781-30.714-.781-37.775-4.749-7.374-14.9-16.185-36.244-16.185A92.426,92.426,0,0,0,135.637,11.2a3.034,3.034,0,0,1-1.094-5.968A99.154,99.154,0,0,1,152.6,3.48c24.09,0,35.776,10.311,41.337,18.966,4.374,6.78,10.342,21.465,1.281,43.368a94.47,94.47,0,0,1-8.53,15.9c-11.967,18.31-31.307,36.65-54.4,51.617-27.683,17.935-57.21,28.808-80.987,29.839C50.057,163.267,48.807,163.3,47.557,163.3Z" transform="translate(0 1.668)" fill="#fff"/><path d="M35.211,133.941a50.078,50.078,0,0,1-13.435-1.656c-6.968-1.937-12.154-5.5-15.435-10.53-6.374-9.9-4.343-24.34,5.687-40.619a3.022,3.022,0,1,1,5.155,3.156C8.434,98.478,6.4,110.6,11.433,118.444c2.437,3.749,6.468,6.436,11.967,7.967,19.466,5.343,53.679-4.749,85.174-25.183,31.87-20.684,55.116-48.117,57.835-68.239.75-5.405-.094-9.967-2.437-13.623-4.968-7.718-16.654-10.811-32.932-8.78a3.007,3.007,0,1,1-.75-5.968c18.716-2.375,32.495,1.718,38.775,11.5,3.156,4.905,4.281,10.873,3.343,17.716-3,22.121-26.746,50.586-60.553,72.52C84.8,123.911,56.395,133.941,35.211,133.941Z" transform="translate(5.723 2.686)" fill="#fff"/></g></svg>