<svg xmlns="http://www.w3.org/2000/svg" width="1000" height="1000" viewBox="0 0 1000 1000"><g transform="translate(2971 -7894)"><g transform="translate(728 -39)"><g transform="translate(2335 1117)"><g transform="translate(-6034 6816)" fill="none" stroke="#000" stroke-width="5"><rect width="1000" height="1000" stroke="none"/><rect x="2.5" y="2.5" width="995" height="995" fill="none"/></g></g><path d="M295,171.03a67.818,67.818,0,0,0-94.2-.014l-24.485,23.733,15.691,15.467,24.32-23.661a45.343,45.343,0,0,1,62.976-.01,42.629,42.629,0,0,1,.01,61.2,45.343,45.343,0,0,1-62.982.005l-78.6-76.734a67.82,67.82,0,0,0-94.2.009,64.224,64.224,0,0,0,0,92.245,67.82,67.82,0,0,0,94.2.009l24.415-23.748-15.708-15.349L122.13,247.748a45.342,45.342,0,0,1-62.975.01,42.627,42.627,0,0,1-.01-61.2,45.343,45.343,0,0,1,62.981-.005l78.6,76.734a67.819,67.819,0,0,0,94.188,0A64.161,64.161,0,0,0,295,171.03Z" transform="translate(-3054.521 7846.281)" fill="none" stroke="#01579b" stroke-width="5"/></g><g transform="translate(-2733.004 8123.5)"><path d="M59.831,94.17A46.335,46.335,0,1,0,13.5,47.835,46.376,46.376,0,0,0,59.831,94.17Zm0-74.136a27.8,27.8,0,1,1-27.8,27.8A27.835,27.835,0,0,1,59.831,20.034Z" transform="translate(219.034 0)" fill="none" stroke="#000" stroke-width="5"/><path d="M47.339,25.5A46.335,46.335,0,1,0,93.674,71.835,46.376,46.376,0,0,0,47.339,25.5Zm0,74.136a27.8,27.8,0,1,1,27.8-27.8A27.835,27.835,0,0,1,47.339,99.636Z" transform="translate(0 420.815)" fill="none" stroke="#000" stroke-width="5"/><path d="M72.331,25.5a46.335,46.335,0,1,0,46.335,46.335A46.376,46.376,0,0,0,72.331,25.5Zm0,74.136a27.8,27.8,0,1,1,27.8-27.8A27.835,27.835,0,0,1,72.331,99.636Z" transform="translate(438.209 420.815)" fill="none" stroke="#000" stroke-width="5"/><path d="M59.339,25.5a46.335,46.335,0,1,0,46.335,46.335A46.376,46.376,0,0,0,59.339,25.5Zm0,74.136a27.8,27.8,0,1,1,27.8-27.8A27.835,27.835,0,0,1,59.339,99.636Z" transform="translate(210.408 420.815)" fill="none" stroke="#000" stroke-width="5"/><path d="M53.339,106.17A46.335,46.335,0,1,0,7,59.835,46.376,46.376,0,0,0,53.339,106.17Zm0-74.136a27.8,27.8,0,1,1-27.8,27.8A27.835,27.835,0,0,1,53.339,32.034Z" transform="translate(105.204 210.408)" fill="none" stroke="#000" stroke-width="5"/><path d="M112.674,59.835A46.335,46.335,0,1,0,66.339,106.17,46.376,46.376,0,0,0,112.674,59.835Zm-74.136,0a27.8,27.8,0,1,1,27.8,27.8A27.835,27.835,0,0,1,38.538,59.835Z" transform="translate(333.145 210.408)" fill="none" stroke="#000" stroke-width="5"/><path d="M18.271,100.17A9.267,9.267,0,0,0,27.538,90.9V72.369A9.294,9.294,0,0,1,36.8,63.1h83.4a27.559,27.559,0,0,0,18.534-7.228A27.559,27.559,0,0,0,157.276,63.1h83.4a9.294,9.294,0,0,1,9.267,9.267V90.9a9.267,9.267,0,1,0,18.534,0V72.369a27.835,27.835,0,0,0-27.8-27.8h-83.4a9.286,9.286,0,0,1-9.267-9.267V16.767a9.267,9.267,0,1,0-18.534,0V35.3a9.294,9.294,0,0,1-9.267,9.267H36.8A27.835,27.835,0,0,0,9,72.369V90.9A9.267,9.267,0,0,0,18.271,100.17Z" transform="translate(140.272 105.204)" fill="none" stroke="#01579b" stroke-width="5"/><path d="M225.412,84.369V102.9a9.267,9.267,0,1,0,18.534,0V84.369a27.835,27.835,0,0,0-27.8-27.8H142.009a9.285,9.285,0,0,1-9.267-9.267V28.767a9.267,9.267,0,0,0-18.534,0V47.3a9.294,9.294,0,0,1-9.267,9.267H30.8A27.835,27.835,0,0,0,3,84.369V102.9a9.267,9.267,0,1,0,18.534,0V84.369A9.294,9.294,0,0,1,30.8,75.1h74.136a27.559,27.559,0,0,0,18.534-7.228A27.559,27.559,0,0,0,142.009,75.1h74.136A9.294,9.294,0,0,1,225.412,84.369Z" transform="translate(35.068 315.611)" fill="none" stroke="#01579b" stroke-width="5"/><path d="M133.208,84.369V102.9a9.267,9.267,0,0,0,18.534,0V84.369a27.835,27.835,0,0,0-27.8-27.8H49.8A9.286,9.286,0,0,1,40.538,47.3V28.767a9.267,9.267,0,0,0-18.534,0V47.3A27.835,27.835,0,0,0,49.8,75.1h74.136A9.294,9.294,0,0,1,133.208,84.369Z" transform="translate(368.213 315.611)" fill="none" stroke="#01579b" stroke-width="5"/></g></g></svg>