<svg xmlns="http://www.w3.org/2000/svg" xmlns:xlink="http://www.w3.org/1999/xlink" width="16.908" height="16.908" viewBox="0 0 16.908 16.908">
  <defs>
    <linearGradient id="linear-gradient" x1="0.117" y1="0.5" x2="0.979" y2="0.5" gradientUnits="objectBoundingBox">
      <stop offset="0" stop-color="#cb218e"/>
      <stop offset="1" stop-color="#6617cb"/>
    </linearGradient>
  </defs>
  <path id="Union_11" data-name="Union 11" d="M8490.277-4760.677a7.951,7.951,0,0,0-6.824,3.865,7.92,7.92,0,0,0-1.13,4.089,7.917,7.917,0,0,0,1.13,4.089,7.951,7.951,0,0,0,6.824,3.865,7.95,7.95,0,0,0,6.823-3.865,7.908,7.908,0,0,0,1.131-4.089,7.911,7.911,0,0,0-1.131-4.089A7.949,7.949,0,0,0,8490.277-4760.677Z" transform="translate(-8481.823 4761.177)" stroke="rgba(0,0,0,0)" stroke-miterlimit="10" stroke-width="1" fill="url(#linear-gradient)"/>
</svg>
