<svg xmlns="http://www.w3.org/2000/svg" xmlns:xlink="http://www.w3.org/1999/xlink" width="44.177" height="55.971" viewBox="0 0 44.177 55.971"><defs><linearGradient id="a" x1="0.5" x2="0.5" y2="1" gradientUnits="objectBoundingBox"><stop offset="0" stop-color="#3e8ea2"/><stop offset="1" stop-color="#55c39e"/></linearGradient></defs><path d="M22.088,55.971h0a59.423,59.423,0,0,1-11.044-7.7,39.263,39.263,0,0,1-7.593-8.833A21.982,21.982,0,0,1,0,27.986V5.6L22.088,0,44.177,5.6V27.986a21.982,21.982,0,0,1-3.451,11.456,39.262,39.262,0,0,1-7.593,8.833,59.424,59.424,0,0,1-11.044,7.7ZM15.482,25.866a1.154,1.154,0,0,0-1.145,1.16V36.89a1.154,1.154,0,0,0,1.145,1.161H28.649a1.154,1.154,0,0,0,1.145-1.161V27.026a1.154,1.154,0,0,0-1.145-1.16H27.5V23.835a5.439,5.439,0,1,0-10.877,0v2.031Zm14.6-3.482a.87.87,0,0,0,0,1.741h3.435a.87.87,0,0,0,0-1.741Zm-19.464,0a.87.87,0,0,0,0,1.741h3.435a.87.87,0,0,0,0-1.741Zm3.186-7.8h0a.843.843,0,0,0-.605.253.885.885,0,0,0,0,1.231l2.542,2.577a.85.85,0,0,0,1.214,0,.88.88,0,0,0,0-1.231l-2.542-2.577A.853.853,0,0,0,13.8,14.587Zm16.532,0h-.007a.841.841,0,0,0-.6.254l-2.542,2.577a.886.886,0,0,0,0,1.231.853.853,0,0,0,1.214,0l2.543-2.577a.885.885,0,0,0,0-1.231A.843.843,0,0,0,30.334,14.587Zm-8.269-3.227a.866.866,0,0,0-.859.871v3.482a.859.859,0,1,0,1.718,0V12.23A.866.866,0,0,0,22.065,11.359Zm0,23.21a.865.865,0,0,1-.859-.87V32.531a1.431,1.431,0,1,1,1.718,0V33.7A.865.865,0,0,1,22.065,34.569Zm2-8.7H20.062V23.835a2,2,0,1,1,4.008,0v2.031Z" fill="url(#a)"/></svg>