<svg xmlns="http://www.w3.org/2000/svg" width="1000" height="1000" viewBox="0 0 1000 1000"><g transform="translate(9924 -8680)"><g transform="translate(-6953 786)"><g transform="translate(728 -39)"><g transform="translate(2335 1117)"><g transform="translate(-6034 6816)" fill="none" stroke="#000" stroke-width="5"><rect width="1000" height="1000" stroke="none"/><rect x="2.5" y="2.5" width="995" height="995" fill="none"/></g></g></g><path d="M227.726,81.153C219.726,39.455,184.017,8,141.189,8c-34,0-63.476,19.879-78.242,48.91C27.591,60.849,0,91.7,0,129.214c0,40.182,31.591,72.728,70.595,72.728H223.549c32.474,0,58.829-27.152,58.829-60.607C282.378,109.335,258.2,83.4,227.726,81.153ZM223.549,177.7H70.595c-26,0-47.063-21.7-47.063-48.486S44.592,80.728,70.595,80.728h8.354c7.707-27.94,32.591-48.486,62.241-48.486,35.768,0,64.712,29.819,64.712,66.668v6.061h17.649c19.472,0,35.3,16.3,35.3,36.364S243.022,177.7,223.549,177.7Z" transform="translate(-2291.218 7934.844)" fill="none" stroke="#01579b" stroke-width="5"/></g><path d="M653.885,196.231C624.722,167.708,585.837,152,544.394,152s-80.325,15.708-109.453,44.2L378.03,251.361,414.5,287.31l56.528-54.994a105.391,105.391,0,0,1,146.376-.023,99.082,99.082,0,0,1,.023,142.256,105.392,105.392,0,0,1-146.389.012L288.35,196.205A156.147,156.147,0,0,0,178.883,152c-41.443,0-80.325,15.708-109.482,44.225A148.967,148.967,0,0,0,24,303.422c-.035,40.511,16.088,78.589,45.394,107.211,29.164,28.523,68.048,44.231,109.49,44.231s80.324-15.708,109.472-44.211l56.748-55.2-36.511-35.677-56.508,54.77a105.389,105.389,0,0,1-146.374.023,99.079,99.079,0,0,1-.023-142.256,105.39,105.39,0,0,1,146.387-.012L434.762,410.657a156.136,156.136,0,0,0,109.465,44.207c41.441,0,80.324-15.708,109.458-44.2a149.13,149.13,0,0,0,.2-214.434Z" transform="translate(-9785.521 8923.281)" fill="none" stroke="#01579b" stroke-width="5"/></g></svg>