<svg xmlns="http://www.w3.org/2000/svg" width="1000" height="1000" viewBox="0 0 1000 1000"><g transform="translate(3699 -7933)"><g transform="translate(2335 1117)"><g transform="translate(-6034 6816)" fill="none" stroke="#000" stroke-width="5"><rect width="1000" height="1000" stroke="none"/><rect x="2.5" y="2.5" width="995" height="995" fill="none"/></g></g><path d="M295,171.03a67.818,67.818,0,0,0-94.2-.014l-24.485,23.733,15.691,15.467,24.32-23.661a45.343,45.343,0,0,1,62.976-.01,42.629,42.629,0,0,1,.01,61.2,45.343,45.343,0,0,1-62.982.005l-78.6-76.734a67.82,67.82,0,0,0-94.2.009,64.224,64.224,0,0,0,0,92.245,67.82,67.82,0,0,0,94.2.009l24.415-23.748-15.708-15.349L122.13,247.748a45.342,45.342,0,0,1-62.975.01,42.627,42.627,0,0,1-.01-61.2,45.343,45.343,0,0,1,62.981-.005l78.6,76.734a67.819,67.819,0,0,0,94.188,0A64.161,64.161,0,0,0,295,171.03Z" transform="translate(-3054.521 7846.281)" fill="none" stroke="#01579b" stroke-width="5"/><g transform="translate(-3513.719 8131.152)"><path d="M241.162,113.47h20.264a22.293,22.293,0,0,0,22.293-22.293V79.027a22.293,22.293,0,0,0-22.293-22.293H241.14V0A156.111,156.111,0,0,0,90.98,113.456l-68.688.014A22.293,22.293,0,0,0,0,135.762v40.573a22.293,22.293,0,0,0,22.293,22.293H90.976A156.115,156.115,0,0,0,241.162,312.1V255.362h20.264a22.293,22.293,0,0,0,22.293-22.293V220.92a22.293,22.293,0,0,0-22.293-22.293H241.14V113.47Z" transform="translate(630.371 218.287) rotate(135)" fill="none" stroke="#4a4a4a" stroke-width="5" fill-rule="evenodd"/><path d="M90.976,113.492H22.293A22.293,22.293,0,0,0,0,135.785v40.528a22.293,22.293,0,0,0,22.293,22.293H90.954A156.115,156.115,0,0,0,241.14,312.1V0A156.116,156.116,0,0,0,90.954,113.493Z" transform="translate(-1.586 408.868) rotate(-45)" fill="none" stroke="#000" stroke-width="5" fill-rule="evenodd"/><path d="M241.162,113.47h20.264a22.293,22.293,0,0,0,22.293-22.293V79.027a22.293,22.293,0,0,0-22.293-22.293H241.14V0A156.111,156.111,0,0,0,90.98,113.456l-68.688.014A22.293,22.293,0,0,0,0,135.762v40.573a22.293,22.293,0,0,0,22.293,22.293H90.976A156.115,156.115,0,0,0,241.162,312.1V255.362h20.264a22.293,22.293,0,0,0,22.293-22.293V220.92a22.293,22.293,0,0,0-22.293-22.293H241.14V113.47Z" transform="translate(630.371 218.287) rotate(135)" fill="none" stroke="#4a4a4a" stroke-width="5" fill-rule="evenodd"/></g><path d="M76.457,64.315a.878.878,0,0,1-.806-1.223l7.181-16.744H65.675a.877.877,0,0,1-.653-1.464L89.112,18.09a.877.877,0,0,1,1.455.942l-7.6,17.187H99.4a.877.877,0,0,1,.662,1.454L77.12,64.014A.877.877,0,0,1,76.457,64.315Z" transform="matrix(0.966, 0.259, -0.259, 0.966, -3232.97, 8449.453)" fill="#01579b"/><path d="M76.457,64.315a.878.878,0,0,1-.806-1.223l7.181-16.744H65.675a.877.877,0,0,1-.653-1.464L89.112,18.09a.877.877,0,0,1,1.455.942l-7.6,17.187H99.4a.877.877,0,0,1,.662,1.454L77.12,64.014A.877.877,0,0,1,76.457,64.315Z" transform="matrix(0.966, 0.259, -0.259, 0.966, -3334.97, 8347.453)" fill="#01579b"/></g></svg>