<svg xmlns="http://www.w3.org/2000/svg" width="1000" height="1000" viewBox="0 0 1000 1000"><g transform="translate(6529 -7428)"><g transform="translate(-3558 -466)"><g transform="translate(728 -39)"><g transform="translate(2335 1117)"><g transform="translate(-6034 6816)" fill="none" stroke="#000" stroke-width="5"><rect width="1000" height="1000" stroke="none"/><rect x="2.5" y="2.5" width="995" height="995" fill="none"/></g></g><path d="M295,171.03a67.818,67.818,0,0,0-94.2-.014l-24.485,23.733,15.691,15.467,24.32-23.661a45.343,45.343,0,0,1,62.976-.01,42.629,42.629,0,0,1,.01,61.2,45.343,45.343,0,0,1-62.982.005l-78.6-76.734a67.82,67.82,0,0,0-94.2.009,64.224,64.224,0,0,0,0,92.245,67.82,67.82,0,0,0,94.2.009l24.415-23.748-15.708-15.349L122.13,247.748a45.342,45.342,0,0,1-62.975.01,42.627,42.627,0,0,1-.01-61.2,45.343,45.343,0,0,1,62.981-.005l78.6,76.734a67.819,67.819,0,0,0,94.188,0A64.161,64.161,0,0,0,295,171.03Z" transform="translate(-3054.521 7846.281)" fill="none" stroke="#01579b" stroke-width="5"/></g><g transform="translate(-2704 8182.426)"><path d="M403.87,145.956a31.344,31.344,0,0,0-10.171-16.65,37.24,37.24,0,0,0-18.837-8.507L264.924,99.524l31.8,21.106L246.514,278.04,218.237,161.112,189.952,278.04l-50.2-157.408,31.8-21.106L61.6,120.8a37.193,37.193,0,0,0-18.832,8.507A31.313,31.313,0,0,0,32.6,145.959L0,289.129l61.48,21.345c20.429,21.214,77.564,36.825,146.1,38.309h21.306c68.541-1.482,125.676-17.1,146.095-38.309l61.49-21.345Z" transform="translate(0 150.86)" fill="none" stroke="#01579b" stroke-width="5"/><path d="M100.334,105.735l-25.347,9.08,25.347,36.537,25.342-36.537Z" transform="translate(117.9 160.625)" fill="none" stroke="#707070" stroke-width="5"/><path d="M241.429,121.772c0-64.981-26.736-115.907-94.086-115.907S53.252,56.791,53.252,121.772c-7.043,3.678-11.665,12.3-4.754,30.782,3.493,9.283,9.646,17.059,14.86,21.129,19.192,47.788,56.942,84.682,83.985,84.682s64.785-36.9,83.975-84.682c5.224-4.069,11.369-11.843,14.857-21.129C253.1,134.072,248.477,125.448,241.429,121.772Z" transform="translate(70.892 3.602)" fill="none" stroke="#01579b" stroke-width="5"/><g transform="translate(271.866 3.574)"><path d="M177.889,40.985H127.925c.322,2.84.594,5.716.81,8.656h49.151V40.985Z" transform="translate(-70.733 55.246)" fill="none" stroke="#000" stroke-width="5"/><path d="M282.555,29.385H125.613c.844,2.817,1.579,5.721,2.279,8.661H282.555Z" transform="translate(-74.368 37.008)" fill="none" stroke="#000" stroke-width="5"/><path d="M342.366,9.493a20.17,20.17,0,0,0-14.292-5.919H105.691a94.833,94.833,0,0,1,26.132,20.208H328.075V165.231H273.992l-40.938,40.943V165.231H166.8a72.019,72.019,0,0,1-12.967,20.213h59.016v55.577a5.771,5.771,0,0,0,9.854,4.08l59.664-59.659h45.712a20.208,20.208,0,0,0,20.205-20.213V23.782A20.145,20.145,0,0,0,342.366,9.493Z" transform="translate(-105.691 -3.574)" fill="none" stroke="#000" stroke-width="5"/><path d="M290.5,17.79H120.563q2.516,4.171,4.743,8.661H290.5Z" transform="translate(-82.308 18.777)" fill="none" stroke="#000" stroke-width="5"/></g></g></g><g transform="translate(-6262 7716.426)"><path d="M403.87,145.956a31.344,31.344,0,0,0-10.171-16.65,37.24,37.24,0,0,0-18.837-8.507L264.924,99.524l31.8,21.106L246.514,278.04,218.237,161.112,189.952,278.04l-50.2-157.408,31.8-21.106L61.6,120.8a37.193,37.193,0,0,0-18.832,8.507A31.313,31.313,0,0,0,32.6,145.959L0,289.129l61.48,21.345c20.429,21.214,77.564,36.825,146.1,38.309h21.306c68.541-1.482,125.676-17.1,146.095-38.309l61.49-21.345Z" transform="translate(0 150.86)" fill="none" stroke="#01579b" stroke-width="5"/><path d="M100.334,105.735l-25.347,9.08,25.347,36.537,25.342-36.537Z" transform="translate(117.9 160.625)" fill="none" stroke="#707070" stroke-width="5"/><path d="M241.429,121.772c0-64.981-26.736-115.907-94.086-115.907S53.252,56.791,53.252,121.772c-7.043,3.678-11.665,12.3-4.754,30.782,3.493,9.283,9.646,17.059,14.86,21.129,19.192,47.788,56.942,84.682,83.985,84.682s64.785-36.9,83.975-84.682c5.224-4.069,11.369-11.843,14.857-21.129C253.1,134.072,248.477,125.448,241.429,121.772Z" transform="translate(70.892 3.602)" fill="none" stroke="#01579b" stroke-width="5"/><g transform="translate(271.866 3.574)"><path d="M177.889,40.985H127.925c.322,2.84.594,5.716.81,8.656h49.151V40.985Z" transform="translate(-70.733 55.246)" fill="none" stroke="#000" stroke-width="5"/><path d="M282.555,29.385H125.613c.844,2.817,1.579,5.721,2.279,8.661H282.555Z" transform="translate(-74.368 37.008)" fill="none" stroke="#000" stroke-width="5"/><path d="M342.366,9.493a20.17,20.17,0,0,0-14.292-5.919H105.691a94.833,94.833,0,0,1,26.132,20.208H328.075V165.231H273.992l-40.938,40.943V165.231H166.8a72.019,72.019,0,0,1-12.967,20.213h59.016v55.577a5.771,5.771,0,0,0,9.854,4.08l59.664-59.659h45.712a20.208,20.208,0,0,0,20.205-20.213V23.782A20.145,20.145,0,0,0,342.366,9.493Z" transform="translate(-105.691 -3.574)" fill="none" stroke="#000" stroke-width="5"/><path d="M290.5,17.79H120.563q2.516,4.171,4.743,8.661H290.5Z" transform="translate(-82.308 18.777)" fill="none" stroke="#000" stroke-width="5"/></g></g></g></svg>