<svg xmlns="http://www.w3.org/2000/svg" width="1000" height="1000" viewBox="0 0 1000 1000"><g transform="translate(6419 -7898)"><g transform="translate(-385 1082)"><g transform="translate(-6034 6816)" fill="none" stroke="#000" stroke-width="5"><rect width="1000" height="1000" stroke="none"/><rect x="2.5" y="2.5" width="995" height="995" fill="none"/></g></g><path d="M295,171.03a67.818,67.818,0,0,0-94.2-.014l-24.485,23.733,15.691,15.467,24.32-23.661a45.343,45.343,0,0,1,62.976-.01,42.629,42.629,0,0,1,.01,61.2,45.343,45.343,0,0,1-62.982.005l-78.6-76.734a67.82,67.82,0,0,0-94.2.009,64.224,64.224,0,0,0,0,92.245,67.82,67.82,0,0,0,94.2.009l24.415-23.748-15.708-15.349L122.13,247.748a45.342,45.342,0,0,1-62.975.01,42.627,42.627,0,0,1-.01-61.2,45.343,45.343,0,0,1,62.981-.005l78.6,76.734a67.819,67.819,0,0,0,94.188,0A64.161,64.161,0,0,0,295,171.03Z" transform="translate(-5774.521 7811.281)" fill="none" stroke="#01579b" stroke-width="5"/><path d="M139.845,2a9.584,9.584,0,0,0-9.547,9.547V49.737a9.547,9.547,0,0,0,19.095,0V11.547A9.584,9.584,0,0,0,139.845,2Zm-91.9,35.408a9.531,9.531,0,0,0-6.76,16.281L69.456,81.956a9.547,9.547,0,1,0,13.5-13.5L54.7,40.189A9.484,9.484,0,0,0,47.949,37.4Zm183.793,0a9.484,9.484,0,0,0-6.747,2.781l-28.26,28.266a9.544,9.544,0,0,0,13.494,13.5L238.5,53.7A9.541,9.541,0,0,0,231.735,37.4Zm-91.9,40.971a60.6,60.6,0,0,0-60.466,60.467v22.277H66.649a12.751,12.751,0,0,0-12.73,12.73v108.2a12.751,12.751,0,0,0,12.73,12.73H213.041a12.751,12.751,0,0,0,12.73-12.73v-108.2a12.751,12.751,0,0,0-12.73-12.73h-12.73V138.845A60.6,60.6,0,0,0,139.845,78.379Zm0,38.189a22.569,22.569,0,0,1,22.277,22.277v22.277H117.568V138.845A22.569,22.569,0,0,1,139.845,116.568Zm-127.3,6.365a9.547,9.547,0,1,0,0,19.095H50.737a9.547,9.547,0,1,0,0-19.095Zm216.406,0a9.547,9.547,0,0,0,0,19.095h38.189a9.547,9.547,0,0,0,0-19.095Zm-89.109,82.744a15.861,15.861,0,0,1,9.547,28.566v12.806a9.547,9.547,0,0,1-19.095,0V234.242a15.861,15.861,0,0,1,9.547-28.566Z" transform="translate(-6059 8250)" fill="none" stroke="#000" stroke-width="5"/><g transform="translate(-6168.486 8132.393)"><g transform="translate(4 1)"><g transform="translate(0)"><path d="M245.588,613.971S491.177,491.177,491.177,306.985V61.4L245.588,0,0,61.4V306.985C0,491.177,245.588,613.971,245.588,613.971Z" fill="none" stroke="#01579b" stroke-linecap="round" stroke-linejoin="round" stroke-width="10" fill-rule="evenodd"/></g></g></g></g></svg>