<svg xmlns="http://www.w3.org/2000/svg" width="46.286" height="46.286" viewBox="0 0 46.286 46.286" class="ico"><path d="M41-1.946A1.929,1.929,0,0,0,39.071-.018V3.034A19.217,19.217,0,0,0,36.1,4.254L33.948,2.107a1.929,1.929,0,0,0-2.727,0L25.767,7.561a1.929,1.929,0,0,0,0,2.727l2.155,2.155a19.174,19.174,0,0,0-1.236,2.968H23.642a1.929,1.929,0,0,0-1.929,1.928v7.715a1.929,1.929,0,0,0,1.928,1.929h3.051a19.176,19.176,0,0,0,1.22,2.975l-2.147,2.147a1.929,1.929,0,0,0,0,2.727l5.454,5.454a1.929,1.929,0,0,0,2.727,0L36.1,38.133a19.186,19.186,0,0,0,2.968,1.235v3.044A1.929,1.929,0,0,0,41,44.34h7.715a1.929,1.929,0,0,0,1.929-1.928V39.36a19.149,19.149,0,0,0,2.976-1.22l2.147,2.147a1.929,1.929,0,0,0,2.727,0l5.454-5.454a1.929,1.929,0,0,0,0-2.727l-2.155-2.155a19.152,19.152,0,0,0,1.235-2.968h3.044A1.929,1.929,0,0,0,68,25.055V17.34a1.929,1.929,0,0,0-1.928-1.929H63.02a19.218,19.218,0,0,0-1.22-2.976l2.147-2.147a1.929,1.929,0,0,0,0-2.727L58.493,2.107a1.929,1.929,0,0,0-2.727,0L53.611,4.262a19.191,19.191,0,0,0-2.968-1.236V-.017a1.929,1.929,0,0,0-1.928-1.929Zm1.929,3.857h3.857V4.292a1.929,1.929,0,0,0,1.5,1.883,15.441,15.441,0,0,1,4.776,1.974,1.929,1.929,0,0,0,2.388-.271l1.68-1.68,2.727,2.727L58.184,10.6a1.929,1.929,0,0,0-.271,2.388,15.4,15.4,0,0,1,1.959,4.776,1.929,1.929,0,0,0,1.883,1.507h2.388v3.857H61.762a1.929,1.929,0,0,0-1.883,1.5A15.437,15.437,0,0,1,57.9,29.4a1.929,1.929,0,0,0,.271,2.388l1.68,1.68L57.129,36.2l-1.672-1.673a1.929,1.929,0,0,0-2.388-.271,15.391,15.391,0,0,1-4.776,1.959,1.929,1.929,0,0,0-1.507,1.883v2.388H42.928V38.1a1.929,1.929,0,0,0-1.5-1.883,15.441,15.441,0,0,1-4.776-1.974,1.929,1.929,0,0,0-2.388.263l-1.68,1.68-2.727-2.727L31.53,31.79A1.929,1.929,0,0,0,31.8,29.4a15.4,15.4,0,0,1-1.959-4.776,1.929,1.929,0,0,0-1.883-1.507H25.571V19.261h2.381a1.929,1.929,0,0,0,1.884-1.5,15.435,15.435,0,0,1,1.974-4.776,1.929,1.929,0,0,0-.271-2.388l-1.68-1.68L32.585,6.19l1.672,1.672a1.929,1.929,0,0,0,2.38.271,15.435,15.435,0,0,1,4.784-1.959A1.929,1.929,0,0,0,42.928,4.3Zm1.929,9.643A9.643,9.643,0,1,0,54.5,21.2,9.685,9.685,0,0,0,44.857,11.554Zm0,3.857A5.786,5.786,0,1,1,39.071,21.2,5.8,5.8,0,0,1,44.857,15.412Z" transform="translate(-21.714 1.946)" fill="#fff"/></svg>