<svg xmlns="http://www.w3.org/2000/svg" width="42.171" height="40.776" viewBox="0 0 42.171 40.776"><g transform="translate(-1.004 -1.5)"><path d="M17.011,8.53A3.515,3.515,0,1,0,13.5,5.015,3.518,3.518,0,0,0,17.011,8.53Zm0-5.624A2.109,2.109,0,1,1,14.9,5.015,2.112,2.112,0,0,1,17.011,2.906Z" transform="translate(5.073 0)" fill="#fff"/><path d="M4.519,25.5a3.515,3.515,0,1,0,3.515,3.515A3.518,3.518,0,0,0,4.519,25.5Zm0,5.624a2.109,2.109,0,1,1,2.109-2.109A2.112,2.112,0,0,1,4.519,31.124Z" transform="translate(0 9.745)" fill="#fff"/><path d="M29.511,25.5a3.515,3.515,0,1,0,3.515,3.515A3.518,3.518,0,0,0,29.511,25.5Zm0,5.624a2.109,2.109,0,1,1,2.109-2.109A2.112,2.112,0,0,1,29.511,31.124Z" transform="translate(10.148 9.745)" fill="#fff"/><path d="M16.519,25.5a3.515,3.515,0,1,0,3.515,3.515A3.518,3.518,0,0,0,16.519,25.5Zm0,5.624a2.109,2.109,0,1,1,2.109-2.109A2.112,2.112,0,0,1,16.519,31.124Z" transform="translate(4.873 9.745)" fill="#fff"/><path d="M10.519,20.53A3.515,3.515,0,1,0,7,17.015,3.518,3.518,0,0,0,10.519,20.53Zm0-5.624A2.109,2.109,0,1,1,8.41,17.015,2.112,2.112,0,0,1,10.519,14.906Z" transform="translate(2.436 4.873)" fill="#fff"/><path d="M27.034,17.015a3.515,3.515,0,1,0-3.515,3.515A3.518,3.518,0,0,0,27.034,17.015Zm-5.624,0a2.109,2.109,0,1,1,2.109,2.109A2.112,2.112,0,0,1,21.41,17.015Z" transform="translate(7.715 4.873)" fill="#fff"/><path d="M9.707,14.53a.7.7,0,0,0,.7-.7V12.421a.705.705,0,0,1,.7-.7H17.44a2.091,2.091,0,0,0,1.406-.548,2.091,2.091,0,0,0,1.406.548H26.58a.705.705,0,0,1,.7.7v1.406a.7.7,0,0,0,1.406,0V12.421a2.112,2.112,0,0,0-2.109-2.109H20.253a.7.7,0,0,1-.7-.7V8.2a.7.7,0,1,0-1.406,0V9.609a.705.705,0,0,1-.7.7H11.113A2.112,2.112,0,0,0,9,12.421v1.406A.7.7,0,0,0,9.707,14.53Z" transform="translate(3.249 2.436)" fill="#fff"/><path d="M19.877,24.421v1.406a.7.7,0,1,0,1.406,0V24.421a2.112,2.112,0,0,0-2.109-2.109H13.549a.7.7,0,0,1-.7-.7V20.2a.7.7,0,0,0-1.406,0v1.406a.705.705,0,0,1-.7.7H5.113A2.112,2.112,0,0,0,3,24.421v1.406a.7.7,0,1,0,1.406,0V24.421a.705.705,0,0,1,.7-.7h5.624a2.091,2.091,0,0,0,1.406-.548,2.091,2.091,0,0,0,1.406.548h5.624A.705.705,0,0,1,19.877,24.421Z" transform="translate(0.812 7.309)" fill="#fff"/><path d="M30.44,24.421v1.406a.7.7,0,1,0,1.406,0V24.421a2.112,2.112,0,0,0-2.109-2.109H24.113a.7.7,0,0,1-.7-.7V20.2A.7.7,0,0,0,22,20.2v1.406a2.112,2.112,0,0,0,2.109,2.109h5.624A.705.705,0,0,1,30.44,24.421Z" transform="translate(8.527 7.309)" fill="#fff"/></g></svg>