<svg xmlns="http://www.w3.org/2000/svg" width="50" height="50" viewBox="0 0 50 50">
  <path id="integration" d="M10587.365,5147.689l-3.061-3.037a2.352,2.352,0,0,1,0-3.34l5.184-5.146a16.456,16.456,0,0,1,2.768-19.758l23.553,23.387a16.746,16.746,0,0,1-19.9,2.749l-5.184,5.146a2.39,2.39,0,0,1-3.363,0Zm32.035-18.838-1.686,1.67a2.63,2.63,0,0,1-3.7,0l-1.008-1a2.589,2.589,0,0,1,0-3.674l1.682-1.667,0,0-7.064-7.012-1.682,1.67a2.63,2.63,0,0,1-3.7,0l-1.008-1a2.583,2.583,0,0,1,0-3.671l1.68-1.67-4.705-4.671a18.408,18.408,0,0,1,21.865-3.022l5.7-5.657a2.627,2.627,0,0,1,3.7,0l3.367,3.341a2.589,2.589,0,0,1,0,3.671l-5.7,5.659a18.084,18.084,0,0,1-3.045,21.708Z" transform="translate(-10583.609 -5098.381)" fill="#fff"/>
</svg>
