<svg xmlns="http://www.w3.org/2000/svg" width="53.433" height="51.523" viewBox="0 0 53.433 51.523"><g transform="translate(0 -3.574)"><path d="M41.947,104.347a3.256,3.256,0,0,0-1.056-1.729,3.868,3.868,0,0,0-1.956-.884l-11.419-2.21,3.3,2.192L25.6,118.065l-2.937-12.144-2.938,12.144-5.214-16.349,3.3-2.192L6.4,101.734a3.863,3.863,0,0,0-1.956.884,3.252,3.252,0,0,0-1.057,1.729L0,119.217l6.385,2.217c2.122,2.2,8.056,3.825,15.174,3.979h2.213c7.119-.154,13.053-1.776,15.174-3.979l6.387-2.217Z" transform="translate(0 -70.316)" fill="#fff"/><path d="M77.62,105.735l-2.633.943,2.633,3.795,2.632-3.795Z" transform="translate(-54.953 -74.867)" fill="#fff"/><path d="M65.481,17.9c0-6.749-2.777-12.038-9.772-12.038S45.936,11.154,45.936,17.9c-.731.382-1.212,1.278-.494,3.2a5.282,5.282,0,0,0,1.543,2.194c1.993,4.963,5.914,8.8,8.723,8.8s6.729-3.832,8.722-8.8A5.265,5.265,0,0,0,65.974,21.1C66.693,19.181,66.213,18.285,65.481,17.9Z" transform="translate(-33.043 -1.679)" fill="#fff"/><g transform="translate(28.237 3.574)"><path d="M133.114,40.985h-5.189c.033.295.062.594.084.9h5.1v-.9Z" transform="translate(-121.985 -30.99)" fill="#fff"/><path d="M141.913,29.385h-16.3c.088.293.164.594.237.9h16.064Z" transform="translate(-120.291 -22.489)" fill="#fff"/><path d="M130.273,4.189a2.1,2.1,0,0,0-1.484-.615h-23.1a9.849,9.849,0,0,1,2.714,2.1h20.383V20.364h-5.617l-4.252,4.252V20.364h-6.882a7.48,7.48,0,0,1-1.347,2.1h6.13v5.772a.6.6,0,0,0,1.024.424l6.2-6.2h4.748a2.1,2.1,0,0,0,2.1-2.1V5.673A2.092,2.092,0,0,0,130.273,4.189Z" transform="translate(-105.691 -3.574)" fill="#fff"/><path d="M138.213,17.79h-17.65q.261.433.493.9h17.157Z" transform="translate(-116.59 -13.992)" fill="#fff"/></g></g></svg>