<svg xmlns="http://www.w3.org/2000/svg" width="73.752" height="100" viewBox="0 0 73.752 100"><g transform="translate(-17.969 -1.587)"><path d="M45.687,95.4s-3.819,2.222,2.721,2.972c7.925.905,11.974.775,20.7-.875a36.285,36.285,0,0,0,5.506,2.685C55.041,108.572,30.311,99.7,45.687,95.4ZM43.293,84.455s-4.284,3.172,2.262,3.849c8.465.874,15.149.945,26.72-1.282a11.812,11.812,0,0,0,4.111,2.508c-23.667,6.922-50.027.545-33.093-5.076Z" transform="translate(-3.967 -16.481)" fill="#0074bd"/><path d="M68.7,54.472c4.827,5.556-1.266,10.551-1.266,10.551S79.686,58.7,74.063,50.781c-5.255-7.382-9.283-11.049,12.525-23.7,0,0-34.233,8.548-17.884,27.388Z" transform="translate(-9.211 -5.071)" fill="#ea2d2e"/><path d="M85.386,100.445s2.827,2.331-3.115,4.133c-11.3,3.422-47.03,4.454-56.955.137-3.566-1.553,3.124-3.705,5.228-4.159a13.66,13.66,0,0,1,3.447-.389c-3.968-2.794-25.646,5.488-11.01,7.863,39.913,6.47,72.755-2.914,62.4-7.585ZM43.559,70.055s-18.174,4.317-6.435,5.887c4.957.663,14.835.511,24.042-.261,7.522-.632,15.071-1.982,15.071-1.982a32.09,32.09,0,0,0-4.57,2.446C53.209,81,17.557,78.738,27.822,73.774a34.359,34.359,0,0,1,15.737-3.72Zm32.6,18.223c18.763-9.747,10.087-19.115,4.031-17.853A14.065,14.065,0,0,0,78.049,71a3.409,3.409,0,0,1,1.6-1.236c11.979-4.21,21.19,12.42-3.864,19.007A1.7,1.7,0,0,0,76.162,88.278Z" transform="translate(0 -13.425)" fill="#0074bd"/><path d="M70.752,1.587s10.389,10.4-9.856,26.375c-16.235,12.823-3.7,20.132-.006,28.487C51.412,47.9,44.46,40.371,49.124,33.365,55.972,23.083,74.943,18.1,70.752,1.587Z" transform="translate(-5.9)" fill="#ea2d2e"/><path d="M48.7,123.747c18.006,1.151,45.664-.641,46.318-9.162,0,0-1.259,3.23-14.882,5.793-15.37,2.894-34.331,2.556-45.573.7,0,0,2.3,1.907,14.137,2.669Z" transform="translate(-3.301 -22.473)" fill="#0074bd"/></g></svg>