<svg xmlns="http://www.w3.org/2000/svg" width="44.778" height="100" viewBox="0 0 44.778 100"><g transform="translate(0 -0.2)"><path d="M31.547,105.488l-2.662-.91s.325-13.571-4.546-14.544c-3.246-3.767.521-159.737,12.208-.52,0,0-4.026,2.012-4.74,5.455-.78,3.378-.26,10.52-.26,10.52Z" transform="translate(-6.883 -5.288)" fill="#fff" fill-rule="evenodd"/><path d="M31.547,105.488l-2.662-.91s.325-13.571-4.546-14.544c-3.246-3.767.521-159.737,12.208-.52,0,0-4.026,2.012-4.74,5.455-.78,3.378-.26,10.52-.26,10.52Z" transform="translate(-6.883 -5.288)" fill="#a6a385" fill-rule="evenodd"/><path d="M35.361,87.194S58.673,71.869,53.217,39.986c-5.259-23.18-17.661-30.777-19.025-33.7A32.78,32.78,0,0,1,31.27.573l.975,64.478c0,.065-2.013,19.74,3.117,22.144" transform="translate(-9.267 -0.111)" fill="#fff" fill-rule="evenodd"/><path d="M35.361,87.194S58.673,71.869,53.217,39.986c-5.259-23.18-17.661-30.777-19.025-33.7A32.78,32.78,0,0,1,31.27.573l.975,64.478c0,.065-2.013,19.74,3.117,22.144" transform="translate(-9.267 -0.111)" fill="#499d4a" fill-rule="evenodd"/><path d="M20.64,87.927S-1.243,72.992.056,46.695C1.289,20.395,16.747,7.475,19.73,5.137,21.679,3.06,21.743,2.28,21.874.2c1.364,2.922,1.1,43.7,1.3,48.505C23.756,67.213,22.133,84.421,20.64,87.927Z" transform="translate(0)" fill="#fff" fill-rule="evenodd"/><path d="M20.64,87.927S-1.243,72.992.056,46.695C1.289,20.395,16.747,7.475,19.73,5.137,21.679,3.06,21.743,2.28,21.874.2c1.364,2.922,1.1,43.7,1.3,48.505C23.756,67.213,22.133,84.421,20.64,87.927Z" transform="translate(0)" fill="#58aa50" fill-rule="evenodd"/></g></svg>