<svg xmlns="http://www.w3.org/2000/svg" width="88.502" height="100" viewBox="0 0 88.502 100"><path d="M95,25.7,58.523,4.529a7.864,7.864,0,0,0-7.613,0L14.052,25.7A7.923,7.923,0,0,0,10,32.377v42.3a7.99,7.99,0,0,0,4.1,6.685l9.738,5.531c4.655,2.293,6.3,2.293,8.418,2.293,6.892,0,10.828-4.167,10.828-11.436V35.989c0-.59-.307-1.467-.886-1.467h-4.65c-.589,0-1.907.877-1.907,1.466V77.745c0,3.225-2.914,6.429-8.361,3.705l-10.063-5.8a1.142,1.142,0,0,1-.6-.977v-42.3c0-.4.459-.8.812-1l36.74-21.14a1.288,1.288,0,0,1,1.19,0L91.651,31.369c.347.209.225.6.225,1.008v42.3c0,.4.151.8-.192.992L55.223,96.816a1.035,1.035,0,0,1-1.043,0l-9.351-5.582a.9.9,0,0,0-.887-.071,24.339,24.339,0,0,1-5.522,2.517c-.6.209-1.489.572.339,1.6L51,102.515a7.713,7.713,0,0,0,7.7,0L94.994,81.358a7.451,7.451,0,0,0,3.5-6.685v-42.3A7.427,7.427,0,0,0,95,25.7ZM66.164,67.971c-9.7,0-11.834-2.675-12.546-7.5-.083-.519-.524-1.14-1.052-1.14h-4.74c-.586,0-1.058.711-1.058,1.3,0,6.175,3.357,13.656,19.4,13.656,11.611,0,18.268-4.511,18.268-12.5,0-7.916-5.348-9.994-16.608-11.484-11.382-1.5-12.538-2.264-12.538-4.931,0-2.2.979-5.128,9.407-5.128,7.53,0,10.306,1.616,11.448,6.692a1.044,1.044,0,0,0,1.026.82h4.759a1.088,1.088,0,0,0,.777-.331,1.07,1.07,0,0,0,.277-.81C82.242,37.877,76.436,33.8,64.692,33.8c-10.446,0-16.678,4.411-16.678,11.806,0,8.022,6.2,10.237,16.228,11.229,11.992,1.176,12.929,2.929,12.929,5.289,0,4.1-3.29,5.844-11.007,5.844Z" transform="translate(-10 -3.546)" fill="#83cd29"/></svg>