<svg xmlns="http://www.w3.org/2000/svg" width="100" height="50.678" viewBox="0 0 100 50.678"><path d="M52.906,33.039c-27.613,0-50,11.344-50,25.339s22.387,25.339,50,25.339,50-11.344,50-25.339S80.519,33.039,52.906,33.039ZM39.893,63.314a9.775,9.775,0,0,1-3.977,2.052,19.586,19.586,0,0,1-5.574.377H25.227l-1.418,8.184H17.834L23.165,46.1h11.49c3.457,0,5.978.994,7.564,2.809s2.062,4.39,1.43,7.641A12.036,12.036,0,0,1,39.893,63.314Zm17.444,2.429,2.358-11.8c.268-1.381.17-2.408-.3-2.909a4.115,4.115,0,0,0-2.974-.839H51.687l-3.054,15.55H42.7l5.332-27.008h5.929L52.547,46.1h5.281c3.324,0,5.615.667,6.875,1.826s1.637,2.747,1.135,5.343L63.359,65.744ZM90.285,56.6a11.922,11.922,0,0,1-3.752,6.719,9.78,9.78,0,0,1-3.977,2.052,19.59,19.59,0,0,1-5.575.377H71.864l-1.417,8.184H64.472L69.8,46.1h11.49c3.457,0,5.978.994,7.563,2.809s2.061,4.434,1.429,7.685Zm-11.256-6.4H74.937L72.7,61.651H76.34c2.408,0,4.2-.237,5.382-1.146a6.928,6.928,0,0,0,2.388-4.437c.4-2.039.216-3.629-.54-4.467S81.3,50.194,79.029,50.194Zm-46.637,0H28.3L26.062,61.651H29.7c2.409,0,4.2-.237,5.383-1.146a6.927,6.927,0,0,0,2.387-4.437c.4-2.039.216-3.629-.54-4.467S34.662,50.194,32.392,50.194Z" transform="translate(-2.906 -33.039)" fill="#6181b6"/></svg>