<svg xmlns="http://www.w3.org/2000/svg" width="100" height="100" viewBox="0 0 100 100"><path d="M104.938,63.542a4.953,4.953,0,0,0-4.861-4.068,15.85,15.85,0,0,0-2.627.158c-1.05.13-2.088.359-3.136.511-.724.105-1.459.153-2.182.226l-.018-.091c1.352-2.476,2.758-4.923,4.035-7.437.979-1.927,1.818-3.923,2.684-5.9a74.955,74.955,0,0,0,3.527-10.1A51.631,51.631,0,0,0,104.29,26.8c.1-1.364.169-2.733.158-4.1-.007-1.089-.128-2.179-.24-3.265a10.914,10.914,0,0,0-1.05-3.558A14.424,14.424,0,0,0,100.2,12c-.923-.933-1.938-1.783-2.944-2.632a24.707,24.707,0,0,0-4.724-3.036,27.69,27.69,0,0,0-5.992-2.256c-1.262-.313-2.552-.545-3.83-.793A7.477,7.477,0,0,0,81.334,3H72.68a9.193,9.193,0,0,0-.938.191,33.776,33.776,0,0,0-6.108,1.2,5.323,5.323,0,0,1-2.13.02c-.542-.048-1.074-.19-1.616-.216-2.064-.1-4.13-.246-6.193-.226a22.845,22.845,0,0,0-5.846.861,19.9,19.9,0,0,0-4.6,1.8,2.01,2.01,0,0,1-1.737.106c-2.136-.6-4.286-1.16-6.456-1.632a37.087,37.087,0,0,0-4.123-.58c-1.323-.134-2.657-.214-3.987-.241a36.627,36.627,0,0,0-3.9.082,26.149,26.149,0,0,0-6.049,1.241A20.315,20.315,0,0,0,13,8.779a18.1,18.1,0,0,0-4.479,5.087,22.4,22.4,0,0,0-2.629,6.614c-.287,1.261-.469,2.558-.666,3.838-.06.4.616.8-.229,1.2v5.575c.845.371.176.738.225,1.113.117.894.221,1.795.377,2.682.246,1.4.537,2.8.835,4.2q.623,2.924,1.307,5.835c.338,1.411.716,2.814,1.115,4.21.609,2.133,1.209,4.267,1.9,6.376.64,1.959,1.372,3.889,2.1,5.82a50.975,50.975,0,0,0,3.657,7.733,22.23,22.23,0,0,0,4.594,5.806,10.578,10.578,0,0,0,4.3,2.344,8.735,8.735,0,0,0,3.908.106,9.4,9.4,0,0,0,4.078-1.9c.138-.11.289-.194.452.008a6.889,6.889,0,0,0,2.322,1.714,18.578,18.578,0,0,0,7.5,1.689c.629.035,1.268-.053,1.9-.07a14.805,14.805,0,0,0,3.615-.6c.619-.174,1.223-.395,1.852-.6.033.651.075,1.278.095,1.9l.085,3.418c.016.52.037,1.042.085,1.559.128,1.335.254,2.671.417,4a23.28,23.28,0,0,0,.455,2.737A30.7,30.7,0,0,0,54,96.456a11.37,11.37,0,0,0,3.3,4.254,10.845,10.845,0,0,0,6.45,2.268,13.273,13.273,0,0,0,2.958-.164,42.459,42.459,0,0,0,4.552-1.046,14.608,14.608,0,0,0,7.618-4.908,16.006,16.006,0,0,0,2.62-4.634c.485-1.395.942-2.805,1.306-4.234.287-1.126.429-2.287.6-3.436.116-.761.185-1.529.258-2.3.118-1.245.239-2.489.325-3.736.059-.868.057-1.74.092-2.61.011-.265.055-.528.085-.793.024-.246.15-.328.407-.328.905.013,1.812.036,2.714,0a25.859,25.859,0,0,0,3.028-.246c1.417-.231,2.828-.522,4.217-.876a17.771,17.771,0,0,0,4.6-2.014,16.718,16.718,0,0,0,4.479-3.649,5.469,5.469,0,0,0,1.339-4.462Zm-2.883.806a3.181,3.181,0,0,1-.924,1.944,16.953,16.953,0,0,1-8.945,4.945,31.72,31.72,0,0,1-4.039.568,27.929,27.929,0,0,1-3.477.082,25.612,25.612,0,0,1-2.562-.341c-.085.771-.169,1.575-.27,2.38L81.433,77c-.123.974-.218,1.951-.344,2.924-.123.944-.277,1.887-.406,2.83-.121.88-.21,1.763-.344,2.641-.207,1.346-.4,2.695-.676,4.03A15.5,15.5,0,0,1,78.028,94a10.525,10.525,0,0,1-4.182,4.086,21.267,21.267,0,0,1-5.9,2,14.665,14.665,0,0,1-4.394.239A9.143,9.143,0,0,1,57.21,97.14a12.638,12.638,0,0,1-3-6.281c-.181-1.125-.311-2.26-.415-3.394-.115-1.261-.194-2.526-.254-3.791q-.113-2.409-.169-4.817c-.045-1.974-.059-3.948-.085-5.923l-.005-.075c-1.034.6-2.051,1.262-3.127,1.805a10.712,10.712,0,0,1-4.056,1.11,22.311,22.311,0,0,1-3.351.071,13.154,13.154,0,0,1-5.265-1.294,5.838,5.838,0,0,1-1.8-1.346c-1.09-1.351-.568-3.057,1.076-3.879a15.443,15.443,0,0,1,3.607-1.082c1.07-.24,2.135-.514,3.178-.844a5.128,5.128,0,0,0,2.327-1.939l1.019-1.273c-.423-.043-.826-.088-1.226-.124a11.434,11.434,0,0,1-3.486-.914c-.95-.41-.964-.452-1.661.281-1.163,1.226-2.294,2.48-3.433,3.727-.838.917-1.672,1.839-2.506,2.758s-1.6,1.87-2.49,2.716a6.269,6.269,0,0,1-8.155.779,16.878,16.878,0,0,1-4.739-5.42,46.481,46.481,0,0,1-3.948-8.336c-.74-2-1.484-3.993-2.13-6.017-.7-2.2-1.318-4.431-1.924-6.655-.458-1.68-.865-3.375-1.252-5.073C9.5,39.98,9.073,38.046,8.7,36.1c-.254-1.313-.4-2.643-.6-3.964a25.749,25.749,0,0,1-.225-5.365c.085-1.611.327-3.217.564-4.817a18.722,18.722,0,0,1,2.16-6.275,16.555,16.555,0,0,1,2.431-3.326,16.233,16.233,0,0,1,5.545-3.8,21.57,21.57,0,0,1,4.6-1.313,34.17,34.17,0,0,1,7.076-.378c1.034.021,2.065.2,3.1.3A42.059,42.059,0,0,1,39.9,8.4c1.569.41,3.107.938,4.663,1.395a.708.708,0,0,0,.513-.039,19.714,19.714,0,0,1,9.709-3.064,29.651,29.651,0,0,1,3.478-.072c1.388.077,2.769.276,4.148.46.669.089,1.323.314,1.994.376.321.03.662-.2,1-.275,1.732-.388,3.456-.821,5.2-1.127a33.817,33.817,0,0,1,3.952-.41A43.461,43.461,0,0,1,79,5.57a31.85,31.85,0,0,1,5.54.757A28.516,28.516,0,0,1,91.03,8.617a22.227,22.227,0,0,1,4.326,2.76,32.515,32.515,0,0,1,2.53,2.234,12.6,12.6,0,0,1,2.55,3.248,8.678,8.678,0,0,1,.869,2.992c.112,1.3.247,2.608.234,3.911-.012,1.246-.187,2.492-.311,3.735a48.556,48.556,0,0,1-1.69,8.342c-.637,2.26-1.382,4.495-2.188,6.7-.743,2.036-1.6,4.035-2.466,6.025-.64,1.472-1.328,2.928-2.077,4.349a85.228,85.228,0,0,1-4.6,7.9c-.294.439-.573.889-.86,1.337a5.325,5.325,0,0,0,2.435.748,13.831,13.831,0,0,0,2.436.082c1.29-.093,2.577-.272,3.859-.446a18.5,18.5,0,0,1,3.821-.431,2.216,2.216,0,0,1,1.564.676,2.087,2.087,0,0,1,.583,1.563ZM83.452,61.6c-.554-.694-1.118-1.38-1.66-2.083a20.945,20.945,0,0,1-2.075-3.572c-.581-1.173-1.295-2.283-1.907-3.442-1.069-2.023-2.158-4.039-3.142-6.1a25.115,25.115,0,0,1-2.522-8.142,11.547,11.547,0,0,1,.09-3.63,6.527,6.527,0,0,1,3.176-4.454,11.187,11.187,0,0,1,5.247-1.361c1.142-.06,2.288-.011,3.473-.011l-.04-.194c-.737-1.5-1.426-3.017-2.232-4.478a30.723,30.723,0,0,0-8.14-9.15,27.679,27.679,0,0,0-4.453-2.7,26.673,26.673,0,0,0-5.888-2.032A29.789,29.789,0,0,0,57.4,9.539a22.161,22.161,0,0,0-5.121.436A16.373,16.373,0,0,0,45.4,13.2,17.564,17.564,0,0,0,42.43,16.3a23.293,23.293,0,0,0-2.523,4.33,29.554,29.554,0,0,0-2.062,6.513c-.225,1.117-.4,2.243-.58,3.369-.063.394-.068.8-.1,1.248.312-.158.537-.279.766-.387l.748-.328a18.132,18.132,0,0,1,7.967-1.763,8.371,8.371,0,0,1,3.406.774A6.8,6.8,0,0,1,53.8,34.792c.358,1.452.6,2.932.845,4.408a24.853,24.853,0,0,1,.4,3.481c.031,1.7-.057,3.4-.153,5.1A13.909,13.909,0,0,1,53.98,52c-.946,2.456-2,4.872-2.987,7.313-.325.807-.576,1.641-.883,2.529h1.246a2.161,2.161,0,0,1,.45.04,5.632,5.632,0,0,1,2.92,1.6,5.72,5.72,0,0,1,1.667,3.96c.016.843-.075,1.688-.071,2.531q.027,5.891.085,11.78c.006.642.039,1.284.085,1.925.1,1.342.2,2.684.334,4.021.095.949.226,1.9.381,2.84a10.04,10.04,0,0,0,1.556,3.661,6.673,6.673,0,0,0,2.451,2.38,8.256,8.256,0,0,0,5.631.7A32.485,32.485,0,0,0,70.7,96.251a8.613,8.613,0,0,0,3.327-1.932,7.836,7.836,0,0,0,1.944-2.98,32.34,32.34,0,0,0,1.423-6.759c.128-.853.238-1.709.355-2.564.133-.973.267-1.945.4-2.918.095-.725.181-1.451.272-2.175.13-1.04.268-2.08.392-3.118.1-.8.177-1.613.261-2.42.109-1.031.226-2.061.32-3.093.073-.784.043-1.581.186-2.35a4.781,4.781,0,0,1,2.236-3.385,17.538,17.538,0,0,1,1.743-.812l-.1-.153ZM34.775,55.81A14.038,14.038,0,0,1,33.631,51.2a25.253,25.253,0,0,1,.233-4.48c.154-1.444.281-2.895.326-4.349.074-2.384-.091-4.766-.209-7.149a30.505,30.505,0,0,1,.229-4.277,37.344,37.344,0,0,1,.513-3.827,36.574,36.574,0,0,1,1.765-6.229,24.256,24.256,0,0,1,2.827-5.469c.833-1.154,1.775-2.232,2.687-3.359l-.27-.093a46.516,46.516,0,0,0-9.05-1.935c-1.461-.147-2.927-.233-4.394-.318a9.081,9.081,0,0,0-1.357.075c-1.117.1-2.248.144-3.347.348a16.84,16.84,0,0,0-5.328,1.872,13.1,13.1,0,0,0-3.791,3.267,14.95,14.95,0,0,0-2.5,4.852A23.832,23.832,0,0,0,10.9,26.474a26.159,26.159,0,0,0,.223,5.653c.254,1.395.416,2.808.69,4.2.374,1.9.776,3.788,1.24,5.662.663,2.686,1.326,5.377,2.113,8.031.752,2.544,1.6,5.063,2.52,7.549.752,2.032,1.622,4.026,2.535,5.99A33.622,33.622,0,0,0,22.3,67.272a12.259,12.259,0,0,0,2.965,3.409c1.568,1.168,2.783,1.349,4.377.068A17.673,17.673,0,0,0,31.5,68.889c.944-1.026,1.855-2.079,2.795-3.108,1.2-1.313,2.408-2.608,3.611-3.913.254-.276.5-.56.746-.839l-.409-.349a14.522,14.522,0,0,1-3.465-4.867ZM80.148,16.778c.977,1.113,1.923,2.258,2.8,3.446a30.788,30.788,0,0,1,4.035,7.456,7.613,7.613,0,0,1,.635,3.642c-.109.9-.1,1.812-.182,2.716-.068.752-.191,1.5-.292,2.251-.15,1.131-.368,2.258-.434,3.394a26.857,26.857,0,0,0,.073,3.256c.071,1.1.224,2.2.328,3.294.117,1.246.275,2.491.312,3.739a26.079,26.079,0,0,1-.156,3.079,11.97,11.97,0,0,1-.912,3.57c-.338.806-.74,1.587-1.121,2.394l.153.158.232.175.234-.41a76.133,76.133,0,0,0,5.258-9.43c.979-2.1,1.9-4.231,2.778-6.372a69.685,69.685,0,0,0,3.3-10.257c.377-1.57.665-3.163.921-4.759a29.4,29.4,0,0,0,.4-3.763,32.243,32.243,0,0,0-.163-4.007,5.25,5.25,0,0,0-1-2.832A18.133,18.133,0,0,0,93.8,13.952a39.174,39.174,0,0,0-3.575-2.4,23.364,23.364,0,0,0-6.368-2.366,32.976,32.976,0,0,0-6.633-.753,35.551,35.551,0,0,0-3.948.23c-1.189.108-2.37.293-3.568.446,1.285.7,2.551,1.325,3.746,2.06a29.22,29.22,0,0,1,6.7,5.605ZM47.508,60.039a75.639,75.639,0,0,1,2.99-7.351A18.523,18.523,0,0,0,52,46.529a25.269,25.269,0,0,0,0-3.16c-.06-1.168-.156-2.339-.331-3.495-.225-1.477-.481-2.954-.841-4.407A3.919,3.919,0,0,0,47.766,32.4a7.931,7.931,0,0,0-3.087-.076,18.7,18.7,0,0,0-7.023,2.626.958.958,0,0,0-.6,1.09,30.56,30.56,0,0,1,.19,3.884c-.008,1.835-.085,3.669-.161,5.5-.024.6-.112,1.191-.178,1.786a23.6,23.6,0,0,0-.291,2.73,11.6,11.6,0,0,0,.338,2.8,11.24,11.24,0,0,0,4.9,6.892,10.517,10.517,0,0,0,5.273,1.634c.131-.43.248-.836.377-1.238ZM44.476,35.351a.972.972,0,0,1-.1-.932,1.019,1.019,0,0,1,.742-.6,2.628,2.628,0,0,1,.592-.154c.274-.026.553-.007.83-.007a4.481,4.481,0,0,1,2.789.757,1.031,1.031,0,0,1,.488.661,1,1,0,0,1-.159.8A2.646,2.646,0,0,1,47.52,37.1a2.9,2.9,0,0,1-3.037-1.747ZM84.229,35.1c.115-.922.207-1.847.325-2.769.047-.371-.154-.471-.474-.48-1.007-.027-2.015-.062-3.022-.082a8.415,8.415,0,0,0-3.3.574,3.756,3.756,0,0,0-2.417,2.445,7.212,7.212,0,0,0-.248,2.8,16.1,16.1,0,0,0,1.008,4.247c.7,1.822,1.443,3.644,2.324,5.39,1.194,2.364,2.545,4.652,3.814,6.98.338.621.624,1.269.977,1.995a11.042,11.042,0,0,0,1.142-4.613c.035-1.321-.074-2.648-.154-3.97-.05-.809-.169-1.613-.248-2.421-.113-1.125-.285-2.249-.311-3.376a31.086,31.086,0,0,1,.159-3.446c.1-1.1.282-2.187.423-3.282Zm-2.272-.888a2.669,2.669,0,0,1-2.212,1.736A2.555,2.555,0,0,1,77.3,35a.936.936,0,0,1-.214-.863.966.966,0,0,1,.61-.662,6.184,6.184,0,0,1,2.62-.583,10.428,10.428,0,0,1,1.072.2.792.792,0,0,1,.577.418.751.751,0,0,1-.009.7Zm-29.935,30.9a1.361,1.361,0,0,0-1.812.017,21.6,21.6,0,0,0-1.8,1.959,12.089,12.089,0,0,1-2.141,2.2,11.581,11.581,0,0,1-4.157,1.588c-1.16.274-2.326.528-3.489.792l-.014.146a9.312,9.312,0,0,0,1.04.46,14.371,14.371,0,0,0,5.455.663,10.3,10.3,0,0,0,7.944-4.387,1.719,1.719,0,0,0,.29-.9,2.927,2.927,0,0,0-1.31-2.538Zm43.734.432c-1.428.149-2.858.306-4.291.386a15.784,15.784,0,0,1-2.091-.144,7.324,7.324,0,0,1-3.3-.952,1.791,1.791,0,0,0-1.657-.191,2.314,2.314,0,0,0-1.787,1.63,14.024,14.024,0,0,0-.254,1.887.43.43,0,0,0,.243.345,12.8,12.8,0,0,0,2.028.434,18.833,18.833,0,0,0,2.546.009,24.206,24.206,0,0,0,2.738-.246,15.539,15.539,0,0,0,6.008-2.081c.658-.423,1.311-.854,1.965-1.282l-.054-.09c-.7.1-1.393.224-2.094.3Z" transform="translate(-5 -3)" fill="#336791" fill-rule="evenodd"/></svg>