<svg xmlns="http://www.w3.org/2000/svg" xmlns:xlink="http://www.w3.org/1999/xlink" width="82.543" height="100" viewBox="0 0 82.543 100"><defs><linearGradient id="a" x1="0.758" y1="16.144" x2="2.083" y2="15.015" gradientUnits="objectBoundingBox"><stop offset="0" stop-color="#5a9fd4"/><stop offset="1" stop-color="#306998"/></linearGradient><linearGradient id="b" x1="2.241" y1="13.881" x2="1.769" y2="14.539" gradientUnits="objectBoundingBox"><stop offset="0" stop-color="#ffd43b"/><stop offset="1" stop-color="#ffe873"/></linearGradient><radialGradient id="c" cx="0.498" cy="0.486" r="0.5" gradientTransform="matrix(0, -1, -0.852, 0, 49.118, 52.929)" gradientUnits="objectBoundingBox"><stop offset="0" stop-color="#b8b8b8" stop-opacity="0.498"/><stop offset="1" stop-color="#7f7f7f" stop-opacity="0"/></radialGradient></defs><g transform="translate(-12.812 -1.987)"><path d="M53.592,1.988a56.858,56.858,0,0,0-9.514.812c-8.425,1.488-9.954,4.6-9.954,10.35v7.588H54.033v2.529H26.652c-5.786,0-10.852,3.477-12.437,10.1-1.829,7.579-1.909,12.316,0,20.237,1.415,5.895,4.795,10.094,10.581,10.094h6.846v-9.1A12.651,12.651,0,0,1,44.079,42.225H63.965a10.031,10.031,0,0,0,9.952-10.117V13.15c0-5.4-4.55-9.449-9.952-10.347a62.191,62.191,0,0,0-10.373-.816ZM42.825,8.09A3.794,3.794,0,1,1,39.087,11.9,3.794,3.794,0,0,1,42.825,8.09Z" transform="translate(0 0)" fill="url(#a)"/><path d="M81.523,28.379v8.841A12.77,12.77,0,0,1,69.086,49.842H49.2A10.159,10.159,0,0,0,39.245,59.96V78.92c0,5.395,4.691,8.569,9.954,10.116a33.324,33.324,0,0,0,19.886,0C74.1,87.585,79.04,84.663,79.04,78.92V71.331H59.154V68.8H89c5.786,0,7.943-4.031,9.956-10.094,2.079-6.236,1.989-12.234,0-20.237-1.43-5.761-4.161-10.1-9.956-10.1H81.523ZM70.338,76.39a3.757,3.757,0,1,1-2.652,1.117A3.794,3.794,0,0,1,70.338,76.39Z" transform="translate(-5.121 -5.112)" fill="url(#b)"/><path d="M84.487,118.357c0,2.857-11.946,5.173-26.68,5.173s-26.681-2.319-26.681-5.173,11.945-5.174,26.681-5.174,26.68,2.316,26.68,5.174Z" transform="translate(-3.548 -21.543)" opacity="0.444" fill="url(#c)"/></g></svg>