<svg xmlns="http://www.w3.org/2000/svg" width="100" height="97.395" viewBox="0 0 100 97.395"><g transform="translate(-6.998 -11.998)"><path d="M7,12H107v97.395H7Z" fill="#c88fff"/><path d="M45.008,51.016h84.566v81.757H45.008Z" transform="translate(-30.393 -31.199)" fill="#312963"/><path d="M152.118,164.826l-16.633,3.206L115.846,152l-8.818,1L93,193.282l26.853,20.24h48.1V177.451Z" transform="translate(-68.767 -111.946)" opacity="0.302"/><path d="M45.008,51h84.566v2.805H45.008Z" transform="translate(-30.393 -31.187)" opacity="0.302"/><g transform="translate(24.388 40.054)"><path d="M105.1,181.57l-3.551,11.693H93.777L107,152h9.612l13.407,41.263h-8.081L118.2,181.57Zm11.816-5.694-3.245-10.163c-.8-2.51-1.469-5.326-2.082-7.714h-.122c-.612,2.388-1.224,5.265-1.959,7.714l-3.184,10.163h10.591Z" transform="translate(-93.777 -152)" fill="#c88fff"/><path d="M287.348,223.459c.184,5.388,4.408,7.714,9.183,7.714a22.4,22.4,0,0,0,8.265-1.347l1.1,5.2a28.074,28.074,0,0,1-10.408,1.837c-9.673,0-15.367-5.938-15.367-15.06,0-8.265,5.02-16.04,14.571-16.04,9.673,0,12.856,7.959,12.856,14.51a18.534,18.534,0,0,1-.245,3.184Zm13.1-5.265c.061-2.755-1.163-7.285-6.183-7.285-4.653,0-6.612,4.224-6.918,7.285Z" transform="translate(-242.78 -194.991)" fill="#c88fff"/></g></g></svg>