<svg xmlns="http://www.w3.org/2000/svg" width="100" height="99.405" viewBox="0 0 100 99.405"><g transform="translate(-1082 -1128.619)"><rect width="100" height="99.405" transform="translate(1082 1128.619)" fill="#ff7c00"/><rect width="83.242" height="82.747" transform="translate(1090.379 1136.948)" fill="#261300"/><g transform="translate(1148.435 1155.292)"><rect width="8.627" height="33.168" rx="4.313" transform="translate(0.248 13.138)" fill="#ff7c00"/><ellipse cx="4.586" cy="4.388" rx="4.586" ry="4.388" transform="translate(0 0)" fill="#ff7c00"/></g><path d="M4884.308,5251.958l3.237,10.72c.168.633.5.789.943.782h8.29c.64.007.685-.187.588-.614l-13.692-45.67a.2.2,0,0,0-.22-.143l-11.482-.032c-.453,0-.459.233-.42.672a9.346,9.346,0,0,1-.271,3.729l-12.122,41.471c-.129.394-.1.588.42.595l7.825-.007c.827-.026.872-.252,1.014-.666l2.714-10.836Zm-1.673-8.335h-9.505l4.607-18.635Z" transform="translate(-3752.689 -4061.948)" fill="#ff7c00" fill-rule="evenodd"/></g></svg>