<svg xmlns="http://www.w3.org/2000/svg" width="100" height="100" viewBox="0 0 100 100"><path d="M0,50a50,50,0,1,1,50,50A50,50,0,0,1,0,50Z" fill="#333"/><path d="M24.4,48.8a10,10,0,0,0,10-10v-10h-10a10,10,0,1,0,0,20Z" transform="translate(15.6 31.2)" fill="#0acf83"/><path d="M14.4,29.2a10,10,0,0,1,10-10h10v20h-10A10,10,0,0,1,14.4,29.2Z" transform="translate(15.6 20.8)" fill="#a259ff"/><path d="M14.4,19.6a10,10,0,0,1,10-10h10v20h-10A10,10,0,0,1,14.4,19.6Z" transform="translate(15.6 10.4)" fill="#f24e1e"/><path d="M24,9.6H34a10,10,0,0,1,0,20H24Z" transform="translate(26 10.4)" fill="#ff7262"/><path d="M44,29.2a10,10,0,1,1-10-10A10,10,0,0,1,44,29.2Z" transform="translate(26 20.8)" fill="#1abcfe"/></svg>