<svg xmlns="http://www.w3.org/2000/svg" width="100" height="100" viewBox="0 0 100 100"><g transform="translate(0.001 0.001)"><g transform="translate(-0.001 -0.001)"><path d="M490.936,260H409.064A9.065,9.065,0,0,0,400,269.065v81.869A9.064,9.064,0,0,0,409.064,360h81.871A9.065,9.065,0,0,0,500,350.935V269.063A9.065,9.065,0,0,0,490.934,260Zm-57.515,31.462a6.019,6.019,0,1,0-6.108-6.021A6.038,6.038,0,0,0,433.422,291.463ZM420.755,323.7a20.7,20.7,0,0,0-.542,4.521c0,5.3,2.875,8.821,8.985,8.821,5.067,0,9.175-3.008,12.131-7.867l-1.806,7.248h10.063l5.75-23.062c1.438-5.839,4.221-8.871,8.444-8.871,3.323,0,5.39,2.067,5.39,5.479a10.737,10.737,0,0,1-.45,3.235l-2.965,10.6a15.935,15.935,0,0,0-.627,4.492c0,5.033,2.962,8.712,9.163,8.712,5.3,0,9.521-3.41,11.858-11.587l-3.952-1.525c-1.979,5.477-3.685,6.467-5.031,6.467s-2.067-.9-2.067-2.694a11.911,11.911,0,0,1,.448-2.785l2.875-10.327a22.768,22.768,0,0,0,.99-6.552c0-7.725-4.673-11.756-10.333-11.756-5.3,0-10.687,4.779-13.383,9.812l1.975-9.031h-15.36l-2.156,7.954h7.188L442.916,322.7c-3.477,7.725-9.86,7.85-10.663,7.671-1.315-.3-2.156-.8-2.156-2.506a16.9,16.9,0,0,1,.629-4.11l6.737-26.729H420.395l-2.156,7.956h7.1L420.753,323.7Z" transform="translate(-399.999 -259.999)" fill="#ff2a63" fill-rule="evenodd"/></g></g></svg>