<svg xmlns="http://www.w3.org/2000/svg" width="100" height="100" viewBox="0 0 100 100"><g transform="translate(-6 -6)"><path d="M6,17.111A11.108,11.108,0,0,1,17.111,6H94.889A11.108,11.108,0,0,1,106,17.111V94.889A11.108,11.108,0,0,1,94.889,106H17.111A11.108,11.108,0,0,1,6,94.889Z" fill="#03a9f4"/><path d="M23.572,19.176H18.016V31.49h5.478a4.346,4.346,0,0,0,3.528-1.5,6.582,6.582,0,0,0,1.247-4.339,7.8,7.8,0,0,0-1.278-4.708,4.067,4.067,0,0,0-3.419-1.769Z" transform="translate(21.362 23.424)" fill="#020f16"/><path d="M9,9V92.333H92.333V9ZM48.9,52.861q-3.433,3.367-9.536,3.361H34.044V70.111H26.069v-39.5H39.522a12.351,12.351,0,0,1,9.344,3.636,13.071,13.071,0,0,1,3.481,9.439c0,3.875-1.15,6.922-3.45,9.169ZM74.786,68.267a11.972,11.972,0,0,1-7.756,2.389,12.367,12.367,0,0,1-5.7-1.261,9.647,9.647,0,0,1-3.875-3.514,9.039,9.039,0,0,1-1.4-4.861h7.306a4.693,4.693,0,0,0,.931,3.014,3.647,3.647,0,0,0,2.889,1c2.058,0,3.092-.922,3.092-2.789a2.36,2.36,0,0,0-.933-1.8,18.085,18.085,0,0,0-4.156-2.236c-3.169-1.292-5.339-2.617-6.533-3.994a7.587,7.587,0,0,1-1.778-5.131,8.2,8.2,0,0,1,2.786-6.361,10.579,10.579,0,0,1,7.358-2.506,11.484,11.484,0,0,1,7.736,2.5,8.382,8.382,0,0,1,2.9,6.694H69.981c0-2.389-1-3.583-2.983-3.583A2.671,2.671,0,0,0,64.2,48.7a2.245,2.245,0,0,0,.869,1.725,19,19,0,0,0,4.1,2.128Q73.854,54.3,75.8,56.428a7.831,7.831,0,0,1,1.944,5.514,7.746,7.746,0,0,1-2.953,6.325Z" transform="translate(5.333 5.333)" fill="#020f16"/></g></svg>