<svg xmlns="http://www.w3.org/2000/svg" width="100" height="97.5" viewBox="0 0 100 97.5"><path d="M82.292,97.5H17.708A17.692,17.692,0,0,1,0,79.792V17.708A17.692,17.692,0,0,1,17.708,0H82.292A17.692,17.692,0,0,1,100,17.708V79.792A17.692,17.692,0,0,1,82.292,97.5Z" fill="#ff26be"/><path d="M180.74,193.364H119.324A15.151,15.151,0,0,1,104.2,178.24V119.324A15.151,15.151,0,0,1,119.324,104.2H180.7a15.122,15.122,0,0,1,15.124,15.124V178.2a15.1,15.1,0,0,1-15.084,15.164Z" transform="translate(-100.032 -100.032)" fill="#2e001f"/><path d="M487.562,614.712l11.668,22.416c.208.332.084.668-.252.668h-7.252a.817.817,0,0,1-.876-.54c-2.668-5.5-5.376-11-8.168-16.916H482.6c-2.5,5.584-5.252,11.46-7.916,16.96a.8.8,0,0,1-.752.46h-6.868c-.416,0-.46-.332-.248-.584l11.416-21.752-11.04-22a.337.337,0,0,1,.248-.584h7.168c.416,0,.584.084.748.46,2.624,5.5,5.292,11.168,7.792,16.708h.084c2.416-5.5,5.084-11.208,7.668-16.668.208-.332.332-.54.752-.54h6.708c.332,0,.46.252.252.584Zm13.712,6.792c0-9.708,6.46-17.292,16.708-17.292a18.372,18.372,0,0,1,2.168.084v-11.04a.415.415,0,0,1,.416-.416h6.584c.332,0,.416.124.416.332v38.252a29.765,29.765,0,0,0,.208,4.084c0,.252-.084.332-.332.46a24.805,24.805,0,0,1-10.668,2.416c-9.044.036-15.5-5.544-15.5-16.88Zm18.872-10.664a6.263,6.263,0,0,0-2.416-.416c-5.252,0-8.916,4.04-8.916,10.752,0,7.668,3.752,10.752,8.46,10.752a7.81,7.81,0,0,0,2.876-.46V610.84Z" transform="translate(-448.022 -569.088)" fill="#ffd9f2"/></svg>