<svg xmlns="http://www.w3.org/2000/svg" width="502.642" height="295.413" viewBox="0 0 502.642 295.413"><g transform="translate(0 -103.615)"><path d="M251.256,237.591a66.988,66.988,0,1,0-66.869-66.977A66.959,66.959,0,0,0,251.256,237.591Z" fill="#fff"/><path d="M305.032,248.506H197.653c-19.2,0-34.923,17.6-34.923,39.194V395.554c0,1.186.6,2.243.669,3.473H339.222a34.755,34.755,0,0,0,.626-3.473V287.7C339.912,266.108,324.187,248.506,305.032,248.506Z" fill="#fff"/><path d="M431.588,269.559a53.69,53.69,0,1,0-53.582-53.668A53.606,53.606,0,0,0,431.588,269.559Z" fill="#fff"/><path d="M474.708,278.317H388.662c-15.445,0-28.064,14.107-28.064,31.472V396.2c0,.928.453,1.812.518,2.826h141.03c.065-1.014.5-1.9.5-2.826V309.789C502.707,292.424,490.11,278.317,474.708,278.317Z" fill="#fff"/><path d="M71.011,269.559a53.69,53.69,0,1,0-53.6-53.668,53.616,53.616,0,0,0,53.6,53.668Z" fill="#fff"/><path d="M114.109,278.317H27.977C12.576,278.317,0,292.424,0,309.789V396.2c0,.928.453,1.812.539,2.826h141.03c.065-1.014.475-1.9.475-2.826V309.789C142.087,292.424,129.489,278.317,114.109,278.317Z" fill="#fff"/></g></svg>