<svg xmlns="http://www.w3.org/2000/svg" xmlns:xlink="http://www.w3.org/1999/xlink" width="200" height="207.466" viewBox="0 0 200 207.466"><defs><linearGradient id="a" x1="0.5" x2="0.5" y2="1" gradientUnits="objectBoundingBox"><stop offset="0" stop-color="#cb218e"/><stop offset="1" stop-color="#6617cb"/></linearGradient></defs><g transform="translate(-4.988 -4)"><path d="M203.388,149.211,182.731,134.7a3.7,3.7,0,0,0-3.258-.481l-23.138,7.4L61.193,126.814,51.271,92.459l10.366-11.81a3.7,3.7,0,0,0,.777-3.48L44.682,15.493a3.7,3.7,0,0,0-2.628-2.443L25.172,8.089A3.7,3.7,0,0,0,21.47,9.2L9.734,22.527a3.7,3.7,0,0,0-.777,3.48L26.8,87.683a3.7,3.7,0,0,0,2.554,2.554L44.163,94.5l8,27.691-13.809-9.773a3.7,3.7,0,0,0-3.258-.481L11.03,119.595a3.7,3.7,0,0,0-.3,6.96l14.253,6a3.7,3.7,0,0,0,2.554,0l5.96-1.925,6.923,6.33-.518,3.48L31.354,144.4l-5.072-3.7a3.924,3.924,0,0,0-2.48-.666L8.4,141.437a3.7,3.7,0,0,0-1.814,6.738l20.657,14.66a3.7,3.7,0,0,0,3.258.481l23.138-7.4,8.885,1.37,2.814,10-4.368,8.07a3.7,3.7,0,0,0-.407,3.036L64.747,192.9a3.7,3.7,0,0,0,1.777,2.221l9.292,5.146a3.7,3.7,0,0,0,1.777.444,3.331,3.331,0,0,0,1.037,0,3.7,3.7,0,0,0,2.221-1.777l5.072-9.4a3.7,3.7,0,0,0,.3-2.777l-4.183-14.512a3.7,3.7,0,0,0-1.777-2.221l-7.848-4.665-1.925-6.812,81.445,12.55,19.695,14.031a5.609,5.609,0,0,0,3.258.666l23.989-7.663a3.7,3.7,0,0,0,.37-7.145l-14.253-6a3.7,3.7,0,0,0-2.554,0l-5.96,1.925-6.923-6.33.518-3.48,8.552-3.961,5.072,3.7a3.7,3.7,0,0,0,2.48.666l15.4-1.407a3.7,3.7,0,0,0,1.814-6.738ZM78.814,187.083l-2.591,4.776-4.554-2.591L68.3,177.68l2.591-4.776,4.665,2.591ZM54.862,77.392l-5.923,6.738L29.577,17.2,38.129,19.6ZM33.279,83.833,16.546,26.044l5.96-6.849L41.831,86.128Zm153.6,66.007-5.738-4.035a3.7,3.7,0,0,0-3.7-.333l-12.254,5.664a3.7,3.7,0,0,0-2.11,2.777l-1.148,7.4a3.7,3.7,0,0,0,1.148,3.295l10,9.107a3.7,3.7,0,0,0,3.7.814l6.664-2.147,3.7,1.555-12.624,4.072-19.029-13.475a3.369,3.369,0,0,0-1.555-.629L53.974,148.471h-.814a3.924,3.924,0,0,0-1.148.185L29.8,155.764l-10.736-7.7,4.035-.37,5.738,4.035a3.7,3.7,0,0,0,3.7.333L44.793,146.4a3.7,3.7,0,0,0,2.11-2.777l1.148-7.4a3.7,3.7,0,0,0-1.148-3.295l-10-9.107a3.7,3.7,0,0,0-3.7-.814l-6.664,2.147-3.7-1.555,12.624-4.072L54.492,133a3.369,3.369,0,0,0,1.555.629L156,149.063a3.7,3.7,0,0,0,1.7,0l22.212-7.108,10.81,7.663Z" transform="translate(0 10.719)" fill="url(#a)"/><path d="M22.7,37.318a3.7,3.7,0,0,0-3.7,3.7V55.829a3.7,3.7,0,0,0,3.7,3.7h5.4a38.686,38.686,0,0,0,3,6.96l-3.7,3.7a3.709,3.709,0,0,0,0,5.22L37.88,85.889a3.7,3.7,0,0,0,5.257,0l4.072-4.072a30.986,30.986,0,0,0,5.035,2v5.331a3.7,3.7,0,0,0,3.7,3.7H70.755a3.7,3.7,0,0,0,3.7-3.7V83.705a35.281,35.281,0,0,0,6-2.48l4.554,4.554h0l1.074,1.074a35.28,35.28,0,0,0-2.406,6H78.233a3.7,3.7,0,0,0-3.7,3.7v14.808a3.7,3.7,0,0,0,3.7,3.7h5.4a38.689,38.689,0,0,0,3,6.96l-3.7,3.7a3.709,3.709,0,0,0,0,5.22L93.411,141.42a3.7,3.7,0,0,0,5.257,0l4.072-4.072a30.987,30.987,0,0,0,5.035,2v5.331a3.7,3.7,0,0,0,3.7,3.7h14.808a3.7,3.7,0,0,0,3.7-3.7v-5.442a35.283,35.283,0,0,0,6-2.48l4.554,4.554a3.7,3.7,0,0,0,5.22,0l10.477-10.477a3.709,3.709,0,0,0,0-5.22l-4.554-4.554a35.282,35.282,0,0,0,2.554-6h5.442a3.7,3.7,0,0,0,3.7-3.7V96.551a3.7,3.7,0,0,0-3.7-3.7h-5.442a30.986,30.986,0,0,0-1.962-5.035l4.072-4.072a3.7,3.7,0,0,0,0-5.257L145.869,68.008a3.7,3.7,0,0,0-5.22,0l-3.7,3.7a37.244,37.244,0,0,0-6.886-3.073v-5.4a3.7,3.7,0,0,0-3.7-3.7H111.551a3.7,3.7,0,0,0-3.7,3.7v5.442a35.281,35.281,0,0,0-6,2.48l-3.11-3.147h0l-2.48-2.48a35.282,35.282,0,0,0,2.443-6h5.442a3.7,3.7,0,0,0,3.7-3.7V41.02a3.7,3.7,0,0,0-3.7-3.7H98.705a30.986,30.986,0,0,0-1.962-5.035l4.072-4.072a3.7,3.7,0,0,0,0-5.257L90.3,12.478a3.7,3.7,0,0,0-5.22,0l-3.7,3.7a37.243,37.243,0,0,0-6.849-3.073V7.7a3.7,3.7,0,0,0-3.7-3.7H56.02a3.7,3.7,0,0,0-3.7,3.7v5.442a35.281,35.281,0,0,0-6,2.48l-3.11-3.147a3.7,3.7,0,0,0-5.257,0L27.478,22.954A3.7,3.7,0,0,0,26.4,25.583a3.887,3.887,0,0,0,1.074,2.628l3.147,3.11a35.28,35.28,0,0,0-2.48,6Zm89.664,37.8a3.7,3.7,0,0,0,2.888-3.7V66.935h7.4v4.554a3.7,3.7,0,0,0,2.888,3.7,29.32,29.32,0,0,1,9.921,4.257,3.7,3.7,0,0,0,4.7-.444l3.073-3.073,5.331,5.183-3.406,3.406a3.7,3.7,0,0,0-.666,4.628,30.1,30.1,0,0,1,3.295,8.367,3.7,3.7,0,0,0,3.7,2.888h4.479v7.4h-4.554a3.7,3.7,0,0,0-3.7,2.888,28.654,28.654,0,0,1-3.7,9.144,3.7,3.7,0,0,0,.518,4.591l4.035,3.813-5.331,5.331-3.961-3.924a3.7,3.7,0,0,0-4.591-.518,29.616,29.616,0,0,1-9.144,3.7,3.7,3.7,0,0,0-2.888,3.7v4.442h-7.4v-4.554a3.7,3.7,0,0,0-2.888-3.7,30.1,30.1,0,0,1-8.219-3.221,3.7,3.7,0,0,0-4.479.555l-3.406,3.406L91,128.241l3.073-3.073a3.7,3.7,0,0,0,.444-4.665,29.8,29.8,0,0,1-4.257-9.959,3.7,3.7,0,0,0-3.7-2.888H81.935v-7.4h4.554a3.7,3.7,0,0,0,3.7-2.888,28.654,28.654,0,0,1,3.7-9.144,3.7,3.7,0,0,0-.518-4.591l-.333-.481,5.109-5.109.481.444a3.7,3.7,0,0,0,4.591.518A29.616,29.616,0,0,1,112.366,75.116ZM30.958,44.723a3.7,3.7,0,0,0,3.7-2.888,28.654,28.654,0,0,1,3.7-9.144,3.7,3.7,0,0,0-.518-4.591l-2.517-2.517,5.257-5.257L43.1,22.843a3.7,3.7,0,0,0,4.591.518,29.616,29.616,0,0,1,9.144-3.7,3.7,3.7,0,0,0,2.888-3.7V11.4h7.4v4.554a3.7,3.7,0,0,0,2.888,3.7,29.32,29.32,0,0,1,9.921,4.257,3.7,3.7,0,0,0,4.7-.444L87.71,20.4l5.331,5.183-3.406,3.406a3.7,3.7,0,0,0-.666,4.628,30.1,30.1,0,0,1,3.295,8.367,3.7,3.7,0,0,0,3.7,2.888h4.479v7.4H95.892a3.7,3.7,0,0,0-3.7,2.888,28.654,28.654,0,0,1-3.7,9.144,3.7,3.7,0,0,0,.518,4.591l1.851,1.888-5.22,5.072-1.888-1.851a3.7,3.7,0,0,0-4.591-.518,29.616,29.616,0,0,1-9.144,3.7,3.7,3.7,0,0,0-2.888,3.7v4.554h-7.4V80.892a3.7,3.7,0,0,0-2.888-3.7,30.1,30.1,0,0,1-8.219-3.221,3.7,3.7,0,0,0-4.479.555L40.731,77.93l-5.257-5.22,3.073-3.073a3.7,3.7,0,0,0,.444-4.665,29.8,29.8,0,0,1-4.257-9.958,3.7,3.7,0,0,0-3.7-2.888H26.4v-7.4Z" transform="translate(37.861)" fill="url(#a)"/><path d="M47.212,54.425A22.212,22.212,0,1,0,25,32.212,22.212,22.212,0,0,0,47.212,54.425Zm0-37.02A14.808,14.808,0,1,1,32.4,32.212,14.808,14.808,0,0,1,47.212,17.4Zm55.531,92.551A22.212,22.212,0,1,0,80.531,87.743,22.212,22.212,0,0,0,102.743,109.955Zm0-37.02A14.808,14.808,0,1,1,87.935,87.743,14.808,14.808,0,0,1,102.743,72.935Z" transform="translate(54.074 16.212)" fill="url(#a)"/></g></svg>