<svg xmlns="http://www.w3.org/2000/svg" xmlns:xlink="http://www.w3.org/1999/xlink" width="50" height="50" viewBox="0 0 50 50"><defs><linearGradient id="a" x1="0.5" x2="0.5" y2="1" gradientUnits="objectBoundingBox"><stop offset="0" stop-color="#cb218e"/><stop offset="1" stop-color="#6617cb"/></linearGradient></defs><g transform="translate(18641 6599.255)"><path d="M10.283,37.272a2.077,2.077,0,0,0,2.071,2.071h2.071V46.59a3.106,3.106,0,1,0,6.212,0V39.342h4.141V46.59a3.106,3.106,0,1,0,6.212,0V39.342H33.06a2.077,2.077,0,0,0,2.071-2.071V16.565H10.283ZM5.106,16.565A3.1,3.1,0,0,0,2,19.671V34.166a3.106,3.106,0,1,0,6.212,0V19.671A3.1,3.1,0,0,0,5.106,16.565Zm35.2,0A3.1,3.1,0,0,0,37.2,19.671V34.166a3.106,3.106,0,1,0,6.212,0V19.671A3.1,3.1,0,0,0,40.307,16.565ZM30.016,4.473l2.692-2.692a1.025,1.025,0,0,0,0-1.47,1.025,1.025,0,0,0-1.47,0L28.173,3.375a12.091,12.091,0,0,0-5.467-1.3,12.266,12.266,0,0,0-5.508,1.3L14.113.311a1.025,1.025,0,0,0-1.47,0,1.025,1.025,0,0,0,0,1.47l2.713,2.713a12.389,12.389,0,0,0-5.073,10H35.13A12.352,12.352,0,0,0,30.016,4.473ZM18.565,10.353H16.495V8.283h2.071v2.071Zm10.353,0H26.848V8.283h2.071Z" transform="translate(-18639.063 -6599.255)" fill="url(#a)"/><g transform="translate(-18641 -6599)" stroke="#707070" stroke-width="1" opacity="0" fill="url(#a)"><rect width="50" height="49.745" stroke="none"/><rect x="0.5" y="0.5" width="49" height="48.745" fill="none"/></g></g></svg>