<svg xmlns="http://www.w3.org/2000/svg" width="200" height="200" viewBox="0 0 200 200"><g transform="translate(17138 6550)"><path d="M161.292,65.862C155.625,32.88,130.333,8,100,8,75.917,8,55.042,23.724,44.583,46.687,19.542,49.8,0,74.2,0,103.878,0,135.661,22.375,161.4,50,161.4H158.333c23,0,41.667-21.477,41.667-47.939C200,88.154,182.875,67.636,161.292,65.862Zm-2.958,76.367H50c-18.417,0-33.333-17.162-33.333-38.351S31.583,65.527,50,65.527h5.917C61.375,43.427,79,27.176,100,27.176c25.333,0,45.833,23.586,45.833,52.733V84.7h12.5c13.792,0,25,12.9,25,28.763S172.125,142.229,158.333,142.229Z" transform="translate(-17138 -6535)" fill="#fff"/><g transform="translate(-17138 -6550)" fill="#fff" stroke="#707070" stroke-width="1" opacity="0"><rect width="200" height="200" stroke="none"/><rect x="0.5" y="0.5" width="199" height="199" fill="none"/></g></g></svg>