<svg xmlns="http://www.w3.org/2000/svg" xmlns:xlink="http://www.w3.org/1999/xlink" width="200" height="200" viewBox="0 0 200 200"><defs><linearGradient id="a" x1="0.5" x2="0.5" y2="1" gradientUnits="objectBoundingBox"><stop offset="0" stop-color="#cb218e"/><stop offset="1" stop-color="#6617cb"/></linearGradient></defs><g transform="translate(16217 6868)"><path d="M186.561,13.1a46.687,46.687,0,0,0-64.847-.01L104.857,29.429l10.8,10.647L132.4,23.788a31.215,31.215,0,0,1,43.354-.007,29.346,29.346,0,0,1,.007,42.134,31.215,31.215,0,0,1-43.358,0L78.3,13.093a46.688,46.688,0,0,0-64.849.006,44.213,44.213,0,0,0,0,63.5A46.068,46.068,0,0,0,45.874,89.7,46.069,46.069,0,0,0,78.3,76.608L95.105,60.26,84.291,49.693,67.555,65.915a31.214,31.214,0,0,1-43.353.007,29.345,29.345,0,0,1-.007-42.134,31.215,31.215,0,0,1,43.357,0L121.66,76.61a46.688,46.688,0,0,0,64.841,0,44.17,44.17,0,0,0,.059-63.511Z" transform="translate(-16017 -6723.297) rotate(180)" fill="url(#a)"/><g transform="translate(-16217 -6868)" stroke="#707070" stroke-width="1" opacity="0" fill="url(#a)"><rect width="200" height="200" stroke="none"/><rect x="0.5" y="0.5" width="199" height="199" fill="none"/></g></g></svg>