<svg xmlns="http://www.w3.org/2000/svg" width="456.1" height="204.567" viewBox="0 0 456.1 204.567"><path d="M449.452,181.876a106.47,106.47,0,0,0-147.884-.023l-38.44,37.26,24.633,24.282,38.182-37.146a71.186,71.186,0,0,1,98.869-.016,66.925,66.925,0,0,1,.016,96.086,71.187,71.187,0,0,1-98.877.008l-123.4-120.469a106.473,106.473,0,0,0-147.887.014,100.828,100.828,0,0,0,0,144.82,106.473,106.473,0,0,0,147.9.014l38.33-37.283-24.661-24.1-38.168,36.994a71.184,71.184,0,0,1-98.867.016,66.922,66.922,0,0,1-.016-96.086,71.185,71.185,0,0,1,98.876-.008L301.446,326.708a106.472,106.472,0,0,0,147.87,0,100.729,100.729,0,0,0,.136-144.838Z" transform="translate(480.1 356.567) rotate(180)" fill="#fff"/></svg>