<svg xmlns="http://www.w3.org/2000/svg" width="200" height="200" viewBox="0 0 200 200"><path d="M117.286,32.286a7.143,7.143,0,0,1-7.143,7.143H81.571a7.143,7.143,0,0,1-7.143-7.143V18H3v85.714H188.714V18H117.286Z" transform="translate(4.143 96.286)" fill="#fff"/><rect width="13.77" height="27.54" transform="translate(91.98 93.224)" fill="#fff"/><path d="M152,30.571V16.286A14.286,14.286,0,0,0,137.714,2H66.286A14.286,14.286,0,0,0,52,16.286V30.571H2V102H80.571V87.714a7.143,7.143,0,0,1,7.143-7.143h28.571a7.143,7.143,0,0,1,7.143,7.143V102H202V30.571ZM66.286,16.286h71.429V30.571H66.286Z" transform="translate(-2 -2)" fill="#fff"/></svg>