<svg xmlns="http://www.w3.org/2000/svg" width="200" height="200" viewBox="0 0 200 200"><g transform="translate(16602 6890)"><g transform="translate(-16582 -6882)"><path d="M-63.176-73.456q-17.483,0-26.526-9.094t-9.043-26.556v-50.929h15.192v51.778q0,11.035,5.185,16.673t15.192,5.639q9.887,0,15.072-5.7t5.185-16.613v-51.778h15.192v50.929q0,17.34-9.043,26.5T-63.176-73.456Zm53.293-86.579H5.672v85.488H-9.882Z" transform="translate(98.745 160.035)" fill="#fff"/><path d="M-105.649-73.456q-17.583,0-26.677-9.094t-9.094-26.556v-50.929h15.279v51.778q0,11.035,5.214,16.673t15.279,5.639q9.943,0,15.157-5.7t5.214-16.613v-51.778H-70v50.929q0,17.34-9.094,26.5T-105.649-73.456ZM19.49-74.547H1.3L-21.859-106.56-45.141-74.547H-63.33l32.619-43.532-31.406-41.956h18.189l22.069,30.679L.331-160.035H18.52l-31.527,42.077Z" transform="translate(141.472 256.716)" fill="#fff"/></g><g transform="translate(-16602 -6890)" fill="#fff" stroke="#707070" stroke-width="1" opacity="0"><rect width="200" height="200" stroke="none"/><rect x="0.5" y="0.5" width="199" height="199" fill="none"/></g></g></svg>