<svg xmlns="http://www.w3.org/2000/svg" width="200" height="200" viewBox="0 0 200 200"><path d="M95.041,43.171c-29.947,0-56.667,26.719-56.667,56.667,0,28.839,24.755,54.585,53.333,56.459v83.541a3.334,3.334,0,0,0,3.333,3.333h140a3.334,3.334,0,0,0,3.333-3.333v-140a3.334,3.334,0,0,0-3.333-3.333H151.5C149.626,67.926,123.88,43.171,95.041,43.171ZM90.25,50.046c.485-.067.97.067,1.458,0V69.838H73.583a166.872,166.872,0,0,1,5.833-17.083A45.838,45.838,0,0,1,90.25,50.046Zm8.125,0a43.968,43.968,0,0,1,11.875,2.5,162.575,162.575,0,0,1,5.833,17.291H98.374ZM70.666,56.921c-1.521,4.3-2.84,8.645-3.959,12.917H56.083A55.444,55.444,0,0,1,70.666,56.921Zm48.333,0a54.8,54.8,0,0,1,14.375,12.917H122.958C121.848,65.535,120.524,61.255,119,56.921ZM51.5,76.5H65.041a125.069,125.069,0,0,0-2.5,20H45.249A47.036,47.036,0,0,1,51.5,76.5Zm20.208,0h20v20h-22.5A115.884,115.884,0,0,1,71.708,76.5Zm26.667,0H117.75a120.993,120.993,0,0,1,2.917,20H98.374Zm26.042,0h13.541a49.31,49.31,0,0,1,6.25,20H127.124A129.1,129.1,0,0,0,124.416,76.5ZM45.249,103.171H62.333a114.611,114.611,0,0,0,1.875,20h-12.5A46.242,46.242,0,0,1,45.249,103.171Zm23.75,0H91.708v20H71.083A108.336,108.336,0,0,1,69,103.171Zm29.375,0H231.708v20H98.374Zm10,6.667a3.333,3.333,0,1,0,3.333,3.333A3.333,3.333,0,0,0,108.374,109.838Zm13.333,0a3.333,3.333,0,1,0,3.333,3.333A3.333,3.333,0,0,0,121.708,109.838Zm13.333,0a3.333,3.333,0,1,0,3.333,3.333A3.333,3.333,0,0,0,135.041,109.838Zm-78.541,20h9.167c.9,3.667,2.056,7.325,3.333,11.042A55.29,55.29,0,0,1,56.5,129.838Zm16.041,0H91.708V149a48.34,48.34,0,0,1-13.75-3.333A130.253,130.253,0,0,1,72.541,129.838Zm25.833,0H231.708V236.5H98.374V153.588a3.333,3.333,0,0,0,0-.417Z" transform="translate(-38.375 -43.171)" fill="#fff"/></svg>