<svg xmlns="http://www.w3.org/2000/svg" width="70.857" height="86.996" viewBox="0 0 70.857 86.996"><g transform="translate(-0.264 -0.302)"><g transform="translate(0.264 78.591)"><path d="M18.907,291.358a.5.5,0,0,1-.425-.19l-4.819-6.337v6.464h-1.1v-7.96a.572.572,0,0,1,.562-.57.5.5,0,0,1,.437.2l4.807,6.325v-6.439h1.1V290.8a.553.553,0,0,1-.562.558m9.09.076a9.535,9.535,0,0,1-3.321-.634l.262-.913a10.293,10.293,0,0,0,3.059.545c1.386,0,2.11-.495,2.11-1.191,0-.634-.562-.951-2.5-1.863s-2.7-1.5-2.7-2.636c0-1.432,1.1-2.015,3.171-2.015a12.336,12.336,0,0,1,2.947.406l-.175.938a12.552,12.552,0,0,0-2.747-.342c-1.46,0-2.06.279-2.06.976s.437.976,2.484,1.927c2.16,1,2.709,1.508,2.709,2.548,0,1.509-1.423,2.256-3.246,2.256m8.452-8.581h1.136v8.441H36.448Zm10.8,4.614H44.426v2.865h2.822a1.437,1.437,0,1,0,0-2.865m-.55-3.651H44.426v2.7H46.7a1.441,1.441,0,0,0,1.573-1.394c0-.8-.574-1.306-1.573-1.306m.562,7.478h-3.4a.567.567,0,0,1-.575-.57v-7.3a.574.574,0,0,1,.575-.57h2.809c1.723,0,2.747.849,2.747,2.18a2.131,2.131,0,0,1-1.074,1.787,2.157,2.157,0,0,1,1.611,2.053,2.507,2.507,0,0,1-2.7,2.421m8.152,0a.572.572,0,0,1-.561-.57v-7.871h1.136v7.415h4.52v1.026Zm12.838.139c-2.322,0-3.72-.862-3.72-2.6a2.107,2.107,0,0,1,1.361-1.977,2.13,2.13,0,0,1-1.1-1.812c0-1.572,1.211-2.32,3.483-2.32a13.476,13.476,0,0,1,2.734.292l-.125.938a17,17,0,0,0-2.7-.241c-1.473,0-2.26.406-2.26,1.382a1.531,1.531,0,0,0,1.686,1.382h1.947a.488.488,0,0,1,0,.976h-2.1c-1.1,0-1.8.545-1.8,1.382,0,1.229,1.136,1.6,2.559,1.6a12.5,12.5,0,0,0,2.671-.3l.163.925a11.06,11.06,0,0,1-2.809.38m-64.142-7,1.99,4.985-3-2.4Zm3.535,6.134-3.06-7.477a.494.494,0,0,0-.474-.33.51.51,0,0,0-.487.33l-3.359,8.2H1.413l1.33-3.381,3.968,3.254a.64.64,0,0,0,.425.19A.553.553,0,0,0,7.7,290.8a.746.746,0,0,0-.053-.23Z" transform="translate(-0.264 -282.726)" fill="#1a1918"/></g><path d="M71.47,35.664A35.362,35.362,0,1,1,36.108.3,35.361,35.361,0,0,1,71.47,35.664" transform="translate(-0.348)" fill="#1a1918"/><path d="M84.334,58.463l9.151,22.585L79.663,70.16l4.671-11.7ZM100.59,86.251,86.515,52.376a2.272,2.272,0,0,0-2.18-1.494,2.348,2.348,0,0,0-2.241,1.494L66.644,89.532h5.285l6.116-15.32L96.3,88.957a2.965,2.965,0,0,0,1.952.862,2.524,2.524,0,0,0,2.584-2.526,3.346,3.346,0,0,0-.241-1.043Z" transform="translate(-47.979 -36.559)" fill="#fff"/></g></svg>