<svg xmlns="http://www.w3.org/2000/svg" width="115.616" height="97" viewBox="0 0 115.616 97"><path d="M17.559,78.674v-7.4a1.615,1.615,0,0,1,1.614-1.753h.279a1.614,1.614,0,0,1,1.611,1.753V86.852A9.816,9.816,0,0,1,15.916,95.6a9.665,9.665,0,0,1-4.949,1.35h-.7A9.822,9.822,0,0,1,1.525,91.8a9.638,9.638,0,0,1-1.349-4.95v-.694a9.827,9.827,0,0,1,5.145-8.749,9.631,9.631,0,0,1,4.951-1.35h.7a9.78,9.78,0,0,1,6.592,2.615ZM3.68,86.5a6.655,6.655,0,0,0,3.734,6.123,6.482,6.482,0,0,0,3.137.818,6.752,6.752,0,0,0,6.069-3.553,6.574,6.574,0,0,0,.939-3.458,6.692,6.692,0,0,0-3.043-5.614,6.538,6.538,0,0,0-3.9-1.255A6.663,6.663,0,0,0,4.3,83.682,6.436,6.436,0,0,0,3.68,86.5ZM33.218,76.059H33.7a9.936,9.936,0,0,1,9.1,5.513,9.42,9.42,0,0,1,1.2,4.586v.694A9.8,9.8,0,0,1,38.861,95.6a9.688,9.688,0,0,1-4.948,1.349h-.694A9.821,9.821,0,0,1,24.472,91.8a9.639,9.639,0,0,1-1.351-4.95v-.694a9.85,9.85,0,0,1,5.145-8.749,9.587,9.587,0,0,1,4.952-1.351ZM26.625,86.5a6.746,6.746,0,0,0,3.556,6,6.494,6.494,0,0,0,3.454.94,6.7,6.7,0,0,0,5.931-3.556,6.516,6.516,0,0,0,.938-3.456,6.671,6.671,0,0,0-3.232-5.74,6.516,6.516,0,0,0-3.707-1.129,6.662,6.662,0,0,0-6.316,4.118,6.424,6.424,0,0,0-.624,2.822Zm31.95-6.659a6.558,6.558,0,0,0-2.091-.352c-2.927-.11-5.046,1.538-6.288,4.121a6.407,6.407,0,0,0-.625,2.819,6.76,6.76,0,0,0,4.255,6.384,7.982,7.982,0,0,0,3.311.556,8.681,8.681,0,0,0,3.1-.973l.145-.069h.648l.071.014a1.554,1.554,0,0,1,1.4,1.528v.347c0,2.133-3.9,2.622-5.387,2.726-5.25.363-9.176-2.52-10.673-7.528a9.074,9.074,0,0,1-.377-2.639v-.693a9.845,9.845,0,0,1,5.145-8.745,9.591,9.591,0,0,1,4.951-1.352h.695a8.922,8.922,0,0,1,5.13,1.584l.127.088.08.132a1.845,1.845,0,0,1,.31.923v.347a1.584,1.584,0,0,1-1.477,1.531l-.067.012h-.207a7.9,7.9,0,0,1-2.178-.761Zm11.365,2.373c1.361-1.363,2.727-2.723,4.108-4.063.385-.374,1.842-1.957,2.416-1.957h.628l.071.015a1.553,1.553,0,0,1,1.4,1.531v.346c0,.586-.686,1.267-1.065,1.668-.8.853-1.652,1.679-2.476,2.514l-4.233,4.3q2.734,2.74,5.452,5.5.752.762,1.493,1.536a3.84,3.84,0,0,1,.577.665,1.435,1.435,0,0,1,.253.792v.362l-.02.084a1.655,1.655,0,0,1-1.59,1.444h-.279c-.58,0-1.234-.656-1.632-1.031-.818-.771-1.608-1.583-2.411-2.371l-2.69-2.641v4.221a1.616,1.616,0,0,1-1.614,1.754h-.276a1.616,1.616,0,0,1-1.614-1.754V71.343a1.613,1.613,0,0,1,1.614-1.75h.276a1.613,1.613,0,0,1,1.614,1.75V82.217Zm43.671-6.02h.348a1.66,1.66,0,0,1,1.752,1.753c0,1.451-1.387,1.822-2.587,1.822a6.293,6.293,0,0,0-4.161,2.021,6.67,6.67,0,0,0-1.944,4.919V95.2a1.615,1.615,0,0,1-1.614,1.753h-.277a1.614,1.614,0,0,1-1.614-1.753v-8.97A9.846,9.846,0,0,1,107.988,78a9.636,9.636,0,0,1,5.624-1.8Zm-24.9,16.811a8.2,8.2,0,0,0,4.037.154,9.106,9.106,0,0,1,3.01-.922l.1.017.09.044a1.976,1.976,0,0,1,.947.841,1.679,1.679,0,0,1-.662,2.359l-.3.173a9.995,9.995,0,0,1-10.172-.139,9.432,9.432,0,0,1-3.69-3.677l-.209-.362a9.908,9.908,0,0,1,.561-11.1A9.59,9.59,0,0,1,85.6,77.512l.48-.277a9.878,9.878,0,0,1,9.7-.1,9.488,9.488,0,0,1,4.094,3.8l.174.3c.7,1.215-.207,2.273-1.144,3-1.088.839-2.186,1.849-3.229,2.749q-3.488,3.011-6.97,6.028ZM85.7,90.894q3.9-3.344,7.794-6.7c.886-.764,1.858-1.557,2.737-2.361a6.924,6.924,0,0,0-2.885-1.912,6.91,6.91,0,0,0-9.236,6.966,6.15,6.15,0,0,0,.91,3.077A8.1,8.1,0,0,0,85.7,90.894ZM66.789,20.68h10.34V31.25h5.228a22.673,22.673,0,0,0,7.184-1.2,18.4,18.4,0,0,0,3.493-1.578,12.959,12.959,0,0,1-2.424-6.683c-.3-3.226.353-7.425,2.536-9.95l1.087-1.257,1.3,1.041c3.261,2.62,6,6.28,6.487,10.454a15.8,15.8,0,0,1,12,1.116l1.42.819-.747,1.459c-2.927,5.712-9.047,7.482-15.029,7.169C90.7,54.93,71.213,65.486,47.582,65.486c-12.209,0-23.41-4.564-29.789-15.4l-.1-.176-.929-1.891a29.989,29.989,0,0,1-2.387-15.21l.146-1.563h8.842V20.68H33.7V10.34h20.68V0H66.789V20.68" transform="translate(-0.096)" fill="#364548" fill-rule="evenodd"/><path d="M119.4,40.291c.693-5.388-3.339-9.62-5.84-11.63-2.882,3.332-3.329,12.064,1.192,15.74-2.523,2.241-7.84,4.272-13.284,4.272H35.2a27.925,27.925,0,0,0,2.747,15.395l.754,1.379a25.563,25.563,0,0,0,1.562,2.344q4.087.263,7.534.184h0a36.939,36.939,0,0,0,10.994-1.6.8.8,0,0,1,.521,1.5c-.372.129-.759.25-1.159.364h0a34.568,34.568,0,0,1-7.6,1.238c.181,0-.188.027-.189.027-.1.007-.234.022-.338.027-1.2.067-2.49.081-3.811.081-1.445,0-2.868-.027-4.46-.109l-.041.027c5.521,6.206,14.154,9.928,24.976,9.928,22.9,0,42.329-10.153,50.931-32.945,6.1.626,11.968-.93,14.636-6.138-4.25-2.452-9.715-1.67-12.862-.089" transform="translate(-19.208 -15.701)" fill="#22a0c8" fill-rule="evenodd"/><path d="M124.3,40.291c.693-5.388-3.339-9.62-5.84-11.63-2.882,3.332-3.329,12.064,1.192,15.74-2.523,2.241-7.84,4.272-13.284,4.272H44.029c-.27,8.7,2.959,15.309,8.673,19.3h0a36.939,36.939,0,0,0,10.994-1.6.8.8,0,0,1,.521,1.5c-.372.129-.759.25-1.159.364h0a36.345,36.345,0,0,1-7.8,1.292l-.075-.07c7.794,4,19.1,3.984,32.054-.993,14.529-5.582,28.049-16.216,37.482-28.378q-.213.1-.415.2" transform="translate(-24.111 -15.701)" fill="#37b1d9" fill-rule="evenodd"/><path d="M35.645,88.186a26.487,26.487,0,0,0,2.623,8.49l.754,1.379a25.518,25.518,0,0,0,1.562,2.344q4.087.262,7.535.184a36.939,36.939,0,0,0,10.994-1.6.8.8,0,0,1,.521,1.5c-.372.129-.759.25-1.159.364h0a36.357,36.357,0,0,1-7.789,1.266c-.1.006-.287.008-.392.014-1.2.067-2.476.108-3.8.108-1.445,0-2.923-.028-4.513-.109,5.521,6.206,14.208,9.941,25.03,9.941,19.607,0,36.665-7.442,46.566-23.886H35.645" transform="translate(-19.527 -48.309)" fill="#1b81a5" fill-rule="evenodd"/><path d="M45.367,88.186a19.9,19.9,0,0,0,8.078,12.4,36.939,36.939,0,0,0,10.994-1.6.8.8,0,0,1,.521,1.5c-.372.129-.759.25-1.159.364h0a36.9,36.9,0,0,1-7.843,1.266c7.794,4,19.063,3.94,32.02-1.037a84.625,84.625,0,0,0,22.15-12.894H45.367" transform="translate(-24.852 -48.309)" fill="#1d91b4" fill-rule="evenodd"/><path d="M55.26,37.017h8.962v8.962H55.26Zm.747.747h.707v7.468h-.707Zm1.329,0h.736v7.468h-.735V37.764Zm1.357,0h.736v7.468h-.736Zm1.358,0h.735v7.468h-.735Zm1.358,0h.735v7.468H61.41V37.764Zm1.357,0h.708v7.468h-.708ZM65.6,26.677h8.962v8.961H65.6V26.677Zm.747.747h.707v7.467h-.707Zm1.329,0h.735v7.467h-.735V27.424Zm1.357,0h.735v7.467h-.735Zm1.358,0h.735v7.467h-.735Zm1.358,0h.736v7.467H71.75Zm1.357,0h.708v7.467h-.708Z" transform="translate(-30.272 -14.614)" fill="#23a3c2" fill-rule="evenodd"/><path d="M78.125,49.543h8.962V58.5H78.125V49.543Zm.747.747h.707v7.468h-.707Zm1.329,0h.735v7.468H80.2V50.29Zm1.357,0h.735v7.468h-.735Zm1.358,0h.735v7.468h-.735Zm1.358,0h.736v7.468h-.736Zm1.357,0h.708v7.468h-.708Z" transform="translate(-42.798 -27.14)" fill="#34bbde" fill-rule="evenodd"/><path d="M100.993,49.543h8.962V58.5h-8.962Zm.747.747h.707v7.468h-.707Zm1.329,0h.735v7.468h-.735Zm1.358,0h.735v7.468h-.735Zm1.358,0h.735v7.468h-.735Zm1.357,0h.736v7.468h-.736Zm1.358,0h.707v7.468H108.5Z" transform="translate(-55.325 -27.14)" fill="#23a3c2" fill-rule="evenodd"/><path d="M100.993,26.677h8.962v8.961h-8.962Zm.747.747h.707v7.467h-.707Zm1.329,0h.735v7.467h-.735Zm1.358,0h.735v7.467h-.735Zm1.358,0h.735v7.467h-.735Zm1.357,0h.736v7.467h-.736Zm1.358,0h.707v7.467H108.5Zm2.833,9.593h8.962v8.962h-8.962Zm.747.747h.707v7.468h-.707Zm1.329,0h.735v7.468h-.735Zm1.357,0h.735v7.468h-.735Zm1.358,0h.736v7.468h-.736Zm1.358,0h.736v7.468h-.736Zm1.358,0h.707v7.468h-.707Z" transform="translate(-55.325 -14.614)" fill="#34bbde" fill-rule="evenodd"/><path d="M123.859,26.677h8.962v8.961h-8.962Zm.747.747h.707v7.467h-.707Zm1.329,0h.735v7.467h-.735Zm1.357,0h.735v7.467h-.735Zm1.358,0h.736v7.467h-.736Zm1.358,0h.736v7.467h-.736Zm1.358,0h.707v7.467h-.707Z" transform="translate(-67.851 -14.614)" fill="#23a3c2" fill-rule="evenodd"/><path d="M123.859,3.81h8.962v8.962h-8.962Zm.747.747h.707v7.468h-.707V4.556Zm1.329,0h.735v7.468h-.735V4.556Zm1.357,0h.735v7.468h-.735V4.556Zm1.358,0h.736v7.468h-.736V4.556Zm1.358,0h.736v7.468h-.736V4.556Zm1.358,0h.707v7.468h-.707V4.556Z" transform="translate(-67.851 -2.087)" fill="#34bbde" fill-rule="evenodd"/><path d="M146.725,49.543h8.962V58.5h-8.962Zm.746.747h.708v7.468h-.707V50.29Zm1.329,0h.736v7.468H148.8V50.29Zm1.358,0h.736v7.468h-.736Zm1.357,0h.736v7.468h-.736Zm1.358,0h.735v7.468h-.735Zm1.357,0h.707v7.468h-.707Z" transform="translate(-80.377 -27.14)" fill="#23a3c2" fill-rule="evenodd"/><path d="M93.708,101.492a2.472,2.472,0,1,1-2.473,2.472,2.472,2.472,0,0,1,2.473-2.472" transform="translate(-49.98 -55.598)" fill="#d3ecec" fill-rule="evenodd"/><path d="M43.729,90.2a1.764,1.764,0,0,1,.641.12.722.722,0,1,0,.995.972A1.77,1.77,0,1,1,43.729,90.2M0,84.377H115c-2.5-.635-7.922-1.493-7.029-4.775-4.554,5.269-15.534,3.7-18.306,1.1-3.086,4.476-21.051,2.774-22.3-.713-3.869,4.54-15.857,4.54-19.726,0-1.254,3.487-19.219,5.188-22.305.712-2.771,2.6-13.751,4.171-18.3-1.1C7.923,82.884,2.5,83.742,0,84.378" transform="translate(0 -43.607)" fill="#364548" fill-rule="evenodd"/><path d="M77.164,127.362c-6.123-2.905-9.483-6.855-11.353-11.166a37.928,37.928,0,0,1-8.185,1.242q-1.795.1-3.776.1-2.284,0-4.813-.134c5.615,5.612,12.522,9.932,25.312,10.011q1.416,0,2.814-.053" transform="translate(-26.863 -63.653)" fill="#bdd9d7" fill-rule="evenodd"/><path d="M78.49,120.173a21.463,21.463,0,0,1-2.273-3.979,37.9,37.9,0,0,1-8.186,1.244c2.182,1.184,5.3,2.282,10.459,2.736" transform="translate(-37.268 -63.652)" fill="#d3ecec" fill-rule="evenodd"/></svg>