<svg xmlns="http://www.w3.org/2000/svg" width="53.714" height="88.001" viewBox="0 0 53.714 88.001"><g transform="translate(-0.893 -0.296)"><path d="M56.639,70.034c0,14.67-11.632,26.574-25.987,26.574S4.664,84.7,4.664,70.034,16.3,43.46,30.651,43.46s25.988,11.9,25.988,26.574" transform="translate(-2.975 -34.047)" fill="#d33833"/><path d="M4.636,82.876S2.75,55.171,28.3,54.374L26.516,51.4,12.663,56.051,8.7,60.6,5.244,67.221l-1.97,7.712.587,5.156" transform="translate(-1.878 -40.309)" fill="#ef3d3a"/><path d="M9.884,49.245a26.221,26.221,0,0,0,0,36.466,24.754,24.754,0,0,0,35.586,0,26.221,26.221,0,0,0,0-36.466,24.754,24.754,0,0,0-35.586,0ZM8.731,86.822a27.814,27.814,0,0,1,0-38.709,26.372,26.372,0,0,1,37.891,0,27.814,27.814,0,0,1,0,38.709,26.372,26.372,0,0,1-37.891,0Z" transform="translate(0 -31.387)" fill="#231f20"/><path d="M75.246,39.97l-3.961.587-5.344.608-3.458.084-3.374-.1-2.578-.8-2.284-2.473-1.781-5.051-.4-1.09-2.368-.8-1.383-2.284-.985-3.27,1.09-2.871,2.578-.9,2.075.985.985,2.18,1.195-.189.4-.5-.4-2.284-.1-2.871.587-3.961L55.713,12.7l1.8-2.892L60.68,7.528,66.213,5.16l6.141.9L77.7,9.917l2.473,3.961,1.593,2.871.4,7.125-1.195,6.141-2.18,5.449-2.054,2.913" transform="translate(-36.629 -3.837)" fill="#f0d6b7"/><path d="M59.292,181.851l-14.146.587v2.368l1.195,8.32-.587.692-9.892-3.374-.692-1.195-.985-11.191-2.326-6.706-.5-1.593,7.922-5.449,2.473-.985,2.18,2.682,1.886,1.677,2.18.692.985.294,1.195,5.156.9,1.09,2.284-.8L51.768,177.2l8.593,4.066-1.069.587" transform="translate(-24.028 -128.594)" fill="#335061"/><path d="M51,26.077l2.578-.9,2.075.985.985,2.18,1.195-.189.294-1.195-.587-2.284.587-5.449-.5-2.976,1.781-2.075,3.856-3.06-1.09-1.488-5.449,2.682L54.44,14.089l-1.278,2.766-1.97,2.683L50.6,22.7l.4,3.374" transform="translate(-39.212 -7.359)" fill="#6d6b6d"/><path d="M55.069,18.092s1.488-3.668,7.419-5.449.294-1.278.294-1.278l-6.434,2.473L53.874,16.31l-1.09,1.97,2.284-.189m-2.976,8.614s-2.075-6.937,5.847-7.922l-.293-1.195L52.2,18.867,50.6,24.023,51,27.4l1.09-.692" transform="translate(-39.212 -8.679)" fill="#dcd9d8"/><path d="M52.362,28.207l1.3-1.258a.835.835,0,0,1,.692.754c.1.692.4,6.937,4.653,10.29.4.314-3.165-.5-3.165-.5l-3.165-4.946m17.9-6.224s.23-3,1.048-2.766a1.12,1.12,0,0,1,.817,1.048s-1.97,1.258-1.865,1.719m8.215-10.982s-1.635.335-1.781,1.781,1.781.293,2.075.189m-12.26-1.865s-2.18.293-2.18,1.677,2.473,1.278,3.165.692m-14.44,4.066s-3.751-2.284-4.149-.1-1.278,3.751.587,6.036l-1.278-.4-1.194-3.06-.4-2.976,2.284-2.368L51.8,19.2l1.488,1.195.084,1.488m1.781-6.245s1.676-8.718,10.185-10.4c7-1.383,10.688.294,12.071,1.886,0,0-6.245-7.419-12.176-5.156C59.3,4.252,54.94,8.4,55.044,11.064c.168,4.569.1,4.569.1,4.569M78.1,8.109s-2.871-.1-2.976,2.473a2.075,2.075,0,0,0,.189.8s2.284-2.578,3.668-1.195" transform="translate(-36.317 -0.98)" fill="#f7e4cd"/><path d="M113.8,40.57s-.5-3.94-3.856-1.656c-2.18,1.488-1.97,3.563-1.593,3.961.4.4.293,1.194.587.65s.21-2.326,1.3-2.829c1.069-.5,2.871-1.048,3.563-.126" transform="translate(-84.574 -29.9)" fill="#f7e4cd"/><path d="M44.028,165.693l-9.306,4.149s3.856,15.341,1.886,20.1l-1.383-.5-.1-5.847-2.578-11.065-1.09-3.06,9.7-6.539,2.871,2.766m.943,8.488,1.32,1.614v5.931H44.72s-.189-4.15-.189-4.652.189-2.284.189-2.284m.293,7.838-4.464.189,1.278.9,3.164.5" transform="translate(-24.105 -128.28)" fill="#49728b"/><path d="M167.789,251.144l3.667-.1.9,9.1-3.751.5-.817-9.494" transform="translate(-131.645 -197.783)" fill="#335061"/><path d="M172.453,176.477l5.533-.294s2.284-5.742,2.284-6.036,1.97-8.32,1.97-8.32l-4.464-4.653-.9-.8-2.368,2.368v9.2l-2.054,8.53" transform="translate(-135.324 -123.116)" fill="#335061"/><path d="M171.247,175.864l-3.458.692.5,2.766c1.278.587,3.458-.985,3.458-.985m-.4-19.8,6.937,5.156.189-2.368-5.239-4.841-1.886,2.054" transform="translate(-131.645 -123.194)" fill="#49728b"/><path d="M99.794,270.947l-2.054-8.32-1.027-6.141-.168-4.548,9.284-.5h5.763l-.524,10.395.9,8.027-.1,1.488-7.524.587-4.548-.985" transform="translate(-75.45 -198.096)" fill="#fff"/><path d="M138.1,248.847s-.5,10.29.985,17.625a18.774,18.774,0,0,1-7.314,2.368l8.32-.293.985-.587-1.194-16.221-.314-3.479" transform="translate(-103.234 -195.591)" fill="#dcd9d8"/><path d="M186.2,249.341l3.856-1.09,7.314-.4,1.09-3.374-1.97-5.847-2.284-.293-3.165.985-3.018,1.488-1.614-.294-1.258.5" transform="translate(-145.342 -187.764)" fill="#fff"/><path d="M189.817,254.707a14.183,14.183,0,0,1,2.976-1.09l-1.09-5.449,1.278-.5s.9,5.156.9,5.742c0,0,5.533.293,6.036.293a9.01,9.01,0,0,0,.9-4.653l1.09,3.165.1,1.781-1.593,2.368-1.781.4-2.976-.1-.985-1.278-3.458.5-1.09.4" transform="translate(-149.021 -195.121)" fill="#dcd9d8"/><path d="M154.69,209.726l-2.18-5.533-2.284-3.27s.5-1.383,1.195-1.383h2.284l2.18.8-.189,3.668-1.006,5.721" transform="translate(-117.792 -157.162)" fill="#fff"/><path d="M154.583,206.98s-2.766-5.344-2.766-6.141c0,0,.5-1.195,1.195-.9s2.18,1.09,2.18,1.09v-1.886l-3.374-.692-2.284.293,3.856,9.138.8.1" transform="translate(-117.244 -156.301)" fill="#dcd9d8"/><path d="M96.213,172.947l-2.745-.294-2.578-.8v.9l1.257,1.383,3.961,1.781" transform="translate(-70.988 -135.325)" fill="#fff"/><path d="M94.139,178.406s3.06,1.278,4.066.985l.1,1.195L95.544,180,93.867,178.8l.272-.4" transform="translate(-73.337 -140.491)" fill="#dcd9d8"/><path d="M171.721,180.643a18.3,18.3,0,0,1-4.527-.629,10.346,10.346,0,0,1,.063-1.467,3.458,3.458,0,0,1,1.551-.335,2.679,2.679,0,0,0-1.718-.189,2.848,2.848,0,0,0-.294-.9c.943-.335,3.165-2.536,4.422-1.823.608.356.859,2.326.9,3.311a3.467,3.467,0,0,1-.4,2.033" transform="translate(-130.862 -137.929)" fill="#d33833"/><path d="M171.721,180.643a18.3,18.3,0,0,1-4.527-.629,10.346,10.346,0,0,1,.063-1.467,3.458,3.458,0,0,1,1.551-.335,2.679,2.679,0,0,0-1.718-.189,2.848,2.848,0,0,0-.294-.9c.943-.335,3.165-2.536,4.422-1.823.608.356.859,2.326.9,3.311A3.467,3.467,0,0,1,171.721,180.643Z" transform="translate(-130.862 -137.929)" stroke="#d33833" stroke-width="2"/><path d="M124.659,179.422a2.26,2.26,0,0,1-.021.377c-.524.335-1.362.335-1.949.629a5.493,5.493,0,0,1,2.1.524c-.021.315-.021.65-.042.964-.964.65-1.844,1.635-2.976,2.263a7.614,7.614,0,0,1-2.976.9c-.314-.084-.356-.482-.482-.859a12.444,12.444,0,0,1-.964-3.311c-.063-1.53-.23-4.108,1.425-3.793a14.45,14.45,0,0,1,3.919,1.425,3.98,3.98,0,0,0,1.97.88" transform="translate(-91.827 -139.453)" fill="#d33833"/><path d="M124.659,179.422a2.26,2.26,0,0,1-.021.377c-.524.335-1.362.335-1.949.629a5.493,5.493,0,0,1,2.1.524c-.021.315-.021.65-.042.964-.964.65-1.844,1.635-2.976,2.263a7.614,7.614,0,0,1-2.976.9c-.314-.084-.356-.482-.482-.859a12.444,12.444,0,0,1-.964-3.311c-.063-1.53-.23-4.108,1.425-3.793a14.45,14.45,0,0,1,3.919,1.425A3.98,3.98,0,0,0,124.659,179.422Z" transform="translate(-91.827 -139.453)" stroke="#d33833" stroke-width="2"/><path d="M155.587,188.793a5.733,5.733,0,0,1-.252-1.8c2.242-1.488,2.641,2.557.251,1.8" transform="translate(-121.811 -147)" fill="#d33833"/><path d="M155.587,188.793a5.733,5.733,0,0,1-.252-1.8c2.242-1.488,2.641,2.557.251,1.8Z" transform="translate(-121.811 -147)" stroke="#d33833" stroke-width="2"/><path d="M126.143,177.71s-.692-.985-.189-1.278.985,0,1.278-.5,0-.8.1-1.383.587-.692,1.09-.8,1.886-.294,2.075.189l-.587-1.782-1.195-.4-3.751,2.18-.189,1.09v2.18m-9.033,3.772c-.126-1.551-.251-3.081-.377-4.632-.21-2.305.545-1.907,2.557-1.907a5.162,5.162,0,0,1,1.991.587c.545,1.111-.9.859.629,1.7,1.278.692,3.563-.419,3.039-1.991-.294-.356-1.509-.1-1.949-.335l-2.326-1.194c-.985-.5-3.248-1.258-4.3-.545-2.662,1.8.168,6.329,1.111,8.215" transform="translate(-89.14 -135.247)" fill="#ef3d3a"/><path d="M72.822,43.454c-2.7-.629-4.045,1.132-4.862,2.955-.734-.167-.44-1.174-.251-1.676.482-1.32,2.431-3.1,4.024-2.85.671.084,1.593.713,1.09,1.572m13.14,3.06h.126A28.361,28.361,0,0,0,88,50.245c-.524,1.216-3.9,2.263-3.856.126.734-.314,1.991-.063,2.641-.482a7.352,7.352,0,0,1-.817-3.374m-11.778.042c.587,1.069.775,2.18,1.593,2.976.377.356,1.09.8.734,1.8a2.306,2.306,0,0,1-1.048.859c-1.278.377-4.275.084-3.269-1.53,1.069.042,2.494.692,3.29-.084-.608-.964-1.7-2.892-1.3-4.024m11.3,10.772c-1.928,1.237-4.087,2.6-7.272,2.284a2.145,2.145,0,0,1-.272-2.766c.335.587.126,1.677,1.09,1.844,1.8.314,3.9-1.111,5.2-1.593.8-1.362-.063-1.844-.8-2.725-1.488-1.781-3.458-4-3.4-6.664.608-.44.65.671.734.859a25.159,25.159,0,0,0,4.129,5.68c.356.377.922.754.985,1.006.189.712-.482,1.593-.4,2.075m-25.527-1.3c-.608-.356-.754-1.865-1.467-1.907-1.027-.063-.838,1.97-.838,3.165-.692-.629-.817-2.6-.314-3.6-.587-.294-.839.314-1.174.524.44-3.039,4.464-1.4,3.793,1.823M86.7,58.607c-.9,1.719-2.18,3.6-4.82,3.668a6,6,0,0,1,0-1.74c2.033-.21,3.29-1.236,4.82-1.928M74.038,59.717c1.677.88,4.778.985,7.084.922a7.642,7.642,0,0,1,.126,1.74c-2.955.126-6.434-.608-7.209-2.662m-.314,1.635c1.174,2.934,5.176,2.6,8.551,2.515a1.7,1.7,0,0,1-.88.985c-1.09.44-4.066.776-5.575-.021a7.78,7.78,0,0,1-2.1-2.326c-.231-.314-1.488-1.132,0-1.153" transform="translate(-43.595 -32.784)" fill="#231f20"/><path d="M178.238,205.668a58.628,58.628,0,0,1-4.3,6.811,33.357,33.357,0,0,0,1.069-7.9,2.483,2.483,0,0,1,3.227,1.09" transform="translate(-136.499 -160.942)" fill="#81b0c4"/><path d="M213.77,250.543c-1.53.314-2.6,1.8-4.108,1.7.838-1.153,2.263-1.656,4.108-1.7m.671,2.389a23.073,23.073,0,0,1-3.982.231c.608-.922,2.913-.587,3.982-.231m.44,2.075c-1.4.021-3.144,0-4.485-.1.8-.859,3.584-.314,4.485.1" transform="translate(-164.674 -197.392)" fill="#231f20"/><path d="M175.478,298.376c.21,1.76.9,3.542.817,5.47a5.929,5.929,0,0,1-2.264.482c-.063-1.635-.293-4.149-.23-5.721.5.042,1.257-.356,1.677-.231" transform="translate(-136.38 -235.102)" fill="#dcd9d8"/><path d="M150.871,175.429c-.713.461-1.3,1.027-1.991,1.53a4.3,4.3,0,0,1-3.416-.964c.021-.063.126-.042.126-.126,1.614.713,3.668-.293,5.281-.44" transform="translate(-114.036 -138.143)" fill="#f0d6b7"/><path d="M131.175,212.532c.44-1.907,2.18-2.913,3.751-3.961,1.614,2.054,2.6,4.694,3.689,7.251a37.136,37.136,0,0,1-7.44-3.29" transform="translate(-102.765 -164.285)" fill="#81b0c4"/><path d="M58.214,63.525c-.063,1.572.147,4.066.23,5.721a5.925,5.925,0,0,0,2.264-.482c.084-1.928-.608-3.71-.817-5.47C59.471,63.148,58.717,63.546,58.214,63.525ZM42.035,54.639a82.167,82.167,0,0,0,3.5,17.185,22.668,22.668,0,0,0,12.491.23c-.65-3.143-.377-6.979-.754-10.353-.294-2.536-.147-5.072-.545-7.65-4.338-.9-10.458-.21-14.691.587Zm15.718-.545c-.042,2.7.126,5.386.335,8.089a25.818,25.818,0,0,0,2.7-.482c-.314-2.6-.272-5.554-.922-7.859a6.667,6.667,0,0,0-2.117.251Zm5.26-.44a7.463,7.463,0,0,0-1.53,0c.23,2.2.754,4.632.943,6.958.734.021,1.132-.335,1.74-.44C64.208,58.139,64,55.331,63.013,53.654ZM71,60.948c1.551-.377,2.515-2.263,2.075-4.212a19.661,19.661,0,0,0-1.362-4.611c-.4-.608-1.509-1.425-2.41-.859-1.446.922-3.982,1.195-5.03,2.305a36.717,36.717,0,0,1,.9,6.371c1.8.1,4-.5,5.512.147-1.048.335-2.389.335-3.29.838a6.943,6.943,0,0,0,3.6.021Zm-14.377-9.41c-1.09-2.557-2.075-5.2-3.689-7.251-1.572,1.048-3.29,2.054-3.751,3.961a38.222,38.222,0,0,0,7.44,3.29Zm2.682-7.9a33.335,33.335,0,0,1-1.069,7.9,60.422,60.422,0,0,0,4.3-6.811,2.483,2.483,0,0,0-3.227-1.09Zm-3.039-1.069c-.608-.063-1.132.712-1.928.377-.189.21-.356.419-.545.629,1.76,2.137,2.578,5.156,3.94,7.65.734-2.41.65-5.03.817-7.65-1.006.042-1.572-.943-2.284-1.006ZM54.316,39.99a5.739,5.739,0,0,0,.251,1.8C56.956,42.547,56.558,38.5,54.316,39.99Zm-2.662-.88a14.435,14.435,0,0,0-3.919-1.425c-1.655-.314-1.488,2.263-1.425,3.793a12.686,12.686,0,0,0,.964,3.311c.126.377.167.775.482.859a7.867,7.867,0,0,0,2.976-.9,30.744,30.744,0,0,0,2.976-2.263c.021-.314.021-.65.042-.964a5.046,5.046,0,0,0-2.1-.524c.566-.294,1.425-.294,1.949-.629a2.262,2.262,0,0,1,.021-.377,4.386,4.386,0,0,1-1.97-.88ZM41.8,37.328c-.859.88,2.41,2.054,3.437,2.117,0-.545.314-1.069.251-1.467C44.256,37.769,42.642,37.915,41.8,37.328Zm10.563.4c0,.084-.1.063-.126.126a4.346,4.346,0,0,0,3.416.964c.671-.482,1.278-1.069,1.991-1.53-1.635.147-3.689,1.153-5.281.44Zm9.682,2.934c-.042-.964-.294-2.955-.9-3.311-1.257-.734-3.479,1.488-4.422,1.823a2.846,2.846,0,0,1,.293.9,2.666,2.666,0,0,1,1.718.189,3.461,3.461,0,0,0-1.551.335c-.126.4.042.922-.063,1.467a19.332,19.332,0,0,0,4.527.629A3.394,3.394,0,0,0,62.049,40.661ZM40.358,38.167c-.272-.189-2.1-2.557-2.347-2.452a38.675,38.675,0,0,0-9.117,5.68c2.62,5.638,3.689,12.533,3.877,19.176,3,1.4,5.637,3.437,9.724,3.647-.482-3.332-.9-6.329-1.174-9.473-1.027-.44-2.494.021-3.458-.126,0-1.153,1.467-.5,1.593-1.278.084-.587-.817-.629-.524-1.551.754.272,1.153.88,1.949,1.111.734-1.593,0-4.422.1-5.763.021-.251.126-1.383.692-1.195.5.168-.021,3.039.021,4.3.042,1.174-.147,2.284.335,3.018A112.545,112.545,0,0,1,54.253,52.25a27.251,27.251,0,0,1-3.269-1.467c-.671-.377-2.745-1.153-2.934-1.781-.314-1.006.8-1.53.985-2.389-1.991,1.09-2.368-1.048-2.85-2.536a20.9,20.9,0,0,1-.775-3.165,39.739,39.739,0,0,1-5.051-2.745Zm19.952-2.18c2.746-1.32,3.248,4.967,2.159,7,.168.608.734.838.964,1.383-1.53,2.746-3.227,5.3-4.8,8.006,1.153-.734,2.829-.126,4.192-.671.5-.189.859-1.341,1.237-2.263a48.353,48.353,0,0,0,2.62-8.089,9.526,9.526,0,0,0,.335-2.222c-.126-.88-1.3-1.53-1.907-2.054-1.111-1.006-1.8-1.865-2.976-2.808-.44.692-1.446,1.153-1.823,1.719ZM34.092,11.655c-1.3,1.446-1.027,4.129-.88,6.057,2.368-1.488,5.491.126,5.47,2.641,1.132-.021.419-1.4.21-2.305-.671-2.913,1.132-6.057.084-8.718a7.125,7.125,0,0,0-4.883,2.326Zm9.347-8.362c-2.955.838-6.748,3-7.964,5.658.943-.147,1.593-.608,2.515-.671a5.8,5.8,0,0,0,1.216.042c.8-.21,1.488-2.012,2.1-2.683.587-.65,1.3-.943,1.782-1.53.314-.147.775-.147.8-.608a.454.454,0,0,0-.44-.21Zm15.4.8C55.762,2.35,50.564,1.051,47.3,2.685c-2.641,1.32-6.2,3.5-7.419,6.246,1.132,2.661-.335,5.092-.44,7.8-.042,1.446.671,2.683.734,4.255-.4.65-1.572.712-2.389.671-.272-1.383-.754-2.934-2.18-3.1a3.3,3.3,0,0,0-3.584,3.186c-.1,2.054,1.572,5.449,3.961,5.218.922-.084,1.153-1.006,2.159-1.006.545,1.09-.838,1.425-.985,2.2a5.262,5.262,0,0,0,.21,1.362,18.931,18.931,0,0,0,2.347,5.47c1.216,1.739,3.584,1.991,6.141,2.159.461-.985,2.138-.9,3.227-.65A10.786,10.786,0,0,1,45.535,33.6c-1.153-1.278-2.326-2.641-2.389-4.317,2.2,3.039,4,5.7,7.985,7.042,3.018,1.006,6.539-.461,8.865-2.1A10.466,10.466,0,0,0,62.217,31.5c2.557-3.688,3.751-8.928,3.5-14.021-.1-2.1-.1-4.192-.817-5.6-.733-1.467-3.227-2.808-4.694-1.467-.272-1.446,1.216-2.326,2.955-1.8C61.924,7,60.624,5.1,58.843,4.09Zm5.742,47.385c2.41-1.195,6.9-3.207,8.383,0A24.932,24.932,0,0,1,74.456,55.9c.4,1.719-.44,5.365-2.222,5.931a10.641,10.641,0,0,1-5.281.1,3.057,3.057,0,0,1-.65-.839,7.23,7.23,0,0,0-3.668.629c.1,1.006-.566,1.153-1.216,1.362-.461,1.865.943,4.3.608,5.973-.231,1.216-1.719,1.4-2.808,1.614a8.2,8.2,0,0,0,.126,1.8,2.71,2.71,0,0,1-2.431,1.572c-3.5.419-8.8.608-12.155-.608-.943-2.305-1.677-5.093-2.452-7.712-3.269.356-5.931-1.4-8.425-2.578-.859-.4-2.054-.629-2.389-1.32a11.958,11.958,0,0,1-.272-3.144,48.314,48.314,0,0,0-1.174-9.2c-.356-1.425-1.006-2.661-1.446-4.024a28.078,28.078,0,0,1-1.32-4.087c-.272-1.865,1.488-1.97,2.6-2.787,1.74-1.257,3.1-1.949,4.988-3.081A10.82,10.82,0,0,0,37.3,33.933c.377-.775-.649-1.865-.922-2.473a7.451,7.451,0,0,1-.734-2.725,5.277,5.277,0,0,1-3.5-2.242c-1.195-1.76-2.033-5.009-.985-7.461.084-.189.482-.587.545-.88a9.6,9.6,0,0,0-.252-1.991c-.1-3.207.545-5.973,2.7-6.937.88-3.5,4.024-4.652,6.979-6.392A21.967,21.967,0,0,1,44.717,1.3C49.223-.353,56.16-.039,59.911,2.79a19.988,19.988,0,0,1,5.03,5.575c2.41,4.841,2.222,12.952.545,18.862A19.391,19.391,0,0,1,64.48,30.14c-.314.671-1.3,1.991-1.195,2.578.126.608,2.264,2.222,2.725,2.662.817.8,2.389,1.844,2.515,2.85a9.73,9.73,0,0,1-.775,3.563c-1.006,3.437-2.012,6.6-3.165,9.682Z" transform="translate(-20.792)" fill="#231f20"/><path d="M127.844,129.027c.126-.168.838-.44,1.844.042,0,0-1.195.189-1.09,2.18l-.5-.1c.021.021-.5-1.781-.251-2.117" transform="translate(-100.083 -101.36)" fill="#f7e4cd"/><path d="M165.108,208.421a.545.545,0,1,1-.545-.545.541.541,0,0,1,.545.545m.545,2.536a.545.545,0,1,1-.545-.545.529.529,0,0,1,.545.545" transform="translate(-128.671 -163.736)" fill="#1d1919"/><g transform="translate(0.914 77.902)"><path d="M8.516,369.11q-.252.032-.44.063c-.126.021-.251.042-.419.084a.4.4,0,0,0-.335.251,1.242,1.242,0,0,0-.084.419v5.113a3.026,3.026,0,0,1-.293,1.3,2.751,2.751,0,0,1-.776.985,3.637,3.637,0,0,1-1.132.587,4.576,4.576,0,0,1-1.321.21,3.062,3.062,0,0,1-1.97-.587,1.932,1.932,0,0,1-.754-1.614,1.5,1.5,0,0,1,.335-1.006,1.163,1.163,0,0,1,.943-.4,1.2,1.2,0,0,1,.9.335,1.107,1.107,0,0,1,.335.817,1.232,1.232,0,0,1-.293.775,3.942,3.942,0,0,1-.671.65v.084a.547.547,0,0,0,.251.23.908.908,0,0,0,.4.084,1.485,1.485,0,0,0,1.236-.566,2.736,2.736,0,0,0,.44-1.7v-5.24a1.137,1.137,0,0,0-.063-.4c-.042-.1-.168-.189-.356-.272a2.2,2.2,0,0,0-.482-.147c-.189-.042-.335-.063-.461-.084v-.5H8.453v.524Zm7.754,7.21a4.284,4.284,0,0,1-.545.712,3.263,3.263,0,0,1-.734.566,3.968,3.968,0,0,1-.88.377,3.828,3.828,0,0,1-1.027.126,4.533,4.533,0,0,1-1.677-.272,3.2,3.2,0,0,1-1.153-.733,3.12,3.12,0,0,1-.692-1.09,4.129,4.129,0,0,1-.23-1.362,3.314,3.314,0,0,1,.251-1.278,3.7,3.7,0,0,1,.692-1.09,3.15,3.15,0,0,1,1.132-.754,3.952,3.952,0,0,1,1.509-.294,4.395,4.395,0,0,1,1.509.231,2.621,2.621,0,0,1,.964.608,2.4,2.4,0,0,1,.545.88,3.568,3.568,0,0,1,.167,1.069v.419H11.68a3.272,3.272,0,0,0,.524,2.033,1.91,1.91,0,0,0,1.635.692,1.879,1.879,0,0,0,1.111-.335,2.981,2.981,0,0,0,.838-.859l.482.356Zm-2.494-2.494c0-.252-.021-.524-.042-.8a1.875,1.875,0,0,0-.147-.671.951.951,0,0,0-.314-.461.735.735,0,0,0-.482-.147.883.883,0,0,0-.8.5,3.368,3.368,0,0,0-.335,1.614Zm11.736,4.045h-3.94v-.482a1.654,1.654,0,0,0,.294-.042,1.815,1.815,0,0,0,.272-.063.46.46,0,0,0,.188-.21.983.983,0,0,0,.063-.4v-3.06a1.7,1.7,0,0,0-.251-1.006.827.827,0,0,0-.734-.335,1.232,1.232,0,0,0-.482.084,1.48,1.48,0,0,0-.44.23,1.342,1.342,0,0,0-.314.272.986.986,0,0,0-.189.251v3.5a1.017,1.017,0,0,0,.063.377.453.453,0,0,0,.21.231.7.7,0,0,0,.251.1l.314.063v.482H16.836v-.482a2.1,2.1,0,0,0,.335-.042c.1-.021.21-.042.293-.063a.478.478,0,0,0,.294-.231,1.025,1.025,0,0,0,.084-.4v-3.814a.939.939,0,0,0-.1-.4.987.987,0,0,0-.272-.314.952.952,0,0,0-.294-.126,1.219,1.219,0,0,0-.4-.063v-.482l3.123-.168.1.1v.943h.021q.229-.189.44-.4.232-.2.482-.377a2.974,2.974,0,0,1,.629-.272,2.705,2.705,0,0,1,.838-.1,2.022,2.022,0,0,1,1.593.608,2.338,2.338,0,0,1,.524,1.614v3.206a.876.876,0,0,0,.063.377.507.507,0,0,0,.272.231,1.73,1.73,0,0,0,.252.084c.1.021.21.042.356.063v.5Zm9.012,0H31.443q-.487-.871-1.048-1.7c-.314-.461-.608-.9-.88-1.278l-.377.335v1.425a.944.944,0,0,0,.063.377.439.439,0,0,0,.272.23,1.033,1.033,0,0,0,.272.084,1.605,1.605,0,0,0,.314.042v.482H25.994v-.482a2.1,2.1,0,0,0,.335-.042c.1-.021.21-.042.294-.063a.477.477,0,0,0,.293-.231,1.021,1.021,0,0,0,.084-.4v-7.293a1.125,1.125,0,0,0-.1-.44.776.776,0,0,0-.272-.356,1.125,1.125,0,0,0-.377-.126,1.865,1.865,0,0,0-.461-.063v-.482l3.248-.168.1.1v6.748c.314-.293.692-.629,1.09-1.006s.734-.692.964-.943c.147-.147.231-.252.231-.335a.554.554,0,0,0,.021-.147c0-.084-.063-.147-.21-.189a4.041,4.041,0,0,0-.629-.147v-.461h3.311v.461a7.883,7.883,0,0,0-1.006.335,7.115,7.115,0,0,0-.754.419q-.267.181-.524.377c-.168.126-.356.294-.587.482.419.629.817,1.195,1.174,1.719s.734,1.09,1.132,1.677a.98.98,0,0,0,.5.419,3.143,3.143,0,0,0,.608.126v.5h.063Zm4.192,0H34.587v-.482a1.838,1.838,0,0,0,.335-.042,2.755,2.755,0,0,0,.272-.063.477.477,0,0,0,.294-.231.75.75,0,0,0,.084-.4v-3.814a.8.8,0,0,0-.1-.4.637.637,0,0,0-.251-.272,1.529,1.529,0,0,0-.356-.147,2.008,2.008,0,0,0-.44-.084v-.482l3.206-.168.1.1v5.2a.868.868,0,0,0,.1.4.579.579,0,0,0,.272.231,1.213,1.213,0,0,0,.294.1c.1.021.21.042.335.063v.482h-.021Zm-.943-8.907a1.085,1.085,0,0,1-.377.838,1.323,1.323,0,0,1-.9.356,1.374,1.374,0,0,1-.922-.356,1.117,1.117,0,0,1-.377-.838,1.161,1.161,0,0,1,.377-.859,1.337,1.337,0,0,1,.922-.356,1.286,1.286,0,0,1,.9.356,1.129,1.129,0,0,1,.377.859Zm10.185,8.907h-3.94v-.482a1.649,1.649,0,0,0,.293-.042,1.809,1.809,0,0,0,.272-.063.46.46,0,0,0,.189-.21.986.986,0,0,0,.063-.4v-3.06a1.7,1.7,0,0,0-.252-1.006.826.826,0,0,0-.734-.335,1.231,1.231,0,0,0-.482.084,2.208,2.208,0,0,0-.44.23,1.342,1.342,0,0,0-.314.272.986.986,0,0,0-.189.251v3.5a1.017,1.017,0,0,0,.063.377.454.454,0,0,0,.21.231.7.7,0,0,0,.251.1l.314.063v.482H39.282v-.482a2.1,2.1,0,0,0,.335-.042c.1-.021.21-.042.293-.063a.477.477,0,0,0,.293-.231,1.024,1.024,0,0,0,.084-.4v-3.814a.942.942,0,0,0-.1-.4.987.987,0,0,0-.272-.314.952.952,0,0,0-.294-.126,1.22,1.22,0,0,0-.4-.063v-.482l3.123-.168.1.1v.943h.021q.229-.189.44-.4.232-.2.482-.377a2.974,2.974,0,0,1,.629-.272,2.705,2.705,0,0,1,.838-.1,2.021,2.021,0,0,1,1.593.608,2.337,2.337,0,0,1,.524,1.614v3.206a.876.876,0,0,0,.063.377.507.507,0,0,0,.272.231,1.735,1.735,0,0,0,.251.084c.1.021.21.042.357.063v.5h.042Zm3.625.23a4.6,4.6,0,0,1-2.179-.587l-.189.44h-.5l-.084-2.431h.482a2.841,2.841,0,0,0,.335.671,4.134,4.134,0,0,0,.524.671,3.606,3.606,0,0,0,.713.5,1.983,1.983,0,0,0,.839.21,1.426,1.426,0,0,0,.88-.231.87.87,0,0,0,.293-.712.775.775,0,0,0-.126-.44,1.274,1.274,0,0,0-.356-.294,3.535,3.535,0,0,0-.566-.23c-.21-.063-.461-.126-.754-.231a4.449,4.449,0,0,1-.755-.272,2.277,2.277,0,0,1-.65-.419,1.869,1.869,0,0,1-.461-.608,1.8,1.8,0,0,1-.168-.859,1.749,1.749,0,0,1,.775-1.488,3.383,3.383,0,0,1,2.033-.566,4.455,4.455,0,0,1,1.09.126,4.941,4.941,0,0,1,.838.272l.147-.377h.5l.1,2.222h-.461a2.747,2.747,0,0,0-.776-1.174,1.778,1.778,0,0,0-1.194-.5,1.284,1.284,0,0,0-.8.21.706.706,0,0,0-.294.587.751.751,0,0,0,.419.713,5.242,5.242,0,0,0,1.174.419,4.239,4.239,0,0,1,1.718.817,1.8,1.8,0,0,1,.545,1.32,1.872,1.872,0,0,1-.838,1.656,4.276,4.276,0,0,1-2.263.587Z" transform="translate(-0.992 -367.727)" fill="#231f20"/></g></g></svg>