<svg xmlns="http://www.w3.org/2000/svg" width="80.049" height="76" viewBox="0 0 80.049 76"><path d="M77.9,163.471s-7.249,5.388-12.344,3.919c0,0,25.079,25.079,51.137.98,0,0,8.719-10.091,8.327-17.535l-3.428-.98s-4.8,23.707-29.879,20.768c.1.1-6.269-1.371-13.813-7.151Z" transform="translate(-44.989 -102.832)" fill="#eba546"/><path d="M25.32,59.369s-.784-9.013,3.135-12.539c0,0-34.483,8.327-27.528,43.2,0,0,4.114,12.735,10.58,16.262l2.547-2.449S-3.678,87.387,11.9,67.5c-.1,0,4.506-4.7,13.421-8.131Z" transform="translate(0 -32.135)" fill="#322d6b"/><path d="M109.7,36.636s8.327,3.527,9.6,8.621c0,0,8.915-34.287-25.079-44.573,0,0-13.225-2.351-19.3,1.666l.98,3.429S98.83-2.157,109.018,20.962A44.207,44.207,0,0,1,109.7,36.636Z" transform="translate(-51.416 0)" fill="#7c64a5"/><path d="M113.975,47.728a8.05,8.05,0,1,1-.686-11.364A8.055,8.055,0,0,1,113.975,47.728Z" transform="translate(-68.554 -23.565)" fill="#7c64a5"/><path d="M48.4,153.859a8.055,8.055,0,0,1-11.364.686,8.046,8.046,0,1,1,11.364-.686Z" transform="translate(-23.566 -96.404)" fill="#322d6b"/><path d="M170.169,157a8.05,8.05,0,1,1-.686-11.364A8.055,8.055,0,0,1,170.169,157Z" transform="translate(-107.116 -98.547)" fill="#eba546"/></svg>