<svg xmlns="http://www.w3.org/2000/svg" width="74" height="90.207" viewBox="0 0 74 90.207"><g transform="translate(0 -0.665)"><path d="M73.95,6.024c-.534-.437-4.727-2.687-4.727-2.687l-4.475,2.6h0l4.475-2.6L64.747.671V5.936L60.078,3.324s-3.818,2.232-5.671,3.3c-2.333,1.346-8.056,4.754-8.056,4.754v5.031L41.637,28.693v6.669l-3.309,1.931-1.317,3.444L27.734,16.669V11.391L9.245.665.009,6.011,0,6.009v5.439L5.76,25.322l3.5,2.062,0,6.327,13.876,33.7,13.868,7.936v.046l13.85-8.014L74,11.338l-.05-5.313" fill="#3185b8"/><path d="M37.017,88.458,23.139,80.516,9.263,46.814l0-6.327-3.5-2.062L0,24.553v-5.44L4.558,21.77v5.354l4.711,2.734V24.473l9.2,5.325.444,5.272L32.3,69.8l9.3,5.416V85.839L37,83.138l.013,5.32" transform="translate(0 -13.104)" fill="#3185b8"/><path d="M38.909,36.289l9.278,24.068-.019,13.258-4.7,2.675L30.092,41.546l-.443-5.233,9.263-5.3v5.278m-23.177-8V33.64l4.711-2.652-4.711-2.7" transform="translate(-11.175 -19.619)" fill="#61a5ce"/><path d="M20.444,43V37.616l-4.711,2.652L20.444,43" transform="translate(-11.175 -26.247)" fill="#eae9e6"/><path d="M127.7,80.266l4.638,2.654L137.5,69.955l3.977,2.366V59.9l1.269-3,3.386,1.983V53.625l-4.609-2.678,4.635-2.691L141.6,45.63l-.012-5.339-4.531-2.641v5.032l-4.714,12.282v6.669l-3.309,1.931-1.317,3.444L127.7,80.266" transform="translate(-90.708 -26.271)" fill="#3185b8"/><path d="M127.48,72.564l4.666,2.69-.023,10.624,9.285-5.357,23.144-56.042-.05-5.313-13.872,8V37.829L145.977,40.5v5.253l-3.386-1.983-1.269,3v12.4l-6.444,3.789-2.7,6.836-4.7,2.774" transform="translate(-90.551 -13.142)" fill="#61a5ce"/><path d="M63.667,67.769l4.654-2.7v5.349l-4.654-2.646" transform="translate(-45.224 -45.745)" fill="#eae9e6"/><path d="M79.733,70.414l4.615,2.607V67.769l-4.615-2.7v5.349" transform="translate(-56.636 -45.745)" fill="#3185b8"/><path d="M47.845,120.2v5.388l4.66-2.682-4.66-2.706" transform="translate(-33.985 -84.905)" fill="#61a5ce"/><path d="M57.156,132.245l-4.676,2.723-4.635-2.748,4.66-2.682,4.651,2.706" transform="translate(-33.985 -91.542)" fill="#eae9e6"/><path d="M79.77,194.133v5.434l4.684-2.709-4.684-2.725" transform="translate(-56.662 -137.424)" fill="#61a5ce"/><path d="M111.522,224.075l4.718,2.742.017-5.519-4.735,2.777" transform="translate(-79.216 -156.72)" fill="#eae9e6"/><path d="M127.75,245.647l.017-5.3,4.547,2.64-4.565,2.657" transform="translate(-90.743 -170.253)" fill="#61a5ce"/><path d="M116.169,184.765l-4.7,2.675,4.639,2.753,4.7-2.774-4.638-2.654" transform="translate(-79.177 -130.77)" fill="#eae9e6"/><path d="M184.873,51.025V40.357l-4.593-2.614v5.315L175.689,45.7l9.184,5.329" transform="translate(-124.795 -26.337)" fill="#3185b8"/><path d="M175.422,76.956l4.635-2.691,4.627,2.7-4.652,2.667-4.609-2.678" transform="translate(-124.605 -52.279)" fill="#eae9e6"/><path d="M175.659,45.7l4.592-2.638V37.743l-4.6,2.614.012,5.339" transform="translate(-124.765 -26.337)" fill="#61a5ce"/><path d="M223.5,5.951V.685l4.474,2.666-4.475,2.6" transform="translate(-158.76 -0.014)" fill="#3185b8"/><path d="M73.971,6.024l-13.872,8-4.593-2.614L50.9,14.02l-4.531-2.641S52.1,7.972,54.428,6.625c1.853-1.07,5.671-3.3,5.671-3.3l4.67,2.614,4.475-2.6s4.194,2.249,4.727,2.687h0M27.757,11.391l-9.263,5.3L.03,6.011,9.266.665l18.49,10.726" transform="translate(-0.021)" fill="#eae9e6"/><path d="M205.66,33.622v-5.19l-4.513,2.6,4.513,2.586M191.98,57.75l4.491-2.576V60.34L191.98,57.75" transform="translate(-136.367 -19.723)" fill="#3185b8"/><path d="M159.583,203.378v5.354l4.678-2.706-4.678-2.649" transform="translate(-113.355 -143.991)" fill="#eae9e6"/><path d="M164.289,199.5l-.058-5.311-4.649,2.663,4.707,2.649" transform="translate(-113.354 -137.462)" fill="#3185b8"/><path d="M8.082,282.784h2.007L13.9,271.26H12.46L9.086,281.487,5.712,271.26H4.275ZM19.641,271.26H17.634L13.74,282.784h1.505l.935-2.769h4.9l.952,2.769h1.505L19.641,271.26Zm1.056,7.458H16.578l2.059-6.385Zm5.9-4.153c0-1.557.571-2.128,2.474-2.128a18.466,18.466,0,0,1,3.1.294l.173-1.28a15,15,0,0,0-3.2-.364c-2.872,0-4.032,1.073-4.032,3.409v5.07c0,2.128.9,3.392,3.841,3.392a13.572,13.572,0,0,0,3.651-.5v-4.966H31.165V281.4a11.473,11.473,0,0,1-2.163.208c-1.973,0-2.405-.658-2.405-2.128v-4.914Zm15.954,8.219h1.713l-2.994-4.343a2.435,2.435,0,0,0,1.834-2.682V274.1c0-1.765-.865-2.838-3.34-2.838h-4.4v11.524h1.488v-4.171h2.821l2.872,4.17Zm-.934-8.669v1.661c0,1.125-.485,1.523-1.9,1.523H36.858v-4.706h2.855c1.419,0,1.9.381,1.9,1.523Zm9.742-2.855H49.351l-3.893,11.524h1.505l.935-2.769h4.9l.952,2.769h1.505Zm1.055,7.458H48.3l2.059-6.385Zm11.23,4.067h2.042V271.26H64.267v9.863l-5.018-9.863H57.207v11.524h1.419v-9.811l5.018,9.811Zm7.3,0h1.488V272.592h3.443V271.26H67.5v1.333h3.443v10.192Z" transform="translate(-3.037 -192.086)" fill="#3285b7"/></g></svg>