<svg xmlns="http://www.w3.org/2000/svg" width="82.827" height="100" viewBox="0 0 82.827 100"><g transform="translate(-27.836 -10.9)"><path d="M42.42,54.438,33.113,22.432l-5.277,2.637V83.705l5.277,2.589Z" transform="translate(0 6.487)" fill="#9d5125"/><path d="M31.212,86.277l10.2-2.391V24.854l-10.2-2.391Z" transform="translate(1.899 6.504)" fill="#f58534"/><path d="M52.68,56.965,43.024,95.89l-7.766-3.883V21.823l7.766-3.883Z" transform="translate(4.175 3.96)" fill="#9d5125"/><path d="M40.228,17.94l15.828,5.078v67.7L40.228,95.742Z" transform="translate(6.971 3.96)" fill="#f58534"/><path d="M79.762,75.231l-6.372-.348V26.7h6.372Z" transform="translate(25.624 8.888)" fill="#9d5125"/><path d="M88.111,27.769l.7,6.222-6.406.9L57.663,28.48l7.089-3.68Z" transform="translate(16.778 7.819)" fill="#6b3b19"/><path d="M88.935,55.407l-6.406-.9L57.79,60.918,64.909,64.6Z" transform="translate(16.849 24.532)" fill="#fcbf92"/><g transform="translate(56.855 10.9)"><path d="M71.67,32.658,58.928,34.35V62.922L71.67,64.614Z" transform="translate(-39.366 1.339)" fill="#9d5125"/><path d="M69.4,60.825,58.8,10.9,46.408,17.072v87.606L58.8,110.85Z" transform="translate(-46.408 -10.9)" fill="#9d5125"/></g><path d="M90.478,80.041,66.734,87.159V34.6l23.744,7.119ZM54.34,10.9v100L95.754,90.194V31.606ZM74.251,76.953,87.442,60.925,74.251,44.9Z" transform="translate(14.909)" fill="#f58534"/></g></svg>