<svg xmlns="http://www.w3.org/2000/svg" width="100" height="99.275" viewBox="0 0 100 99.275"><g transform="translate(-3.8 -5.8)"><g transform="translate(3.8 5.8)"><path d="M17.394,36.243v-.362a70.359,70.359,0,0,1,.725-8.7v-.362h-.362A72.415,72.415,0,0,1,10.148,23.2H9.786v.362A58.823,58.823,0,0,0,5.8,33.707v.362h.362a56.047,56.047,0,0,0,11.232,2.174Z" transform="translate(1.446 39.843)" fill="#43b02a"/><path d="M15.822,13.017h0a39.379,39.379,0,0,0-6.522.362L10.387,19.9A25.383,25.383,0,0,1,15.822,13.017Z" transform="translate(10.628 12.708)" fill="#43b02a"/><path d="M16.87,29.074h0c-3.623-.725-6.522-1.087-9.783-1.812L6,26.9l.362.725A53.441,53.441,0,0,0,16.87,39.219l.725.362v-.725A44.519,44.519,0,0,1,16.87,29.074Z" transform="translate(1.971 49.549)" fill="#43b02a"/><path d="M21.07,6.5A50.8,50.8,0,0,0,10.2,11.935a57.916,57.916,0,0,1,7.609,1.812C18.9,11.21,19.983,8.674,21.07,6.5Z" transform="translate(12.988 -3.964)" fill="#43b02a"/><path d="M38.686,5.8a31.167,31.167,0,0,0-5.8.362c2.536,1.812,5.072,3.986,7.609,6.159l1.812,1.449L40.5,15.583a64.776,64.776,0,0,0-4.71,5.072h0l-.725.725c1.087,0,2.536-.362,3.623-.362a34.058,34.058,0,0,1,0,68.116,32.81,32.81,0,0,1-17.754-5.072,53.51,53.51,0,0,1-7.609.362H9.7A66.712,66.712,0,0,0,10.787,96.38a48.989,48.989,0,0,0,27.9,8.7,49.638,49.638,0,1,0,0-99.275Z" transform="translate(11.677 -5.8)" fill="#43b02a"/><path d="M21.933,15.3a23.442,23.442,0,0,0,2.9-3.261c-2.174-1.812-4.71-3.623-7.246-5.435A58.945,58.945,0,0,0,13.6,14.933a51.329,51.329,0,0,1,6.522,2.9A9.015,9.015,0,0,1,21.933,15.3Z" transform="translate(21.907 -3.701)" fill="#43b02a"/><path d="M10.435,27.03H10.8a49.763,49.763,0,0,1,7.246-4.71h.362v-.362a74.207,74.207,0,0,1-1.812-8.7V12.9h-.362c-3.623.725-7.246,1.812-10.87,2.9H5v.362A101,101,0,0,0,10.435,27.03Z" transform="translate(-0.652 12.825)" fill="#43b02a"/><path d="M12.433,18.2h0C9.535,20.736,7,22.91,4.462,25.446l-.362.362.362.362A70.731,70.731,0,0,0,12.8,32.33l.362.362V32.33c1.449-2.174,2.9-4.71,4.348-6.884v-.362l.362-.362A32.479,32.479,0,0,1,12.433,18.2Z" transform="translate(-3.013 26.728)" fill="#43b02a"/><path d="M17.833,33.1h.725l-.725-.725a34.479,34.479,0,0,1-6.884-7.609h0l-.725-.362v.362c-.362,2.536-.362,5.072-.725,7.609v.362h3.986A6.059,6.059,0,0,0,17.833,33.1Z" transform="translate(11.152 42.991)" fill="#43b02a"/><path d="M17.005,18.52a52.97,52.97,0,0,1,1.812-7.246A39.7,39.7,0,0,0,9.4,9.1a44.157,44.157,0,0,0,0,9.783A53.51,53.51,0,0,1,17.005,18.52Z" transform="translate(10.168 2.857)" fill="#43b02a"/><path d="M12.6,15.535a24.03,24.03,0,0,1,6.884-3.261L14.049,10.1A30.185,30.185,0,0,1,12.6,15.535Z" transform="translate(19.284 5.48)" fill="#43b02a"/><path d="M11.971,27.259h0a69.117,69.117,0,0,1-7.609-5.435L4,21.1v.725A46.152,46.152,0,0,0,7.986,35.593l.362.725.362-.725a49.155,49.155,0,0,1,3.261-8.333Z" transform="translate(-3.275 34.335)" fill="#43b02a"/><path d="M13.509,9.8A50.535,50.535,0,0,0,5.9,19.583a57.916,57.916,0,0,1,7.609-1.812Z" transform="translate(1.709 4.693)" fill="#43b02a"/><path d="M12.072,26.745V26.02a33.586,33.586,0,0,1,1.449-8.7l.362-.725-.725.362c-1.812,1.087-3.986,2.536-5.8,3.623L7,20.948l.362.362c1.449,1.812,2.536,3.623,3.986,5.435Z" transform="translate(4.594 22.53)" fill="#43b02a"/><path d="M11.648,21.325V20.6l-.362.725C9.836,23.136,8.749,25.31,7.3,27.484v.362h.362l6.522,3.261.725.362-.362-.725A31.346,31.346,0,0,1,11.648,21.325Z" transform="translate(5.381 33.023)" fill="#43b02a"/><path d="M11.046,24.058h0V23.7a54.542,54.542,0,0,1-3.986-7.971L6.7,15l-.362.725A57.534,57.534,0,0,0,3.8,29.855v.725l.725-.362C6.7,28.043,8.872,25.87,11.046,24.058Z" transform="translate(-3.8 18.333)" fill="#43b02a"/></g></g></svg>