<svg xmlns="http://www.w3.org/2000/svg" width="100" height="100" viewBox="0 0 100 100"><g transform="translate(-0.746 -0.298)"><path d="M-2344.736,2078.3a50.4,50.4,0,0,1-10.087-1.018,49.739,49.739,0,0,1-9.374-2.911,50,50,0,0,1-8.493-4.61,50.353,50.353,0,0,1-7.4-6.1,50.338,50.338,0,0,1-6.105-7.4,49.986,49.986,0,0,1-4.61-8.493,49.759,49.759,0,0,1-2.914-9.386,50.377,50.377,0,0,1-1.016-10.077,50.4,50.4,0,0,1,1.018-10.087,49.741,49.741,0,0,1,2.911-9.375,49.99,49.99,0,0,1,4.61-8.493,50.38,50.38,0,0,1,6.105-7.4,50.357,50.357,0,0,1,7.4-6.105,50,50,0,0,1,8.493-4.61,49.757,49.757,0,0,1,9.385-2.913,50.372,50.372,0,0,1,10.076-1.016,50.389,50.389,0,0,1,10.089,1.018,49.758,49.758,0,0,1,9.374,2.911,50.013,50.013,0,0,1,8.493,4.61,50.352,50.352,0,0,1,7.4,6.105,50.371,50.371,0,0,1,6.105,7.4,50.014,50.014,0,0,1,4.61,8.493,49.758,49.758,0,0,1,2.914,9.385,50.373,50.373,0,0,1,1.016,10.076,50.388,50.388,0,0,1-1.018,10.088,49.726,49.726,0,0,1-2.911,9.375,49.99,49.99,0,0,1-4.61,8.493,50.384,50.384,0,0,1-6.105,7.4,50.351,50.351,0,0,1-7.4,6.1,49.975,49.975,0,0,1-8.493,4.61,49.741,49.741,0,0,1-9.386,2.913,50.4,50.4,0,0,1-10.077,1.016Zm-8.051-47.186h0l25.806,20.848a4.179,4.179,0,0,0,2.76,1.219,3.575,3.575,0,0,0,2.578-1.017,3.575,3.575,0,0,0,1.076-2.554,4.753,4.753,0,0,0-.341-1.475l-19.9-47.9a3.225,3.225,0,0,0-3.083-2.113,3.326,3.326,0,0,0-3.169,2.113l-21.844,52.537h7.472l8.648-21.661Zm21.832,9.665h0l-19.543-15.394,6.606-16.54,12.938,31.933Z" transform="translate(2395.482 -1978)" fill="#1a1918"/></g></svg>