<svg xmlns="http://www.w3.org/2000/svg" width="99.82" height="100" viewBox="0 0 99.82 100"><g transform="translate(0 0)"><path d="M79.553,9.894C67.55-.468,40.992-5.6,21.09,9.275,2.418,21.792,1.5,44.669,1.5,44.669c3.18,12.516,15.8,24.519,40.112,18.672-2.872-16.825,2.758-59.4,37.946-53.447Z" transform="translate(-0.912 0)" fill="#00acd2"/><path d="M66.139,120.476C53,131.377,13.024,148.009.583,114.56c-2.972,15.576,5.275,41.5,28.109,51.3,20.175,9.912,41.2-1.567,41.2-1.567,9.249-9.012,13.467-25.682-3.754-43.814" transform="translate(0 -69.891)" fill="#c8e9eb"/><path d="M108.779,49.195C124.786,55.12,159,80.8,136.256,108.3c14.975-5.214,32.535-25.166,29.6-49.839-1.5-22.428-20.855-34.667-20.855-34.667-12.429-3.5-29.134,1.423-36.226,25.4" transform="translate(-66.364 -13.898)" fill="#662d91"/></g></svg>