<svg xmlns="http://www.w3.org/2000/svg" width="76.451" height="100" viewBox="0 0 76.451 100"><g transform="translate(14 175)"><path d="M55.631,67.846l-4.778-2.73a132.424,132.424,0,0,0-21.843-11.6A202.631,202.631,0,0,0,55.973,38.836a80.887,80.887,0,0,1-.341,29.352M76.451,23.137V7.778q-8.266,7.315-17.065,13.993A56.314,56.314,0,0,0,38.567,3,70.44,70.44,0,0,1,53.242,26.891,225.256,225.256,0,0,1,0,53.512a255.973,255.973,0,0,1,52.56,26.28C49.147,88.666,44.369,96.857,38.225,103A54.39,54.39,0,0,0,59.044,84.57C67.235,90.713,73.72,96.515,76.451,98.9V83.887l-5.8-5.119-5.8-4.1a55.973,55.973,0,0,0,0-42.662c4.437-2.73,8.191-6.143,11.6-8.874" transform="translate(-14 -178)" fill="#a7a9ac"/></g></svg>