<svg xmlns="http://www.w3.org/2000/svg" width="100" height="92.194" viewBox="0 0 100 92.194"><g transform="translate(-18.24 -23.96)"><path d="M117.611,64.661a2.9,2.9,0,0,0,0-3.6l-4.823-4.823L91.225,35.317a2.5,2.5,0,0,0-3.438,0,2.393,2.393,0,0,0,0,3.6l22.656,22.184a2.712,2.712,0,0,1,0,3.6L87.3,87.658a2.712,2.712,0,0,0,0,3.6,2.664,2.664,0,0,0,3.438,0L112.3,69.887Zm-98.741,0a2.9,2.9,0,0,1,0-3.6l4.823-4.823L45.256,35.317a2.5,2.5,0,0,1,3.438,0,2.393,2.393,0,0,1,0,3.6L26.506,61.109a2.712,2.712,0,0,0,0,3.6L49.162,87.661a2.712,2.712,0,0,1,0,3.6,2.664,2.664,0,0,1-3.438,0L23.693,70.208Z" transform="translate(0 6.003)" fill="#3999c6"/><path d="M62.382,55.077,82.69,23.96H52.229L35.83,70.21l20,.152L40.194,116.154,83.346,55.082Z" transform="translate(9.894)" fill="#fcd116"/><path d="M81.778,55.077H60.809L81.119,23.96H65.176L48.321,62.388l20,.152-29.7,53.594Z" transform="translate(11.466)" fill="#ff8c00" opacity="0.3"/></g></svg>