<svg xmlns="http://www.w3.org/2000/svg" width="100" height="46.747" viewBox="0 0 100 46.747"><path d="M27.428-14.608c-10.334,0-14.872-7.217-14.872-13.286,0-6.014,4.538-13.231,14.872-13.231a15.663,15.663,0,0,1,8.857,2.788l4.374-8.748s-5.03-4.155-14.817-4.155c-12.794,0-24.44,10.5-24.44,23.455,0,12.9,11.7,23.291,24.44,23.291,9.787,0,14.817-4.155,14.817-4.155L36.285-17.4A15.663,15.663,0,0,1,27.428-14.608ZM70.676-50.42H44.6V-5.313H54.875v-18.1h14.6v-9.021h-14.6V-41.4h15.8Zm30.727,0H75.6V-5.313H101.4v-9.021H85.875v-9.076h14.872v-9.021H85.875V-41.4H101.4Z" transform="translate(-1.403 51.24)" fill="#f90"/></svg>