<svg xmlns="http://www.w3.org/2000/svg" width="99.611" height="100" viewBox="0 0 99.611 100"><g transform="translate(-41.557 0.001)"><path d="M106.027,86.98a22.519,22.519,0,1,1,21.631-28.768h8.713a30.979,30.979,0,1,0,0,12.5h-8.713A22.553,22.553,0,0,1,106.027,86.98" transform="translate(-14.469 -14.465)" fill="#435363"/><path d="M102.86,109.926a21.417,21.417,0,0,0,15.181,6.3v-8.979a12.47,12.47,0,0,1-8.839-3.662Z" transform="translate(-26.483 -44.749)" fill="#435363"/><path d="M91.774,71.688A21.372,21.372,0,0,0,93.6,80.331l8.213-3.612a12.5,12.5,0,0,1,11.441-17.53V50.21A21.5,21.5,0,0,0,91.774,71.688" transform="translate(-21.694 -21.691)" fill="#f38b00"/><path d="M140.818,52.787l-3.257,8.37a12.53,12.53,0,0,1,6.291,5.4h9.725a21.566,21.566,0,0,0-12.756-13.765" transform="translate(-41.474 -22.805)" fill="#435363"/><path d="M137.568,104.42l3.255,8.369a21.577,21.577,0,0,0,12.761-13.765h-9.725a12.539,12.539,0,0,1-6.291,5.4" transform="translate(-41.477 -42.779)" fill="#f38b00"/><path d="M51.822,100.035q-.214-.706-.4-1.42l-.023-.087q-.17-.662-.325-1.33-.161-.711-.3-1.427c-.033-.17-.062-.345-.091-.518-.057-.308-.109-.615-.157-.926q-.06-.4-.111-.8a40.9,40.9,0,0,1-.374-5.514H41.557a49.943,49.943,0,0,0,.364,6.017c0,.047.012.089.018.132.066.54.14,1.079.223,1.611.023.148.049.295.074.444.074.438.149.876.235,1.313.043.233.093.462.142.692.071.346.145.694.227,1.039.07.3.145.6.223.909.068.269.133.539.205.808.1.357.2.71.3,1.064.043.148.081.3.126.444h0a49.661,49.661,0,0,0,2.084,5.656l7.773-3.418a41.243,41.243,0,0,1-1.733-4.694Z" transform="translate(0 -38.024)" fill="#435363"/><path d="M94.143,91.517A41.379,41.379,0,0,1,64.8,79.338L58.8,85.346a49.99,49.99,0,0,0,84.957-29.1h-8.56A41.586,41.586,0,0,1,94.143,91.517m0-83.038a41.284,41.284,0,0,1,24.822,8.259l5.081-6.81A50,50,0,0,0,47.541,31.864l7.912,3.079A41.58,41.58,0,0,1,94.143,8.48" transform="translate(-2.585 0)" fill="#f38b00"/><path d="M197.417,61.639h8.56a49.669,49.669,0,0,0-7.191-20.225l-7.208,4.5a41.273,41.273,0,0,1,5.839,15.727" transform="translate(-64.809 -17.891)" fill="#435363"/><path d="M169.822,53.089h8.588a40.6,40.6,0,0,0-25.32-31.467l-3.067,7.887a32.13,32.13,0,0,1,19.8,23.581" transform="translate(-46.857 -9.341)" fill="#f38b00"/><path d="M100.9,25.22V16.762h0a40.541,40.541,0,0,0-37.721,25.8l7.882,3.067A32.072,32.072,0,0,1,100.9,25.22" transform="translate(-9.34 -7.242)" fill="#435363"/><path d="M66.784,88.023H58.327A40.531,40.531,0,0,0,83.773,125.6l3.141-7.85A32.064,32.064,0,0,1,66.784,88.023" transform="translate(-7.245 -38.027)" fill="#f38b00"/><path d="M129.587,124.794v8.459a40.544,40.544,0,0,0,39.995-34.229h-8.59a32.066,32.066,0,0,1-31.4,25.77" transform="translate(-38.029 -42.779)" fill="#435363"/></g></svg>