<svg xmlns="http://www.w3.org/2000/svg" width="87.296" height="100" viewBox="0 0 87.296 100"><g transform="translate(-4.065)"><path d="M48.174,0a44.1,44.1,0,0,0-8.419,87.391V100c26.4-3.981,49.77-24.934,51.516-52.444C92.321,31,84.084,14.119,70.143,5.892Q68.949,5.173,67.7,4.545q-1.281-.639-2.609-1.177-.418-.174-.841-.336c-.775-.288-1.556-.625-2.356-.844A43.834,43.834,0,0,0,48.174,0Z" transform="translate(0 0)" fill="#00a818" fill-rule="evenodd"/><path d="M51.562,10.46a4.812,4.812,0,0,0-4.208,1.683,20.429,20.429,0,0,0-1.853,3.2,10.3,10.3,0,0,0,1.347,10.775,11.856,11.856,0,0,0,8.587-6.988,8.5,8.5,0,0,0,.841-3.536,5.044,5.044,0,0,0-4.714-5.134Zm-19.612.253a5.141,5.141,0,0,0-4.8,4.881,8.428,8.428,0,0,0,.841,3.536,12.244,12.244,0,0,0,8.838,6.988,10.909,10.909,0,0,0,1.1-10.775A10.718,10.718,0,0,0,36.075,12.4a4.734,4.734,0,0,0-4.123-1.683ZM18.736,23.675a4.64,4.64,0,0,0-2.612,8.334,21.052,21.052,0,0,0,3.2,1.938A12.134,12.134,0,0,0,30.69,32.853a12.452,12.452,0,0,0-7.344-8.334,9.633,9.633,0,0,0-3.787-.844,5.032,5.032,0,0,0-.841,0Zm41.5,16.331a12.312,12.312,0,0,0-6.988,2.02,12.464,12.464,0,0,0,7.323,8.334,9.628,9.628,0,0,0,3.787.841c4.848.269,7.222-5.723,3.45-8.417a20.2,20.2,0,0,0-3.2-1.85,11.649,11.649,0,0,0-4.375-.927Zm-36.784.253a11.326,11.326,0,0,0-4.375.938,9.259,9.259,0,0,0-3.2,1.938c-3.5,2.963-1.145,8.6,3.7,8.331a8.688,8.688,0,0,0,3.787-.844,11.385,11.385,0,0,0,6.987-8.331,12.072,12.072,0,0,0-6.9-2.02Zm13.634,8.25A11.845,11.845,0,0,0,28.5,55.5a8.189,8.189,0,0,0-.844,3.45c-.27,4.578,5.977,7.039,8.672,3.536a20.158,20.158,0,0,0,1.85-3.2,11.053,11.053,0,0,0-1.094-10.775Zm10,.253a10.908,10.908,0,0,0-1.094,10.775,10.673,10.673,0,0,0,1.85,2.947c2.963,3.234,9.194.841,8.906-3.2A8.431,8.431,0,0,0,55.9,55.75a12.244,12.244,0,0,0-8.838-6.988Z" transform="translate(5.703 5.868)" fill="#fff" fill-rule="evenodd"/></g></svg>