<svg xmlns="http://www.w3.org/2000/svg" width="100" height="64.3" viewBox="0 0 100 64.3"><path d="M5.676,55.945l.08.16c6.318,10.717,17.355,15.2,29.431,15.2,23.353,0,42.627-10.477,51.423-32.47,5.917.32,12-1.44,14.875-7.118l.72-1.44-1.44-.8a15.581,15.581,0,0,0-11.836-1.12c-.48-4.159-3.2-7.758-6.4-10.317L81.251,17l-1.04,1.281c-2.159,2.479-2.8,6.638-2.479,9.837a13.381,13.381,0,0,0,2.4,6.638,24.562,24.562,0,0,1-3.439,1.919,21.912,21.912,0,0,1-7.118,1.6H64.218V26.994h-10.4V7h-12v9.6H21.831v10.4h-10.4v11.2H2.478l-.161,1.2a29.4,29.4,0,0,0,2.4,14.8l.96,1.76ZM53.822,29.393h8.8v8.8h-8.8ZM43.425,8.6h8.8v8.8h-8.8Zm0,10.4h8.8v8.8h-8.8Zm0,10.4h8.8v8.8h-8.8ZM33.028,19h8.8v8.8h-8.8Zm0,10.4h8.8v8.8h-8.8Zm.88,24.952a2.479,2.479,0,1,1-2.479-2.479,2.546,2.546,0,0,1,2.479,2.479ZM23.432,19h8v8.8h-8Zm0,10.4h8v8.8h-8v-8.8Zm-10.4,0h8.8v8.8h-8.8Zm1.918,30.39c1.281,0,2.559,0,3.759-.08a36.724,36.724,0,0,0,8.077-1.2c1.839,4.24,5.2,8.158,11.2,11.036l-2.8.08C22.551,69.54,15.753,65.3,10.155,59.7,11.834,59.783,13.434,59.783,14.953,59.783Zm16.476-3.678a1.775,1.775,0,0,0,1.76-1.76,1.506,1.506,0,0,0-.16-.641.717.717,0,0,1-1.36-.32.987.987,0,0,1,.32-.641.932.932,0,0,0-.56-.16,1.775,1.775,0,0,0-1.76,1.76,1.83,1.83,0,0,0,1.759,1.761Z" transform="translate(-2.205 -7)" fill="#019bc6"/></svg>