<svg xmlns="http://www.w3.org/2000/svg" width="100" height="114.487" viewBox="0 0 100 114.487"><g transform="translate(3.219 -12.225)"><path d="M39.66,0H13.22L0,22.9l13.22,22.9H39.66l13.22-22.9Z" transform="translate(96.781 35.123) rotate(120)" fill="#00b198"/><path d="M160.423,52.722,146.781,76.361,160.423,100h27.3l13.641-23.639L187.722,52.722h-27.3Zm.859,1.487h25.58l12.8,22.152-12.8,22.16h-25.58l-12.8-22.16Z" transform="translate(-110.34 -29.789)" fill="#fff"/><path d="M39.66,0H13.22L0,22.9l13.22,22.9H39.66l13.22-22.9Z" transform="translate(57.122 126.712) rotate(-120)" fill="#00aed1"/><path d="M160.423,225.927l-13.641,23.639L160.423,273.2h27.3l13.641-23.639-13.641-23.639Zm.859,1.487h25.58l12.8,22.152-12.8,22.16h-25.58l-12.8-22.16Z" transform="translate(-110.34 -157.199)" fill="#fff"/><path d="M-137.682-36.44h-26.44l-13.22,22.9,13.22,22.9h26.44l13.22-22.9Z" transform="translate(174.974 83.012)" fill="#3b4b54"/><path d="M10.423,139.313-3.219,162.951,10.423,186.59h27.3l13.641-23.639L37.722,139.312h-27.3Zm.859,1.487h25.58l12.8,22.152-12.8,22.16H11.282l-12.8-22.16Z" transform="translate(0 -93.485)" fill="#fff"/><path d="M148.375,139.313v47.278l40.94-23.639Zm1.479,2.57,36.5,21.069-36.5,21.077V141.883Z" transform="translate(-111.513 -93.486)" fill="#fff"/><path d="M126.44,128.719a26.44,26.44,0,1,0,26.44,26.44A26.44,26.44,0,0,0,126.44,128.719Zm0,1.487a24.957,24.957,0,1,1-24.961,24.953A24.955,24.955,0,0,1,126.44,130.206Z" transform="translate(-75.928 -85.693)" fill="#fff"/></g></svg>