<svg xmlns="http://www.w3.org/2000/svg" xmlns:xlink="http://www.w3.org/1999/xlink" width="96.725" height="100" viewBox="0 0 96.725 100"><defs><clipPath id="a"><path d="M.033-8.492a11.508,11.508,0,0,1,10.62-12.34A11.5,11.5,0,0,1,22.993-10.216,11.512,11.512,0,0,1,12.376,2.128,11.51,11.51,0,0,1,.033-8.492Z" transform="translate(0 20.865)"/></clipPath><radialGradient id="b" cx="0.75" cy="0.75" r="0.5" gradientTransform="translate(0 1.326)" gradientUnits="objectBoundingBox"><stop offset="0" stop-color="#3b3d3e"/><stop offset="0.148" stop-color="#3b3d3e"/><stop offset="1" stop-color="#2a1f1f"/></radialGradient><clipPath id="c"><path d="M32.472-19.595a3.583,3.583,0,0,1,3.969-3.147,3.584,3.584,0,0,1,3.146,3.97,3.587,3.587,0,0,1-3.97,3.148A3.581,3.581,0,0,1,32.472-19.595Z" transform="translate(-32.447 22.765)"/></clipPath><radialGradient id="d" cx="0.698" cy="0.793" r="0.5" gradientTransform="matrix(0.982, 0.189, -0.189, 0.982, -0.762, 9.599)" xlink:href="#b"/><clipPath id="e"><path d="M4.892-48.025A5.105,5.105,0,0,1,7.235-54.85a5.1,5.1,0,0,1,6.825,2.34,5.105,5.105,0,0,1-2.341,6.826,5.1,5.1,0,0,1-6.827-2.342Z" transform="translate(-4.373 55.37)"/></clipPath><radialGradient id="f" cx="0.781" cy="0.714" r="0.5" gradientTransform="matrix(0.991, -0.135, 0.135, 0.991, 0.945, 15.358)" xlink:href="#b"/><clipPath id="g"><path d="M52.976-43.035a6.992,6.992,0,0,1,6.446-7.494,6.991,6.991,0,0,1,7.493,6.449,6.987,6.987,0,0,1-6.446,7.491A6.989,6.989,0,0,1,52.976-43.035Z" transform="translate(-52.956 50.549)"/></clipPath><radialGradient id="h" cx="0.75" cy="0.75" r="0.5" gradientTransform="translate(0 9.791)" xlink:href="#b"/><clipPath id="i"><path d="M33.926-68.129a8.9,8.9,0,0,1,12.518,1.277,8.9,8.9,0,0,1-1.275,12.516,8.9,8.9,0,0,1-12.515-1.279A8.892,8.892,0,0,1,33.926-68.129Z" transform="translate(-30.65 70.127)"/></clipPath><radialGradient id="j" cx="0.75" cy="0.75" r="0.5" gradientTransform="translate(0 10.813)" xlink:href="#b"/><clipPath id="k"><path d="M19.621-45.322A17.1,17.1,0,0,1,43.663-42.87a17.1,17.1,0,0,1-2.449,24.039,17.1,17.1,0,0,1-24.038-2.457A17.077,17.077,0,0,1,19.621-45.322Z" transform="translate(-13.33 49.161)"/></clipPath><radialGradient id="l" cx="0.75" cy="0.75" r="0.5" gradientTransform="translate(0 2.993)" xlink:href="#b"/></defs><g transform="translate(-20.016 0.926)"><path d="M53.068,45.942,28.815,80.721M53.068,45.942l50.27-12.4M54.021,46.96,68.1,70.473M48.049,40.119,27.394,23.208m28.66,13.171L68.211,11.117" transform="translate(4.15 6.775)" fill="none" stroke="#3b3a3c" stroke-width="0.803"/><g transform="translate(20.016 76.048)" clip-path="url(#a)"><path d="M.033-8.492a11.508,11.508,0,0,1,10.62-12.34A11.5,11.5,0,0,1,22.993-10.216,11.512,11.512,0,0,1,12.376,2.128,11.51,11.51,0,0,1,.033-8.492" transform="translate(0 20.865)" fill="url(#b)"/></g><g transform="translate(70.717 73.079)" clip-path="url(#c)"><path d="M32.472-19.595a3.583,3.583,0,0,1,3.969-3.147,3.584,3.584,0,0,1,3.146,3.97,3.587,3.587,0,0,1-3.97,3.148,3.581,3.581,0,0,1-3.146-3.972" transform="translate(-32.447 22.765)" fill="url(#d)"/></g><g transform="translate(26.849 22.133)" clip-path="url(#e)"><path d="M4.892-48.025A5.105,5.105,0,0,1,7.235-54.85a5.1,5.1,0,0,1,6.825,2.34,5.105,5.105,0,0,1-2.341,6.826,5.1,5.1,0,0,1-6.827-2.342" transform="translate(-4.373 55.37)" fill="url(#f)"/></g><g transform="translate(102.763 29.666)" clip-path="url(#g)"><path d="M52.976-43.035a6.992,6.992,0,0,1,6.446-7.494,6.991,6.991,0,0,1,7.493,6.449,6.987,6.987,0,0,1-6.446,7.491,6.989,6.989,0,0,1-7.493-6.445" transform="translate(-52.956 50.549)" fill="url(#h)"/></g><g transform="translate(67.909 -0.926)" clip-path="url(#i)"><path d="M33.926-68.129a8.9,8.9,0,0,1,12.518,1.277,8.9,8.9,0,0,1-1.275,12.516,8.9,8.9,0,0,1-12.515-1.279,8.892,8.892,0,0,1,1.273-12.515" transform="translate(-30.65 70.127)" fill="url(#j)"/></g><g transform="translate(40.845 31.834)" clip-path="url(#k)"><path d="M19.621-45.322A17.1,17.1,0,0,1,43.663-42.87a17.1,17.1,0,0,1-2.449,24.039,17.1,17.1,0,0,1-24.038-2.457,17.077,17.077,0,0,1,2.445-24.034" transform="translate(-13.33 49.161)" fill="url(#l)"/></g></g></svg>