<svg xmlns="http://www.w3.org/2000/svg" width="91.474" height="101.893" viewBox="0 0 91.474 101.893"><g transform="translate(-6.204 -3.998)"><path d="M28.705,80.108c-1.424.826-21.495,13.571-21.6,14.518L7,95.573l3.734,9.318h82s3.942-12.668,3.732-15.845c-.1-1.484-13.15-10.363-13.15-10.363S93.636,68.484,93.8,46.161q.019-3.149-.205-6.292C91.818,14.751,75.762,5.669,58.726,5.035S32.018,12.4,32.018,12.4s-10.8,3.579-11.908,12.318c0,0-8.41,1.637-3.9,18.7a11.419,11.419,0,0,0-3.945,8.95c0,3.355,1.058,7.276,3.25,9.621,4.471,4.787,8.1,3.655,8.1,3.655S25.076,74.224,28.705,80.108Z" transform="translate(0.204 0)" fill="#ffe0b2"/><path d="M61.651,40.06C61.2,36.613,59.39,35,55.959,35H55.8l-.158.018c-1.132.137-2.692.829-6.979,3.847l-2.65,1.926a5.1,5.1,0,0,0-5.7.808l-2.647-1.387-4.434-2.321a15.787,15.787,0,0,0-6.663-1.734,5.641,5.641,0,0,0-3.308.876c-1.321.932-1.861,2.566-1.595,4.853.132,1.153.229,2.261.316,3.308.466,5.466.805,9.413,6.071,9.755.239.016.492.026.742.026,2.976,0,6.192-1.171,9.558-3.482l2.424-1.663a5.035,5.035,0,0,0,6.192-.221l3.784.718a23.085,23.085,0,0,0,4.155.458l1,.008a8.71,8.71,0,0,0,3.945-.666c1.6-.8,2.35-2.626,2.279-5.587a32.528,32.528,0,0,0-.376-3.742l-.1-.739Z" transform="translate(24.018 48.947)" fill="#f44336"/><path d="M32.373,47.578c-.089-1.047-.184-2.155-.316-3.308a5.9,5.9,0,0,1,.558-3.645c-13.076-.158-17.331-7.084-17.331-7.084s-.729,4.095,2.966,8.9A23.042,23.042,0,0,0,32.066,49.88h.529q-.126-1.15-.221-2.3Z" transform="translate(13.625 46.567)" fill="#fff"/><path d="M49.164,58.125l-1.832-3.779a10.934,10.934,0,0,1-.839-2.782l-.324-1.739-1.734-.358a22.911,22.911,0,0,1-12.481-7.124A15.25,15.25,0,0,1,29.267,37.1l-.939-3.439-3.01,1.913C20.1,38.894,11.3,44.62,8.464,46.783L6.875,48l4.058,10.126H49.164Z" transform="translate(0 46.764)" fill="#546e7a"/><path d="M14.245,53.371H42.437L40.6,49.592a10.934,10.934,0,0,1-.839-2.782l-.324-1.739-1.734-.358a22.911,22.911,0,0,1-12.481-7.124q-.374-.494-.713-1.013L11,45.586Z" transform="translate(6.73 51.519)" fill="#455a64"/><path d="M49.43,41.31A93.808,93.808,0,0,0,41.186,34.9L39.357,33.6A21.263,21.263,0,0,1,35.9,36.871l1.821,1.963a6.288,6.288,0,0,1,1.487,3.553l.1.729a32.23,32.23,0,0,1,.371,3.716c.108,4.395-1.692,5.295-2.284,5.592a6.061,6.061,0,0,1-2.053.566l.311,5.245H46.491l.561-1.879c1.292-4.337,2.889-10.329,3.132-12.939l.113-1.229-.866-.876Z" transform="translate(46.457 46.658)" fill="#546e7a"/><path d="M46.491,51.839l.561-1.879q1.082-3.624,2-7.292L39.42,37.515a26.557,26.557,0,0,1,.266,2.924c.108,4.395-1.692,5.295-2.284,5.592a6.06,6.06,0,0,1-2.053.566l.311,5.245H46.491Z" transform="translate(46.457 53.051)" fill="#455a64"/><path d="M10.845,43.881c.034-.039.113-.116.195-.189l.053-.047.055-.045a7.82,7.82,0,0,1,4.76-1.758,6.619,6.619,0,0,1,3.25.887c3.384,1.734,4.129,5.21,4.4,7.679l.008.045.024.139.018.137q1.925-.672,3.816-1.437a10.518,10.518,0,0,0-.158-1.7,20.642,20.642,0,0,0-.934-3.792c-1-2.845-.729-6.637.816-11.271l.216-.645a22.158,22.158,0,0,0,.863-2.963,11.48,11.48,0,0,0,.208-1.887,4.555,4.555,0,0,0-.455-2.016l-.624-1.245.679-1.216c2.245-4.021,10.958-17.137,28.8-17.137q.857,0,1.742.042l-.579-.079A46.579,46.579,0,0,0,51.963,5c-14.255,0-22.934,5.976-24.529,7.174l-.3.226-.353.132c-1.592.6-9.621,3.95-11.318,10.929L15.187,24.6l-1.029.555a6.729,6.729,0,0,0-2.5,2.41c-1.961,3.124-2.192,7.971-.692,14.4l.318,1.368-.961,1.026c-.105.113-.187.234-.284.35a8.468,8.468,0,0,1,.805-.829Z" transform="translate(5.085 0.001)" fill="#616161"/><path d="M28,41H43.789v5.263H28Z" transform="translate(34.467 58.737)" fill="#263238"/><path d="M20.929,41.438c-.271-2.468-.947-4.582-2.924-5.592a4.133,4.133,0,0,0-2.089-.629,5.418,5.418,0,0,0-4.192,2.266L10,32.268a13.684,13.684,0,0,1,6.571-1.982,8.208,8.208,0,0,1,3.853.892,9.871,9.871,0,0,1,2.9,2.15,24.361,24.361,0,0,1,1.316-10.887A30.731,30.731,0,0,0,25.684,18.9c.3-1.576.008-1.958-.584-2.647a71.114,71.114,0,0,0-9.224,1.766l-1.332-5.092a76.023,76.023,0,0,1,11.537-2.076l1.858-.174.779,1.695a3.467,3.467,0,0,0,.337.408,7.191,7.191,0,0,1,1.995,4.966,13.887,13.887,0,0,1-.255,2.413,30.28,30.28,0,0,1-1.168,3.95C28.552,27.325,27.855,31,28.8,33.67a22.744,22.744,0,0,1,1.045,4.179c.145.974.574,3.55-.589,4.224s-7.089,2.684-7.089,2.684-.963-.85-1.234-3.318Z" transform="translate(5.099 9.256)" fill="#263238"/><path d="M16.561,23.756s8.747-19.8,31.534-18.545" transform="translate(15.803 0.252)" fill="none" stroke="#263238" stroke-miterlimit="10" stroke-width="2"/><path d="M33.052,40.638c-13.431,0-17.768-7.1-17.768-7.1s-.729,4.095,2.966,8.9A23.042,23.042,0,0,0,32.066,49.88" transform="translate(13.625 46.567)" fill="#fff" stroke="#263238" stroke-miterlimit="10" stroke-width="2"/><path d="M32.224,49.26a28.838,28.838,0,0,0,8.224,1.529,10.625,10.625,0,0,0,4.939-.658c1.918-.958,2.339-3.276,2.284-5.592a40.253,40.253,0,0,0-.476-4.463C46.73,36.516,44.816,35,41.5,35c-2.318,0-8.039,4.4-11.047,6.576" transform="translate(38.474 48.947)" fill="none" stroke="#263238" stroke-miterlimit="10" stroke-width="2"/><path d="M41.127,41.314l-7.9-4.137c-4.942-2.429-12.405-3.268-11.566,3.995s.126,12.658,6.387,13.066c6.779.442,13.081-5.629,13.081-5.629" transform="translate(24.018 49.665)" fill="none" stroke="#263238" stroke-miterlimit="10" stroke-width="2"/><path d="M22.7,22.635s-.653,1.524-1.632,1.524c-.608,0-1.058-.947-1.063-2.1a13.112,13.112,0,0,1,4.31-8.974A9.01,9.01,0,0,1,30.239,11a10.949,10.949,0,0,1,3.474.479c1.3.434,2.068,1.495,2.068,3.8,0,0,0,.987-3.289.987-2.2,0-4.605.329-5.874,1.421a12.5,12.5,0,0,0-3.918,4.95Z" transform="translate(21.422 9.789)" fill="#263238"/><path d="M30.256,29.158a20.453,20.453,0,0,1-4.268-.479c-1.618-.347-2.421-1.816-1.753-3.047l.482-.889a1.521,1.521,0,0,1,1.258-.847,2.5,2.5,0,0,1,.658.084,30.031,30.031,0,0,0,6.25.574C31.567,19.618,31.709,16,32.554,16s2.813,5.963,3.95,7.479a2.805,2.805,0,0,1-.395,3.989C34.883,28.589,32.775,29.158,30.256,29.158Z" transform="translate(27.939 17.948)" fill="#263238"/><path d="M38.7,29.158c-.445,0-.889-.021-1.334-.061A2.583,2.583,0,0,1,35,26.2s.326-2.3,1.629-2.3c1.1,0,2.329.482,3,.4C38.842,21.192,38.105,16,38.91,16s2.608,6.25,6.195,8.553c1.082.695,1.079,2.3-.566,3.289A10.67,10.67,0,0,1,38.7,29.158Z" transform="translate(45.887 17.948)" fill="#263238"/><path d="M45.184,20.21c-.568-2.1-2.995-3.826-5.592-4.605A6.741,6.741,0,0,0,34,16.263a5.765,5.765,0,0,1,2.576-4.547A5.977,5.977,0,0,1,39.263,11c5.592,0,7.621,3.505,9.539,6.908Z" transform="translate(44.256 9.79)" fill="#263238"/><path d="M36.608,44.947q-.557,0-1.082-.016h-.005a6.066,6.066,0,0,1-4.513-1.889c-2.16-2.3-2.35-5.524-1.663-5.921s1.284,1.318,3.947,2.224a18.669,18.669,0,0,0,2.3.329c.447.011.887.016,1.316.011,3.526-.05,6.363-.661,7.45-1.637a1.182,1.182,0,0,0,.445-1.005c-.087.082.045-.789-3.384-3.9a14,14,0,0,1-4.508-10.566c0-3.942.513-6.574.984-6.574.905,0,1.65,8.337,7.06,13.245,3.853,3.495,5.116,5.818,5.11,8.126a6.136,6.136,0,0,1-2.187,4.584c-2.692,2.421-7.421,2.992-11.274,2.992Z" transform="translate(36.082 17.948)" fill="#263238"/><path d="M39.007,33.263C30.784,32.934,26.7,28,26.7,28a152.653,152.653,0,0,0,15.271.658v4.605Z" transform="translate(32.341 37.526)" fill="#263238"/><path d="M33.625,33.875V29.27a31.3,31.3,0,0,0,9.539-1.645C41.97,33.2,33.907,33.862,33.625,33.875Z" transform="translate(43.644 36.914)" fill="#263238"/><path d="M35.854,38.711c-5.8,0-8.579-1.676-10.781-8.408,0,0-.353-.45.5-.724s1,.245,1,.245c.932,2.845,5.608,3.566,10.931,3.621l.658.005c2.632,0,7.895,0,7.895,0a6.6,6.6,0,0,1-6.579,5.245Z" transform="translate(29.573 39.973)" fill="#263238"/><path d="M44.99,49.61c-8.374,0-15.129-2.705-22.131-10.145C18.78,35.129,18.969,29.85,19.5,29.321s1.368,3.274,4.405,6.5a28.232,28.232,0,0,0,22.779,8.463C56.8,43.55,61,37.684,61.566,37.165l4.36,3.171c-.25.337-6.229,8.279-18.86,9.2q-1.046.075-2.076.076Z" transform="translate(20.142 39.6)" fill="#263238"/><path d="M13.719,33.132l-.184-2.626L13.182,27.9a3.886,3.886,0,0,0,1.495-.932,1.816,1.816,0,0,1,2.339-.011l1.232,1.005a1.853,1.853,0,0,1,.105,2.779A8.1,8.1,0,0,1,13.719,33.132Z" transform="translate(10.29 35.139)" fill="#263238"/><path d="M15.65,26.263l4.276,1.645c-.247-.934-1.579-5.671-5.218-6.839a2.918,2.918,0,0,0-3.263,2.484,6.92,6.92,0,0,0-.068.834c0,.126,0,.25.008.382.3,4.113,4.266,6.758,4.266,6.758Z" transform="translate(7.343 26.105)" fill="#263238"/><ellipse cx="5.247" cy="5.263" rx="5.247" ry="5.263" transform="translate(62.498 89.21)" fill="none" stroke="#263238" stroke-miterlimit="10" stroke-width="2"/><path d="M28.705,80.108c-1.424.826-21.495,13.571-21.6,14.518L7,95.573l3.734,9.318h82s3.942-12.668,3.732-15.845c-.1-1.484-13.15-10.363-13.15-10.363S93.636,68.484,93.8,46.161q.019-3.149-.205-6.292C91.818,14.751,75.762,5.669,58.726,5.035S32.018,12.4,32.018,12.4s-10.8,3.579-11.908,12.318c0,0-8.41,1.637-3.9,18.7a11.419,11.419,0,0,0-3.945,8.95c0,3.355,1.058,7.276,3.25,9.621,4.471,4.787,8.1,3.655,8.1,3.655S25.076,74.224,28.705,80.108Z" transform="translate(0.204 0)" fill="none" stroke="#263238" stroke-linejoin="round" stroke-miterlimit="10" stroke-width="2"/></g></svg>