<svg xmlns="http://www.w3.org/2000/svg" width="100" height="100" viewBox="0 0 100 100"><path d="M.384.67v100h100V.67ZM52.576,86.214a11.806,11.806,0,0,1-7.547,5.911A18.15,18.15,0,0,1,31.663,90.48a15,15,0,0,1-5.512-6.311q3.806-2.325,7.6-4.659a4.9,4.9,0,0,1,.534.856,7.993,7.993,0,0,0,3.451,3.582c1.617.55,5.16.9,6.531-1.94.837-1.444.569-6.186.569-11.327,0-8.081.038-16.028.038-24.208h9.353c0,8.589.048,17.2,0,25.776.019,5.256.476,10.033-1.655,13.96Zm38.8-2.643C88.13,94.695,70,95.056,62.759,87.707a16.9,16.9,0,0,1-3.4-4.63c3.85-2.214,3.85-2.214,7.6-4.381,2.035,3.128,3.917,4.847,7.3,5.55,4.592.559,9.212-1.016,8.177-5.892-1.064-3.985-9.4-4.953-15.075-9.212-5.761-3.87-7.11-13.27-2.377-18.641a13.366,13.366,0,0,1,7.09-4.183l2.946-.38c5.656-.115,9.193,1.377,11.787,4.279a18.768,18.768,0,0,1,2.416,3.234c-3.013,1.92-3,1.9-7.32,4.7a6.957,6.957,0,0,0-4.068-3.774c-2.508-.76-5.675.067-6.33,2.719a5.176,5.176,0,0,0,.182,2.927c1.016,2.32,4.429,3.326,7.49,4.732,8.813,3.576,11.787,7.4,12.519,11.966a13.767,13.767,0,0,1-.3,6.854Z" transform="translate(-0.384 -0.67)" fill="#ffca28"/></svg>