<svg xmlns="http://www.w3.org/2000/svg" width="100" height="100" viewBox="0 0 100 100"><g transform="translate(-585.365 -615.193)"><circle cx="50" cy="50" r="50" transform="translate(585.365 615.193)" fill="#e95420"/><g transform="translate(606.557 623.765)"><circle cx="3.095" cy="3.095" r="3.095" transform="translate(28.571 35.477)" fill="#fff"/><path d="M623.079,653.536h-5.713V630.68a10,10,0,1,1,20,0V636.4h-5.715v-5.713a4.286,4.286,0,0,0-8.572,0v22.856Zm18.57,10a10.012,10.012,0,0,1-10-10V639.252h5.715v14.284a4.286,4.286,0,0,0,8.571,0V639.252h5.715v14.284a10,10,0,0,1-10,10Z" transform="translate(-588.556 -620.679)" fill="#fff"/><circle cx="3.095" cy="3.095" r="3.095" transform="translate(0 69.76)" fill="#fff"/><path d="M604.793,678.565h-5.715V647.138a10,10,0,1,1,20,0v5.715h-5.715v-5.715a4.284,4.284,0,1,0-8.569,0v31.427Zm18.576,1.43a10.012,10.012,0,0,1-10-10V655.706h5.715v14.287a4.286,4.286,0,0,0,8.572,0V655.706h5.715v14.287a10,10,0,0,1-10,10Z" transform="translate(-598.844 -611.422)" fill="#fff"/></g></g></svg>