<svg xmlns="http://www.w3.org/2000/svg" width="100" height="97.022" viewBox="0 0 100 97.022"><path d="M-1157.965,1688.784h0a6.634,6.634,0,0,1-5.2-2.481l-24.062-29.916a5.9,5.9,0,0,1-.375-.524,6.526,6.526,0,0,1-.968-2.437,6.5,6.5,0,0,1,.065-2.619l8.578-37.31a6.57,6.57,0,0,1,3.6-4.473l34.763-16.61a6.656,6.656,0,0,1,2.548-.643c.111-.005.225-.009.338-.009a6.735,6.735,0,0,1,2.885.653l34.768,16.6a6.569,6.569,0,0,1,3.6,4.473l8.59,37.311a6.519,6.519,0,0,1-1.287,5.58l-24.053,29.922a6.637,6.637,0,0,1-5.192,2.476h0Zm-6.422-38.525a27.091,27.091,0,0,0,12,14.979l-.375.906a2.071,2.071,0,0,1,.186,1.179,20.211,20.211,0,0,1-1.884,3.385c-.13.195-.262.375-.389.55a8.737,8.737,0,0,0-.726,1.114c-.054.1-.115.234-.174.362l0,.009c-.031.068-.062.132-.088.189a2.208,2.208,0,0,0,.885,2.957,1.9,1.9,0,0,0,.827.188,2.331,2.331,0,0,0,2.045-1.362h0c.026-.054.054-.115.085-.173v0c.062-.125.126-.253.172-.355a8.5,8.5,0,0,0,.414-1.257c.057-.211.116-.429.187-.65.161-.41.306-.828.443-1.233a7.882,7.882,0,0,1,1.168-2.505,1.685,1.685,0,0,1,.9-.437l.471-.854a26.861,26.861,0,0,0,9.662,1.8,27,27,0,0,0,5.97-.672,27.007,27.007,0,0,0,3.57-1.076c.061.107.147.265.227.408l.015.027.008.015c.084.151.161.294.2.351l.132.041.01,0a1.461,1.461,0,0,1,.92.6,19.192,19.192,0,0,1,1.4,3.431l.023.067c.07.22.128.434.185.641a8.776,8.776,0,0,0,.42,1.267c.047.107.114.242.178.375l0,.005c.027.054.054.107.076.154a2.331,2.331,0,0,0,2.049,1.367,1.894,1.894,0,0,0,.828-.188,2.208,2.208,0,0,0,.885-2.956l-.069-.145v0c-.066-.139-.14-.3-.2-.411a8.5,8.5,0,0,0-.722-1.105v0c-.129-.175-.261-.356-.391-.55a19.508,19.508,0,0,1-1.845-3.3,1.438,1.438,0,0,1,.1-1.081c.019-.048.039-.1.057-.146a3.09,3.09,0,0,1-.234-.547c-.039-.107-.08-.214-.112-.293a26.991,26.991,0,0,0,12-15.09c.282.044.746.127.889.156l.128-.087a1.492,1.492,0,0,1,.916-.349,1.078,1.078,0,0,1,.121,0,19.2,19.2,0,0,1,3.57,1.047l.057.02c.22.085.429.174.627.261a8.549,8.549,0,0,0,1.241.459c.1.026.221.054.341.075h.012c.064.013.126.025.184.038l.02.006.021.007h.031a2.58,2.58,0,0,0,.536.058,2.131,2.131,0,0,0,2.145-1.578,2.211,2.211,0,0,0-1.761-2.535l-.211-.051-.011,0c-.134-.033-.273-.068-.383-.089a8.432,8.432,0,0,0-1.315-.123c-.219-.009-.445-.017-.682-.037l-.042,0a19.321,19.321,0,0,1-3.688-.609,2.092,2.092,0,0,1-.839-.816l0-.006c-.02-.03-.039-.057-.054-.08l-.841-.245a26.825,26.825,0,0,0-.436-9.715,26.888,26.888,0,0,0-3.9-9.012c.113-.1.279-.251.429-.383l.013-.012c.132-.117.245-.219.3-.268,0-.05.008-.1.011-.151a1.455,1.455,0,0,1,.38-1.027,19.529,19.529,0,0,1,3.09-2.172h0c.2-.12.4-.225.6-.328h0a8.411,8.411,0,0,0,1.13-.68c.089-.066.2-.161.3-.242l.006,0,.15-.122a2.208,2.208,0,0,0,.511-3.068,2,2,0,0,0-1.581-.733,2.456,2.456,0,0,0-1.522.546l-.11.086-.01.008c-.116.091-.248.193-.343.275a8.95,8.95,0,0,0-.932.962l0,0c-.139.161-.283.322-.439.489l-.078.079a18.95,18.95,0,0,1-2.727,2.459,1.512,1.512,0,0,1-.768.164c-.143,0-.277-.01-.384-.018l-.111-.008-.791.565a27.2,27.2,0,0,0-17.272-8.345c-.019-.281-.043-.779-.049-.929-.037-.035-.076-.07-.113-.1a1.45,1.45,0,0,1-.567-.936,18.937,18.937,0,0,1,.223-3.67l.013-.107c.033-.232.074-.453.113-.665a8.6,8.6,0,0,0,.172-1.313c0-.107,0-.249,0-.384,0-.072,0-.144,0-.207a2.207,2.207,0,0,0-2.08-2.312,1.97,1.97,0,0,0-1.472.677,2.43,2.43,0,0,0-.609,1.635c0,.01,0,.021,0,.031v.027c0,.054,0,.107,0,.164,0,.13-.005.264,0,.369a8.641,8.641,0,0,0,.172,1.317c.04.214.08.432.113.661l0,.035a19.416,19.416,0,0,1,.227,3.74,2.275,2.275,0,0,1-.676,1.075l-.049.88a27.14,27.14,0,0,0-3.761.578,26.761,26.761,0,0,0-13.6,7.767c-.233-.161-.643-.453-.751-.536l-.148.022a2.677,2.677,0,0,1-.421.043,1.277,1.277,0,0,1-.666-.185,19.256,19.256,0,0,1-2.768-2.5l-.038-.039c-.158-.167-.3-.334-.443-.5l0,0a8.651,8.651,0,0,0-.924-.955c-.1-.083-.234-.19-.345-.277l-.117-.092a2.485,2.485,0,0,0-1.448-.547h-.077a2,2,0,0,0-1.582.735,2.208,2.208,0,0,0,.512,3.067l.015.011.016.011.122.1.009.007c.107.086.214.175.3.24a8.515,8.515,0,0,0,1.131.682h0c.192.1.389.207.59.325l.006,0a19.486,19.486,0,0,1,3.088,2.17,2.083,2.083,0,0,1,.4,1.1c.005.037.01.07.015.1l.667.6a26.928,26.928,0,0,0-4.246,18.771l-.871.254-.082.107v0a2.455,2.455,0,0,1-.81.793,19.343,19.343,0,0,1-3.686.609l-.043,0c-.236.02-.463.028-.682.037a8.484,8.484,0,0,0-1.314.123c-.114.021-.26.057-.39.089l-.166.04-.018,0-.015,0-.016,0a2.211,2.211,0,0,0-1.761,2.534,2.131,2.131,0,0,0,2.145,1.578,2.562,2.562,0,0,0,.539-.058h.031l.019-.006.021-.007.161-.034h0c.132-.028.268-.057.375-.085a8.763,8.763,0,0,0,1.249-.461h0c.2-.084.4-.172.614-.254l.063-.023a19.193,19.193,0,0,1,3.565-1.044l.074,0a2.23,2.23,0,0,1,1.029.372h0l.089.051.907-.156Zm25.726,13.321h0a21.433,21.433,0,0,1-6.929-1.15l5.287-9.548h.009a1.843,1.843,0,0,1,1.552-.969h.065a1.812,1.812,0,0,1,.792.183,1.818,1.818,0,0,1,.823.783h.04l5.3,9.568a21.217,21.217,0,0,1-2.116.59,21.788,21.788,0,0,1-4.816.539Zm11.642-3.378h0l-4.206-10.158.013-.018a1.831,1.831,0,0,1,.889-2.379,1.822,1.822,0,0,1,.7-.182h.08a1.919,1.919,0,0,1,.341.033l.018-.022,10.835,1.832a21.441,21.441,0,0,1-3.411,6.151,21.339,21.339,0,0,1-5.262,4.746Zm-23.268-.04h0a21.618,21.618,0,0,1-5.161-4.626,21.462,21.462,0,0,1-3.485-6.194l10.741-1.823.018.022a1.887,1.887,0,0,1,.335-.031h.026a1.83,1.83,0,0,1,1.761,1.427,1.819,1.819,0,0,1-.1,1.129l.031.04-4.161,10.056Zm11.613-14.307h0l-3.014-1.448-.747-3.245,2.085-2.6H-1137l2.081,2.6-.747,3.245-3.006,1.448Zm-21.435-1.6h0a21.434,21.434,0,0,1,.411-7.13,21.4,21.4,0,0,1,2.63-6.434l8.172,7.309-.009.045a1.828,1.828,0,0,1,.231,2.525,1.823,1.823,0,0,1-.952.627l-.009.036-10.474,3.023Zm42.9-.036h0l-10.528-3.032-.009-.044a1.831,1.831,0,0,1-1.3-2.178,1.823,1.823,0,0,1,.582-.974l0-.023,8.128-7.274a21.708,21.708,0,0,1,2.681,6.549,21.65,21.65,0,0,1,.453,6.975Zm-26.569-10.919a1.823,1.823,0,0,1-1.08-.351l-.018.009-8.949-6.345a21.489,21.489,0,0,1,10.324-5.624,22.121,22.121,0,0,1,2.219-.383l-.618,10.915-.045.022a1.83,1.83,0,0,1-1.832,1.751Zm10.172-.039a1.827,1.827,0,0,1-1.436-.69,1.82,1.82,0,0,1-.4-1.063l-.009,0-.618-10.9a21.483,21.483,0,0,1,6.75,1.992,21.617,21.617,0,0,1,5.716,4.021l-8.892,6.3-.031-.013a1.822,1.822,0,0,1-1.083.347Z" transform="translate(1188.669 -1591.763)" fill="#326ce5"/></svg>