<svg xmlns="http://www.w3.org/2000/svg" width="81.074" height="100" viewBox="0 0 81.074 100"><path d="M4.655,93.75a11.437,11.437,0,0,1,11.982-5.406,143.636,143.636,0,0,0,32.847-.2,44.064,44.064,0,0,1,10.8-.083c5.572.636,11.187.9,16.785,1.378a37.593,37.593,0,0,1,5.147.725,3.647,3.647,0,0,1,3.044,2.853,3.562,3.562,0,0,1-2.027,4.009,10.6,10.6,0,0,1-4.859,1.4c-6.015-.133-12.026-.737-18.043-.844a134.744,134.744,0,0,0-15.6.445,116.272,116.272,0,0,1-21.6.133c-3.984-.35-8.018-.125-12.026-.2a6.993,6.993,0,0,1-6.442-2.6ZM85.094,22.5l.6,13.653a67.652,67.652,0,0,1-.281,8.825,65.452,65.452,0,0,0,0,18.424,23.411,23.411,0,0,1-.242,7.961,6.849,6.849,0,0,1-7.547,6.353,73.389,73.389,0,0,1-13.068-1.906,13.4,13.4,0,0,1-7.49-5.828A83.566,83.566,0,0,1,52.2,62.132a63.669,63.669,0,0,0-9.308-13.068,65.762,65.762,0,0,1-5.781-8.158,16.849,16.849,0,0,0-1.27-2.047,2.726,2.726,0,0,0-4.8.906,9.7,9.7,0,0,0-.5,3.176L30.176,61.41a9.015,9.015,0,0,1-.692,3.112,8.547,8.547,0,0,0-.184,7.7,3.094,3.094,0,0,1-2.223,4.447,18.364,18.364,0,0,1-14.1-.394A6.35,6.35,0,0,1,9.02,70.291c-.058-4.447-.228-8.85-.477-13.281a8.64,8.64,0,0,1,2.82-7.331,12.032,12.032,0,0,0,2.242-2.812,5.312,5.312,0,0,0-.209-6.392A25.124,25.124,0,0,1,8.511,21.916c.312-4.4.216-8.825.3-13.234,0-1.073-.07-2.153.031-3.216A3.985,3.985,0,0,1,13.962.978a27.718,27.718,0,0,0,9.809-1.83A5.93,5.93,0,0,1,31.917,2.77c.508,1.094.9,2.234,1.347,3.355a6.719,6.719,0,0,0,4.059,4.2,9.609,9.609,0,0,1,4.784,4.117L54.719,32.613a31.53,31.53,0,0,0,4.447,5.178c1.8,1.633,3.291,1.125,3.583-1.353a58.687,58.687,0,0,0,.534-11.6,130.229,130.229,0,0,1,.2-18.043A6.023,6.023,0,0,1,71.064-.113L75.51.142a8.578,8.578,0,0,1,8.945,7.122,23.309,23.309,0,0,1,.8,5.147c.12,3.348.037,6.719.037,10.057Z" transform="translate(-4.655 1.4)"/></svg>