<svg xmlns="http://www.w3.org/2000/svg" width="100" height="80.981" viewBox="0 0 100 80.981"><g transform="translate(0 -6.086)"><path d="M99.264,35.865C94.572,14.3,68.718,1.625,41.506,7.538S-3.953,35.733.734,57.285,31.281,91.532,58.487,85.613s45.465-28.167,40.781-49.749ZM50,66.451A19.874,19.874,0,1,1,69.877,46.576,19.874,19.874,0,0,1,50,66.451Z" transform="translate(0 0)" fill="#008c99"/><path d="M45.084,14.192a28.535,28.535,0,1,0,20.183,8.356,28.538,28.538,0,0,0-20.183-8.356Zm-4.4,45.168a31.15,31.15,0,1,0,.006-.016Z" transform="translate(9.311 4.56)" fill="#70ccd3"/></g></svg>