<svg xmlns="http://www.w3.org/2000/svg" width="100" height="100.092" viewBox="0 0 100 100.092"><g transform="translate(-1.5 -0.906)"><path d="M51.549,101V81.612c20.574,0,36.4-20.376,28.585-41.938a29.078,29.078,0,0,0-17.31-17.31C41.262,14.55,20.887,30.376,20.887,50.949H1.5C1.5,18.21,33.152-7.31,67.474,3.373A48.146,48.146,0,0,1,99.027,34.926C109.709,69.347,84.289,101,51.549,101Z" transform="translate(0 0)" fill="#0080ff"/><path d="M51.587,82.288H32.3V63H51.587ZM32.3,97.124H17.463V82.288H32.3ZM17.463,82.288H5V69.924H17.463Z" transform="translate(-0.038 -0.676)" fill="#0080ff" fill-rule="evenodd"/></g></svg>