<svg xmlns="http://www.w3.org/2000/svg" width="99.471" height="100" viewBox="0 0 99.471 100"><path d="M95.539,47.991C94.762,18.982,66.575-4.13,38.062,1.013,9.194,6.241-8.623,32.451-2.816,61.182c5.458,27.012,34.8,44.8,61.231,37.442,1.867-.616,3.309-1.244,3.309-1.244L59.893,88.3l-3.5,1.287a36.879,36.879,0,0,1-16.356,1C17.265,87.124,1.381,65.144,5.711,43.4,10.456,19.56,32.839,5.152,56.1,10.96,84.892,18.148,96.3,55.647,76.2,76.9c-.359-1.3-.594-1.891-.784-2.742L67,36.272c-.708-3.256-1.4-6.5-5.412-6.931-3.977-.422-5.522,2.386-6.761,5.581-2.812,7.294-5.872,15.136-9.044,22.15l-1.852-3.228c-2.755-4.566-5.25-9.284-7.906-13.906-1.225-2.131-3.016-3.516-5.587-3.25A5.2,5.2,0,0,0,25.7,40.46L17.765,67.893l9.559-.414s.675-2.591,1.062-4.562c.853-4.344,2.177-8.594,3.531-13.781l7.828,14.937c1.437,2.755,3.484,4.777,6.773,4.567,3.244-.208,4.567-3.148,5.7-5.727.794-1.809,5.228-13.417,7.6-19.976.3,1.547.5,2.131.68,3.025l8.959,43.864q.386,1.966.844,3.917a31.671,31.671,0,0,0,3.627-2.191C88.668,80.764,96.029,66.38,95.537,47.99Z" transform="translate(3.911 -0.293)" fill="#c42227"/></svg>