<svg xmlns="http://www.w3.org/2000/svg" width="100" height="100" viewBox="0 0 100 100"><path d="M69.877,38.723A25.541,25.541,0,0,1,76.9,55.834H27.585a25.951,25.951,0,0,1,7.91-18,24.962,24.962,0,0,1,16.788-6.7A25.214,25.214,0,0,1,69.877,38.723ZM102,52.04A50,50,0,1,1,52.04,2,49.946,49.946,0,0,1,102,52.04ZM89.732,65.2a53.011,53.011,0,0,0,0-8.071v-.081H82.549V54.462H89.49C88.925,48,87.391,38.4,80.37,30.249c-.161-.242-.4-.4-.565-.646l-5.488,5.488L72.46,33.235l5.488-5.488c-8.959-8.555-20.42-9.927-24.455-10.169v7.506H50.91V17.5c-3.955.161-15.416,1.453-24.617,10.412l5.246,5.246-1.776,1.937-5.246-5.246c-7.425,8.313-9.12,18.241-9.766,24.617h6.7v2.583H14.51v.323a49.83,49.83,0,0,0,0,7.829H89.732Z" transform="translate(-2 -2)" fill="#b7111d"/></svg>