<svg xmlns="http://www.w3.org/2000/svg" width="100" height="94.942" viewBox="0 0 100 94.942"><g transform="translate(0 0)"><path d="M80.981,166.865s-9.056,6.731-15.42,4.9c0,0,31.329,31.329,63.882,1.224,0,0,10.892-12.605,10.4-21.906l-4.283-1.224s-6,29.615-37.326,25.944c.122.122-7.832-1.713-17.256-8.934Z" transform="translate(-39.861 -91.112)" fill="#eba546"/><path d="M31.63,62.494s-.979-11.259,3.916-15.664c0,0-43.078,10.4-34.389,53.969,0,0,5.14,15.91,13.217,20.315l3.182-3.06s-22.151-20.56-2.692-45.4c-.122,0,5.629-5.874,16.766-10.157Z" transform="translate(0 -28.473)" fill="#322d6b"/><path d="M118.372,45.768s10.4,4.406,11.993,10.769c0,0,11.137-42.833-31.329-55.683,0,0-16.521-2.937-24.109,2.081l1.224,4.283s28.637-9.913,41.364,18.969a55.225,55.225,0,0,1,.857,19.581Z" transform="translate(-45.556 0)" fill="#7c64a5"/><path d="M117.482,51.064a10.056,10.056,0,1,1-.857-14.2A10.063,10.063,0,0,1,117.482,51.064Z" transform="translate(-60.741 -20.88)" fill="#7c64a5"/><path d="M51.9,157.192a10.063,10.063,0,0,1-14.2.857,10.052,10.052,0,1,1,14.2-.857Z" transform="translate(-20.88 -85.417)" fill="#322d6b"/><path d="M173.677,160.332a10.056,10.056,0,1,1-.857-14.2,10.062,10.062,0,0,1,.857,14.2Z" transform="translate(-94.908 -87.315)" fill="#eba546"/></g></svg>