<svg xmlns="http://www.w3.org/2000/svg" xmlns:xlink="http://www.w3.org/1999/xlink" width="98.908" height="100" viewBox="0 0 98.908 100"><defs><linearGradient id="a" x1="0.758" y1="16.144" x2="2.083" y2="15.015" gradientUnits="objectBoundingBox"><stop offset="0" stop-color="#5a9fd4"/><stop offset="1" stop-color="#306998"/></linearGradient><linearGradient id="b" x1="2.241" y1="13.881" x2="1.769" y2="14.539" gradientUnits="objectBoundingBox"><stop offset="0" stop-color="#ffd43b"/><stop offset="1" stop-color="#ffe873"/></linearGradient></defs><g transform="translate(-12.812 -1.987)"><path d="M61.677,1.988a68.131,68.131,0,0,0-11.4.973c-10.1,1.783-11.928,5.512-11.928,12.4v9.092H62.205v3.031H29.4c-6.933,0-13,4.167-14.9,12.1-2.191,9.081-2.288,14.757,0,24.249,1.7,7.063,5.745,12.095,12.679,12.095h8.2v-10.9a15.159,15.159,0,0,1,14.9-14.82H74.107A12.019,12.019,0,0,0,86.032,38.08V15.364c0-6.466-5.452-11.323-11.925-12.4a74.52,74.52,0,0,0-12.43-.978ZM48.775,9.3a4.547,4.547,0,1,1-4.48,4.561A4.547,4.547,0,0,1,48.775,9.3Z" transform="translate(0 0)" fill="url(#a)"/><path d="M89.9,28.38V38.974A15.3,15.3,0,0,1,75,54.1H51.173A12.173,12.173,0,0,0,39.245,66.222V88.94c0,6.464,5.621,10.268,11.928,12.122a39.931,39.931,0,0,0,23.829,0c6.005-1.739,11.928-5.239,11.928-12.122V79.847H63.1V76.816H98.859c6.933,0,9.518-4.831,11.93-12.095,2.491-7.473,2.383-14.66,0-24.249-1.714-6.9-4.986-12.1-11.93-12.1H89.9ZM76.5,85.909a4.5,4.5,0,1,1-3.178,1.339A4.547,4.547,0,0,1,76.5,85.909Z" transform="translate(-0.896 -0.894)" fill="url(#b)"/></g></svg>