<svg xmlns="http://www.w3.org/2000/svg" xmlns:xlink="http://www.w3.org/1999/xlink" width="100" height="77.115" viewBox="0 0 100 77.115"><defs><linearGradient id="a" y1="-0.615" x2="1" y2="1.615" gradientUnits="objectBoundingBox"><stop offset="0" stop-color="#cbced0"/><stop offset="1" stop-color="#84838b"/></linearGradient><linearGradient id="b" x2="1" y2="1" gradientUnits="objectBoundingBox"><stop offset="0" stop-color="#276dc3"/><stop offset="1" stop-color="#165caa"/></linearGradient></defs><g transform="translate(12.049 44.024)"><path d="M37.951,22.948c-27.615,0-50-14.993-50-33.486s22.386-33.486,50-33.486,50,14.993,50,33.486S65.565,22.948,37.951,22.948ZM45.6-30.932c-20.989,0-38,10.25-38,22.893s17.016,22.893,38,22.893S82.083,7.846,82.083-8.039,66.593-30.932,45.6-30.932Z" transform="translate(0)" fill-rule="evenodd" fill="url(#a)"/><path d="M49.266.354a37.724,37.724,0,0,1,4.784,1.8,9.236,9.236,0,0,1,2.427,1.734,6.56,6.56,0,0,1,1.11,1.595L69.513,25.594,50.237,25.6,41.223,8.682A21.777,21.777,0,0,0,38.241,4.59a3.136,3.136,0,0,0-2.288-1.04H31.373l0,22.046L14.32,25.6V-30.713H48.571s15.6.281,15.6,15.125S49.265.36,49.265.36ZM41.847-18.5l-10.326-.006-.005,9.576,10.331,0s4.784-.015,4.784-4.871C46.631-18.762,41.847-18.5,41.847-18.5Z" transform="translate(14.832 7.488)" fill-rule="evenodd" fill="url(#b)"/></g></svg>