<svg xmlns="http://www.w3.org/2000/svg" width="100" height="89.303" viewBox="0 0 100 89.303"><path d="M3498.4,5252.294c-7.109,6.949-14.218,11.1-19.888,11.1a9.927,9.927,0,0,1-5.112-1.277c-5.112-2.876-6.949-10.3-5.272-20.847.32-1.837.719-3.754,1.2-5.671-1.917-.559-3.754-1.2-5.511-1.837-9.9-3.833-15.415-9.1-15.415-15.016s5.431-11.182,15.415-15.016a55.525,55.525,0,0,1,5.511-1.837c-.479-1.917-.879-3.834-1.2-5.671-1.677-10.463.16-17.891,5.272-20.847a9.916,9.916,0,0,1,5.112-1.277c5.591,0,12.7,4.153,19.888,11.1,7.188-6.949,14.3-11.1,19.888-11.1a9.912,9.912,0,0,1,5.112,1.278c5.112,2.875,6.949,10.3,5.271,20.847-.319,1.837-.719,3.754-1.2,5.671,1.917.559,3.754,1.2,5.511,1.837,9.984,3.833,15.416,9.1,15.416,15.016s-5.431,11.182-15.416,15.016a55.8,55.8,0,0,1-5.511,1.837c.479,1.917.879,3.834,1.2,5.671,1.677,10.463-.16,17.891-5.272,20.847a9.928,9.928,0,0,1-5.112,1.278C3512.7,5263.4,3505.589,5259.244,3498.4,5252.294Zm11.5-13.658a104.743,104.743,0,0,1-8.307,10.383c5.991,5.911,11.981,9.824,16.773,9.824a5.39,5.39,0,0,0,2.8-.719c3.275-1.917,4.393-7.827,3.035-16.214-.32-1.677-.639-3.435-1.118-5.272A108.434,108.434,0,0,1,3509.9,5238.636Zm-37.3,3.275c-1.358,8.387-.24,14.3,3.035,16.214a5.39,5.39,0,0,0,2.8.719c4.872,0,10.863-3.994,16.773-9.824a115.274,115.274,0,0,1-8.307-10.383,94.7,94.7,0,0,1-13.179-2,47.806,47.806,0,0,0-1.118,5.271Zm25.8,3.833c1.917-2.077,3.754-4.313,5.511-6.629-1.837.08-3.674.16-5.511.16s-3.674-.08-5.511-.16C3494.646,5241.432,3496.483,5243.668,3498.4,5245.745Zm-8.866-42.652c-1.757,2.556-3.435,5.112-4.872,7.668-1.518,2.636-2.955,5.352-4.233,7.987,1.278,2.636,2.716,5.352,4.233,7.987q2.157,3.833,4.792,7.668c2.875.239,5.831.319,8.946.319,3.035,0,5.99-.08,8.946-.319,1.757-2.556,3.435-5.112,4.872-7.668,1.518-2.716,2.875-5.352,4.233-7.987-1.278-2.636-2.716-5.352-4.233-7.987q-2.157-3.833-4.792-7.668c-2.875-.239-5.831-.319-8.946-.319C3495.445,5202.773,3492.49,5202.854,3489.534,5203.093Zm26.6,25.959c-.879,1.677-1.917,3.274-2.875,4.792,3.035-.4,5.911-.878,8.626-1.518-.879-2.715-1.837-5.431-3.035-8.227C3517.969,5225.7,3517.09,5227.374,3516.132,5229.052Zm-41.214,3.195c2.716.639,5.591,1.118,8.626,1.517-.958-1.6-1.917-3.115-2.875-4.872-.958-1.6-1.837-3.275-2.716-4.872-1.2,2.8-2.156,5.591-3.035,8.227Zm-9.5-24.2c-7.987,2.955-12.54,6.949-12.54,10.7,0,4.473,6.629,9.265,17.652,12.46a100.75,100.75,0,0,1,4.792-12.38,116.324,116.324,0,0,1-4.793-12.46A47.824,47.824,0,0,0,3465.413,5208.045Zm56.07,10.623a116.567,116.567,0,0,1,4.792,12.46,48.29,48.29,0,0,0,5.112-1.678c7.907-2.955,12.54-6.949,12.54-10.7,0-4.473-6.63-9.265-17.652-12.46a100.654,100.654,0,0,1-4.792,12.38Zm-5.352-10.144c.958,1.6,1.837,3.275,2.716,4.953,1.2-2.8,2.157-5.591,3.035-8.227-2.716-.639-5.591-1.118-8.626-1.517Zm-41.214-3.354c.879,2.715,1.837,5.431,3.035,8.227.879-1.6,1.757-3.275,2.716-4.952.879-1.677,1.917-3.275,2.875-4.792a87.462,87.462,0,0,0-8.626,1.519Zm26.677-16.693a115.04,115.04,0,0,1,8.307,10.383,94.919,94.919,0,0,1,13.179,2,47.958,47.958,0,0,0,1.118-5.272c1.358-8.386.24-14.3-3.035-16.214a5.389,5.389,0,0,0-2.8-.719c-4.872,0-10.862,3.994-16.773,9.825Zm-25.958-9.105c-3.275,1.917-4.393,7.828-3.035,16.214.319,1.678.639,3.435,1.118,5.272a108.54,108.54,0,0,1,13.179-2,104.868,104.868,0,0,1,8.307-10.383c-5.99-5.911-11.981-9.824-16.773-9.824a5.383,5.383,0,0,0-2.8.719Zm28.275,19.01c-1.757-2.316-3.594-4.553-5.511-6.629-1.917,2.077-3.754,4.313-5.511,6.629,1.837-.08,3.674-.16,5.511-.16s3.674.081,5.511.16Zm-14.617,20.367a9.105,9.105,0,1,1,9.105,9.105,9.105,9.105,0,0,1-9.105-9.105Z" transform="translate(-3448.4 -5174.097)" fill="#61dafb"/></svg>