<svg xmlns="http://www.w3.org/2000/svg" width="97.956" height="100" viewBox="0 0 97.956 100"><path d="M42.289.712C43.726-.3,45-.132,46.519.712L59.292,8.056A2.134,2.134,0,0,0,60.9,7.972L73.4.712A3.434,3.434,0,0,1,77.466.628l19.2,11.081a3.44,3.44,0,0,1,1.945,3.3V37.338a3.273,3.273,0,0,1-1.777,3.13L85.5,46.983c2.706,2.2,2.706,2.2,2.706,5.667V73.544a2.863,2.863,0,0,1-1.692,2.792l-39.5,22.839a4.315,4.315,0,0,1-5.075,0L2.429,76.336A3.156,3.156,0,0,1,.654,73.291V26.766A3.1,3.1,0,0,1,2.346,23.8ZM42.2,52.65a1.808,1.808,0,0,0-1.016-1.859L5.054,30.062V71.427a2.055,2.055,0,0,0,1.184,2.031L42.02,94.084ZM82.471,73.375a1.942,1.942,0,0,0,1.184-1.945l-.084-17.341L66.82,63.647c-2.369,1.353-3.975.422-3.975-2.284V43.6a10.278,10.278,0,0,0-.084-1.522l-15.227,8.8a1.769,1.769,0,0,0-.931,1.777V94.1Zm-39.1-26.391a1.516,1.516,0,0,0,1.861,0l8.8-5.075L60.459,38.1l-2.2-1.269L43.372,28.206a2.3,2.3,0,0,1,0-4.23l7.781-4.484a1.683,1.683,0,0,0,1.1-1.945,5.558,5.558,0,0,1,0-1.184c-.253-2.2.084-4.063,2.453-4.991.084,0,.169-.169.253-.339L45.147,5.365a1.776,1.776,0,0,0-2.114,0L7.421,26.089Zm48.3-32.822c-.339-.253-.422-.339-.508-.339L76.2,5.195a1.938,1.938,0,0,0-1.522.084L61.392,12.892l-2.031,1.184a1.578,1.578,0,0,1,.508.339l14.972,8.628a2.387,2.387,0,0,0,1.522-.084l6.428-3.638,8.881-5.159Zm1.609,23.01a1.81,1.81,0,0,0,.677-1.438c.084-5.414,0-10.828,0-16.328,0-.339-.084-.677-.084-1.016h-.422L78.483,27.1a1.81,1.81,0,0,0-.677,1.438V46.052ZM56.977,18.137V29.726a1.7,1.7,0,0,0,1.016,1.692l7.953,4.567a2.689,2.689,0,0,1,1.522,2.622v3.384a1.349,1.349,0,0,0,.339,1.016c1.692,1.1,3.469,2.031,5.328,3.13a6.952,6.952,0,0,0,.169-.761V28.289a1.82,1.82,0,0,0-.844-1.269ZM67.55,48.169v9.9L81.085,50.2a1.811,1.811,0,0,0-.253-.422c-.339.084-.677.253-.931.339a28.27,28.27,0,0,0-2.706,1.609,2.924,2.924,0,0,1-3.384.084c-2.031-1.269-4.145-2.369-6.259-3.638ZM48.856,26.09c1.269.761,2.284,1.353,3.384,1.945V24.061a32.751,32.751,0,0,1-3.384,2.031Z" transform="translate(-0.654 -0.001)"/></svg>