<svg xmlns="http://www.w3.org/2000/svg" xmlns:xlink="http://www.w3.org/1999/xlink" width="102.248" height="94.145" viewBox="0 0 102.248 94.145"><defs><radialGradient id="a" cx="0.118" cy="0.936" r="0.79" gradientTransform="matrix(1.019, 0, 0, -1, -0.004, 1.256)" gradientUnits="objectBoundingBox"><stop offset="0" stop-color="#2b2b2b"/><stop offset="1" stop-color="#838383"/></radialGradient><radialGradient id="b" cx="0.317" cy="-0.155" r="1.102" gradientTransform="matrix(0.758, 0, 0, -1, 0.05, 2.13)" gradientUnits="objectBoundingBox"><stop offset="0" stop-color="#fff" stop-opacity="0.8"/><stop offset="1" stop-color="#fff" stop-opacity="0.2"/></radialGradient><linearGradient id="c" x1="-0.317" y1="1.375" x2="-0.229" y2="1.508" gradientUnits="objectBoundingBox"><stop offset="0" stop-color="#227716"/><stop offset="1" stop-color="#20b228"/></linearGradient><radialGradient id="d" cx="0.403" cy="0.822" r="0.785" gradientTransform="matrix(0.513, -0.618, -1.149, -2.235, 1.932, 5.675)" gradientUnits="objectBoundingBox"><stop offset="0" stop-color="#fff" stop-opacity="0.4"/><stop offset="0.998" stop-color="#fff" stop-opacity="0"/></radialGradient></defs><g transform="translate(-2.476 -2.484)"><path d="M79,95.629,19.01,93.919c-7.262-.31-15.638-8.948-15.533-16.158L3.763,17.49c.1-7.234,8.323-14.081,15.561-14L78.5,5.663c7.21.1,15.484,6.77,15.379,13.98V81.185A14.487,14.487,0,0,1,79,95.629Z" transform="translate(0 0)" stroke="#2c2c2c" stroke-miterlimit="10" stroke-width="2" fill="url(#a)"/><path d="M131.5,995.783l9.545-2.307a15.249,15.249,0,0,0,3.266,5.109c1.347,1.141,5.133,1.762,7.649,1.528a4.411,4.411,0,0,0,3.891-4.073,3.464,3.464,0,0,0-2.153-3.5,33.686,33.686,0,0,0-5.472-1.891c-2.335-.673-6.508-1.609-9.8-3.839-3.266-2.23-4.073-7.339-4.1-9.154a13.188,13.188,0,0,1,1.581-6.432c1.169-1.972,4.98-6.226,12.553-6.226s10.738,2.411,12.472,3.811,4.512,6.407,4.512,6.407l-8.714,3.137c-1.48-4.331-4.226-5.811-7.988-5.811s-4.641,2.387-4.641,3.811.831,3.137,4.407,4.073,9.492,2.411,12.319,4.226a12.209,12.209,0,0,1,5.42,9.96,11.549,11.549,0,0,1-3.19,8.4c-1.48,1.609-5.057,5.343-12.682,5.343C143.041,1008.336,135.625,1005.094,131.5,995.783Zm66.313-1.089s1.427-17.738-15.146-17.738c-14.988,0-14.42,15.38-14.42,16.44,0,4.436,2.593,15.819,15.25,15.819s14.315-10.633,14.315-10.633l-8.637-1.012c-.415,1.089-1.27,5-5.315,5a5.753,5.753,0,0,1-5.653-4.331,16.747,16.747,0,0,1-.234-3.553ZM177.9,989.557s-.234-6.718,5.577-6.718,5.42,6.718,5.42,6.718Z" transform="translate(-122.862 -922.743)" fill="#fff" stroke="#2c2c2c" stroke-miterlimit="10" stroke-width="2"/><path d="M84.5,123.747v29.848s3.528,15.767,14.573,16.077,52.336,2,56.07,1.815,13.565-5.315,13.565-15.275V126.679c0-5.73-3.319-16.884-15.976-17.48s-48.211-1.5-52.227-1.5c-6.565-.028-16,2.488-16,16.053Z" transform="translate(-77.757 -100.007)" fill="url(#b)"/><path d="M1035.1,56.673l17.4,21.916,41-34.13L1087.848,33.1,1053.8,62.093l-12.137-13.718Z" transform="translate(-990.025 -28.421)" stroke="#0c0000" stroke-miterlimit="10" stroke-width="2" fill="url(#c)"/><path d="M1058.9,281.579l16.988,15.4,27.827-21.916L1100.5,267.7l-23.936,20.384-12.061-13.589Z" transform="translate(-1012.865 -253.561)" fill="url(#d)"/></g></svg>