<svg xmlns="http://www.w3.org/2000/svg" width="98.427" height="100" viewBox="0 0 98.427 100"><g transform="translate(958.695 467.843)"><path d="M-954.56-395.883a64.963,64.963,0,0,1-4.124-21.442c-.27-14.244,4.132-32.326,22.817-42.61,14.781-7.546,26.592-9.08,36.562-7.147,16.356,3.17,26.877,15.161,29.964,19.793-.275,0-9.072,8.8-9.072,8.8s-7.422-10.721-17.869-14.295-21.992-2.474-27.215,0c-22.483,11.115-22.542,28.865-22.542,28.865h18.693Z" fill="#2d2d2d"/><path d="M-873.475-467.843a64.962,64.962,0,0,1,4.124,21.442c.27,14.244-4.132,32.326-22.817,42.61-14.781,7.546-26.592,9.08-36.562,7.147-16.356-3.17-26.877-15.161-29.964-19.793.275,0,9.072-8.8,9.072-8.8s7.422,10.721,17.869,14.295,21.992,2.474,27.215,0C-882.055-422.053-882-439.8-882-439.8H-900.69Z" transform="translate(9.072 28.04)" fill="#2d2d2d"/><circle cx="13.195" cy="13.195" r="13.195" transform="translate(-922.533 -430.383)" fill="#2eb790"/></g></svg>