<svg xmlns="http://www.w3.org/2000/svg" width="87.228" height="100" viewBox="0 0 87.228 100"><g transform="translate(-0.1 -0.5)"><path d="M44.182.5a44.073,44.073,0,0,0-8.367,87.347V100.5c26.327-4.082,49.8-24.9,51.429-52.449C88.263,31.52,80.1,14.582,66.018,6.418a23.484,23.484,0,0,0-5.1-2.449L60.3,3.561c-.816-.2-1.633-.612-2.449-.816A43.639,43.639,0,0,0,44.182.5Z" transform="translate(0 0)" fill="#6369b0"/><path d="M29.787,8.52A4.805,4.805,0,0,0,25.5,10.152a16.882,16.882,0,0,0-1.837,3.265,10.389,10.389,0,0,0,1.429,10.816A12.222,12.222,0,0,0,33.665,17.3a7.211,7.211,0,0,0,.816-3.469A5.034,5.034,0,0,0,29.787,8.52Z" transform="translate(23.578 8.307)" fill="#fff"/><path d="M18.994,8.616a5.079,5.079,0,0,0-4.694,4.9,7.211,7.211,0,0,0,.816,3.469,12.552,12.552,0,0,0,8.776,6.939,10.723,10.723,0,0,0,1.02-10.816,13.686,13.686,0,0,0-1.837-2.857A5.24,5.24,0,0,0,18.994,8.616Z" transform="translate(14.78 8.415)" fill="#fff" opacity="0.9"/><path d="M12.38,15a4.671,4.671,0,0,0-2.653,8.367,17.624,17.624,0,0,0,3.265,2.041,12.569,12.569,0,0,0,11.429-1.02,12.407,12.407,0,0,0-7.347-8.367A8.844,8.844,0,0,0,13.2,15.2,1.227,1.227,0,0,0,12.38,15Z" transform="translate(8.128 15.092)" fill="#fff" opacity="0.8"/><path d="M17.107,23.1a10.183,10.183,0,0,0-4.286,1.02,9.964,9.964,0,0,0-3.265,2.041c-3.469,2.857-1.224,8.367,3.673,8.163a8.282,8.282,0,0,0,3.878-.816c3.673-1.633,6.531-4.9,6.939-8.367A12.015,12.015,0,0,0,17.107,23.1Z" transform="translate(8.095 23.522)" fill="#fff" opacity="0.7"/><path d="M23.89,27.1a12.222,12.222,0,0,0-8.571,6.939,7.211,7.211,0,0,0-.816,3.469c-.2,4.49,5.918,7.143,8.571,3.469a16.882,16.882,0,0,0,1.837-3.265c1.633-3.265,1.02-7.347-1.02-10.612Z" transform="translate(14.985 27.686)" fill="#fff" opacity="0.6"/><path d="M25.027,27.3a10.723,10.723,0,0,0-1.02,10.816,13.686,13.686,0,0,0,1.837,2.857c3.061,3.265,9.184.816,8.98-3.265a7.211,7.211,0,0,0-.816-3.469,12.764,12.764,0,0,0-8.98-6.939Z" transform="translate(23.849 27.894)" fill="#fff" opacity="0.5"/><path d="M33.939,23A12.015,12.015,0,0,0,27,25.041a12.407,12.407,0,0,0,7.347,8.367,8.844,8.844,0,0,0,3.878.816c4.9.2,7.143-5.714,3.469-8.367a16.882,16.882,0,0,0-3.265-1.837A8.558,8.558,0,0,0,33.939,23Z" transform="translate(27.998 23.418)" fill="#fff" opacity="0.4"/></g></svg>