<svg xmlns="http://www.w3.org/2000/svg" xmlns:xlink="http://www.w3.org/1999/xlink" width="100" height="99.961" viewBox="0 0 100 99.961"><defs><linearGradient id="a" x1="0.537" y1="0.035" x2="0.553" y2="0.975" gradientUnits="objectBoundingBox"><stop offset="0" stop-color="#faae42"/><stop offset="1" stop-color="#ef3e31"/></linearGradient><linearGradient id="b" x1="0.598" y1="0.02" x2="0.436" y2="0.978" gradientUnits="objectBoundingBox"><stop offset="0" stop-color="#e39f3a"/><stop offset="1" stop-color="#d33929"/></linearGradient></defs><path d="M22.453,0H77.822A23.341,23.341,0,0,1,85.67,1.328,22.172,22.172,0,0,1,99.961,18.743a26.93,26.93,0,0,1,.273,4.334v54a25.294,25.294,0,0,1-.43,5.154A22.213,22.213,0,0,1,84.772,98.946a23.475,23.475,0,0,1-6.989,1.015c-1.054,0-55.486,0-56.306-.039a22.281,22.281,0,0,1-11.246-3.709,22.567,22.567,0,0,1-7.614-8.747A22.034,22.034,0,0,1,.391,77.743V22.218A20.728,20.728,0,0,1,2.46,12.651,22.171,22.171,0,0,1,10,3.866,21.872,21.872,0,0,1,21.2.078,6.512,6.512,0,0,1,22.453,0Z" transform="translate(-0.235)" fill="url(#a)"/><path d="M84.342,81.765a15.254,15.254,0,0,0-1.171-1.6,16.586,16.586,0,0,0-3.358-3.046,10.28,10.28,0,0,0-5.271-1.8,9.544,9.544,0,0,0-3.9.625,25.449,25.449,0,0,0-3.631,1.679c-1.367.7-2.733,1.406-4.178,1.991a31.4,31.4,0,0,1-5.349,1.64,34.772,34.772,0,0,1-6.95.547A46.973,46.973,0,0,1,38.188,79.93,46.675,46.675,0,0,1,28.153,75.6a51.742,51.742,0,0,1-7.77-5.506,56.783,56.783,0,0,1-5.545-5.506c-1.171-1.367-2.3-2.811-3.358-4.3a18.213,18.213,0,0,1-1.171-1.835L0,47.325V22.14A22.114,22.114,0,0,1,22.1,0H41.82l14.6,14.838c32.956,22.413,22.3,47.13,22.3,47.13S88.091,72.511,84.342,81.765Z" fill="url(#b)"/><path d="M72.593,38c32.956,22.413,22.3,47.13,22.3,47.13s9.371,10.582,5.584,19.836c0,0-3.866-6.482-10.348-6.482-6.248,0-9.918,6.482-22.491,6.482-28,0-41.234-23.389-41.234-23.389,25.225,16.6,42.444,4.842,42.444,4.842-11.363-6.6-35.533-38.149-35.533-38.149C54.358,66.192,63.456,70.917,63.456,70.917,58.028,66.426,42.8,44.482,42.8,44.482,54.983,56.821,79.192,74.041,79.192,74.041,86.064,54.986,72.593,38,72.593,38Z" transform="translate(-16.092 -23.162)" fill="#fff"/></svg>