<svg xmlns="http://www.w3.org/2000/svg" width="100" height="98.55" viewBox="0 0 100 98.55"><path d="M48.558.174V9.353H40.342V11.77h8.217v9.179h2.9V11.77h8.208V9.353H51.458V.174h-2.9ZM73.683,9.6l-.008,6.762v6.763H61.354v3.863H73.675V40.27h4.346l.046-6.592.083-6.567,6.1-.083,6.083-.042V23.124h-12.3V9.6h-4.35Zm-51.7.25V23.141H9.546v3.854H21.987V40.286h4.1v-13.3H38.646V23.136H26.092V9.849h-4.1ZM47.346,31.807V46.778H33.583v4.95H47.35V66.711h5.333V51.728H66.471v-4.95H52.679V31.807H47.346Zm40.5,6.458V47.52H79.467V50.9H87.85V60.32h3.7V50.9H100V47.52H91.546V38.27H89.787Zm-79.629.546V47.87H0v2.588H8.221V59.6H11V50.457h8.333V47.874H10.871V38.807H9.546ZM73.675,57.628V71.186H61.108v3.862H73.675v13.4h4.467v-13.4H90.583V71.187H78.142V57.628H73.675Zm-51.929.033V71.186H9.425v3.867H21.746V88.341h4.588V75.053H38.646V71.186H26.333V57.657H24.042ZM48.062,76.736l.008,4.6v4.583H39.858V89.3h8.212v9.425h3.867l.05-4.662.071-4.763h8.2V85.916H51.929V76.736H48.062Z" transform="translate(0 -0.174)"/></svg>