<svg xmlns="http://www.w3.org/2000/svg" width="94.334" height="100" viewBox="0 0 94.334 100"><g transform="translate(-1.813)"><path d="M42.313,53.833,55.813,46l13.333,7.833L55.813,61.5,42.313,54ZM1.813,30.667,55.813,0,95.98,22.833,82.647,46,55.815,30.667l-40.5,23Z" fill="#f6bd3a"/><path d="M37.453,78.98V63.647L50.786,55.98l13.5-7.667V63.646L50.953,71.313V86.646l-13.5,7.834Zm0-30.667-13.5-7.667-13.5,7.5V32.813l40.5-23V40.48Zm40.167-15.5V25.146l13.5-7.833.167,15.333-13.5,7.833Z" transform="translate(4.86 5.52)" fill="#eb8c23"/><path d="M28.813,86.313V40.647l13.333-7.5.167,15.167,13.5,7.5v15.5l-13.5-7.167V94.48ZM8.48,44.147l-6.667-4v-15l13.5,7.667V48.147Zm47.333-19V9.813L82.48,25.146l.167,15.333L55.815,25.146Z" transform="translate(0 5.52)" fill="#e35a2b"/></g></svg>