<svg xmlns="http://www.w3.org/2000/svg" width="97.13" height="97.133" viewBox="0 0 97.13 97.133"><path d="M54.142,102.709a9.934,9.934,0,0,1-7.071-2.929l-7.93-7.93V51.266H54.864c2.754,13.009,13.278,24.019,26.813,28.05L61.213,99.78A9.934,9.934,0,0,1,54.142,102.709ZM20.813,73.523l0,0L8.5,61.214A10,10,0,0,1,6,51.266H20.813V73.523Zm74.163-8.484c-7.366,0-13.5-2.37-17.747-6.853a20.56,20.56,0,0,1-5.587-13.994,20.378,20.378,0,0,1,8.68-16.578L99.779,47.071a10.012,10.012,0,0,1,0,14.143l-3.8,3.8C95.641,65.031,95.3,65.039,94.976,65.039ZM55.412,35.18H20.4L47.071,8.505a10,10,0,0,1,14.142,0l7.407,7.407A37.705,37.705,0,0,0,55.412,35.179Z" transform="translate(-5.574 -5.576)" fill="#147fc3"/></svg>