<svg xmlns="http://www.w3.org/2000/svg" width="96.763" height="100" viewBox="0 0 96.763 100"><g transform="translate(-0.5)"><path d="M42.7,60.922l-8.75,6.072V94.766L52.792,83.9,82.311,11.619V2.463L60.324,15.251v7.725ZM7.536,15.254v7.725L25.117,62.585l8.8-4.375V47.2L20.727,16.432V7.722l-.094-.053Z" transform="translate(14.951 5.234)" fill="#1159cc"/><path d="M62.056,12.866v8.8L48.869,52.434V62.716l-8.8,5.1L22.487,28.212V20.475l13.187-7.594L13.687,0,.5,7.7v9.425L30.188,89.219,48.866,100V72.925l8.781-5.1-.1-.062,17.7-39.544V20.475L97.228,7.7,84.041,0,62.066,12.866Z" fill="#127eff"/></g></svg>