<svg xmlns="http://www.w3.org/2000/svg" width="100" height="62.101" viewBox="0 0 100 62.101"><g transform="translate(0 0)"><path d="M13.6.355A18.046,18.046,0,0,0,2.109,8.924C.075,12.914,0,13.9,0,30.694c0,8.964.15,16.347.375,17.5A17.13,17.13,0,0,0,13.9,61.716c2.072.375,29.039.566,29.039.15,0-.3-2.3-9.341-2.411-9.453-.037-.075-4.822-1.13-10.622-2.375C16.381,47.1,16.778,47.213,15.666,45.856l-.978-1.169V17.344l.98-1.187c1.13-1.356.716-1.242,14.238-4.181L40.527,9.6c.1-.077,2.411-9.116,2.411-9.4,0-.359-27.531-.188-29.341.188ZM57.25.411c.037.678,2.147,8.964,2.375,9.191.075.113,5.234,1.281,11.413,2.6S82.714,14.856,83.2,15.138a4.631,4.631,0,0,1,1.62,1.581c.6,1.055.678,2.184.678,14.313s-.075,13.258-.678,14.312a4.953,4.953,0,0,1-1.62,1.581c-.489.266-5.937,1.581-12.166,2.937L59.625,52.48c-.227.227-2.336,8.512-2.375,9.191,0,.414,2.712.489,14.614.375,16.406-.15,16.609-.188,20.791-3.013a17.2,17.2,0,0,0,6.478-8.475c.867-2.523.867-2.75.867-19.511s0-16.987-.866-19.511a17.2,17.2,0,0,0-6.478-8.475C88.473.239,88.286.2,71.864.05,59.962-.062,57.25-.006,57.25.425ZM40.438,30.258a2.719,2.719,0,0,0-.075,1.242c.113.625.791.678,9.641.791l9.492.075V29.73h-9.4c-7.872,0-9.492.075-9.641.527Z" transform="translate(0 0)" fill="#373c41"/></g></svg>