<svg xmlns="http://www.w3.org/2000/svg" width="100" height="87.3" viewBox="0 0 100 87.3"><g transform="translate(-3.427 -6)"><path d="M57.075,13h-29.1L11,39.675,27.975,66.35h29.1L74.05,39.675ZM42.525,51.8A12.125,12.125,0,1,1,54.65,39.675,12.007,12.007,0,0,1,42.525,51.8Z" transform="translate(10.792 9.975)" fill="#cfd8dc"/><path d="M73.845,8.91A6.662,6.662,0,0,0,68.515,6H26.8a6.662,6.662,0,0,0-5.33,2.91L7.4,31.947l11.155,17.7L33.832,25.4h49.95Zm-45.59,9.215A2.286,2.286,0,0,1,25.83,15.7a2.286,2.286,0,0,1,2.425-2.425A2.286,2.286,0,0,1,30.68,15.7,2.286,2.286,0,0,1,28.255,18.125Zm38.8,0A2.286,2.286,0,0,1,64.63,15.7a2.425,2.425,0,0,1,4.85,0A2.286,2.286,0,0,1,67.055,18.125Z" transform="translate(5.662)" fill="#2196f3"/><path d="M39.494,58.51,13.059,16.8,4.336,31.107a6.339,6.339,0,0,0,0,6.543L27.127,75a6.088,6.088,0,0,0,5.335,2.908H54.529L66.9,58.51ZM14.517,36.685a2.425,2.425,0,1,1,0-4.85,2.425,2.425,0,1,1,0,4.85Zm19.4,33.95a2.425,2.425,0,1,1,2.425-2.425A2.286,2.286,0,0,1,33.917,70.635Z" transform="translate(0 15.39)" fill="#ffc107"/><path d="M7.4,19.365l11.16,17.46,5.815-8.972L10.07,15Z" transform="translate(5.659 12.825)" fill="#1976d2"/><path d="M27.452,53.4,39.812,34H28.172L22.6,53.4Z" transform="translate(27.324 39.9)" fill="#f9a825"/><path d="M72.127,35.1,59.267,14h-22.3L52.242,38.25,24.6,81.9H44a6.667,6.667,0,0,0,5.333-2.91L72.372,41.64a5.838,5.838,0,0,0-.247-6.545ZM42.542,74.625A2.425,2.425,0,1,1,44.967,72.2,2.286,2.286,0,0,1,42.542,74.625Zm19.4-33.95a2.425,2.425,0,1,1,2.425-2.425A2.286,2.286,0,0,1,61.942,40.675Z" transform="translate(30.174 11.4)" fill="#dd2c00"/><path d="M52.005,14H29.7l6.063,9.453,19.162-4.6Z" transform="translate(37.439 11.4)" fill="#bf360c"/></g></svg>