<svg xmlns="http://www.w3.org/2000/svg" width="80.345" height="100" viewBox="0 0 80.345 100"><path d="M170.168,102h61.264a9.517,9.517,0,0,0,9.54-9.54V11.54A9.517,9.517,0,0,0,231.433,2H170.168a9.517,9.517,0,0,0-9.54,9.54v80.8A9.542,9.542,0,0,0,170.168,102Zm43.908-86.207H226.49s-2.069,5.747-8.621,13.793H205.915C210.168,24.989,214.076,15.793,214.076,15.793Zm-23.563-.46V39.126s31.034-12.414,31.034,9.425V88.207H211.433l-.23.115v-40s2.644-9.54-31.954,3.908c-.115.115-.115-36.9-.115-36.9h11.379ZM179.019,65.448,190.4,76.828,179.019,88.207V65.448Z" transform="translate(-160.628 -2)" fill="#6762a6"/></svg>