<svg xmlns="http://www.w3.org/2000/svg" width="100" height="41.667" viewBox="0 0 100 41.667"><path d="M86.279,14a17.567,17.567,0,0,0-12.167,5.208c-2.49-3.248-5.925-5.2-11.735-5.2-6.135,0-10.2,5.2-10.2,5.2A14.234,14.234,0,0,0,41.667,14c-5.438,0-9.75,2.4-12.385,8.456L20.458,41.75l-9.977-24.5a5.4,5.4,0,0,0-7.267-2.735,5.361,5.361,0,0,0-2.66,7.317L12.735,49.3c1.913,4.175,3.938,6.363,7.723,6.363,4.054,0,5.813-2.385,7.731-6.365,0,0,8.292-18.506,9.31-20.719s2.708-4.167,5.208-4.167a5.224,5.224,0,0,1,5.208,5.208V50.2a5.314,5.314,0,0,0,5.256,5.469,5.24,5.24,0,0,0,5.16-5.469V29.625a5.208,5.208,0,1,1,10.417,0V50.458a5.208,5.208,0,0,0,10.417,0V29.625a5.208,5.208,0,1,1,10.417,0V50.458a5.208,5.208,0,1,0,10.417,0V27.24C100,19.452,93.775,14,86.279,14Z" transform="translate(0 -14)" fill="#9e9e9e"/></svg>