<svg xmlns="http://www.w3.org/2000/svg" width="100" height="59.8" viewBox="0 0 100 59.8"><g transform="translate(0.03 0.006)"><path d="M36.446,21.713a10.063,10.063,0,0,0,.366,2.96,17.8,17.8,0,0,0,1.065,2.4,1.447,1.447,0,0,1,.233.765,1.317,1.317,0,0,1-.632,1l-2.1,1.4a1.6,1.6,0,0,1-.865.3,1.53,1.53,0,0,1-1-.466,10.289,10.289,0,0,1-1.2-1.563c-.333-.565-.665-1.2-1.031-1.962a12.287,12.287,0,0,1-9.778,4.589,9.11,9.11,0,0,1-6.652-2.4A8.543,8.543,0,0,1,12.4,22.345a8.562,8.562,0,0,1,3.027-6.851A12.1,12.1,0,0,1,23.575,12.9a26.334,26.334,0,0,1,3.525.266c1.231.166,2.494.432,3.825.732V11.47c0-2.529-.532-4.29-1.563-5.322-1.065-1.031-2.86-1.53-5.421-1.53a15.135,15.135,0,0,0-3.593.432,26.5,26.5,0,0,0-3.591,1.131,9.544,9.544,0,0,1-1.164.432,2.04,2.04,0,0,1-.532.1c-.466,0-.7-.333-.7-1.031V4.053a2.1,2.1,0,0,1,.233-1.164,2.491,2.491,0,0,1,.932-.7,19.148,19.148,0,0,1,4.191-1.5A20.164,20.164,0,0,1,24.905.062c3.959,0,6.851.9,8.714,2.694,1.829,1.8,2.76,4.523,2.76,8.182V21.713Zm-13.5,5.055a10.779,10.779,0,0,0,3.426-.6,7.411,7.411,0,0,0,3.16-2.129,5.279,5.279,0,0,0,1.131-2.129,11.939,11.939,0,0,0,.333-2.894v-1.4a27.776,27.776,0,0,0-3.059-.565,25.061,25.061,0,0,0-3.127-.2,7.664,7.664,0,0,0-4.956,1.331,4.636,4.636,0,0,0-1.63,3.825,4.643,4.643,0,0,0,1.231,3.525,4.612,4.612,0,0,0,3.492,1.231ZM49.65,30.361a1.858,1.858,0,0,1-1.264-.333,2.712,2.712,0,0,1-.7-1.3L39.872,3.022a5.826,5.826,0,0,1-.3-1.331.73.73,0,0,1,.8-.832H43.63a1.844,1.844,0,0,1,1.3.333,2.724,2.724,0,0,1,.665,1.3L51.18,24.507,56.368,2.49A2.332,2.332,0,0,1,57,1.193,2.288,2.288,0,0,1,58.331.86h2.662a2,2,0,0,1,1.331.333,2.242,2.242,0,0,1,.632,1.3l5.255,22.284L73.962,2.49a2.849,2.849,0,0,1,.665-1.3,2.17,2.17,0,0,1,1.3-.333h3.093a.739.739,0,0,1,.832.832,3.318,3.318,0,0,1-.067.532,4.732,4.732,0,0,1-.233.832L71.535,28.765a2.55,2.55,0,0,1-.7,1.3,2.128,2.128,0,0,1-1.264.333h-2.86a2,2,0,0,1-1.331-.333,2.358,2.358,0,0,1-.632-1.331L59.595,7.279,54.472,28.7a2.6,2.6,0,0,1-.632,1.331,2.06,2.06,0,0,1-1.331.333Zm42.738.9a22.009,22.009,0,0,1-5.122-.6,15.118,15.118,0,0,1-3.825-1.331A2.394,2.394,0,0,1,82.41,28.4a2.348,2.348,0,0,1-.2-.932v-1.7c0-.7.266-1.031.765-1.031a1.883,1.883,0,0,1,.6.1c.2.067.5.2.832.333a18.091,18.091,0,0,0,3.659,1.164,19.974,19.974,0,0,0,3.958.4,8.974,8.974,0,0,0,4.856-1.1,3.582,3.582,0,0,0,1.73-3.16,3.239,3.239,0,0,0-.9-2.328,8.351,8.351,0,0,0-3.359-1.73l-4.824-1.5a10.14,10.14,0,0,1-5.321-3.393,7.924,7.924,0,0,1-1.663-4.823,7.4,7.4,0,0,1,.9-3.692,8.552,8.552,0,0,1,2.4-2.727A10.556,10.556,0,0,1,89.3.56,14.5,14.5,0,0,1,93.486,0a16.7,16.7,0,0,1,2.228.133c.765.1,1.464.233,2.162.366.665.166,1.3.333,1.9.532a7.258,7.258,0,0,1,1.4.6,2.876,2.876,0,0,1,1,.832,1.792,1.792,0,0,1,.3,1.1V5.117c0,.7-.266,1.065-.765,1.065a3.458,3.458,0,0,1-1.264-.4,15.215,15.215,0,0,0-6.386-1.3,8.58,8.58,0,0,0-4.423.932,3.213,3.213,0,0,0-1.563,2.96,3.141,3.141,0,0,0,1,2.361,9.936,9.936,0,0,0,3.659,1.829l4.723,1.5a10.113,10.113,0,0,1,5.155,3.193,7.526,7.526,0,0,1,1.53,4.656,8.55,8.55,0,0,1-.865,3.858,8.945,8.945,0,0,1-2.428,2.927,10.721,10.721,0,0,1-3.692,1.863,15.815,15.815,0,0,1-4.756.7Z" transform="translate(-8.296 0)" fill="#252f3e"/><path d="M90.378,126.209c-10.942,8.082-26.84,12.372-40.509,12.372A73.281,73.281,0,0,1,.413,119.724c-1.031-.932-.1-2.2,1.131-1.464A99.739,99.739,0,0,0,51.033,131.4a98.772,98.772,0,0,0,37.749-7.716c1.829-.832,3.392,1.2,1.6,2.529Z" transform="translate(0 -78.787)" fill="#f90"/><path d="M257.993,117.051c-1.4-1.8-9.246-.865-12.8-.432-1.065.133-1.231-.8-.266-1.5,6.253-4.39,16.53-3.126,17.727-1.663,1.2,1.5-.333,11.774-6.186,16.7-.9.765-1.763.366-1.364-.632C256.43,126.23,259.39,118.813,257.993,117.051Z" transform="translate(-163.058 -74.817)" fill="#f90"/></g></svg>