<svg id="cloud" xmlns="http://www.w3.org/2000/svg" width="94.176" height="94.176" viewBox="0 0 94.176 94.176">
  <path id="Path_8" data-name="Path 8" d="M0,0H94.176V94.176H0Z" fill="none"/>
  <path id="Path_9" data-name="Path 9" d="M47.088,11.848a21.594,21.594,0,0,1,21.15,17.383l1.177,5.886,6,.432a11.707,11.707,0,0,1-.863,23.387H23.544a15.684,15.684,0,0,1-1.727-31.274l4.2-.432L27.978,23.5a21.459,21.459,0,0,1,19.11-11.654m0-7.848A29.413,29.413,0,0,0,20.993,19.853a23.534,23.534,0,0,0,2.551,46.931H74.556A19.564,19.564,0,0,0,75.93,27.7,29.39,29.39,0,0,0,47.088,4Z" transform="translate(0 11.696)" fill="#01579b"/>
</svg>
