<svg xmlns="http://www.w3.org/2000/svg" width="63.336" height="71.646" viewBox="0 0 63.336 71.646">
  <g id="data_sci" data-name="data sci" transform="translate(-39.718 -11.344)">
    <path id="Path_27" data-name="Path 27" d="M101.562,27.862c-2.606-4.073-8.252-5.768-15.9-4.773-.394.051-.791.111-1.191.176q-.241-.557-.494-1.1c-3.284-6.979-7.755-10.822-12.59-10.822S62.08,15.187,58.8,22.166q-.254.539-.494,1.1c-.4-.065-.8-.124-1.191-.176-7.648-.994-13.3.7-15.9,4.773S39.432,37.772,43.541,44.3q.9,1.437,1.988,2.868-1.08,1.429-1.987,2.867C39.432,56.561,38.6,62.4,41.21,66.472c2.119,3.312,6.248,5.052,11.83,5.052a31.655,31.655,0,0,0,4.071-.278c.394-.051.791-.111,1.191-.176q.242.557.494,1.1c3.284,6.978,7.755,10.822,12.59,10.822s9.306-3.843,12.59-10.822q.254-.539.494-1.1c.4.065.8.124,1.191.176a31.65,31.65,0,0,0,4.071.278c5.581,0,9.711-1.74,11.83-5.052,2.606-4.073,1.778-9.911-2.331-16.438q-.9-1.436-1.987-2.867,1.08-1.429,1.987-2.867C103.34,37.772,104.168,31.935,101.562,27.862Zm-40.647-4.7c2.876-6.111,6.594-9.477,10.47-9.477s7.595,3.365,10.471,9.477q.129.273.253.552a56.08,56.08,0,0,0-10.724,3.623,56.08,56.08,0,0,0-10.724-3.623q.125-.278.253-.552Zm25.606,24a71.661,71.661,0,0,1-.446,8.04,71.659,71.659,0,0,1-6.532,4.709,70.979,70.979,0,0,1-8.156,4.5,70.966,70.966,0,0,1-8.156-4.5A71.689,71.689,0,0,1,56.7,55.207a72.625,72.625,0,0,1,0-16.081,71.689,71.689,0,0,1,6.532-4.709,70.966,70.966,0,0,1,8.156-4.5,72.451,72.451,0,0,1,14.688,9.214,71.667,71.667,0,0,1,.447,8.04Zm2.115-5.851a54.5,54.5,0,0,1,5.626,5.851,54.5,54.5,0,0,1-5.626,5.851c.15-1.916.228-3.871.228-5.851S88.787,43.232,88.637,41.316ZM85.611,58.545a52.16,52.16,0,0,1-2.592,9.873A51.268,51.268,0,0,1,74.2,65.657a74.216,74.216,0,0,0,6.6-3.767Q83.307,60.29,85.611,58.545Zm-17.04,7.112a51.274,51.274,0,0,1-8.817,2.761,52.169,52.169,0,0,1-2.593-9.873q2.3,1.739,4.806,3.345a74.161,74.161,0,0,0,6.6,3.767ZM54.136,53.018a54.5,54.5,0,0,1-5.626-5.851,54.5,54.5,0,0,1,5.626-5.851c-.15,1.916-.228,3.871-.228,5.851s.077,3.934.228,5.851Zm3.025-17.229a52.169,52.169,0,0,1,2.593-9.873,51.275,51.275,0,0,1,8.817,2.761,74.16,74.16,0,0,0-6.6,3.767Q59.466,34.044,57.161,35.789Zm23.644-3.345a74.223,74.223,0,0,0-6.6-3.767,51.268,51.268,0,0,1,8.817-2.761,52.16,52.16,0,0,1,2.592,9.873Q83.311,34.05,80.805,32.444ZM45.524,43.051c-3.6-5.716-4.429-10.662-2.34-13.927C44.853,26.515,48.276,25.15,53,25.15a29.651,29.651,0,0,1,3.808.262q.3.039.6.084a57.312,57.312,0,0,0-2.926,12.42,59.693,59.693,0,0,0-7.446,7.358Q46.225,44.165,45.524,43.051ZM56.809,68.923c-6.7.871-11.537-.448-13.625-3.713S41.926,57,45.524,51.282q.7-1.112,1.515-2.222a59.693,59.693,0,0,0,7.446,7.358,57.311,57.311,0,0,0,2.926,12.42Q57.109,68.883,56.809,68.923Zm25.048,2.248c-2.876,6.111-6.594,9.477-10.471,9.477s-7.595-3.366-10.471-9.477q-.129-.273-.253-.552A56.079,56.079,0,0,0,71.386,67,56.085,56.085,0,0,0,82.11,70.619Q81.985,70.9,81.857,71.171ZM97.249,51.282c3.6,5.716,4.429,10.662,2.34,13.927-1.669,2.609-5.092,3.975-9.817,3.975a29.627,29.627,0,0,1-3.808-.262c-.2-.026-.4-.054-.6-.084a57.312,57.312,0,0,0,2.926-12.42,59.685,59.685,0,0,0,7.447-7.358Q96.547,50.169,97.249,51.282Zm-1.515-6.009a59.683,59.683,0,0,0-7.447-7.358A57.311,57.311,0,0,0,85.362,25.5c.2-.029.4-.059.6-.084,6.7-.871,11.536.448,13.625,3.713s1.258,8.211-2.34,13.927Q96.549,44.163,95.734,45.274Z" transform="translate(0 0)" fill="#01579b"/>
    <path id="Path_28" data-name="Path 28" d="M205.639,177.314c-4.147,0-8.639,1.209-8.639,3.863v15.337c0,2.654,4.5,3.888,8.645,3.888h.084a20.03,20.03,0,0,0,3.631-.346c3.119-.6,4.917-1.9,4.917-3.543V181.177C214.278,178.523,209.786,177.314,205.639,177.314Zm.011,2.343c3.845,0,5.957,1.049,6.25,1.521-.293.472-2.405,1.521-6.25,1.521s-5.957-1.048-6.25-1.521C199.692,180.705,201.8,179.657,205.65,179.657Zm6.285,6.589c-.293.454-2.357,1.553-6.3,1.553s-6-1.1-6.3-1.553v-2.313a18.448,18.448,0,0,0,12.592,0Zm-3.008,11.5a17.6,17.6,0,0,1-3.292.293c-3.932,0-6-1.1-6.292-1.551v-2.35a18.448,18.448,0,0,0,12.592,0v2.349c-.146.247-1.023.878-3.008,1.259Zm3.008-6.394c-.293.455-2.364,1.551-6.3,1.551s-6-1.1-6.3-1.551v-2.315a18.448,18.448,0,0,0,12.592,0Z" transform="translate(-134.253 -141.668)" fill="#01579b"/>
  </g>
</svg>
