<svg xmlns="http://www.w3.org/2000/svg" width="113.011" height="50.66" viewBox="0 0 113.011 50.66">
  <path id="devops" d="M129.417,159.4a26.391,26.391,0,0,0-36.642-.006L83.25,168.62l6.1,6.013,9.461-9.2a17.645,17.645,0,0,1,24.5,0,16.568,16.568,0,0,1,0,23.8,17.645,17.645,0,0,1-24.5,0L68.241,159.394a26.392,26.392,0,0,0-36.643,0,24.96,24.96,0,0,0,0,35.864,26.392,26.392,0,0,0,36.645,0l9.5-9.233-6.11-5.968-9.457,9.161a17.645,17.645,0,0,1-24.5,0,16.567,16.567,0,0,1,0-23.8,17.645,17.645,0,0,1,24.5,0l30.574,29.833a26.392,26.392,0,0,0,36.639,0,24.936,24.936,0,0,0,.034-35.868Z" transform="translate(-24 -152)" fill="#01579b"/>
</svg>
