<svg xmlns="http://www.w3.org/2000/svg" width="15" height="15" viewBox="0 0 15 15"><g transform="translate(-0.136)"><ellipse cx="7.5" cy="7.29" rx="7.5" ry="7.29" transform="translate(0.136 0.293)" fill="#f0f0f0"/><path d="M32.032,0A7.351,7.351,0,0,0,25.4,4.239H38.661A7.351,7.351,0,0,0,32.032,0Z" transform="translate(-24.363)" fill="#ff9811"/><path d="M32.032,371.543a7.452,7.452,0,0,0,6.7-4.239H25.215A7.629,7.629,0,0,0,32.032,371.543Z" transform="translate(-24.363 -356.543)" fill="#6da544"/><ellipse cx="2.684" cy="2.609" rx="2.684" ry="2.609" transform="translate(5.051 4.891)" fill="#0052b4"/><ellipse cx="1.678" cy="1.63" rx="1.678" ry="1.63" transform="translate(6.057 5.87)" fill="#f0f0f0"/><path d="M198.32,187.326l.283,1.639,1.51-.633-1.3,1.006,1.3,1.006-1.51-.561-.283,1.567-.2-1.567-1.591.561,1.409-1.006-1.409-1.006,1.591.633Z" transform="translate(-190.585 -181.838)" fill="#0052b4"/><path d="M198.32,187.326l.283,1.639,1.51-.633-1.3,1.006,1.3,1.006-1.51-.561-.283,1.567-.2-1.567-1.591.561,1.409-1.006-1.409-1.006,1.591.633Z" transform="translate(-258.684 -57.312) rotate(-30)" fill="#0052b4"/></g></svg>