<svg xmlns="http://www.w3.org/2000/svg" width="232.138" height="41.554" viewBox="0 0 232.138 41.554"><g transform="translate(-857.922 -108.061)"><path d="M8843.486-4283.878a20.311,20.311,0,0,1-2.666-2.622l-6.5-6.387-.744-.809-5.739-5.826v0l-.169-.169-.443-.443-9.7-9.7a11.98,11.98,0,0,0-6.456-1.874,12.045,12.045,0,0,0-11.35,8.011,11.956,11.956,0,0,0-.693,4.032,12.012,12.012,0,0,0,.733,4.146,12.048,12.048,0,0,0,11.31,7.9,11.982,11.982,0,0,0,7.417-2.555,21.182,21.182,0,0,0,2.071-2.072l4.834-4.834,5.71,5.854-4.142,4.144-3.424,3.424a20.181,20.181,0,0,1-12.522,4.329,20.443,20.443,0,0,1-3.132-.241,20.294,20.294,0,0,1-16.732-15.946,20.446,20.446,0,0,1-.412-4.09,20.4,20.4,0,0,1,.412-4.088,20.3,20.3,0,0,1,16.586-15.926,20.4,20.4,0,0,1,3.278-.263,20.164,20.164,0,0,1,11.836,3.814l20.556,20.553s7.73,7.9,12.925,7.9a12,12,0,0,0,7.127-2.334,4.072,4.072,0,0,1,.753-.6,4.243,4.243,0,0,1,2.259-.646,4.255,4.255,0,0,1,3.651,2.067,4.234,4.234,0,0,1,.605,2.19,4.247,4.247,0,0,1-.557,2.107,20.222,20.222,0,0,1-2.426,1.954,20.136,20.136,0,0,1-8.385,3.322,20.144,20.144,0,0,1-3.086.234A20.193,20.193,0,0,1,8843.486-4283.878Zm-75.98,4.273,5.558-10.678-7.331-13.061-7.614,11.334h7.347v4.24h-16.672l7.975-11.87h-6.658v-4.239h21.731l4.488,8.258,3.832-8.258h6.405l-12.654,24.273Zm-93.382,0v-24.273h5.493v1.822h.063a7.141,7.141,0,0,1,5.275-2.294c4.712,0,8.009,3.8,8.009,8.51s-3.3,8.543-8.009,8.543a7.332,7.332,0,0,1-5.275-2.012v9.7Zm5.431-16.236a3.683,3.683,0,0,0,3.736,3.8,3.69,3.69,0,0,0,3.77-3.8,3.6,3.6,0,0,0-3.77-3.767A3.621,3.621,0,0,0,8679.555-4295.841Zm48.357.031c0-4.709,3.295-8.541,8.007-8.541a7.332,7.332,0,0,1,5.275,2.012v-1.54h5.558v16.109h-5.5v-1.82h-.062a7.14,7.14,0,0,1-5.275,2.292C8731.207-4287.3,8727.912-4291.1,8727.912-4295.81Zm5.9,0a3.6,3.6,0,0,0,3.77,3.77,3.621,3.621,0,0,0,3.735-3.77,3.682,3.682,0,0,0-3.735-3.8A3.69,3.69,0,0,0,8733.813-4295.81Zm-39.562,6.345,2.262-3.8s2.2,1.854,3.987,1.854c.784,0,1.727-.094,1.727-1.163,0-1.161-1.758-1.254-3.58-2.2-1.633-.849-3.266-1.978-3.266-4.4,0-3.3,2.8-5.182,7.035-5.182a12.3,12.3,0,0,1,5.4,1.256l-1.82,3.642a9.079,9.079,0,0,0-3.58-1c-1.226,0-1.727.221-1.727.974,0,.849,1.13,1.1,2.511,1.539,2.137.66,4.9,1.854,4.9,5.15,0,4.741-4.333,5.5-7.63,5.5A9.639,9.639,0,0,1,8694.251-4289.465Zm-48.829-11.039a13.073,13.073,0,0,1,13.063-13.172,13.006,13.006,0,0,1,13.032,13.172,12.877,12.877,0,0,1-13.032,13.2C8650.824-4287.3,8645.422-4293.068,8645.422-4300.5Zm6.376,0c0,3.794,1.854,7.59,6.688,7.59,4.712,0,6.658-3.8,6.658-7.59s-2.073-7.59-6.658-7.59C8653.932-4308.094,8651.8-4304.3,8651.8-4300.5Zm59.063,12.734v-25.906h14.821v5.182h-8.918v5.15h8.541v5.18h-8.541v5.213h8.918v5.182Zm93.337-7.75a7.892,7.892,0,0,1-1.132-4.088,7.906,7.906,0,0,1,1.132-4.09,7.951,7.951,0,0,1,6.823-3.865,7.954,7.954,0,0,1,6.824,3.865,7.932,7.932,0,0,1,1.129,4.09,7.918,7.918,0,0,1-1.129,4.088,7.949,7.949,0,0,1-6.824,3.865A7.946,7.946,0,0,1,8804.2-4295.521Zm63.468-.051,0,0h-2.431l-14.2-.024v-8.013h16.684c-.009-.027-.021-.056-.029-.083a12.046,12.046,0,0,0-11.351-8.011,11.987,11.987,0,0,0-6.957,2.21l-2.876,2.876-2.923,2.925-1.642,1.64-5.772-5.794,3.792-3.792,0,0,4.279-4.277,0,0a20.172,20.172,0,0,1,12.034-3.957,20.311,20.311,0,0,1,3.23.256,20.294,20.294,0,0,1,16.635,15.933l.016.083a20.5,20.5,0,0,1,.4,4.005,20.385,20.385,0,0,1-.4,4.032.073.073,0,0,1,0,.02Z" transform="translate(-7787 4428.446)" fill="#fff" stroke="rgba(0,0,0,0)" stroke-miterlimit="10" stroke-width="1"/></g></svg>