<svg xmlns="http://www.w3.org/2000/svg" width="211.057" height="37.021" viewBox="0 0 211.057 37.021">
  <g id="opseazy_logo_first" data-name="opseazy logo first" transform="translate(7099.538 4642.949)">
    <g id="Group_164" data-name="Group 164" transform="translate(-7099.038 -4642.449)">
      <path id="Union_58" data-name="Union 58" d="M46.848,31.984a18.469,18.469,0,0,1-2.374-2.333l-5.762-5.673-.664-.715-5.1-5.175-.155-.154-.394-.4L23.8,8.927a10.7,10.7,0,1,0,.854,17.459A19.1,19.1,0,0,0,26.49,24.55l4.287-4.294,5.074,5.2-3.677,3.678-3.043,3.042A18.011,18.011,0,1,1,15.1.234,18.182,18.182,0,0,1,18.009,0,17.955,17.955,0,0,1,28.526,3.385L46.78,21.645s6.868,7.011,11.484,7.011a10.629,10.629,0,0,0,6.324-2.076,3.811,3.811,0,0,1,.669-.532,3.777,3.777,0,0,1,5.25,1.264,3.723,3.723,0,0,1,.537,1.939,3.766,3.766,0,0,1-.491,1.875,18.1,18.1,0,0,1-9.6,4.684,18.174,18.174,0,0,1-2.739.211A17.94,17.94,0,0,1,46.848,31.984ZM192.8,35.776l4.94-9.482-6.512-11.6-6.767,10.065h6.533v3.769H176.181l7.086-10.545h-5.914V14.217h19.3l3.986,7.337,3.4-7.337h5.69L198.49,35.776Zm-82.937,0V14.217h4.884v1.618h.051a6.346,6.346,0,0,1,4.69-2.036c4.178,0,7.107,3.374,7.107,7.56s-2.929,7.583-7.107,7.583a6.508,6.508,0,0,1-4.69-1.785v8.619Zm4.826-14.417a3.332,3.332,0,1,0,6.663,0,3.332,3.332,0,1,0-6.663,0Zm42.948.023c0-4.18,2.927-7.583,7.109-7.583a6.514,6.514,0,0,1,4.689,1.785V14.217h4.935V28.525H169.49V26.905h-.056a6.342,6.342,0,0,1-4.689,2.036C160.563,28.942,157.636,25.568,157.636,21.382Zm5.243,0a3.332,3.332,0,1,0,6.663,0,3.332,3.332,0,1,0-6.663,0Zm-35.141,5.639,2.008-3.38s1.948,1.647,3.539,1.647c.7,0,1.536-.08,1.536-1.03,0-1.036-1.566-1.115-3.179-1.956-1.452-.749-2.9-1.756-2.9-3.905,0-2.928,2.475-4.6,6.245-4.6a10.916,10.916,0,0,1,4.8,1.116l-1.619,3.236a8.066,8.066,0,0,0-3.179-.891c-1.088,0-1.533.194-1.533.863,0,.75,1,.972,2.23,1.367,1.9.583,4.353,1.646,4.353,4.575,0,4.209-3.847,4.878-6.783,4.878A8.566,8.566,0,0,1,127.739,27.021Zm-43.37-9.808a11.589,11.589,0,1,1,23.178,0,11.59,11.59,0,1,1-23.178,0Zm5.662,0c0,3.374,1.646,6.742,5.942,6.742,4.185,0,5.912-3.368,5.912-6.742s-1.841-6.736-5.912-6.736C91.929,10.477,90.03,13.844,90.03,17.213Zm52.463,11.312V5.512h13.165v4.6h-7.922v4.574h7.584v4.6h-7.584V23.92h7.922v4.6ZM11.947,21.645a7.068,7.068,0,0,1,12.125-7.268,7.068,7.068,0,0,1-12.125,7.268Zm56.375-.051H66.166L53.55,21.571v-7.12H68.368a.724.724,0,0,0-.03-.074A10.692,10.692,0,0,0,52.081,9.23l-2.557,2.55-2.594,2.6L45.47,15.835l-5.123-5.147L43.715,7.32h.005l3.8-3.8.007-.005A17.925,17.925,0,0,1,58.213,0a17.7,17.7,0,0,1,2.871.228,18.027,18.027,0,0,1,14.77,14.149l.016.074a18.295,18.295,0,0,1,0,7.143c0,.005-.007.011-.007.017Z" transform="translate(0)" fill="#fff" stroke="rgba(0,0,0,0)" stroke-miterlimit="10" stroke-width="1"/>
    </g>
  </g>
</svg>
