<svg xmlns="http://www.w3.org/2000/svg" width="738.413" height="129.56" viewBox="0 0 738.413 129.56"><g transform="translate(-134.423 -129.56)"><path d="M663.464,168.929a25.4,25.4,0,1,0,21.8,12.348A25.4,25.4,0,0,0,663.464,168.929Z" fill="#01579b"/><path d="M808.056,259.12a64.714,64.714,0,0,0,44.387-17.6A13.6,13.6,0,0,0,831,225.177a38.3,38.3,0,0,1-22.766,7.459c-16.6,0-41.295-25.232-41.295-25.232l-65.661-65.661A64.784,64.784,0,0,0,600,181.277a64.747,64.747,0,0,0,63.463,77.843,64.48,64.48,0,0,0,40.009-13.833l10.938-10.937,13.231-13.232-18.245-18.7-15.44,15.44a68.1,68.1,0,0,1-6.621,6.621,38.473,38.473,0,1,1-3.071-62.8l30.976,30.976,1.417,1.418.541.54,0,0,18.336,18.614,2.376,2.584,20.755,20.4a64.525,64.525,0,0,0,49.394,22.9Z" fill="#01579b"/><path d="M767.484,181.277l9.341-9.341,9.184-9.184A38.489,38.489,0,0,1,844.5,181.277c.032.089.065.179.093.268h-53.3v25.6l45.374.083h7.767l-.007.014,27.114.05a.364.364,0,0,0,.014-.064,65.393,65.393,0,0,0,.018-25.68l-.053-.268a64.79,64.79,0,0,0-101.9-39.076l-.015.011-13.672,13.672-.01.014L743.8,168.009l18.442,18.507Z" fill="#01579b"/><path d="M176.156,149.4a41.761,41.761,0,0,0-41.733,42.085c0,23.753,17.255,42.183,41.733,42.183,23.775,0,41.632-18.43,41.632-42.183S199.129,149.4,176.156,149.4Zm0,66.33c-15.45,0-21.368-12.123-21.368-24.245s6.822-24.246,21.368-24.246c14.646,0,21.267,12.123,21.267,24.246S191.2,215.727,176.156,215.727Z" fill="#01579b"/><path d="M260.72,179.192a22.794,22.794,0,0,0-16.853,7.323h-.2V180.7H226.111v77.546h17.756v-31c4.213,4.114,9.931,6.421,16.853,6.421,15.048,0,25.582-12.239,25.582-27.287S275.768,179.192,260.72,179.192ZM255.4,218.517a11.764,11.764,0,0,1-11.937-12.139c0-7.022,5.015-12.038,11.937-12.038,7.223,0,12.039,5.016,12.039,12.038A11.787,11.787,0,0,1,255.4,218.517Z" fill="#01579b"/><path d="M319,199.657c-4.414-1.4-8.026-2.207-8.026-4.916,0-2.407,1.606-3.11,5.518-3.11,5.417,0,11.436,3.21,11.436,3.21l5.819-11.636a39.294,39.294,0,0,0-17.255-4.013c-13.543,0-22.472,6.019-22.472,16.552,0,7.725,5.217,11.336,10.434,14.045,5.818,3.009,11.436,3.31,11.436,7.022,0,3.411-3.01,3.712-5.518,3.712-5.718,0-12.74-5.919-12.74-5.919l-7.223,12.139a30.794,30.794,0,0,0,19.863,6.922c10.533,0,24.377-2.408,24.377-17.556C334.653,205.576,325.825,201.764,319,199.657Z" fill="#01579b"/><path d="M343.478,232.16h47.35V215.607h-28.49V198.955h27.286V182.4H362.338V165.95h28.49V149.4h-47.35Z" fill="#01579b"/><path d="M440.382,185.612c-4.214-4.113-9.932-6.42-16.854-6.42-15.048,0-25.581,12.239-25.581,27.286s10.533,27.187,25.581,27.187a22.792,22.792,0,0,0,16.854-7.324h.2v5.819h17.556V180.7H440.382Zm-11.537,32.9c-7.223,0-12.038-5.016-12.038-12.039a11.989,11.989,0,1,1,23.976,0C440.783,213.5,435.767,218.517,428.845,218.517Z" fill="#01579b"/><path d="M564.871,180.7,552.632,207.08,538.287,180.7H468.869V194.24h21.268l-25.481,37.92h53.269V218.617H494.45l24.332-36.21L542.2,224.135l-17.756,34.108h20.465L585.336,180.7Z" fill="#01579b"/></g></svg>