<svg xmlns="http://www.w3.org/2000/svg" width="904" height="716" viewBox="0 0 904 716">
  <g id="Group_96" data-name="Group 96" transform="translate(-231 -3649)">
    <g id="Ellipse_14" data-name="Ellipse 14" transform="translate(231 3649)" fill="none" stroke="#01579b" stroke-width="3">
      <circle cx="91" cy="91" r="91" stroke="none"/>
      <circle cx="91" cy="91" r="89.5" fill="none"/>
    </g>
    <g id="Ellipse_23" data-name="Ellipse 23" transform="translate(231 3917)" fill="#01579b" stroke="#707070" stroke-width="1">
      <circle cx="91" cy="91" r="91" stroke="none"/>
      <circle cx="91" cy="91" r="90.5" fill="none"/>
    </g>
    <g id="Ellipse_30" data-name="Ellipse 30" transform="translate(231 4183)" fill="none" stroke="#01579b" stroke-width="3">
      <circle cx="91" cy="91" r="91" stroke="none"/>
      <circle cx="91" cy="91" r="89.5" fill="none"/>
    </g>
    <g id="Ellipse_15" data-name="Ellipse 15" transform="translate(593 3649)" fill="#01579b" stroke="#707070" stroke-width="1">
      <circle cx="91" cy="91" r="91" stroke="none"/>
      <circle cx="91" cy="91" r="90.5" fill="none"/>
    </g>
    <g id="Ellipse_24" data-name="Ellipse 24" transform="translate(593 3917)" fill="none" stroke="#01579b" stroke-width="3">
      <circle cx="91" cy="91" r="91" stroke="none"/>
      <circle cx="91" cy="91" r="89.5" fill="none"/>
    </g>
    <g id="Ellipse_29" data-name="Ellipse 29" transform="translate(593 4183)" fill="#01579b" stroke="#707070" stroke-width="1">
      <circle cx="91" cy="91" r="91" stroke="none"/>
      <circle cx="91" cy="91" r="90.5" fill="none"/>
    </g>
    <g id="Ellipse_16" data-name="Ellipse 16" transform="translate(953 3649)" fill="none" stroke="#01579b" stroke-width="3">
      <circle cx="91" cy="91" r="91" stroke="none"/>
      <circle cx="91" cy="91" r="89.5" fill="none"/>
    </g>
    <g id="Ellipse_27" data-name="Ellipse 27" transform="translate(953 3917)" fill="#01579b" stroke="#707070" stroke-width="1">
      <circle cx="91" cy="91" r="91" stroke="none"/>
      <circle cx="91" cy="91" r="90.5" fill="none"/>
    </g>
    <g id="Ellipse_28" data-name="Ellipse 28" transform="translate(953 4183)" fill="none" stroke="#01579b" stroke-width="3">
      <circle cx="91" cy="91" r="91" stroke="none"/>
      <circle cx="91" cy="91" r="89.5" fill="none"/>
    </g>
    <text id="Requirement_" data-name="Requirement " transform="translate(322 3774)" fill="#01579b" font-size="24" font-family="NunitoSans-Regular, Nunito Sans"><tspan x="-72.036" y="0">Requirement </tspan></text>
    <text id="Build_Release" data-name="Build &amp;
Release" transform="translate(322 4042)" fill="#e6e6e6" font-size="24" font-family="NunitoSans-Regular, Nunito Sans"><tspan x="-38.436" y="0">Build &amp;</tspan><tspan x="-42.108" y="32">Release</tspan></text>
    <text id="Quality_Test" data-name="Quality Test" transform="translate(322 4308)" fill="#01579b" font-size="24" font-family="NunitoSans-Regular, Nunito Sans"><tspan x="-63.612" y="0">Quality Test</tspan></text>
    <text id="Analysis" transform="translate(683 3774)" fill="#e6e6e6" font-size="24" font-family="NunitoSans-Regular, Nunito Sans"><tspan x="-45.048" y="0">Analysis</tspan></text>
    <text id="Development" transform="translate(683 4042)" fill="#01579b" font-size="24" font-family="NunitoSans-Regular, Nunito Sans"><tspan x="-71.412" y="0">Development</tspan></text>
    <text id="Submission" transform="translate(683 4308)" fill="#e6e6e6" font-size="24" font-family="NunitoSans-Regular, Nunito Sans"><tspan x="-61.908" y="0">Submission</tspan></text>
    <text id="Design" transform="translate(1044 3774)" fill="#01579b" font-size="24" font-family="NunitoSans-Regular, Nunito Sans"><tspan x="-37.584" y="0">Design</tspan></text>
    <text id="Architecture_" data-name="Architecture " transform="translate(1044 4042)" fill="#e6e6e6" font-size="24" font-family="NunitoSans-Regular, Nunito Sans"><tspan x="-68.7" y="0">Architecture </tspan></text>
    <text id="Live_Feedback" data-name="Live Feedback" transform="translate(1044 4308)" fill="#01579b" font-size="24" font-family="NunitoSans-Regular, Nunito Sans"><tspan x="-76.068" y="0">Live Feedback</tspan></text>
    <g id="Group_74" data-name="Group 74" transform="translate(281 3657.759)">
      <circle id="Ellipse_20" data-name="Ellipse 20" cx="0.978" cy="0.978" r="0.978" transform="translate(0 73.437)" fill="#01579b"/>
      <path id="Path_283" data-name="Path 283" d="M8.446,146.759H6.978a.978.978,0,0,0,0,1.956H8.446a.978.978,0,0,0,0-1.956Z" transform="translate(-3.065 -73.322)" fill="#01579b"/>
      <path id="Path_284" data-name="Path 284" d="M80.786,97.031H76.723a.981.981,0,0,0,0,1.956h4.063a.981.981,0,0,0,0-1.956Zm-29.347,0H47.376a.981.981,0,0,0,0,1.956H51.44a.981.981,0,0,0,0-1.956Zm22.424,0H54.3a.978.978,0,1,0,0,1.956h7.8v.978H58.212a.978.978,0,1,0,0,1.956H70.44a.978.978,0,1,0,0-1.956H66.067v-.978h7.8a.978.978,0,1,0,0-1.956Zm8.829-45.806a4.24,4.24,0,0,0,1.616.317A5.04,5.04,0,0,0,88.843,48.4a5.131,5.131,0,0,0,.066-3.93,4.317,4.317,0,0,0-2.354-2.387A4.843,4.843,0,0,0,80.4,44.907a5.133,5.133,0,0,0-.066,3.931,4.317,4.317,0,0,0,2.354,2.387ZM82.2,45.673a3.075,3.075,0,0,1,2.722-1.955,2.319,2.319,0,0,1,.885.173,2.375,2.375,0,0,1,1.287,1.32,3.165,3.165,0,0,1-.056,2.422,2.888,2.888,0,0,1-3.607,1.782,2.374,2.374,0,0,1-1.287-1.32A3.167,3.167,0,0,1,82.2,45.673ZM46.339,56.235l-.808,1.083A.978.978,0,0,0,47.1,58.488l.746-1a4.914,4.914,0,0,0,1.235.5,4.151,4.151,0,0,0,.977.116,3.492,3.492,0,0,0,3.414-2.3c.72-2.035-.446-3.632-1.383-4.916-.736-1.008-1.371-1.878-1.262-2.841A1.994,1.994,0,0,1,52.015,46.4c1.035-.391,2.269.305,3.032,1.167a3.162,3.162,0,0,1,.549,3,.978.978,0,0,0,1.821.716,5.06,5.06,0,0,0-.9-5.008c-.058-.066-.12-.131-.183-.2a.955.955,0,0,0,.079-.084l.9-1.2a.978.978,0,1,0-1.569-1.169l-.9,1.2a.957.957,0,0,0-.051.084,4.137,4.137,0,0,0-3.467-.339,3.937,3.937,0,0,0-2.442,3.255c-.2,1.72.772,3.045,1.626,4.215.927,1.269,1.476,2.1,1.12,3.108a1.687,1.687,0,0,1-2.084.934,3.577,3.577,0,0,1-2.43-4.392.978.978,0,0,0-1.857-.615,5.344,5.344,0,0,0,.457,4.249,5.806,5.806,0,0,0,.625.91Z" transform="translate(-22.996 -19.681)" fill="#01579b"/>
      <path id="Path_285" data-name="Path 285" d="M157.446,146.759h-1.467a.978.978,0,0,0,0,1.956h1.467a.978.978,0,0,0,0-1.956Z" transform="translate(-79.188 -73.322)" fill="#01579b"/>
      <circle id="Ellipse_21" data-name="Ellipse 21" cx="0.978" cy="0.978" r="0.978" transform="translate(80.214 73.437)" fill="#01579b"/>
      <path id="Path_286" data-name="Path 286" d="M80.051,83.407V80.391a.978.978,0,0,0-.787-.944l-3.791-1.709,2.787-.5a2.208,2.208,0,0,0,1.513-.93,2.781,2.781,0,0,0,.1-2.185,2.428,2.428,0,0,0-2.144-1.524l-.889-11.711c0-.031-.006-.062-.011-.093a2.125,2.125,0,0,0-.195-.569c-.05-.1-.118-.236-3.412-4.564L72.5,49.776l6.285-4.639a2.335,2.335,0,0,0,1.041-3l-.466-.859-.1-.152a2.479,2.479,0,0,0-3.386-.2l-4.161,2.939q-.086-.313-.2-.61a6.649,6.649,0,0,1-1.91.49,4.142,4.142,0,0,1,.309,1l1.4,11.409a.979.979,0,0,0,.192.473c1.178,1.547,3.079,4.056,3.391,4.5l.944,12.439a.98.98,0,0,0,.965.9,3.055,3.055,0,0,1,1.2.24,2.19,2.19,0,0,1,.084.543,1.25,1.25,0,0,1-.209.06l-3.6.649L71.506,61.943a1.97,1.97,0,0,0-.674-1.132c-.017-.013-.034-.026-.052-.038l-6.33-4.355a1.148,1.148,0,0,1-.255-.451l-1.6-9.206,1.566-.656a.978.978,0,1,0-.756-1.8l-7.8,3.269a1.06,1.06,0,0,1-.616.125l-.364-.678a1.054,1.054,0,0,1,.611-.6l9.58-4.241a6.266,6.266,0,0,1-.706-.757h0a6.506,6.506,0,0,1-.447-.647c-.036-.059-.075-.116-.109-.177l-9.127,4.04a2.606,2.606,0,0,0-1.672,3l.547,1.057a2,2,0,0,0,1.795.966,3.1,3.1,0,0,0,1.293-.3l4.354-1.823L62.268,56.3a2.529,2.529,0,0,0,.167.54l-2.2,3.1-8.66,3.08-.059.023c-.085.036-.181.071-.278.106a2.04,2.04,0,0,0-1.454,1.166,1.376,1.376,0,0,0,.226,1.216l.656,1.018-21.293-9.6a2.507,2.507,0,0,0,.444-.458l1.021-1.4a14.554,14.554,0,0,0,3.5.853l.266,1.711a2.8,2.8,0,0,0,2.835,2.274,3.212,3.212,0,0,0,.489-.038l1.934-.3a3.056,3.056,0,0,0,1.9-1.062,2.6,2.6,0,0,0,.59-2.078l-.266-1.711a14.531,14.531,0,0,0,3.076-1.876l1.4,1.025a2.843,2.843,0,0,0,3.931-.768l1.156-1.584a2.842,2.842,0,0,0-.464-3.977l-1.4-1.022a14.588,14.588,0,0,0,.852-3.5l1.71-.266a2.839,2.839,0,0,0,2.237-3.322l-.3-1.936a2.842,2.842,0,0,0-3.14-2.485l-1.71.266a14.574,14.574,0,0,0-1.875-3.076l1.023-1.4a2.84,2.84,0,0,0-.767-3.929l-1.584-1.159a2.84,2.84,0,0,0-3.977.465l-1.022,1.4a14.54,14.54,0,0,0-3.5-.852l-.266-1.711a2.6,2.6,0,0,0-1.195-1.8,3.049,3.049,0,0,0-2.128-.435l-1.935.3a3.057,3.057,0,0,0-1.9,1.061,2.6,2.6,0,0,0-.591,2.08l.266,1.711a14.547,14.547,0,0,0-3.074,1.875l-1.4-1.023a2.842,2.842,0,0,0-3.932.768l-1.155,1.583a3.052,3.052,0,0,0-.591,2.091,2.606,2.606,0,0,0,1.053,1.887l1.4,1.022a14.565,14.565,0,0,0-.852,3.5l-1.711.266a2.605,2.605,0,0,0-1.8,1.194,3.055,3.055,0,0,0-.435,2.128l.3,1.936a2.839,2.839,0,0,0,3.14,2.485l1.711-.266a14.6,14.6,0,0,0,1.875,3.075l-1.024,1.4a2.634,2.634,0,0,0-.391,2.251l-4.418-1.992a1.059,1.059,0,0,0-.225-.024.99.99,0,0,0-1.008.969V83.407H16.115a.987.987,0,1,0,0,1.956H81.383a.987.987,0,0,0,.96-1.508ZM72.043,46.035l4.95-3.5a.914.914,0,0,1,.723-.194l.38.693c0,.052-.1.273-.438.5l-5.428,4.005ZM69.587,62.327,72.37,76.338,56.691,69.269a2.115,2.115,0,0,0,.542-2.417l4.512-.907a.98.98,0,0,0,.322-.127l6.632-4.1Zm-17.33,2.529,8.923-3.174a.979.979,0,0,0,.47-.355l2.129-3L66.938,60.5l-5.751,3.557L55.535,65.2a.978.978,0,0,0-.63,1.489l.157.243c.5.739.385.839.255.955a1.07,1.07,0,0,1-.787.357,1.735,1.735,0,0,1-.991-.844l-1.567-2.429c.1-.037.2-.073.286-.11Zm-28.1-18.9a.979.979,0,0,0-1.063-.613l-2.468.384c-.407.062-.824-.327-.906-.853l-.3-1.936a1.116,1.116,0,0,1,.147-.768.687.687,0,0,1,.457-.32l2.468-.384a.978.978,0,0,0,.826-.907,12.644,12.644,0,0,1,1.059-4.352.978.978,0,0,0-.318-1.185l-2.019-1.473a.686.686,0,0,1-.259-.494,1.1,1.1,0,0,1,.223-.75l1.155-1.583a.907.907,0,0,1,1.2-.343l2.017,1.475A.977.977,0,0,0,27.6,31.8a12.63,12.63,0,0,1,3.823-2.331.978.978,0,0,0,.614-1.063l-.384-2.468a.687.687,0,0,1,.166-.533,1.121,1.121,0,0,1,.689-.374l1.935-.3a1.117,1.117,0,0,1,.769.147.687.687,0,0,1,.32.457L35.91,27.8a.978.978,0,0,0,.908.826,12.616,12.616,0,0,1,4.351,1.058.979.979,0,0,0,1.185-.318l1.474-2.019a.907.907,0,0,1,1.243-.038l1.583,1.158a.907.907,0,0,1,.342,1.2l-1.475,2.017a.978.978,0,0,0,.057,1.226,12.643,12.643,0,0,1,2.332,3.824.975.975,0,0,0,1.063.613l2.467-.384c.407-.065.825.327.907.853l.3,1.936a.907.907,0,0,1-.6,1.088l-2.467.384a.978.978,0,0,0-.826.907,12.661,12.661,0,0,1-1.06,4.352.979.979,0,0,0,.318,1.185l2.018,1.474a.908.908,0,0,1,.038,1.244l-1.155,1.582a.909.909,0,0,1-1.2.344l-2.018-1.477a.977.977,0,0,0-1.227.057,12.62,12.62,0,0,1-3.823,2.332.978.978,0,0,0-.613,1.062l.384,2.468a.688.688,0,0,1-.166.532,1.119,1.119,0,0,1-.688.374l-1.934.3a.906.906,0,0,1-1.09-.6l-.384-2.467a.978.978,0,0,0-.907-.826A12.622,12.622,0,0,1,30.9,53a.978.978,0,0,0-1.186.318l-1.473,2.019a.906.906,0,0,1-1.244.037L25.411,54.22a.908.908,0,0,1-.343-1.2l1.476-2.018a.978.978,0,0,0-.057-1.226,12.664,12.664,0,0,1-2.332-3.824ZM74.182,83.407V81.94a.978.978,0,0,0-1.956,0v1.467H67.335V81.94a.978.978,0,1,0-1.956,0v1.467H60.487V81.94a.978.978,0,1,0-1.956,0v1.467H53.64V81.94a.978.978,0,0,0-.978-.978c-.54,0-.978.438-.978,2.446H46.792V81.94a.978.978,0,1,0-1.956,0v1.467H39.945V81.94a.978.978,0,0,0-.978-.978c-.54,0-.978.438-.978,2.446H33.1V81.94a.978.978,0,0,0-1.956,0v1.467H26.25V81.94a.978.978,0,0,0-.978-.978c-.54,0-.978.438-.978,2.446H19.4V54.6L78.1,81.066v2.341Z" transform="translate(-7.664 -9.97)" fill="#01579b"/>
    </g>
    <path id="Path_292" data-name="Path 292" d="M3.134,1.988A1.124,1.124,0,0,0,2.028,3.126v60.4a1.124,1.124,0,0,0,.321,1.119,1.124,1.124,0,0,0,1.1.3h60.4a1.124,1.124,0,1,0,0-2.248H4.276V3.126A1.124,1.124,0,0,0,3.134,1.988ZM61.617,15.533a3.389,3.389,0,0,0-3.372,3.372,3.307,3.307,0,0,0,.426,1.594L42.676,38.272a3.3,3.3,0,0,0-2.735.079l-6.766-6.766a3.3,3.3,0,0,0,.343-1.44,3.372,3.372,0,0,0-6.744,0,3.307,3.307,0,0,0,.255,1.264l-15.5,13.782a3.313,3.313,0,0,0-1.616-.435,3.372,3.372,0,1,0,3.372,3.372,3.327,3.327,0,0,0-.255-1.264l15.5-13.782a3.2,3.2,0,0,0,3.051.092l6.77,6.77a3.319,3.319,0,0,0-.342,1.44,3.372,3.372,0,1,0,6.744,0,3.321,3.321,0,0,0-.426-1.6l16-17.773a3.331,3.331,0,0,0,1.287.263,3.372,3.372,0,0,0,0-6.744Zm0,2.248a1.124,1.124,0,1,1-1.124,1.124A1.107,1.107,0,0,1,61.617,17.781ZM30.145,29.021A1.124,1.124,0,1,1,29.4,30.98a1.124,1.124,0,0,0-.132-.149,1.108,1.108,0,0,1,.874-1.809Zm11.24,11.24a1.124,1.124,0,1,1-1.124,1.124A1.107,1.107,0,0,1,41.385,40.261ZM9.913,47.005a1.115,1.115,0,0,1,.8.321,1.129,1.129,0,0,1,.325.8,1.124,1.124,0,1,1-1.124-1.124Z" transform="translate(650.012 3675.012)" fill="#fff" fill-rule="evenodd"/>
    <g id="Group_75" data-name="Group 75" transform="translate(1006 3662.004)">
      <path id="Path_293" data-name="Path 293" d="M.624,80.581l6.588,3.594a1.2,1.2,0,0,0,1.148,0l6.588-3.594a1.2,1.2,0,0,0,.624-1.052V72.342a1.2,1.2,0,0,0-.624-1.052L8.36,67.7a1.2,1.2,0,0,0-1.148,0L.624,71.291A1.2,1.2,0,0,0,0,72.342v7.187a1.2,1.2,0,0,0,.624,1.052Zm29.921-8.239v7.187a1.2,1.2,0,0,0,.624,1.052l6.588,3.594a1.2,1.2,0,0,0,1.148,0l6.588-3.594a1.2,1.2,0,0,0,.624-1.052V72.342a1.2,1.2,0,0,0-.624-1.052L38.905,67.7a1.2,1.2,0,0,0-1.148,0L31.17,71.291A1.2,1.2,0,0,0,30.545,72.342Zm45.494-1.052L69.451,67.7a1.2,1.2,0,0,0-1.148,0l-6.588,3.594a1.2,1.2,0,0,0-.624,1.052v7.187a1.2,1.2,0,0,0,.624,1.052L68.3,84.175a1.2,1.2,0,0,0,1.148,0l6.588-3.594a1.2,1.2,0,0,0,.624-1.052V72.342a1.2,1.2,0,0,0-.624-1.052ZM19.765,62.16a1.2,1.2,0,0,0,1.2,1.2h3.594a1.2,1.2,0,0,0,0-2.4H20.963a1.2,1.2,0,0,0-1.2,1.2Zm31.144,0a1.2,1.2,0,0,0,1.2,1.2H55.7a1.2,1.2,0,0,0,0-2.4H52.107a1.2,1.2,0,0,0-1.2,1.2ZM55.074,42.4H66.481a1.2,1.2,0,0,1,1.2,1.2V65.546a3.926,3.926,0,0,1,2.4-.321V43.594A3.6,3.6,0,0,0,66.481,40H55.074c.008.134.028.265.028.4v1.593C55.1,42.131,55.082,42.262,55.074,42.4ZM39.529,65.366v-5.03c-.133.008-.263.028-.4.028h-1.6c-.136,0-.266-.02-.4-.028v5.03a3.588,3.588,0,0,1,2.4,0Z" transform="translate(0 -8.825)" fill="#01579b"/>
      <rect id="Rectangle_93" data-name="Rectangle 93" width="9.683" height="2.396" transform="translate(49.012 65.913)" fill="#01579b"/>
      <path id="Path_294" data-name="Path 294" d="M26,40H14.594A3.6,3.6,0,0,0,11,43.594V65.366a3.588,3.588,0,0,1,2.4,0V43.594a1.2,1.2,0,0,1,1.2-1.2H26c-.008-.134-.028-.265-.028-.4V40.4C25.973,40.265,25.993,40.134,26,40Z" transform="translate(-4.412 -8.825)" fill="#01579b"/>
      <rect id="Rectangle_94" data-name="Rectangle 94" width="9.183" height="2.396" transform="translate(18.467 65.913)" fill="#01579b"/>
      <path id="Path_295" data-name="Path 295" d="M41.418,29.977A1.515,1.515,0,0,0,40,31.576v1.593a1.515,1.515,0,0,0,1.419,1.6h2.036a11.165,11.165,0,0,0,1.5,3.63l-1.443,1.443a1.514,1.514,0,0,0,.132,2.132L44.772,43.1a1.689,1.689,0,0,0,1.186.509,1.307,1.307,0,0,0,.946-.383l1.443-1.437a11.165,11.165,0,0,0,3.63,1.5v2.036a1.515,1.515,0,0,0,1.6,1.419h1.593a1.515,1.515,0,0,0,1.6-1.419V43.291a11.165,11.165,0,0,0,3.63-1.5l1.443,1.437a1.307,1.307,0,0,0,.946.383,1.689,1.689,0,0,0,1.186-.509L65.1,41.973a1.508,1.508,0,0,0,.126-2.132L63.788,38.4a11.165,11.165,0,0,0,1.5-3.63h2.036a1.515,1.515,0,0,0,1.419-1.6V31.576a1.515,1.515,0,0,0-1.419-1.6H65.291a11.165,11.165,0,0,0-1.5-3.63l1.437-1.437a1.515,1.515,0,0,0-.126-2.138l-1.126-1.126a1.7,1.7,0,0,0-1.186-.509,1.307,1.307,0,0,0-.946.383L60.4,22.957a11.167,11.167,0,0,0-3.63-1.5V19.418A1.515,1.515,0,0,0,55.169,18H53.576a1.515,1.515,0,0,0-1.6,1.419v2.036a11.167,11.167,0,0,0-3.63,1.5L46.9,21.52a1.307,1.307,0,0,0-.946-.383,1.7,1.7,0,0,0-1.186.509l-1.126,1.126a1.521,1.521,0,0,0-.132,2.138l1.443,1.437a11.165,11.165,0,0,0-1.5,3.63Zm12.955-4.193a6.588,6.588,0,1,1-6.588,6.588,6.588,6.588,0,0,1,6.588-6.588Z" transform="translate(-16.041)" fill="#01579b"/>
    </g>
    <line id="Line_26" data-name="Line 26" x2="141" transform="translate(433.5 3737.5)" fill="none" stroke="#01579b" stroke-width="5" stroke-dasharray="10 3"/>
    <line id="Line_27" data-name="Line 27" x2="141" transform="translate(794.5 3737.5)" fill="none" stroke="#01579b" stroke-width="5" stroke-dasharray="10 3"/>
    <line id="Line_28" data-name="Line 28" x2="141" transform="translate(794.5 4016.5)" fill="none" stroke="#01579b" stroke-width="5" stroke-dasharray="10 3"/>
    <line id="Line_32" data-name="Line 32" x2="141" transform="translate(794.5 4282.5)" fill="none" stroke="#01579b" stroke-width="5" stroke-dasharray="10 3"/>
    <line id="Line_29" data-name="Line 29" x2="141" transform="translate(436.5 4016.5)" fill="none" stroke="#01579b" stroke-width="5" stroke-dasharray="10 3"/>
    <line id="Line_33" data-name="Line 33" x2="141" transform="translate(436.5 4282.5)" fill="none" stroke="#01579b" stroke-width="5" stroke-dasharray="10 3"/>
    <line id="Line_30" data-name="Line 30" y2="59" transform="translate(1044.5 3840.5)" fill="none" stroke="#01579b" stroke-width="5" stroke-dasharray="10 3"/>
    <g id="_Group_" data-name="&lt;Group&gt;" transform="translate(218 4176)">
      <path id="_Compound_Path_" data-name="&lt;Compound Path&gt;" d="M125.35,42.563A5.562,5.562,0,0,0,119.786,37H80.563A5.562,5.562,0,0,0,75,42.563V92.357a5.562,5.562,0,0,0,5.563,5.563h39.223a5.562,5.562,0,0,0,5.563-5.563Zm-2.782,49.793a2.79,2.79,0,0,1-2.782,2.782H80.563a2.79,2.79,0,0,1-2.782-2.782V42.563a2.79,2.79,0,0,1,2.782-2.782h39.223a2.79,2.79,0,0,1,2.782,2.782Z" transform="translate(0 0)" fill="#01579b"/>
      <path id="_Compound_Path_2" data-name="&lt;Compound Path&gt;" d="M141.127,90.391A1.4,1.4,0,0,0,139.736,89h-8.345A1.4,1.4,0,0,0,130,90.391v8.345a1.4,1.4,0,0,0,1.391,1.391h8.345a1.4,1.4,0,0,0,1.391-1.391Zm-8.345,1.391h5.563v5.563h-5.563Z" transform="translate(-47.35 -44.767)" fill="#01579b"/>
      <path id="_Path_" data-name="&lt;Path&gt;" d="M225.391,101.782H236.24a1.391,1.391,0,0,0,0-2.782H225.391a1.391,1.391,0,0,0,0,2.782Z" transform="translate(-128.276 -53.377)" fill="#01579b"/>
      <path id="_Path_2" data-name="&lt;Path&gt;" d="M244.585,139H225.391a1.391,1.391,0,0,0,0,2.782h19.194a1.391,1.391,0,0,0,0-2.782Z" transform="translate(-128.276 -87.813)" fill="#01579b"/>
      <path id="_Compound_Path_3" data-name="&lt;Compound Path&gt;" d="M141.127,200.391A1.4,1.4,0,0,0,139.736,199h-8.345A1.4,1.4,0,0,0,130,200.391v8.345a1.4,1.4,0,0,0,1.391,1.391h8.345a1.4,1.4,0,0,0,1.391-1.391Zm-8.345,1.391h5.563v5.563h-5.563Z" transform="translate(-47.35 -139.468)" fill="#01579b"/>
      <path id="_Path_3" data-name="&lt;Path&gt;" d="M225.391,211.782H236.24a1.391,1.391,0,0,0,0-2.782H225.391a1.391,1.391,0,0,0,0,2.782Z" transform="translate(-128.276 -148.077)" fill="#01579b"/>
      <path id="_Path_4" data-name="&lt;Path&gt;" d="M244.585,249H225.391a1.391,1.391,0,0,0,0,2.782h19.194a1.391,1.391,0,0,0,0-2.782Z" transform="translate(-128.276 -182.513)" fill="#01579b"/>
      <path id="_Path_5" data-name="&lt;Path&gt;" d="M125.391,321.782H141.8a1.391,1.391,0,0,0,0-2.782H125.391a1.391,1.391,0,0,0,0,2.782Z" transform="translate(-42.185 -242.777)" fill="#01579b"/>
      <path id="_Path_6" data-name="&lt;Path&gt;" d="M158.494,359h-33.1a1.391,1.391,0,0,0,0,2.782h33.1a1.391,1.391,0,0,0,0-2.782Zm0,5.564h-33.1a1.391,1.391,0,0,0,0,2.782h33.1a1.391,1.391,0,0,0,0-2.782Z" transform="translate(-42.185 -277.214)" fill="#01579b"/>
    </g>
    <g id="Group_78" data-name="Group 78" transform="translate(658.489 4223.689)">
      <path id="Path_296" data-name="Path 296" d="M50.29,2.51A48.943,48.943,0,0,0,18.451,16.416a15.382,15.382,0,0,0-1.714,2.066c-2.473-.2-6.263-.126-8.2,1.811C4.019,24.816,2.511,32.356,2.511,32.356L13.059,30.85v2.913l5.978,5.978H21.95l-1.508,10.55s7.54-1.508,12.063-6.031c1.935-1.935,2.006-5.723,1.811-8.2a15.232,15.232,0,0,0,2.066-1.714A48.954,48.954,0,0,0,50.29,2.51ZM30.4,18.41a3.985,3.985,0,1,1,3.985,3.9A3.985,3.985,0,0,1,30.4,18.41Z" transform="translate(0 0)" fill="#fff"/>
      <path id="Path_297" data-name="Path 297" d="M12.381,24.741a3.67,3.67,0,0,1-4.152.63,3.821,3.821,0,0,1,.63-4.152,2.351,2.351,0,0,1,.514-.341L8.147,19.652a4.527,4.527,0,0,0-1.753,1.076C4.6,22.517,4.708,28.891,4.708,28.891s6.376.1,8.163-1.686a4.527,4.527,0,0,0,1.076-1.753l-1.223-1.223a2.473,2.473,0,0,1-.343.512Z" transform="translate(2.179 17.014)" fill="#fff"/>
    </g>
    <path id="Path_299" data-name="Path 299" d="M15.228,50.575A15.228,15.228,0,1,0,30.456,65.8,15.228,15.228,0,0,0,15.228,50.575Zm0,28.576A13.348,13.348,0,1,1,28.576,65.8,13.348,13.348,0,0,1,15.228,79.15Zm5.577-13.735a.94.94,0,0,0,.94-.94V59.462a.94.94,0,1,0-1.88,0v5.013a.94.94,0,0,0,.94.94ZM37.663,37.341a.94.94,0,0,0,.94-.94V31.387a.94.94,0,1,0-1.88,0V36.4a.94.94,0,0,0,.94.94ZM22.118,71.065H8.338a.94.94,0,0,0,0,1.88H22.118a.94.94,0,1,0,0-1.88ZM9.651,65.415a.94.94,0,0,0,.94-.94V59.462a.94.94,0,0,0-1.88,0v5.013a.94.94,0,0,0,.94.94Zm33.715,0a.94.94,0,0,0,.94-.94V59.462a.94.94,0,0,0-1.88,0v5.013a.94.94,0,0,0,.94.94Zm5.577,3.464a10.234,10.234,0,0,0-7.588,3.383.94.94,0,1,0,1.4,1.259,8.322,8.322,0,0,1,12.383,0,.94.94,0,0,0,1.4-1.259,10.234,10.234,0,0,0-7.588-3.383Zm0-18.3A15.228,15.228,0,1,0,64.17,65.8,15.228,15.228,0,0,0,48.942,50.575Zm0,28.576A13.348,13.348,0,1,1,62.29,65.8,13.348,13.348,0,0,1,48.942,79.151ZM26.508,37.34a.94.94,0,0,0,.94-.94V31.387a.94.94,0,1,0-1.88,0V36.4a.94.94,0,0,0,.94.94ZM54.52,65.415a.94.94,0,0,0,.94-.94V59.462a.94.94,0,0,0-1.88,0v5.013a.94.94,0,0,0,.94.94ZM39.6,43.232a.94.94,0,0,0-1.328.069,8.322,8.322,0,0,1-12.383,0,.94.94,0,0,0-1.4,1.258,10.2,10.2,0,0,0,15.176,0A.94.94,0,0,0,39.6,43.232Zm7.709-5.5A15.228,15.228,0,1,0,32.085,52.956,15.228,15.228,0,0,0,47.313,37.728ZM32.085,51.076A13.348,13.348,0,1,1,45.433,37.728,13.348,13.348,0,0,1,32.085,51.076Z" transform="translate(1012 4193.5)" fill="#01579b"/>
    <line id="Line_31" data-name="Line 31" y2="59" transform="translate(322 4110.5)" fill="none" stroke="#01579b" stroke-width="5" stroke-dasharray="10 3"/>
    <path id="Path_300" data-name="Path 300" d="M23.354,32.063H17.375a1.378,1.378,0,0,0-1.458,1.458V48.4a11.375,11.375,0,1,0,2.917,0V34.979h4.521l9.333,9.333a1.41,1.41,0,0,0,2.042,0l9.333-9.333h4.521V48.4a11.375,11.375,0,1,0,2.917,0V33.521a1.378,1.378,0,0,0-1.458-1.458H44.063l-8.9-8.9V18.5H56.9a1.378,1.378,0,0,0,1.458-1.458V2.458A1.378,1.378,0,0,0,56.9,1H10.521A1.378,1.378,0,0,0,9.063,2.458V17.042A1.378,1.378,0,0,0,10.521,18.5H32.25v4.667Zm2.479,27.563a8.458,8.458,0,1,1-8.458-8.458A8.464,8.464,0,0,1,25.833,59.625Zm32.667,0a8.458,8.458,0,1,1-8.458-8.458A8.464,8.464,0,0,1,58.5,59.625ZM11.979,3.917h43.6V15.583h-43.6ZM33.708,41.25l-7.729-7.729,7.729-7.729,7.729,7.729Z" transform="translate(1010 3946)" fill="#fff"/>
    <g id="_Group_2" data-name=" Group " transform="translate(589 3928)">
      <path id="_Compound_Path_4" data-name=" Compound Path " d="M106.915,18.469A1.524,1.524,0,0,0,105.828,18H73.607A7.626,7.626,0,0,0,66,25.59V82.5a7.626,7.626,0,0,0,7.607,7.59h42.336a7.626,7.626,0,0,0,7.607-7.59V36.194a1.541,1.541,0,0,0-.445-1.059Zm.431,4.8L118.42,34.659h-9.563a1.5,1.5,0,0,1-1.511-1.482Zm8.6,63.794H73.607A4.594,4.594,0,0,1,69.029,82.5V25.59a4.594,4.594,0,0,1,4.578-4.561h30.709V33.165a4.528,4.528,0,0,0,4.533,4.523h11.672V82.5a4.594,4.594,0,0,1-4.578,4.561Z" fill="#01579b"/>
      <path id="_Path_7" data-name=" Path " d="M164.2,400H129.335a1.514,1.514,0,0,0,0,3.029H164.2a1.514,1.514,0,0,0,0-3.029Z" transform="translate(-52.457 -324.147)" fill="#01579b"/>
      <path id="_Path_2-2" data-name=" Path 2" d="M129.335,349.029h20.872a1.514,1.514,0,1,0,0-3.029H129.335a1.514,1.514,0,0,0,0,3.029Z" transform="translate(-52.457 -278.325)" fill="#01579b"/>
      <path id="_Compound_Path_2-2" data-name=" Compound Path 2" d="M131.4,135.686l2.116.2a13.03,13.03,0,0,0,.984,2.324l-1.324,1.6a1.514,1.514,0,0,0,.1,2.037l3,3a1.514,1.514,0,0,0,2.037.1l1.61-1.333a13.191,13.191,0,0,0,2.317.98l.2,2.123a1.534,1.534,0,0,0,1.508,1.39h4.25a1.533,1.533,0,0,0,1.508-1.391l.2-2.111a13.01,13.01,0,0,0,2.324-.982l1.6,1.325a1.514,1.514,0,0,0,2.037-.1l3-3a1.514,1.514,0,0,0,.1-2.037l-1.333-1.61a13.18,13.18,0,0,0,.981-2.319l2.1-.2a1.542,1.542,0,0,0,1.4-1.507v-4.25a1.542,1.542,0,0,0-1.4-1.508l-2.116-.2a13.031,13.031,0,0,0-.984-2.324l1.324-1.6a1.514,1.514,0,0,0-.091-2.029l-2.961-3a1.514,1.514,0,0,0-2.045-.1l-1.61,1.333a13.189,13.189,0,0,0-2.317-.98l-.2-2.123A1.534,1.534,0,0,0,148.2,116h-4.25a1.534,1.534,0,0,0-1.508,1.391l-.2,2.111a13.021,13.021,0,0,0-2.324.982l-1.6-1.325a1.514,1.514,0,0,0-2.037.1l-3,3a1.514,1.514,0,0,0-.1,2.037l1.333,1.61a13.2,13.2,0,0,0-.98,2.317l-2.133.2a1.542,1.542,0,0,0-1.4,1.508v4.25A1.542,1.542,0,0,0,131.4,135.686Zm1.629-4.382,1.812-.172a1.532,1.532,0,0,0,1.35-1.187,10.215,10.215,0,0,1,1.432-3.37,1.514,1.514,0,0,0-.1-1.787l-1.13-1.367,1.049-1.048,1.367,1.132a1.514,1.514,0,0,0,1.806.094,9.853,9.853,0,0,1,3.351-1.411,1.539,1.539,0,0,0,1.188-1.357l.172-1.8h1.5l.172,1.8a1.527,1.527,0,0,0,1.188,1.346,10.212,10.212,0,0,1,3.37,1.43,1.514,1.514,0,0,0,1.787-.1l1.36-1.125,1.022,1.036-1.137,1.374a1.515,1.515,0,0,0-.094,1.806,9.853,9.853,0,0,1,1.411,3.351,1.55,1.55,0,0,0,1.366,1.188l1.811.172v1.5l-1.775.17a1.532,1.532,0,0,0-1.349,1.187,10.211,10.211,0,0,1-1.432,3.37,1.514,1.514,0,0,0,.1,1.787l1.13,1.367-1.049,1.048-1.367-1.132a1.514,1.514,0,0,0-1.806-.094,9.853,9.853,0,0,1-3.351,1.411,1.539,1.539,0,0,0-1.187,1.357l-.172,1.8h-1.5l-.172-1.8a1.526,1.526,0,0,0-1.187-1.346,10.209,10.209,0,0,1-3.37-1.43,1.514,1.514,0,0,0-1.787.1l-1.367,1.13-1.047-1.048,1.132-1.367a1.515,1.515,0,0,0,.094-1.806,9.853,9.853,0,0,1-1.411-3.351,1.551,1.551,0,0,0-1.366-1.188l-1.812-.172Z" transform="translate(-54.307 -83.158)" fill="#01579b"/>
      <path id="_Compound_Path_3-2" data-name=" Compound Path 3" d="M199.114,191.594a6.606,6.606,0,1,0-6.606-6.606,6.606,6.606,0,0,0,6.606,6.606Zm0-10.182a3.577,3.577,0,1,1-3.577,3.577A3.577,3.577,0,0,1,199.114,181.412Z" transform="translate(-107.349 -136.093)" fill="#01579b"/>
    </g>
    <g id="Group_79" data-name="Group 79" transform="translate(253.003 3934.262)">
      <path id="Path_301" data-name="Path 301" d="M98.3,19.18a.821.821,0,0,0-.787-.844H80.62V16.581h6.617a.756.756,0,0,0,.806-.748V11.549A4.554,4.554,0,0,0,83.5,7H56.574A4.346,4.346,0,0,0,52.2,11.313l-.038,7.023H40.784A.821.821,0,0,0,40,19.18V64.448a.829.829,0,0,0,.787.854H60.561l-2.053,7.288H54.92a.81.81,0,1,0,0,1.62H83.378a.81.81,0,1,0,0-1.62H79.789L77.737,65.3H97.513a.829.829,0,0,0,.787-.854v-8.59h0v-1.62h0ZM72.285,40.5a7.535,7.535,0,1,1,7.535,7.535A7.535,7.535,0,0,1,72.285,40.5ZM83.5,8.619H83.5a2.937,2.937,0,0,1,2.922,2.944v3.4h-5.8v-3.4a2.89,2.89,0,0,1,2.863-2.942ZM53.82,11.334a2.74,2.74,0,0,1,2.754-2.715H80.012A4.478,4.478,0,0,0,79,11.563V31.384a8.073,8.073,0,0,0-2.032.426.872.872,0,0,0-.614-.248H56.229a.81.81,0,0,0,0,1.62h18.1a9.988,9.988,0,0,0-1.788,1.754H56.229a.81.81,0,1,0,0,1.62H71.55a10.348,10.348,0,0,0-.628,1.754H56.229a.81.81,0,1,0,0,1.62H70.682c-.01.27-.016.37-.016.546a9.174,9.174,0,0,0,.492,2.964H53.646Zm-12.2,8.621H52.153l-.131,24.28a.83.83,0,0,0,.236.584.814.814,0,0,0,.574.243s11.116,0,19.063,0a9.163,9.163,0,1,0,8.726-13.692V19.955H96.68v34.28H41.617Zm36.49,52.634H60.19L62.243,65.3H76.055ZM96.68,63.682H41.617V55.855H96.68Z" transform="translate(0 0)" fill="#fff"/>
      <path id="Path_302" data-name="Path 302" d="M186.2,53.76a7.5,7.5,0,1,0-7.5-7.5A7.5,7.5,0,0,0,186.2,53.76Zm0-13.372a5.877,5.877,0,1,1-5.877,5.877,5.876,5.876,0,0,1,5.877-5.877Z" transform="translate(-119.984 -27.481)" fill="#fff"/>
      <path id="Path_303" data-name="Path 303" d="M165.062,66.29a.758.758,0,0,1-.757-.757.81.81,0,0,0-1.62,0,2.378,2.378,0,0,0,1.4,2.164v.345a.81.81,0,0,0,1.62,0V67.82a2.375,2.375,0,0,0-.642-4.663.757.757,0,1,1,.757-.757.81.81,0,1,0,1.62,0,2.379,2.379,0,0,0-1.6-2.245V59.81a.81.81,0,0,0-1.62,0v.369a2.375,2.375,0,0,0,.843,4.6.757.757,0,0,1,0,1.515Zm-9.984,8.5H175.2a.81.81,0,1,0,0-1.62H155.078a.81.81,0,1,0,0,1.62Zm22.2,13.121a.808.808,0,0,0,.573.24h0a.809.809,0,0,0,.573-.237l3.726-3.726A.81.81,0,1,0,181,83.043l-3.151,3.151-1.516-1.531a.81.81,0,1,0-1.151,1.139Z" transform="translate(-98.849 -44.983)" fill="#fff"/>
    </g>
    <path id="Path_304" data-name="Path 304" d="M16.682,19.674c.01-.012.014-.028.024-.04l6.982-7.714a1.2,1.2,0,0,0,0-1.572.042.042,0,0,0-.012-.008.936.936,0,0,0-.712-.34H9a.948.948,0,0,0-.722.352l0,0a1.2,1.2,0,0,0,0,1.572l7,7.754a.928.928,0,0,0,1.412,0Z" transform="translate(1028.021 3860)" fill="#01579b"/>
    <path id="Path_305" data-name="Path 305" d="M16.682,19.674c.01-.012.014-.028.024-.04l6.982-7.714a1.2,1.2,0,0,0,0-1.572.042.042,0,0,0-.012-.008.936.936,0,0,0-.712-.34H9a.948.948,0,0,0-.722.352l0,0a1.2,1.2,0,0,0,0,1.572l7,7.754a.928.928,0,0,0,1.412,0Z" transform="translate(306.021 4130)" fill="#01579b"/>
    <path id="Path_306" data-name="Path 306" d="M16.682,19.674c.01-.012.014-.028.024-.04l6.982-7.714a1.2,1.2,0,0,0,0-1.572.042.042,0,0,0-.012-.008.936.936,0,0,0-.712-.34H9a.948.948,0,0,0-.722.352l0,0a1.2,1.2,0,0,0,0,1.572l7,7.754a.928.928,0,0,0,1.412,0Z" transform="translate(502.001 3752.98) rotate(-90)" fill="#01579b"/>
    <path id="Path_307" data-name="Path 307" d="M16.682,19.674c.01-.012.014-.028.024-.04l6.982-7.714a1.2,1.2,0,0,0,0-1.572.042.042,0,0,0-.012-.008.936.936,0,0,0-.712-.34H9a.948.948,0,0,0-.722.352l0,0a1.2,1.2,0,0,0,0,1.572l7,7.754a.928.928,0,0,0,1.412,0Z" transform="translate(858 3753.98) rotate(-90)" fill="#01579b"/>
    <path id="Path_308" data-name="Path 308" d="M16.682,19.674c.01-.012.014-.028.024-.04l6.982-7.714a1.2,1.2,0,0,0,0-1.572.042.042,0,0,0-.012-.008.936.936,0,0,0-.712-.34H9a.948.948,0,0,0-.722.352l0,0a1.2,1.2,0,0,0,0,1.572l7,7.754a.928.928,0,0,0,1.412,0Z" transform="translate(499 4298.98) rotate(-90)" fill="#01579b"/>
    <path id="Path_309" data-name="Path 309" d="M16.682,19.674c.01-.012.014-.028.024-.04l6.982-7.714a1.2,1.2,0,0,0,0-1.572.042.042,0,0,0-.012-.008.936.936,0,0,0-.712-.34H9a.948.948,0,0,0-.722.352l0,0a1.2,1.2,0,0,0,0,1.572l7,7.754a.928.928,0,0,0,1.412,0Z" transform="translate(859 4298.98) rotate(-90)" fill="#01579b"/>
    <path id="Path_310" data-name="Path 310" d="M16.682,19.674c.01-.012.014-.028.024-.04l6.982-7.714a1.2,1.2,0,0,0,0-1.572.042.042,0,0,0-.012-.008.936.936,0,0,0-.712-.34H9a.948.948,0,0,0-.722.352l0,0a1.2,1.2,0,0,0,0,1.572l7,7.754a.928.928,0,0,0,1.412,0Z" transform="translate(514 4001.02) rotate(90)" fill="#01579b"/>
    <path id="Path_311" data-name="Path 311" d="M16.682,19.674c.01-.012.014-.028.024-.04l6.982-7.714a1.2,1.2,0,0,0,0-1.572.042.042,0,0,0-.012-.008.936.936,0,0,0-.712-.34H9a.948.948,0,0,0-.722.352l0,0a1.2,1.2,0,0,0,0,1.572l7,7.754a.928.928,0,0,0,1.412,0Z" transform="translate(872 4000.02) rotate(90)" fill="#01579b"/>
  </g>
</svg>
