<svg xmlns="http://www.w3.org/2000/svg" width="95.904" height="94.176" viewBox="0 0 95.904 94.176">
  <g id="Group_17" data-name="Group 17" transform="translate(1.728)">
    <path id="Path_8" data-name="Path 8" d="M0,0H94.176V94.176H0Z" fill="none"/>
    <path id="ui_ux" data-name="ui ux" d="M2,4.008H50.458V10.89H2Zm55.385,0H64.3V10.89H57.381Zm13.846,0H78.15V10.89H71.227Zm13.846,0H92V10.89H85.073ZM2,17.813H92V66.329H2Zm6.923,6.869v34.67H50.458V24.682Zm48.462.054V31.66H85.073V24.737ZM15.842,31.606H43.535V52.429H15.842Zm41.539,6.977v6.923H85.073V38.583Zm0,13.846v6.923H85.073V52.429Z" transform="translate(-3.724 11.651)" fill="#01579b"/>
  </g>
</svg>
