<svg xmlns="http://www.w3.org/2000/svg" width="83" height="73.509" viewBox="0 0 83 73.509">
  <g id="web" transform="translate(-16 -43)">
    <g id="_Group_" data-name="&lt;Group&gt;" transform="translate(16 43)">
      <path id="_Compound_Path_" data-name="&lt;Compound Path&gt;" d="M99,51.628A8.628,8.628,0,0,0,90.372,43H24.628A8.628,8.628,0,0,0,16,51.628v56.254a8.628,8.628,0,0,0,8.628,8.628H90.372A8.628,8.628,0,0,0,99,107.882ZM24.555,46.451H90.272a5.119,5.119,0,0,1,5.1,5.174v6.9H19.451v-6.9a5.119,5.119,0,0,1,5.1-5.174Zm65.717,66.607H24.555a5.119,5.119,0,0,1-5.1-5.174v-45.9H95.376v45.9a5.119,5.119,0,0,1-5.1,5.174Z" transform="translate(-16 -43)" fill="#01579b"/>
      <path id="_Compound_Path_2" data-name="&lt;Compound Path&gt;" d="M106.335,190.726A1.726,1.726,0,0,0,104.609,189H78.726A1.726,1.726,0,0,0,77,190.726v35.719a1.726,1.726,0,0,0,1.726,1.726h25.884a1.726,1.726,0,0,0,1.726-1.726Zm-3.451,33.994H80.451V192.451h22.432Z" transform="translate(-66.474 -163.807)" fill="#01579b"/>
    </g>
    <g id="_Group_2" data-name="&lt;Group&gt;" transform="translate(20.659 47.311)">
      <path id="_Compound_Path_3" data-name="&lt;Compound Path&gt;" d="M48.134,67.985a5.134,5.134,0,1,0,5.134,5.134A5.134,5.134,0,0,0,48.134,67.985Zm0,6.816a1.682,1.682,0,1,1,1.682-1.682A1.682,1.682,0,0,1,48.134,74.8ZM59.35,67.985a5.134,5.134,0,1,0,5.134,5.134,5.134,5.134,0,0,0-5.134-5.134Zm0,6.816a1.682,1.682,0,1,1,1.682-1.682A1.682,1.682,0,0,1,59.35,74.8ZM75.7,73.119a5.134,5.134,0,1,0-5.134,5.134A5.134,5.134,0,0,0,75.7,73.119ZM70.566,74.8a1.682,1.682,0,1,1,1.682-1.682A1.682,1.682,0,0,1,70.566,74.8Z" transform="translate(-43 -67.985)" fill="#01579b"/>
      <path id="_Path_" data-name="&lt;Path&gt;" d="M269.726,237.451h15.012a1.726,1.726,0,1,0,0-3.451H269.726a1.726,1.726,0,1,0,0,3.451Zm25.366,3.451H269.726a1.726,1.726,0,1,0,0,3.451h25.366a1.726,1.726,0,1,0,0-3.451Zm0,6.9H269.726a1.726,1.726,0,1,0,0,3.451h25.366a1.726,1.726,0,1,0,0-3.451Zm0,6.9H269.726a1.726,1.726,0,0,0,0,3.451h25.366a1.726,1.726,0,0,0,0-3.451Z" transform="translate(-229.175 -205.353)" fill="#01579b"/>
    </g>
  </g>
</svg>
