<svg xmlns="http://www.w3.org/2000/svg" xmlns:xlink="http://www.w3.org/1999/xlink" width="89.844" height="100" viewBox="0 0 89.844 100"><defs><linearGradient id="a" x1="0.5" x2="0.5" y2="1" gradientUnits="objectBoundingBox"><stop offset="0" stop-color="#cb218e"/><stop offset="1" stop-color="#6617cb"/></linearGradient></defs><g transform="translate(-26)"><g transform="translate(90.453 77.344)"><path d="M357.953,396a1.953,1.953,0,1,0,1.953,1.953A1.954,1.954,0,0,0,357.953,396Z" transform="translate(-356 -396)" fill="url(#a)"/></g><g transform="translate(26)"><path d="M97.215,71.028l-9.283-3.094L84.6,61.269a21.392,21.392,0,0,0,5.79-11.317l.416-2.491h3.554a5.866,5.866,0,0,0,5.859-5.859V29.3a29.3,29.3,0,0,0-58.594,0V41.6a5.869,5.869,0,0,0,3.906,5.523v2.289a5.866,5.866,0,0,0,5.859,5.859h1.715a21.189,21.189,0,0,0,3.276,5.073c.277.318.565.626.861.926l-3.331,6.662-9.283,3.094C33.834,74.627,26,85.99,26,98.047A1.953,1.953,0,0,0,27.953,100h85.938a1.953,1.953,0,0,0,1.953-1.953C115.844,85.99,108.01,74.627,97.215,71.028Zm-.9-29.426a1.955,1.955,0,0,1-1.953,1.953H91.379c.5-3.846.827-7.938.96-11.969,0-.114.007-.224.011-.336h3.963ZM47.484,43.555A1.955,1.955,0,0,1,45.531,41.6V31.25H49.5q.01.306.021.614c0,.007,0,.014,0,.021v0c.137,3.92.463,7.906.948,11.667H47.484Zm3.906,7.813a1.955,1.955,0,0,1-1.953-1.953V47.461h1.6l.416,2.492c.079.474.177.946.289,1.414Zm-1.95-24.023H45.605a25.392,25.392,0,0,1,50.633,0H92.4A19.782,19.782,0,0,0,72.67,7.813h-3.5A19.782,19.782,0,0,0,49.441,27.344ZM69.174,11.719h3.5a15.882,15.882,0,0,1,15.83,15.9c0,.615,0,1.15-.015,1.637,0,.006,0,.013,0,.019l-2.443-.349A31.384,31.384,0,0,1,68.4,20.1a1.954,1.954,0,0,0-1.381-.572A17.67,17.67,0,0,0,53.43,25.959,15.877,15.877,0,0,1,69.174,11.719ZM55.793,51.367c-.978-3.253-2.1-12.823-2.344-18.956l2.629-3.505A13.748,13.748,0,0,1,66.244,23.46a35.327,35.327,0,0,0,19.246,9.333l2.875.411c-.192,4.079-.585,8.172-1.148,11.937v0c-.179,1.21-.32,1.989-.68,4.165-1.034,6.2-5.664,11.814-11.775,13.342a15.367,15.367,0,0,1-17.251-7.379h3.982a5.869,5.869,0,0,0,5.523,3.906h3.906a5.859,5.859,0,0,0,0-11.719H67.016a5.862,5.862,0,0,0-5.527,3.906ZM66.851,66.6a19.591,19.591,0,0,0,7.264.164l-3.451,3.65Zm1.128,6.653-6.195,6.551a74.416,74.416,0,0,1-4.373-10.14l2.326-4.653Zm13.8-8.9,2.657,5.314a74.4,74.4,0,0,1-4.373,10.143l-6.63-6.63ZM65.063,53.32a1.953,1.953,0,0,1,1.953-1.953h3.906a1.953,1.953,0,0,1,0,3.906H67.016A1.955,1.955,0,0,1,65.063,53.32ZM29.984,96.094c.774-9.676,7.213-18.47,15.879-21.36l8.221-2.74a78.3,78.3,0,0,0,5.559,12.059l.011.02h0A78.317,78.317,0,0,0,65,92.237l2.4,3.857Zm40.938-1.741L68.273,90.1q-.045-.071-.095-.139a74.471,74.471,0,0,1-4.4-6.575l6.965-7.366,7.339,7.339a74.389,74.389,0,0,1-4.416,6.6C73.57,90.088,73.706,89.887,70.922,94.353Zm3.518,1.741,2.4-3.857a78.283,78.283,0,0,0,5.384-8.229l.029-.052,0-.006a78.231,78.231,0,0,0,5.5-11.956l8.221,2.74c8.666,2.89,15.105,11.684,15.879,21.36Z" transform="translate(-26)" fill="url(#a)"/></g><g transform="translate(97.316 81.072)"><path d="M399.812,422.206a19.528,19.528,0,0,0-5.529-6.712,1.953,1.953,0,1,0-2.382,3.1,15.6,15.6,0,0,1,4.416,5.362,1.953,1.953,0,0,0,3.495-1.746Z" transform="translate(-391.139 -415.088)" fill="url(#a)"/></g></g></svg>