<svg xmlns="http://www.w3.org/2000/svg" xmlns:xlink="http://www.w3.org/1999/xlink" width="100" height="92.475" viewBox="0 0 100 92.475"><defs><linearGradient id="a" x1="0.5" x2="0.5" y2="1" gradientUnits="objectBoundingBox"><stop offset="0" stop-color="#cb218e"/><stop offset="1" stop-color="#6617cb"/></linearGradient></defs><g transform="translate(0 -19.265)"><path d="M1331.969-457.194a23.96,23.96,0,0,1,23.934-23.934,23.961,23.961,0,0,1,23.934,23.934A23.961,23.961,0,0,1,1355.9-433.26,23.961,23.961,0,0,1,1331.969-457.194Zm5.871,0a18.084,18.084,0,0,0,18.063,18.063,18.084,18.084,0,0,0,18.063-18.063,18.084,18.084,0,0,0-18.063-18.063A18.083,18.083,0,0,0,1337.839-457.194Zm5.549,9.235a12.85,12.85,0,0,1,12.631-10.477,12.9,12.9,0,0,1,12.579,10.209l-5.747,1.2a7,7,0,0,0-6.833-5.54,6.978,6.978,0,0,0-6.861,5.686Zm15.8-15.783a2.969,2.969,0,0,1,2.936-2.935,2.986,2.986,0,0,1,2.935,2.935,2.969,2.969,0,0,1-2.935,2.936A2.987,2.987,0,0,1,1359.188-463.742Zm-12.758,0a2.968,2.968,0,0,1,2.936-2.935,2.986,2.986,0,0,1,2.935,2.935,2.969,2.969,0,0,1-2.935,2.936A2.987,2.987,0,0,1,1346.43-463.742Zm11.7-38.059a23.961,23.961,0,0,1,23.934-23.934A23.96,23.96,0,0,1,1406-501.8a23.961,23.961,0,0,1-23.934,23.934A23.961,23.961,0,0,1,1358.132-501.8Zm5.871,0a18.084,18.084,0,0,0,18.063,18.063,18.084,18.084,0,0,0,18.063-18.063,18.083,18.083,0,0,0-18.063-18.063A18.084,18.084,0,0,0,1364-501.8Zm-58,0a23.961,23.961,0,0,1,23.934-23.934,23.961,23.961,0,0,1,23.934,23.934,23.961,23.961,0,0,1-23.934,23.934A23.961,23.961,0,0,1,1306-501.8Zm5.871,0a18.084,18.084,0,0,0,18.063,18.063A18.084,18.084,0,0,0,1348-501.8a18.083,18.083,0,0,0-18.063-18.063A18.084,18.084,0,0,0,1311.871-501.8Zm5.485,2.642,5.746-1.2a7,7,0,0,0,6.832,5.54,6.978,6.978,0,0,0,6.862-5.685l5.77,1.079a12.85,12.85,0,0,1-12.632,10.477A12.9,12.9,0,0,1,1317.355-499.159Zm53.993,5.236v-5.871h21.163v5.871Zm-38.206-13.7a2.969,2.969,0,0,1,2.936-2.936,2.987,2.987,0,0,1,2.935,2.936,2.968,2.968,0,0,1-2.935,2.935A2.987,2.987,0,0,1,1333.142-507.622Zm-12.758,0a2.969,2.969,0,0,1,2.936-2.936,2.987,2.987,0,0,1,2.935,2.936,2.968,2.968,0,0,1-2.935,2.935A2.986,2.986,0,0,1,1320.384-507.622Zm64.871-.384a2.968,2.968,0,0,1,2.936-2.935,2.986,2.986,0,0,1,2.935,2.935,2.968,2.968,0,0,1-2.935,2.936A2.987,2.987,0,0,1,1385.255-508.006Zm-12.758,0a2.968,2.968,0,0,1,2.935-2.935,2.987,2.987,0,0,1,2.936,2.935,2.969,2.969,0,0,1-2.936,2.936A2.986,2.986,0,0,1,1372.5-508.006Z" transform="translate(-1306 545)" fill="url(#a)"/></g></svg>