<svg xmlns="http://www.w3.org/2000/svg" xmlns:xlink="http://www.w3.org/1999/xlink" width="100" height="100" viewBox="0 0 100 100"><defs><linearGradient id="a" x1="0.5" x2="0.5" y2="1" gradientUnits="objectBoundingBox"><stop offset="0" stop-color="#cb218e"/><stop offset="1" stop-color="#6617cb"/></linearGradient></defs><path d="M11.914,82.422H29.492V88.28L47.07,100V81.061L29.492,69.341v7.221H17.773V41.211H29.492V0H0V41.211H11.914Zm0-70.508h5.859v5.859H11.914Zm0,11.719h5.859v5.859H11.914Z" fill="url(#a)"/><path d="M288.578,41.211H300.3V76.563H288.578V69.341L271,81.061V100l17.578-11.72V82.422h17.578V41.211H318.07V0H288.578Zm11.719-29.3h5.859v5.859H300.3Zm0,11.719h5.859v5.859H300.3Z" transform="translate(-218.07)" fill="url(#a)"/><path d="M166,64.252,183.581,75.97l17.577-11.718L186.511,54.98V41.211H198.23V0h-29.3V41.211h11.719V54.98Zm14.648-52.338h5.859v5.859h-5.859Zm0,11.719h5.859v5.859h-5.859Z" transform="translate(-133.581 0)" fill="url(#a)"/></svg>