<svg xmlns="http://www.w3.org/2000/svg" xmlns:xlink="http://www.w3.org/1999/xlink" width="100" height="100" viewBox="0 0 100 100"><defs><linearGradient id="a" x1="0.5" x2="0.5" y2="1" gradientUnits="objectBoundingBox"><stop offset="0" stop-color="#cb218e"/><stop offset="1" stop-color="#6617cb"/></linearGradient></defs><g transform="translate(0 0)"><path d="M920.052-144.906H888.758a1.953,1.953,0,0,1-1.953-1.953,1.952,1.952,0,0,1,1.953-1.953h26.215c-.107-.1-.213-.206-.319-.311a28.124,28.124,0,0,1-3.039-3.6h-13.58a1.952,1.952,0,0,1-1.953-1.953,1.953,1.953,0,0,1,1.953-1.953H909.3a27.489,27.489,0,0,1-1.973-5.468H867.859a5.866,5.866,0,0,1-5.859-5.86v-67.188A5.865,5.865,0,0,1,867.859-241h67.188a5.865,5.865,0,0,1,5.859,5.859v24.17h.476a5.584,5.584,0,0,1,5.578,5.578,5.585,5.585,0,0,1-5.578,5.579h-1.4v3.932a27.426,27.426,0,0,1,8.632,3.4l2.625-2.624a3.82,3.82,0,0,1,5.4,0l2.868,2.868a3.821,3.821,0,0,1,0,5.4l-2.383,2.382A27.529,27.529,0,0,1,962-168.735a27.554,27.554,0,0,1-8.123,19.612A27.553,27.553,0,0,1,934.266-141,27.561,27.561,0,0,1,920.052-144.906Zm-2.635-40.677a23.675,23.675,0,0,0-6.979,16.849,23.675,23.675,0,0,0,6.979,16.849,23.67,23.67,0,0,0,16.849,6.979,23.668,23.668,0,0,0,16.849-6.979,23.671,23.671,0,0,0,6.979-16.849,23.671,23.671,0,0,0-6.979-16.849,23.672,23.672,0,0,0-16.849-6.98A23.673,23.673,0,0,0,917.417-185.584Zm-51.511-49.558v67.188A1.955,1.955,0,0,0,867.859-166h38.8q-.131-1.354-.132-2.734a27.55,27.55,0,0,1,8.123-19.611,27.537,27.537,0,0,1,13.9-7.536v-3.932h-1.4a5.585,5.585,0,0,1-5.578-5.579,5.584,5.584,0,0,1,5.578-5.578H937v-24.17a1.955,1.955,0,0,0-1.953-1.953h-20.39v23.906a1.956,1.956,0,0,1-1.205,1.805,1.958,1.958,0,0,1-.748.148,1.946,1.946,0,0,1-1.381-.572l-4.244-4.243-4.244,4.243a1.952,1.952,0,0,1-2.762,0l-4.244-4.243-4.244,4.243a1.954,1.954,0,0,1-2.128.424,1.955,1.955,0,0,1-1.206-1.805v-23.906h-20.39A1.955,1.955,0,0,0,865.906-235.141Zm85.936,44.95q1.054.868,2.034,1.846c.268.268.528.542.785.819l2.013-2.014-2.741-2.741Zm-15.771-6.218v-3.4h-3.614v3.4c.6-.038,1.2-.059,1.807-.059S935.474-196.448,936.072-196.41Zm-10.6-8.983a1.675,1.675,0,0,0,1.673,1.673h14.233a1.675,1.675,0,0,0,1.673-1.673,1.674,1.674,0,0,0-1.673-1.672H927.149A1.674,1.674,0,0,0,925.476-205.393Zm-28.267-14.8,4.244,4.244,4.243-4.244a1.954,1.954,0,0,1,2.762,0l2.291,2.29v-19.191H892.156V-217.9l2.291-2.29a1.946,1.946,0,0,1,1.382-.572A1.945,1.945,0,0,1,897.209-220.194Zm-17.644,74.715a1.966,1.966,0,0,1-.572-1.381,1.968,1.968,0,0,1,.572-1.382,1.969,1.969,0,0,1,1.381-.572,1.971,1.971,0,0,1,1.381.572,1.971,1.971,0,0,1,.571,1.382,1.969,1.969,0,0,1-.571,1.381,1.968,1.968,0,0,1-1.381.572A1.966,1.966,0,0,1,879.565-145.479Zm34.78-23.256a19.944,19.944,0,0,1,19.922-19.921,19.944,19.944,0,0,1,19.921,19.921,19.945,19.945,0,0,1-19.921,19.922A19.945,19.945,0,0,1,914.344-168.735Zm3.906,0a16.034,16.034,0,0,0,16.016,16.016,16.034,16.034,0,0,0,16.016-16.016,15.922,15.922,0,0,0-3.4-9.85l-11.232,11.232a1.951,1.951,0,0,1-1.381.572,1.949,1.949,0,0,1-1.381-.572,1.952,1.952,0,0,1,0-2.762l5.777-5.777a8.347,8.347,0,0,0-4.4-1.24,8.408,8.408,0,0,0-8.4,8.4,1.952,1.952,0,0,1-1.953,1.953,1.954,1.954,0,0,1-1.953-1.953,12.32,12.32,0,0,1,12.3-12.3,12.213,12.213,0,0,1,7.21,2.334l2.642-2.642a15.932,15.932,0,0,0-9.851-3.4A16.034,16.034,0,0,0,918.25-168.735Zm-41.949-5a1.953,1.953,0,0,1-1.953-1.953,1.953,1.953,0,0,1,1.953-1.953h16.658a1.952,1.952,0,0,1,1.953,1.953,1.952,1.952,0,0,1-1.953,1.953Zm23.09-.573a1.96,1.96,0,0,1-.572-1.381,1.971,1.971,0,0,1,.572-1.381,1.967,1.967,0,0,1,1.381-.572,1.961,1.961,0,0,1,1.38.572,1.961,1.961,0,0,1,.573,1.381,1.958,1.958,0,0,1-.573,1.381,1.961,1.961,0,0,1-1.38.572A1.967,1.967,0,0,1,899.391-174.308ZM876.3-181.79a1.953,1.953,0,0,1-1.953-1.953A1.954,1.954,0,0,1,876.3-185.7h9.332a1.954,1.954,0,0,1,1.953,1.953,1.953,1.953,0,0,1-1.953,1.953Z" transform="translate(-862 241)" fill="url(#a)"/></g></svg>