<svg xmlns="http://www.w3.org/2000/svg" xmlns:xlink="http://www.w3.org/1999/xlink" width="100" height="100" viewBox="0 0 100 100"><defs><linearGradient id="a" x1="0.5" x2="0.5" y2="1" gradientUnits="objectBoundingBox"><stop offset="0" stop-color="#cb218e"/><stop offset="1" stop-color="#6617cb"/></linearGradient></defs><g transform="translate(0 0)"><path d="M573.329-266l-1.192-4.664-.236-.1-4.14,2.456-8.615-8.614,2.457-4.14c-.034-.078-.067-.157-.1-.236l-4.666-1.193v-12.181l4.665-1.193c.031-.077.064-.156.1-.235l-2.456-4.141,8.614-8.614,4.14,2.456.236-.1,1.193-4.667h12.181L586.7-306.5l.235.1,4.141-2.457,8.614,8.615-2.456,4.14c.033.077.066.157.1.235L602-294.673v12.182l-4.665,1.193-.1.235,2.456,4.14-8.615,8.615-4.14-2.457c-.077.034-.157.067-.235.1L585.511-266Zm-.835-8.033a15.338,15.338,0,0,0,1.537.637l.813.288.99,3.883h7.173l.99-3.883.813-.288a16.24,16.24,0,0,0,1.537-.637l.776-.371,3.447,2.045,5.071-5.071-2.046-3.449.371-.776a14.847,14.847,0,0,0,.637-1.537l.289-.813,3.883-.99v-7.173l-3.884-.99-.288-.813a16.328,16.328,0,0,0-.637-1.537l-.371-.776,2.045-3.447-5.071-5.071-3.448,2.046-.775-.371a15.263,15.263,0,0,0-1.538-.637l-.813-.288-.99-3.883h-7.173l-.99,3.883-.813.289a16.185,16.185,0,0,0-1.537.636l-.776.372-3.447-2.046-5.071,5.071,2.045,3.447-.371.776a15.247,15.247,0,0,0-.637,1.537l-.288.813-3.883.99v7.173l3.884.99.288.813a15.963,15.963,0,0,0,.637,1.537l.371.776L563.2-277.43l5.071,5.071,3.447-2.045ZM502-266v-41.936h32.258V-266Zm3.226-3.226h25.807v-35.483H505.226Zm19.355-3.226v-3.226h3.227v3.226Zm-16.129,0v-3.226h12.9v3.226Zm58.064-16.129a12.918,12.918,0,0,1,12.9-12.9,12.918,12.918,0,0,1,12.9,12.9,12.918,12.918,0,0,1-12.9,12.9A12.918,12.918,0,0,1,566.516-288.581Zm3.227,0a9.686,9.686,0,0,0,9.677,9.677,9.686,9.686,0,0,0,9.678-9.677,9.687,9.687,0,0,0-9.678-9.678A9.687,9.687,0,0,0,569.742-288.581ZM508.451-278.9v-3.227h19.355v3.227Zm26.752-9.678,7.592-7.592,2.281,2.281-3.7,3.7h12.235v3.226H541.377l3.7,3.7-2.281,2.281Zm37.765,0a6.458,6.458,0,0,1,6.451-6.452,6.458,6.458,0,0,1,6.452,6.452,6.458,6.458,0,0,1-6.452,6.451A6.458,6.458,0,0,1,572.968-288.581Zm3.226,0a3.228,3.228,0,0,0,3.226,3.226,3.228,3.228,0,0,0,3.226-3.226,3.228,3.228,0,0,0-3.226-3.226A3.228,3.228,0,0,0,576.194-288.581Zm-67.742,3.226v-3.226h19.355v3.226Zm6.452-6.451v-3.226h12.9v3.226Zm-6.452,0v-3.226h3.226v3.226Zm0-6.452v-3.226h19.355v3.226Zm8.065-12.9v-29.032a4.844,4.844,0,0,1,4.838-4.838h7.4l-3.7-3.7,2.281-2.282,7.592,7.592-7.592,7.592-2.281-2.281,3.7-3.7h-7.4a1.615,1.615,0,0,0-1.613,1.613v29.032Zm56.924-10.149,2.281-2.281,3.7,3.7v-20.3a1.615,1.615,0,0,0-1.613-1.613h-8.064v-3.226h8.064a4.844,4.844,0,0,1,4.838,4.838v20.3l3.7-3.7,2.281,2.281-7.592,7.592Zm-40.8,6.924v-8.432a8.1,8.1,0,0,1,5.234-7.55l7.669-2.876v-1.368a9.7,9.7,0,0,1-2.7-4.077,6.45,6.45,0,0,1-5.364-6.342v-6.452A14.533,14.533,0,0,1,552-366a14.533,14.533,0,0,1,14.516,14.516v6.452a6.45,6.45,0,0,1-5.363,6.342,9.674,9.674,0,0,1-2.7,4.077v1.366l7.671,2.876a8.105,8.105,0,0,1,5.233,7.552v8.432Zm6.366-12.963a4.86,4.86,0,0,0-3.14,4.531v5.207H568.13v-5.207a4.859,4.859,0,0,0-3.138-4.53l-2.373-.889-3.224,9.674-7.394-3.7-7.393,3.7-3.224-9.674Zm15.268,2.623,3.23,1.614,2.087-6.26-2.065-.774Zm-9.876-4.646,2.086,6.259,3.231-1.615-3.252-5.418Zm4.37-3.2L552-327.2l3.227-5.376v-.119a9.637,9.637,0,0,1-3.227.565,9.591,9.591,0,0,1-3.226-.565Zm-3.226-15.792v6.561A6.458,6.458,0,0,0,552-335.354a6.458,6.458,0,0,0,6.452-6.452v-6.561A12.476,12.476,0,0,1,552-350.942,12.485,12.485,0,0,1,545.549-348.368Zm16.129,6.113a3.212,3.212,0,0,0,1.613-2.776,3.215,3.215,0,0,0-1.613-2.778Zm-20.967-2.779a3.216,3.216,0,0,0,1.613,2.778v-5.554A3.212,3.212,0,0,0,540.71-345.034Zm12.431-9.2a9.328,9.328,0,0,0,6.646,2.753h.277a6.38,6.38,0,0,1,3.226.9v-.9A11.3,11.3,0,0,0,552-362.774a11.3,11.3,0,0,0-11.29,11.29v.9a6.377,6.377,0,0,1,3.226-.9h.277a9.331,9.331,0,0,0,6.647-2.753l1.14-1.142Z" transform="translate(-502 366)" fill="url(#a)"/></g></svg>