<svg xmlns="http://www.w3.org/2000/svg" xmlns:xlink="http://www.w3.org/1999/xlink" width="100" height="99.963" viewBox="0 0 100 99.963"><defs><linearGradient id="a" x1="0.5" x2="0.5" y2="1" gradientUnits="objectBoundingBox"><stop offset="0" stop-color="#cb218e"/><stop offset="1" stop-color="#6617cb"/></linearGradient></defs><g transform="translate(246.001 81.911)"><path d="M787.667-228.615l-5-6.666,2.667-2,2,2.667v-13.334h3.334v13.334l2-2.667,2.667,2-5,6.666a1.674,1.674,0,0,1-.333.334,1.664,1.664,0,0,1-1,.333A1.662,1.662,0,0,1,787.667-228.615Zm-33.088-13.506a1.667,1.667,0,0,1-1.413-1.886l1.185-8.248,3.3.472-.47,3.3,9.427-9.427,2.35,2.357-9.427,9.427,3.3-.471.472,3.3-8.249,1.178a1.6,1.6,0,0,1-.237.017A1.6,1.6,0,0,1,754.579-242.122Zm68.364,0-8.249-1.179.472-3.3,3.295.473-9.427-9.427,2.357-2.357,9.427,9.427-.471-3.3,3.3-.475,1.178,8.248a1.744,1.744,0,0,1,.017.237,1.668,1.668,0,0,1-1.667,1.667A1.733,1.733,0,0,1,822.943-242.122Zm-35.61-9.16v-3.334h3.334v3.334Zm-18.366-8.988,2.357-2.357,2.357,2.357-2.357,2.357Zm35.355,0,2.357-2.357,2.357,2.357-2.357,2.357Zm-15.755,2.265c-.041-.012-.077-.033-.115-.047a1.6,1.6,0,0,1-.274-.112l-.018-.013-.018-.008-16.667-10a1.667,1.667,0,0,1-.808-1.428v-16.666a1.624,1.624,0,0,1,.058-.432,1.62,1.62,0,0,1,.063-.158,1.906,1.906,0,0,1,.1-.238,1.624,1.624,0,0,1,.117-.155,1.7,1.7,0,0,1,.143-.186q.076-.066.157-.124a1.62,1.62,0,0,1,.176-.135l16.666-10a1.67,1.67,0,0,1,1.717,0l16.666,10a2.012,2.012,0,0,1,.167.135,1.726,1.726,0,0,1,.155.124,1.564,1.564,0,0,1,.146.188,1.73,1.73,0,0,1,.114.153,1.653,1.653,0,0,1,.1.245,1.211,1.211,0,0,1,.062.15,1.642,1.642,0,0,1,.058.434v16.666a1.668,1.668,0,0,1-.809,1.428l-16.666,10-.018.008-.019.013a1.592,1.592,0,0,1-.273.112c-.039.013-.076.035-.115.047a1.651,1.651,0,0,1-.434.058A1.639,1.639,0,0,1,788.567-258.007Zm2.1-17.331v12.78l13.333-8v-12.78ZM774-270.56l13.333,8v-12.778l-13.333-8Zm9.906-10.722L789-278.225l13.427-8.056-5.093-3.057Zm-8.333-5,5.093,3.056,13.427-8.057L789-294.338Zm54.093,12,2.667-2H819v-3.334h13.333l-2.667-2,2-2.667,6.666,5a1.672,1.672,0,0,1,.334.333,1.667,1.667,0,0,1-.334,2.334l-6.666,5Zm-90-2.333a1.7,1.7,0,0,1-.333-.334,1.666,1.666,0,0,1,.333-2.333l6.666-5,2,2.667-2.666,2H759v3.334H745.666l2.666,2-2,2.667Zm72.667.334v-3.334h3.334v3.334Zm-50,0v-3.334h3.334v3.334Zm6.633-19.344,2.357-2.357,2.357,2.357-2.357,2.357Zm35.356-.006,2.357-2.357,2.357,2.357-2.357,2.357Zm4.713-4.709,9.427-9.427-3.3.47-.472-3.3,8.249-1.178a1.648,1.648,0,0,1,1.415.472,1.664,1.664,0,0,1,.472,1.415l-1.178,8.249-3.3-.475.471-3.295-9.427,9.427Zm-51.86-7.07.47,3.3-3.3.472-1.178-8.249a1.654,1.654,0,0,1,0-.49,1.667,1.667,0,0,1,1.894-1.4l8.249,1.185-.472,3.3-3.3-.471,9.427,9.427-2.363,2.357Zm30.158,6.129v-3.334h3.334v3.334Zm0-6.667v-13.333l-2,2.667-2.667-2,5-6.666a1.672,1.672,0,0,1,.236-.237,1.726,1.726,0,0,1,2.43.237l5,6.666-2.667,2-2-2.667v13.333Z" transform="translate(-985 246)" fill="url(#a)"/></g></svg>