<svg xmlns="http://www.w3.org/2000/svg" xmlns:xlink="http://www.w3.org/1999/xlink" width="68.637" height="100" viewBox="0 0 68.637 100"><defs><linearGradient id="a" x1="0.5" x2="0.5" y2="1" gradientUnits="objectBoundingBox"><stop offset="0" stop-color="#cb218e"/><stop offset="1" stop-color="#6617cb"/></linearGradient></defs><g transform="translate(-72.272 0)"><path d="M42.49,100a2.236,2.236,0,0,1-2.234-2.234v-24.9a2.236,2.236,0,0,1,2.234-2.234H55.158a2.236,2.236,0,0,1,2.234,2.234v24.9A2.236,2.236,0,0,1,55.158,100Zm-20.128,0a2.236,2.236,0,0,1-2.234-2.234V67.222a2.236,2.236,0,0,1,2.234-2.233H35.031a2.236,2.236,0,0,1,2.234,2.233V97.766A2.236,2.236,0,0,1,35.031,100ZM2.234,100A2.236,2.236,0,0,1,0,97.766v-39a2.236,2.236,0,0,1,2.234-2.234H14.9a2.236,2.236,0,0,1,2.234,2.234v39A2.236,2.236,0,0,1,14.9,100ZM48.154,67.277,42.647,57.1a24.3,24.3,0,0,1-1.806-4.535l-2.509-9.36H34.609a3.887,3.887,0,0,1-.369.373l-5.06,4.4L31.395,58.83a3.885,3.885,0,0,1-3.026,4.578,3.935,3.935,0,0,1-.78.079,3.892,3.892,0,0,1-3.8-3.105L21.522,49.269a7.621,7.621,0,0,1,2.369-6.979l4.893-4.25L26.892,30.61l-.29.635a8.282,8.282,0,0,1-5.274,4.333l-7.02,1.67a3.706,3.706,0,0,1-.855.1,3.681,3.681,0,0,1-.849-7.262l6.954-1.654a1.613,1.613,0,0,0,.378-.311l3.412-7.463a3.148,3.148,0,0,1,2.887-2.148l11.161,0a3.754,3.754,0,0,1,2.011.725l7.917,5.877a19.669,19.669,0,0,1,3.564,3.585l2.987,4.073a3.692,3.692,0,0,1,.221.341A4.46,4.46,0,0,1,57.053,34.4c.083.083.158.171.233.259l1.836-1.836a1.9,1.9,0,0,1,2.687,0l6.271,6.271a1.9,1.9,0,0,1,0,2.688L57.551,52.312a1.888,1.888,0,0,1-1.344.555h0a1.888,1.888,0,0,1-1.344-.555l-6.271-6.271a1.9,1.9,0,0,1,0-2.688l1.836-1.836c-.088-.075-.176-.151-.259-.234a4.465,4.465,0,0,1-1.3-3.275,3.66,3.66,0,0,1-.932-.888L44.95,33.048a12.862,12.862,0,0,0-1.876-1.919l5.262,19.428a16.644,16.644,0,0,0,1.135,2.851L54.98,63.581a3.883,3.883,0,0,1-3.2,5.723c-.07,0-.14.006-.21.006A3.881,3.881,0,0,1,48.154,67.277Zm4.928-29.365a3.652,3.652,0,0,1-1.9.7,2.114,2.114,0,0,0,.851,1.3l3.645-3.645A2.148,2.148,0,0,0,55.455,36a2.173,2.173,0,0,0-.909-.542A3.666,3.666,0,0,1,53.082,37.912ZM22.6,8.7a8.7,8.7,0,1,1,8.7,8.7A8.706,8.706,0,0,1,22.6,8.7Z" transform="translate(72.272 0)" fill="url(#a)"/></g></svg>