<svg xmlns="http://www.w3.org/2000/svg" xmlns:xlink="http://www.w3.org/1999/xlink" width="100" height="100" viewBox="0 0 100 100"><defs><linearGradient id="a" x1="0.5" x2="0.5" y2="1" gradientUnits="objectBoundingBox"><stop offset="0" stop-color="#cb218e"/><stop offset="1" stop-color="#6617cb"/></linearGradient></defs><g transform="translate(0 0)"><path d="M868.141-175.973a1.954,1.954,0,0,1-1.532-2.3,1.954,1.954,0,0,1,2.3-1.532,46.443,46.443,0,0,0,9.092.9A46.145,46.145,0,0,0,924.093-225a46.184,46.184,0,0,0-9.742-28.339,8.155,8.155,0,0,1-3.94,1.005,8.149,8.149,0,0,1-5.8-2.4,8.147,8.147,0,0,1-2.4-5.8,8.146,8.146,0,0,1,2.4-5.8,8.153,8.153,0,0,1,5.8-2.4,8.15,8.15,0,0,1,5.8,2.4,8.216,8.216,0,0,1,1.027,10.348A50.1,50.1,0,0,1,928-225a49.674,49.674,0,0,1-14.645,35.356A49.674,49.674,0,0,1,878-175,50.426,50.426,0,0,1,868.141-175.973Zm39.233-87.6a4.269,4.269,0,0,0-1.259,3.038,4.268,4.268,0,0,0,1.259,3.038,4.269,4.269,0,0,0,3.037,1.258,4.274,4.274,0,0,0,3.039-1.258,4.3,4.3,0,0,0,0-6.077,4.27,4.27,0,0,0-3.039-1.258A4.265,4.265,0,0,0,907.374-263.576ZM858.72-179.018a1.968,1.968,0,0,1-.572-1.382,1.971,1.971,0,0,1,.572-1.381,1.972,1.972,0,0,1,1.381-.572,1.97,1.97,0,0,1,1.381.572,1.968,1.968,0,0,1,.572,1.381,1.968,1.968,0,0,1-.572,1.382,1.97,1.97,0,0,1-1.381.572A1.972,1.972,0,0,1,858.72-179.018Zm-18.932-4.646a8.15,8.15,0,0,1-2.4-5.8,8.142,8.142,0,0,1,1.375-4.55A50.09,50.09,0,0,1,828-225a49.671,49.671,0,0,1,14.644-35.355A49.674,49.674,0,0,1,878-275a50.347,50.347,0,0,1,9.953.991,1.953,1.953,0,0,1,1.527,2.3,1.953,1.953,0,0,1-2.3,1.528,46.44,46.44,0,0,0-9.18-.914A46.145,46.145,0,0,0,831.906-225a46.178,46.178,0,0,0,9.742,28.339,8.155,8.155,0,0,1,3.94-1.005,8.15,8.15,0,0,1,5.8,2.4,8.144,8.144,0,0,1,2.4,5.8,8.146,8.146,0,0,1-2.4,5.8,8.15,8.15,0,0,1-5.8,2.4A8.147,8.147,0,0,1,839.787-183.664Zm2.762-8.839a4.269,4.269,0,0,0-1.258,3.039,4.266,4.266,0,0,0,1.258,3.037,4.269,4.269,0,0,0,3.038,1.259,4.266,4.266,0,0,0,3.037-1.259,4.267,4.267,0,0,0,1.259-3.037,4.27,4.27,0,0,0-1.259-3.039,4.27,4.27,0,0,0-3.037-1.258A4.267,4.267,0,0,0,842.549-192.5Zm29.344,3.049a1.954,1.954,0,0,1-1.953-1.953v-3.786a30.591,30.591,0,0,1-7.331-3.038l-2.673,2.673a1.95,1.95,0,0,1-1.381.572h0a1.957,1.957,0,0,1-1.381-.572l-8.632-8.638a1.953,1.953,0,0,1,0-2.762l2.67-2.67a30.559,30.559,0,0,1-3.038-7.331H844.4a1.954,1.954,0,0,1-1.382-.572,1.948,1.948,0,0,1-.571-1.382l.007-12.212a1.952,1.952,0,0,1,1.953-1.952h3.765a30.552,30.552,0,0,1,3.038-7.33l-2.656-2.656a1.955,1.955,0,0,1-.572-1.382,1.951,1.951,0,0,1,.573-1.382l8.638-8.633a1.954,1.954,0,0,1,2.761,0l2.653,2.653a30.53,30.53,0,0,1,7.33-3.038v-3.752a1.953,1.953,0,0,1,1.953-1.953h12.212a1.952,1.952,0,0,1,1.953,1.953v3.751a30.56,30.56,0,0,1,7.331,3.038l2.652-2.653a1.954,1.954,0,0,1,2.761,0l8.639,8.632a1.961,1.961,0,0,1,.573,1.382,1.955,1.955,0,0,1-.572,1.382l-2.656,2.656a30.565,30.565,0,0,1,3.038,7.33H911.6a1.953,1.953,0,0,1,1.953,1.953v12.212a1.953,1.953,0,0,1-1.953,1.953h-3.772a30.559,30.559,0,0,1-3.038,7.331l2.67,2.67a1.954,1.954,0,0,1,0,2.762l-8.632,8.638a1.955,1.955,0,0,1-1.381.572,1.951,1.951,0,0,1-1.382-.572l-2.674-2.673a30.56,30.56,0,0,1-7.331,3.038v3.786a1.953,1.953,0,0,1-1.953,1.953Zm-8.518-12.885a26.731,26.731,0,0,0,8.928,3.7,1.956,1.956,0,0,1,1.543,1.91v3.37h8.306v-3.37a1.954,1.954,0,0,1,1.543-1.91,26.751,26.751,0,0,0,8.928-3.7,1.953,1.953,0,0,1,2.442.259l2.378,2.378,5.871-5.876-2.376-2.375a1.954,1.954,0,0,1-.259-2.442,26.727,26.727,0,0,0,3.7-8.928,1.953,1.953,0,0,1,1.909-1.543h3.356v-8.306h-3.356a1.952,1.952,0,0,1-1.909-1.543,26.752,26.752,0,0,0-3.7-8.928,1.953,1.953,0,0,1,.259-2.442l2.361-2.36-5.875-5.872-2.359,2.359a1.952,1.952,0,0,1-2.441.259,26.745,26.745,0,0,0-8.928-3.7,1.952,1.952,0,0,1-1.543-1.909v-3.335h-8.306v3.335a1.954,1.954,0,0,1-1.543,1.91,26.726,26.726,0,0,0-8.928,3.7,1.956,1.956,0,0,1-2.442-.259l-2.358-2.36-5.875,5.872,2.361,2.361a1.953,1.953,0,0,1,.259,2.441,26.732,26.732,0,0,0-3.7,8.928,1.952,1.952,0,0,1-1.909,1.543h-3.351l0,8.306h3.355a1.953,1.953,0,0,1,1.909,1.543,26.736,26.736,0,0,0,3.7,8.929,1.953,1.953,0,0,1-.259,2.441l-2.376,2.376,5.871,5.875,2.378-2.378a1.953,1.953,0,0,1,1.382-.572A1.949,1.949,0,0,1,863.375-202.339ZM861.862-225A16.156,16.156,0,0,1,878-241.139,16.157,16.157,0,0,1,894.138-225,16.157,16.157,0,0,1,878-208.862,16.156,16.156,0,0,1,861.862-225Zm3.906,0A12.245,12.245,0,0,0,878-212.768,12.246,12.246,0,0,0,890.231-225,12.246,12.246,0,0,0,878-237.233,12.245,12.245,0,0,0,865.768-225ZM894.6-268.186a1.97,1.97,0,0,1-.573-1.383,1.969,1.969,0,0,1,.573-1.382,1.962,1.962,0,0,1,1.38-.572,1.97,1.97,0,0,1,1.381.572,1.976,1.976,0,0,1,.572,1.382,1.979,1.979,0,0,1-.572,1.383,1.97,1.97,0,0,1-1.381.572A1.962,1.962,0,0,1,894.6-268.186Z" transform="translate(-828 275)" fill="url(#a)"/></g></svg>