<svg xmlns="http://www.w3.org/2000/svg" xmlns:xlink="http://www.w3.org/1999/xlink" width="100" height="82.422" viewBox="0 0 100 82.422"><defs><linearGradient id="a" x1="0.5" x2="0.5" y2="1" gradientUnits="objectBoundingBox"><stop offset="0" stop-color="#cb218e"/><stop offset="1" stop-color="#6617cb"/></linearGradient></defs><g transform="translate(0 -45)"><path d="M1390.256-117.03a41.016,41.016,0,0,1-12.45-8.463h-10.731a8.9,8.9,0,0,1-8.888-8.888,8.9,8.9,0,0,1,8.888-8.888h.138a40.934,40.934,0,0,1-1.115-4.975h-9.21a8.9,8.9,0,0,1-8.888-8.888,8.9,8.9,0,0,1,8.888-8.888h10.242a40.994,40.994,0,0,1,1.759-4.975h-5.36a8.9,8.9,0,0,1-8.888-8.888,8.9,8.9,0,0,1,8.888-8.888h19.947A40.9,40.9,0,0,1,1406.788-196h.114a40.959,40.959,0,0,1,29.086,12.091A40.964,40.964,0,0,1,1448-154.789a41.258,41.258,0,0,1-41.211,41.211A40.913,40.913,0,0,1,1390.256-117.03Zm-26.21-17.351a3.033,3.033,0,0,0,3.029,3.029h13.218l.867.912a35.038,35.038,0,0,0,25.628,11,35.391,35.391,0,0,0,35.351-35.352,35.41,35.41,0,0,0-35.254-35.351h-.1a35.086,35.086,0,0,0-20.67,6.672l-.768.554h-21.822a3.033,3.033,0,0,0-3.028,3.029,3.031,3.031,0,0,0,3.028,3.029h15.178l-2.543,4.4a35.076,35.076,0,0,0-3.89,10l-.509,2.3h-14.877a3.033,3.033,0,0,0-3.029,3.029,3.032,3.032,0,0,0,3.029,3.028h14.458l.248,2.657a35.133,35.133,0,0,0,2.449,10l1.647,4.036h-8.616A3.033,3.033,0,0,0,1364.046-134.381Zm13.446-20.408a29.33,29.33,0,0,1,29.3-29.3,29.33,29.33,0,0,1,29.3,29.3,29.33,29.33,0,0,1-29.3,29.3A29.33,29.33,0,0,1,1377.492-154.789Zm5.859,0a23.465,23.465,0,0,0,23.438,23.438,23.464,23.464,0,0,0,23.438-23.438,23.465,23.465,0,0,0-23.438-23.438A23.465,23.465,0,0,0,1383.351-154.789Zm20.508,2.929v-19.531h5.859v13.672h8.2v5.859Z" transform="translate(-1348 241)" fill="url(#a)"/></g></svg>