<svg xmlns="http://www.w3.org/2000/svg" width="50" height="50" viewBox="0 0 50 50"><g transform="translate(17802 6965)"><g transform="translate(-17802 -6965)" fill="#fff" stroke="#707070" stroke-width="1" opacity="0"><rect width="50" height="50" stroke="none"/><rect x="0.5" y="0.5" width="49" height="49" fill="none"/></g><g transform="translate(-17814.535 -6969.038)"><path d="M33.25,56.893H29.679a2.679,2.679,0,1,1,0-5.357H33.25a2.679,2.679,0,0,1,0,5.357Zm-3.571-3.571a.893.893,0,1,0,0,1.786H33.25a.893.893,0,0,0,0-1.786Z" transform="translate(-2.464 -2.889)" fill="#fff"/><path d="M45.5,54.356H33a.893.893,0,0,1,0-1.786H45.5a4.464,4.464,0,0,0,4.464-4.464V46.321a.893.893,0,0,1,1.786,0v1.786a6.25,6.25,0,0,1-6.25,6.25Z" transform="translate(-0.429 -2.138)" fill="#fff"/></g><path d="M61.717,154.648a9.439,9.439,0,0,0-13.11,0l-3.408,3.3,2.184,2.153,3.385-3.293a6.311,6.311,0,0,1,8.765,0,5.933,5.933,0,0,1,0,8.518,6.311,6.311,0,0,1-8.766,0l-10.939-10.68a9.439,9.439,0,0,0-13.11,0,8.938,8.938,0,0,0,0,12.838,9.439,9.439,0,0,0,13.111,0l3.4-3.305-2.186-2.136-3.384,3.28a6.31,6.31,0,0,1-8.765,0,5.933,5.933,0,0,1,0-8.518,6.311,6.311,0,0,1,8.765,0L48.6,167.488a9.439,9.439,0,0,0,13.109,0,8.93,8.93,0,0,0,.012-12.84Z" transform="translate(-17821 -7095.433)" fill="#fff"/><path d="M49.806,23.647a7.143,7.143,0,0,1-6.464-4.33,15.179,15.179,0,0,0-27.848.161,6.723,6.723,0,0,1-6.143,4.17H9.092A.893.893,0,0,1,8.2,22.638a21.429,21.429,0,0,1,42.482,0,.893.893,0,0,1-.893,1.009ZM29.449,5.79a19.643,19.643,0,0,0-19.3,16,5.009,5.009,0,0,0,3.706-3.019,17.021,17.021,0,0,1,31.17-.2,5.437,5.437,0,0,0,3.768,3.152,19.741,19.741,0,0,0-5.411-10.2A19.491,19.491,0,0,0,29.449,5.79Z" transform="translate(-17806.191 -6967.038)" fill="#fff"/></g></svg>