<svg xmlns="http://www.w3.org/2000/svg" width="50" height="47.37" viewBox="0 0 50 47.37"><g transform="translate(0 -1.263)"><path d="M25.08,6.718a12.687,12.687,0,0,0-2.346,25.156v.819h-.268a.781.781,0,0,0-.781.781v13.6a1.562,1.562,0,0,0,1.563,1.563h3.673a1.563,1.563,0,0,0,1.563-1.562v-13.6a.781.781,0,0,0-.781-.781h-.268v-.825A12.683,12.683,0,0,0,25.08,6.718Zm1.839,40.356H23.248V34.25h3.671Zm0,.781v-.781h0ZM25.08,32.1c.248,0,.485-.011.72-.025h.07v.609H24.3v-.608c.141.008.278,0,.417,0S24.957,32.1,25.08,32.1Zm1.458-1.667a10.465,10.465,0,0,1-2.13.057c-.265-.017-.532-.018-.791-.052a11.157,11.157,0,1,1,2.917,0ZM3.217,1.263H.781A.781.781,0,0,0,0,2.044V5.215A.781.781,0,0,0,.781,6H3.217A.781.781,0,0,0,4,5.215V2.044A.781.781,0,0,0,3.217,1.263ZM2.435,4.434H1.563V2.826h.873ZM9.666,6a.781.781,0,0,0,.781-.781V2.044a.781.781,0,1,0-1.562,0V5.215A.781.781,0,0,0,9.666,6ZM25,6a.781.781,0,0,0,.781-.781V2.044a.781.781,0,1,0-1.562,0V5.215A.781.781,0,0,0,25,6ZM16.116,6h2.435a.781.781,0,0,0,.781-.781V2.044a.781.781,0,0,0-.781-.781H16.116a.781.781,0,0,0-.781.781V5.215A.781.781,0,0,0,16.116,6ZM16.9,2.826h.873V4.434H16.9ZM31.449,6h2.435a.781.781,0,0,0,.781-.781V2.044a.781.781,0,0,0-.781-.781H31.449a.781.781,0,0,0-.781.781V5.215A.781.781,0,0,0,31.449,6Zm.781-3.171H33.1V4.434H32.23ZM40.334,6a.781.781,0,0,0,.781-.781V2.044a.781.781,0,0,0-1.562,0V5.215A.781.781,0,0,0,40.334,6Zm8.884-4.733H46.783A.781.781,0,0,0,46,2.044V5.215A.781.781,0,0,0,46.783,6h2.435A.781.781,0,0,0,50,5.215V2.044A.781.781,0,0,0,49.219,1.263Zm-.781,3.171h-.873V2.826h.873ZM2.78,13.1V9.924a.781.781,0,1,0-1.562,0V13.1a.781.781,0,1,0,1.563,0Zm8.1-3.952H8.448a.781.781,0,0,0-.781.781V13.1a.781.781,0,0,0,.781.781h2.435a.781.781,0,0,0,.781-.781V9.924A.781.781,0,0,0,10.883,9.143ZM10.1,12.314H9.229V10.706H10.1Z" fill="#fff"/><path d="M26.218,8.828H23.782A.781.781,0,0,0,23,9.609V12.78a.781.781,0,0,0,.781.781h2.435A.781.781,0,0,0,27,12.78V9.609a.781.781,0,0,0-.781-.781ZM25.436,12h-.873V10.391h.873Zm23.346.781V9.609a.781.781,0,0,0-1.562,0V12.78a.781.781,0,1,0,1.563,0Zm-7.23-3.952H39.117a.781.781,0,0,0-.781.781V12.78a.781.781,0,0,0,.781.781h2.435a.781.781,0,0,0,.781-.781V9.609A.781.781,0,0,0,41.552,8.828ZM40.771,12H39.9V10.391h.873ZM3.217,16.708H.781A.781.781,0,0,0,0,17.489V20.66a.781.781,0,0,0,.781.781H3.217A.781.781,0,0,0,4,20.66V17.489a.781.781,0,0,0-.781-.781Zm-.781,3.171H1.563V18.271h.873Zm8.011.781V17.489a.781.781,0,0,0-1.562,0V20.66a.781.781,0,0,0,1.562,0Zm15.334,0V17.489a.781.781,0,1,0-1.562,0V20.66a.781.781,0,1,0,1.562,0Zm-7.23-3.952H16.116a.781.781,0,0,0-.781.781V20.66a.781.781,0,0,0,.781.781h2.435a.781.781,0,0,0,.781-.781V17.489a.781.781,0,0,0-.781-.781Zm-.781,3.171H16.9V18.271h.873Zm12.9-2.39V20.66a.781.781,0,0,0,.781.781h2.435a.781.781,0,0,0,.781-.781V17.489a.781.781,0,0,0-.781-.781H31.449a.781.781,0,0,0-.781.781Zm1.562.781H33.1v1.608H32.23Zm8.885,2.39V17.489a.781.781,0,0,0-1.562,0V20.66a.781.781,0,1,0,1.563,0Zm8.1-3.952H46.783a.781.781,0,0,0-.781.781V20.66a.781.781,0,0,0,.781.781h2.435A.781.781,0,0,0,50,20.66V17.489a.781.781,0,0,0-.781-.781Zm-.781,3.171h-.873V18.271h.873ZM2,24.588a.781.781,0,0,0-.781.781V28.54a.781.781,0,1,0,1.562,0V25.37A.781.781,0,0,0,2,24.588Zm8.884,0H8.448a.781.781,0,0,0-.781.781V28.54a.781.781,0,0,0,.781.781h2.435a.781.781,0,0,0,.781-.781V25.37A.781.781,0,0,0,10.883,24.588ZM10.1,27.757H9.229V26.151H10.1Zm16.114-3.169H23.782A.781.781,0,0,0,23,25.37V28.54a.781.781,0,0,0,.781.781h2.435A.781.781,0,0,0,27,28.541V25.37a.781.781,0,0,0-.781-.781Zm-.781,3.169h-.873V26.151h.873ZM48,24.588a.781.781,0,0,0-.781.781V28.54a.781.781,0,1,0,1.563,0V25.37A.781.781,0,0,0,48,24.588Zm-6.449,0H39.117a.781.781,0,0,0-.781.781V28.54a.781.781,0,0,0,.781.781h2.435a.781.781,0,0,0,.781-.781V25.37A.781.781,0,0,0,41.552,24.588Zm-.781,3.169H39.9V26.151h.873Z" transform="translate(0 0.315)" fill="#fff"/></g></svg>