<svg xmlns="http://www.w3.org/2000/svg" width="200" height="200" viewBox="0 0 200 200"><g transform="translate(16656 6495)"><g transform="translate(-16695 -6621)"><g transform="translate(66 141)"><path d="M134.085,61.948H12.19A12.225,12.225,0,0,0,0,74.137V98.516a12.225,12.225,0,0,0,12.19,12.19h121.9a12.225,12.225,0,0,0,12.19-12.19V74.137A12.225,12.225,0,0,0,134.085,61.948ZM24.379,98.516H12.19V74.137h12.19Zm24.379,0H36.569V74.137h12.19Zm24.379,0H60.948V74.137h12.19Zm24.379,0H85.327V74.137h12.19ZM134.085,1H12.19A12.225,12.225,0,0,0,0,13.19V37.569a12.225,12.225,0,0,0,12.19,12.19h121.9a12.225,12.225,0,0,0,12.19-12.19V13.19A12.225,12.225,0,0,0,134.085,1ZM24.379,37.569H12.19V13.19h12.19Zm24.379,0H36.569V13.19h12.19Zm24.379,0H60.948V13.19h12.19Zm24.379,0H85.327V13.19h12.19Zm36.569-12.19H121.9V13.19h12.19Zm0,97.516H12.19A12.225,12.225,0,0,0,0,135.085v24.379a12.225,12.225,0,0,0,12.19,12.19h121.9a12.225,12.225,0,0,0,12.19-12.19V135.085A12.225,12.225,0,0,0,134.085,122.9ZM24.379,159.464H12.19V135.085h12.19Zm24.379,0H36.569V135.085h12.19Zm24.379,0H60.948V135.085h12.19Zm24.379,0H85.327V135.085h12.19Z" transform="translate(0 -1)" fill="#fff" fill-rule="evenodd"/></g></g><g transform="translate(-16656 -6495)" fill="#fff" stroke="#707070" stroke-width="1" opacity="0"><rect width="200" height="200" stroke="none"/><rect x="0.5" y="0.5" width="199" height="199" fill="none"/></g></g></svg>