<svg xmlns="http://www.w3.org/2000/svg" width="50" height="50" viewBox="0 0 50 50"><g transform="translate(-35 -35)"><rect width="13.819" height="13.819" transform="translate(53.091 53.091)" fill="#fff"/><path d="M83.869,54.851a1.131,1.131,0,0,0,0-2.262H76.456V48.069a4.53,4.53,0,0,0-4.525-4.525H67.412V36.131a1.131,1.131,0,1,0-2.262,0v7.413h-10.3V36.131a1.131,1.131,0,1,0-2.262,0v7.413H48.069a4.53,4.53,0,0,0-4.525,4.525v4.519H36.131a1.131,1.131,0,1,0,0,2.262h7.413v8.791H36.131a1.131,1.131,0,1,0,0,2.262h7.413v6.026a4.53,4.53,0,0,0,4.525,4.525h4.519v7.413a1.131,1.131,0,0,0,2.262,0V76.456h10.3v7.413a1.131,1.131,0,0,0,2.262,0V76.456h4.519a4.53,4.53,0,0,0,4.525-4.525V65.9h7.413a1.131,1.131,0,0,0,0-2.262H76.456V54.851Zm-14.7,13.19a1.131,1.131,0,0,1-1.131,1.131H51.96a1.131,1.131,0,0,1-1.131-1.131V51.96a1.131,1.131,0,0,1,1.131-1.131H68.04a1.131,1.131,0,0,1,1.131,1.131Z" fill="#fff"/></g></svg>