<svg xmlns="http://www.w3.org/2000/svg" width="50.458" height="50.458" viewBox="0 0 50.458 50.458"><g transform="translate(0.458)"><g transform="translate(1.042 3.125)"><path d="M28.583,25.083H1.5V10.5" transform="translate(0.583 8.25)" fill="none" stroke="#fff" stroke-linecap="round" stroke-linejoin="round" stroke-miterlimit="10" stroke-width="3"/><path d="M7.5,5.5h25V20.083" transform="translate(7.083 2.833)" fill="none" stroke="#fff" stroke-linecap="round" stroke-linejoin="round" stroke-miterlimit="10" stroke-width="3"/><path d="M10.5,17.5v8.333" transform="translate(10.333 15.833)" fill="none" stroke="#fff" stroke-linejoin="round" stroke-miterlimit="10" stroke-width="3"/><path d="M6.5,21.5H23.167" transform="translate(6 20.167)" fill="none" stroke="#fff" stroke-linecap="round" stroke-linejoin="round" stroke-miterlimit="10" stroke-width="3"/><path d="M1.5,14.5H28.583" transform="translate(0.583 12.583)" fill="none" stroke="#fff" stroke-linecap="round" stroke-linejoin="round" stroke-miterlimit="10" stroke-width="3"/><path d="M.5,1.5H10.917V16.083H.5Z" transform="translate(-0.5 -1.5)" fill="none" stroke="#fff" stroke-linejoin="round" stroke-miterlimit="10" stroke-width="3"/><path d="M16.5,14.5H29V33.25H16.5Z" transform="translate(16.833 12.583)" fill="none" stroke="#fff" stroke-linejoin="round" stroke-miterlimit="10" stroke-width="3"/><path d="M2.5,6.5H4.583" transform="translate(1.667 3.917)" fill="none" stroke="#fff" stroke-linecap="round" stroke-linejoin="round" stroke-miterlimit="10" stroke-width="3"/><path d="M16.5,21.5H29" transform="translate(16.833 20.167)" fill="none" stroke="#fff" stroke-linejoin="round" stroke-miterlimit="10" stroke-width="3"/><g transform="translate(28.125 12.5)"><path d="M14,8l6.25,6.25" transform="translate(-14 -6.958)" fill="none" stroke="#fff" stroke-linecap="round" stroke-linejoin="round" stroke-miterlimit="10" stroke-width="3"/><path d="M16.5,7.5l2.083,2.083" transform="translate(-11.292 -7.5)" fill="none" stroke="#fff" stroke-linecap="round" stroke-linejoin="round" stroke-miterlimit="10" stroke-width="3"/></g></g><path d="M0,0H50V50H0Z" fill="none"/></g></svg>