<svg xmlns="http://www.w3.org/2000/svg" width="41.666" height="50" viewBox="0 0 41.666 50"><path d="M10.333,37.5a2.089,2.089,0,0,0,2.083,2.083H14.5v7.292a3.125,3.125,0,1,0,6.25,0V39.583h4.167v7.292a3.125,3.125,0,1,0,6.25,0V39.583H33.25A2.089,2.089,0,0,0,35.333,37.5V16.667h-25ZM5.125,16.667A3.121,3.121,0,0,0,2,19.792V34.375a3.125,3.125,0,1,0,6.25,0V19.792A3.121,3.121,0,0,0,5.125,16.667Zm35.417,0a3.121,3.121,0,0,0-3.125,3.125V34.375a3.125,3.125,0,1,0,6.25,0V19.792A3.121,3.121,0,0,0,40.542,16.667ZM30.188,4.5,32.9,1.792a1.031,1.031,0,0,0,0-1.479,1.031,1.031,0,0,0-1.479,0L28.333,3.4a12.165,12.165,0,0,0-5.5-1.312A12.341,12.341,0,0,0,17.292,3.4L14.187.313a1.031,1.031,0,0,0-1.479,0,1.031,1.031,0,0,0,0,1.479l2.729,2.729a12.465,12.465,0,0,0-5.1,10.062h25A12.428,12.428,0,0,0,30.188,4.5ZM18.667,10.417H16.583V8.333h2.083Zm10.417,0H27V8.333h2.083Z" transform="translate(-2)" fill="#fff"/></svg>