<svg xmlns="http://www.w3.org/2000/svg" width="354.745" height="297.727" viewBox="0 0 354.745 297.727"><path d="M286.087,120.3C276.036,56.288,231.175,8,177.372,8,134.655,8,97.629,38.517,79.079,83.083,34.662,89.13,0,136.488,0,194.079c0,61.685,39.687,111.647,88.686,111.647H280.84c40.8,0,73.905-41.682,73.905-93.04C354.745,163.562,324.37,123.741,286.087,120.3ZM280.84,268.511H88.686c-32.666,0-59.124-33.308-59.124-74.432s26.458-74.432,59.124-74.432H99.181c9.682-42.891,40.943-74.432,78.192-74.432,44.934,0,81.3,45.775,81.3,102.344v9.3H280.84c24.463,0,44.343,25.028,44.343,55.824S305.3,268.511,280.84,268.511Z" transform="translate(0 -8)" fill="#fff"/></svg>