<svg xmlns="http://www.w3.org/2000/svg" width="532.758" height="279.123" viewBox="0 0 532.758 279.123"><g transform="translate(6471.278 353.156)"><g transform="translate(-6470.875 -227.538)"><rect width="28" height="28" transform="translate(-0.403 -0.207)" fill="#070707"/><rect width="28" height="28" transform="translate(36.597 -0.207)" fill="#070707"/><rect width="28" height="28" transform="translate(-0.403 36.793)" fill="#070707"/><rect width="28" height="28" transform="translate(36.597 36.793)" fill="#070707"/></g><path d="M71.578,43.171c-17.548,0-33.2,15.656-33.2,33.2,0,16.9,14.505,31.984,31.251,33.082v48.951a1.953,1.953,0,0,0,1.953,1.953h82.034a1.953,1.953,0,0,0,1.953-1.953V76.375a1.953,1.953,0,0,0-1.953-1.953H104.66C103.562,57.677,88.476,43.171,71.578,43.171ZM68.771,47.2c.284-.039.568.039.854,0V58.8H59a97.778,97.778,0,0,1,3.418-10.01A26.859,26.859,0,0,1,68.771,47.2Zm4.761,0a25.763,25.763,0,0,1,6.958,1.465A95.261,95.261,0,0,1,83.908,58.8H73.531ZM57.3,51.228c-.891,2.52-1.664,5.065-2.32,7.569H48.751A32.488,32.488,0,0,1,57.3,51.228Zm28.321,0A32.112,32.112,0,0,1,94.04,58.8h-6.1C87.286,56.275,86.51,53.768,85.617,51.228ZM46.065,62.7H54a73.285,73.285,0,0,0-1.465,11.719H42.4A27.561,27.561,0,0,1,46.065,62.7Zm11.841,0H69.625V74.422H56.441A67.9,67.9,0,0,1,57.906,62.7Zm15.625,0H84.885a70.9,70.9,0,0,1,1.709,11.719H73.531Zm15.259,0h7.935a28.894,28.894,0,0,1,3.662,11.719H90.378A75.647,75.647,0,0,0,88.791,62.7ZM42.4,78.328h10.01a67.156,67.156,0,0,0,1.1,11.719H46.187A27.1,27.1,0,0,1,42.4,78.328Zm13.917,0H69.625V90.047H57.54A63.481,63.481,0,0,1,56.319,78.328Zm17.212,0h78.127V90.047H73.531Zm5.86,3.906a1.953,1.953,0,1,0,1.953,1.953A1.953,1.953,0,0,0,79.391,82.235Zm7.813,0a1.953,1.953,0,1,0,1.953,1.953A1.953,1.953,0,0,0,87.2,82.235Zm7.813,0a1.953,1.953,0,1,0,1.953,1.953A1.953,1.953,0,0,0,95.016,82.235ZM48.995,93.954h5.371c.527,2.149,1.2,4.292,1.953,6.47A32.4,32.4,0,0,1,48.995,93.954Zm9.4,0H69.625v11.231a28.325,28.325,0,0,1-8.057-1.953A76.323,76.323,0,0,1,58.394,93.954Zm15.137,0h78.127v62.5H73.531V107.87a1.954,1.954,0,0,0,0-.244Z" transform="translate(-6094.084 -323.787)" fill="#01579b"/><path d="M138.613,160.048a28.682,28.682,0,0,0-39.839-.006L88.419,170.08l6.636,6.541,10.286-10.007a19.177,19.177,0,0,1,26.634,0,18.029,18.029,0,0,1,0,25.885,19.177,19.177,0,0,1-26.637,0L72.1,160.043a28.683,28.683,0,0,0-39.84,0,27.162,27.162,0,0,0,0,39.013,28.683,28.683,0,0,0,39.842,0L82.428,189.02l-6.643-6.492L65.5,192.495a19.177,19.177,0,0,1-26.634,0,18.028,18.028,0,0,1,0-25.885,19.177,19.177,0,0,1,26.637,0l33.242,32.453a28.683,28.683,0,0,0,39.835,0,27.136,27.136,0,0,0,.037-39.018Z" transform="translate(-6418.669 -283.642)" fill="#01579b" stroke="#01579b" stroke-width="5"/><path d="M-78.23-110.1q-10.084,0-15.3-5.245t-5.216-15.317v-29.375h8.763v29.864q0,6.364,2.99,9.617t8.763,3.252q5.7,0,8.693-3.287t2.99-9.582v-29.864h8.763v29.375q0,10-5.216,15.282T-78.23-110.1Zm30.738-49.937h8.971v49.307h-8.971Z" transform="translate(-5978.794 32.063)"/><path d="M-120.789-110.1q-10.141,0-15.387-5.245t-5.245-15.317v-29.375h8.812v29.864q0,6.364,3.007,9.617t8.812,3.252q5.735,0,8.742-3.287t3.007-9.582v-29.864h8.812v29.375q0,10-5.245,15.282T-120.789-110.1Zm72.178-.629H-59.1l-13.358-18.464-13.428,18.464H-96.38l18.814-25.108-18.114-24.2H-85.19l12.729,17.695,12.8-17.695h10.491l-18.184,24.269Z" transform="translate(-6037.706 32.063)"/><g transform="translate(-6132.665 -352.836)"><path d="M42.069,22.884a2.442,2.442,0,0,1-2.442,2.442H29.86a2.442,2.442,0,0,1-2.442-2.442V18H3V47.3H66.487V18H42.069Z" transform="translate(-0.558 21.069)"/><rect width="5" height="10" transform="translate(31.387 31.09)"/><path d="M53.278,11.767V6.884A4.884,4.884,0,0,0,48.395,2H23.976a4.884,4.884,0,0,0-4.884,4.884v4.884H2V36.185H28.86V31.3A2.442,2.442,0,0,1,31.3,28.86h9.767A2.442,2.442,0,0,1,43.511,31.3v4.884h26.86V11.767Zm-29.3-4.884H48.395v4.884H23.976Z" transform="translate(-2 -2)"/></g><path d="M86.677,35.843C83.632,19.972,70.04,8,53.739,8A33.511,33.511,0,0,0,23.959,26.616C10.5,28.116,0,39.857,0,54.136,0,69.431,12.024,81.818,26.87,81.818H85.087c12.36,0,22.391-10.335,22.391-23.068A22.734,22.734,0,0,0,86.677,35.843Zm-1.59,36.748H26.87A18.185,18.185,0,0,1,8.957,54.136,18.185,18.185,0,0,1,26.87,35.682h3.18a24.766,24.766,0,0,1,23.69-18.455c13.614,0,24.631,11.35,24.631,25.375v2.307h6.717a13.847,13.847,0,0,1,0,27.682Z" transform="translate(-6387.012 -361.156)" fill="#01579b"/><line x2="127.816" transform="translate(-6394.667 -194.774)" fill="none" stroke="#01579b" stroke-width="3" stroke-dasharray="6"/><line x2="118.75" transform="translate(-6154.192 -194.774)" fill="none" stroke="#01579b" stroke-width="3" stroke-dasharray="6"/><path d="M0,0,.947,73.052H75.763" transform="translate(-6340.121 -275.774)" fill="none" stroke="#01579b" stroke-width="3" stroke-dasharray="6"/><path d="M0,58.925.947,0H75.763" transform="translate(-6340.121 -186.897)" fill="none" stroke="#01579b" stroke-width="3" stroke-dasharray="6"/><path d="M58.539,53.75,57.807,0H0" transform="translate(-6156.719 -186.897)" fill="none" stroke="#01579b" stroke-width="3" stroke-dasharray="6"/><path d="M376.077,0l-1.939,76.616H317.632" transform="translate(-6474.258 -279.338)" fill="none" stroke="#01579b" stroke-width="3" stroke-dasharray="6"/><path d="M647.772,168.929a9.717,9.717,0,1,0,8.338,4.723A9.713,9.713,0,0,0,647.772,168.929Z" transform="translate(-6887.36 -377.283)" fill="none" stroke="#01579b" stroke-width="3"/><path d="M678.764,179.114a24.752,24.752,0,0,0,16.977-6.732,5.2,5.2,0,0,0-8.2-6.25,14.648,14.648,0,0,1-8.707,2.853c-6.348,0-15.794-9.651-15.794-9.651L637.924,134.22a24.778,24.778,0,0,0-38.737,15.121,24.764,24.764,0,0,0,24.273,29.773,24.662,24.662,0,0,0,15.3-5.291l4.184-4.183,5.061-5.061-6.978-7.154-5.905,5.905a26.048,26.048,0,0,1-2.532,2.532,14.715,14.715,0,1,1-1.175-24.018l11.848,11.848.542.542.207.207,0,0,7.013,7.119.909.988,7.938,7.8a24.679,24.679,0,0,0,18.892,8.759Z" transform="translate(-6863.048 -352.972)" fill="none" stroke="#01579b" stroke-width="3"/><path d="M752.86,149.341l3.573-3.573,3.513-3.513a14.721,14.721,0,0,1,22.37,7.085c.012.034.025.068.036.1H761.966v9.79l17.354.032h2.971l0,.005,10.37.019a.14.14,0,0,0,.005-.024,25.01,25.01,0,0,0,.007-9.822l-.02-.1a24.781,24.781,0,0,0-38.976-14.946l-.006,0-5.229,5.229,0,.005-4.634,4.632,7.054,7.078Z" transform="translate(-6952.662 -352.972)" fill="none" stroke="#01579b" stroke-width="3"/></g></svg>