<svg xmlns="http://www.w3.org/2000/svg" width="50" height="23.089" viewBox="0 0 50 23.089"><path d="M-95.41-80.839h3.981v15.573H-95.41Zm4.172-7.229v3.917h-4.395v-3.917ZM-76.97-64.979a11.092,11.092,0,0,1-5.685-1.4,9.373,9.373,0,0,1-3.71-4.013,13.512,13.512,0,0,1-1.306-6.115,13.551,13.551,0,0,1,1.29-6.1,9.265,9.265,0,0,1,3.71-4,11.179,11.179,0,0,1,5.7-1.4,11.092,11.092,0,0,1,5.685,1.4,9.294,9.294,0,0,1,3.694,4,13.551,13.551,0,0,1,1.29,6.1,13.512,13.512,0,0,1-1.306,6.115,9.373,9.373,0,0,1-3.71,4.013A11.027,11.027,0,0,1-76.97-64.979Zm0-3.28a5.875,5.875,0,0,0,4.825-2.134,9.471,9.471,0,0,0,1.736-6.115,9.4,9.4,0,0,0-1.736-6.1,5.894,5.894,0,0,0-4.825-2.118,5.93,5.93,0,0,0-4.857,2.118,9.4,9.4,0,0,0-1.736,6.1,9.471,9.471,0,0,0,1.736,6.115A5.91,5.91,0,0,0-76.97-68.259Zm22.42,3.28a16.271,16.271,0,0,1-4.841-.7,11.22,11.22,0,0,1-3.822-1.975l1.369-2.994a11.237,11.237,0,0,0,3.424,1.815,12.788,12.788,0,0,0,3.9.573,6.607,6.607,0,0,0,3.583-.812,2.565,2.565,0,0,0,1.258-2.277,2.122,2.122,0,0,0-1.162-1.943,14.857,14.857,0,0,0-3.869-1.274,22.921,22.921,0,0,1-4.554-1.4A6.43,6.43,0,0,1-61.906-78a5.273,5.273,0,0,1-.892-3.153,6.053,6.053,0,0,1,1.083-3.535,7.131,7.131,0,0,1,3.057-2.436A11.136,11.136,0,0,1-54.1-88a14.011,14.011,0,0,1,4.49.717,9.764,9.764,0,0,1,3.5,1.959l-1.369,2.994A10.372,10.372,0,0,0-54.1-84.724a5.9,5.9,0,0,0-3.424.876,2.8,2.8,0,0,0-1.258,2.436,2.235,2.235,0,0,0,1.115,2.006,13.064,13.064,0,0,0,3.79,1.306,25.5,25.5,0,0,1,4.6,1.417,6.825,6.825,0,0,1,2.707,1.99,4.837,4.837,0,0,1,.939,3.057A5.95,5.95,0,0,1-46.7-68.116a6.718,6.718,0,0,1-3.089,2.325A12.736,12.736,0,0,1-54.55-64.979Z" transform="translate(95.633 88.068)" fill="#fff"/></svg>