<svg xmlns="http://www.w3.org/2000/svg" width="49.871" height="49.875" viewBox="0 0 49.871 49.875"><g transform="translate(-0.003)"><path d="M31.636,10.251A15.113,15.113,0,0,0,6.486,25.328a.741.741,0,0,0,.044.125,15.113,15.113,0,1,0,25.107-15.2ZM11.325,11.319a13.607,13.607,0,0,1,19.243,0c.034.034.063.072.1.107l-3.349,1.055a2.215,2.215,0,1,0-3.141,3.072L21.658,22.4a2.108,2.108,0,0,0-1.41.208l-5.01-4.175c0-.04.012-.078.012-.118a2.223,2.223,0,0,0-4.447,0c0,.062.014.119.018.179L7.564,23.341A13.6,13.6,0,0,1,11.325,11.319Zm14.233,3.218a.711.711,0,1,1,.711-.711A.712.712,0,0,1,25.558,14.538ZM21.249,23.87a.693.693,0,0,1,.317.083.881.881,0,0,0,.1.067.7.7,0,0,1,.3.561.711.711,0,1,1-.711-.711Zm-8.933-5.555a.711.711,0,1,1,.711.711A.712.712,0,0,1,12.316,18.316ZM30.568,30.562A13.577,13.577,0,0,1,8.073,25.3l3.546-5.276a2.2,2.2,0,0,0,2.989-.144l4.6,3.833a2.223,2.223,0,1,0,4.267.874,2.2,2.2,0,0,0-.5-1.384l2.63-7.154a2.217,2.217,0,0,0,2.166-2.122l3.967-1.249a13.579,13.579,0,0,1-1.17,17.889Z" transform="translate(-1.288 -1.285)" fill="#fff"/><path d="M47.454,40.011,36.338,30.048a19.721,19.721,0,0,0,.136-20.566l6.218-1.96-.476.839a.756.756,0,1,0,1.315.745L44.96,6.59a.415.415,0,0,0,.016-.053.756.756,0,0,0,.04-.123.7.7,0,0,0,.032-.168.582.582,0,0,0-.01-.1.667.667,0,0,0-.016-.157A.458.458,0,0,0,45,5.948c-.006-.015-.016-.026-.023-.041a.7.7,0,0,0-.144-.215l0,0a.684.684,0,0,0-.09-.068.8.8,0,0,0-.113-.086L42.012,4.3a.756.756,0,1,0-.648,1.365l.881.418L35.608,8.172a19.739,19.739,0,0,0-2.05-2.413A19.659,19.659,0,0,0,2.07,28.44L.4,30.633a.755.755,0,0,0,.144,1.059A.754.754,0,0,0,1.6,31.547l1.265-1.662a19.68,19.68,0,0,0,27.183,6.449L40.02,47.449a6.61,6.61,0,0,0,4.644,2.422c.047,0,.093,0,.138,0a5.251,5.251,0,0,0,5.07-5.22A6.61,6.61,0,0,0,47.454,40.011ZM6.829,32.486a18.193,18.193,0,0,1-3.2-4.312c-.009-.016-.015-.033-.024-.049a18.164,18.164,0,1,1,3.224,4.361ZM47.266,47.27a3.354,3.354,0,0,1-2.56,1.091,5.213,5.213,0,0,1-3.561-1.919l-9.828-10.96a19.756,19.756,0,0,0,4.169-4.17l10.961,9.825A5.2,5.2,0,0,1,48.361,44.7,3.418,3.418,0,0,1,47.266,47.27Z" fill="#fff"/></g></svg>