<svg xmlns="http://www.w3.org/2000/svg" width="993" height="807.966" viewBox="0 0 993 807.966"><g transform="translate(-36 -2364)"><text transform="translate(148 2545.966)" fill="#01579b" font-size="37" font-family="NunitoSans-Regular, Nunito Sans"><tspan x="-111.056" y="0">Requirement </tspan></text><text transform="translate(519 2850.966)" fill="#01579b" font-size="37" font-family="NunitoSans-Regular, Nunito Sans"><tspan x="-59.256" y="0">Build &amp;</tspan><tspan x="-64.917" y="50">Release</tspan></text><text transform="translate(145 3158.966)" fill="#01579b" font-size="37" font-family="NunitoSans-Regular, Nunito Sans"><tspan x="-98.068" y="0">Quality Test</tspan></text><text transform="translate(529 2545.966)" fill="#01579b" font-size="37" font-family="NunitoSans-Regular, Nunito Sans"><tspan x="-69.449" y="0">Analysis</tspan></text><text transform="translate(145 2847.966)" fill="#01579b" font-size="34" font-family="NunitoSans-Regular, Nunito Sans"><tspan x="-101.167" y="0">Development</tspan></text><text transform="translate(531 3158.966)" fill="#01579b" font-size="37" font-family="NunitoSans-Regular, Nunito Sans"><tspan x="-95.442" y="0">Submission</tspan></text><g transform="translate(75.169 2364)"><circle cx="1.779" cy="1.779" r="1.779" transform="translate(0 110.328)" fill="#01579b"/><path d="M10.449,146.759H7.779a1.779,1.779,0,0,0,0,3.559h2.669a1.779,1.779,0,0,0,0-3.559Z" transform="translate(-0.662 -36.431)" fill="#01579b"/><path d="M110.088,142.3H102.7a1.785,1.785,0,0,0,0,3.559h7.392a1.785,1.785,0,0,0,0-3.559Zm-53.384,0H49.313a1.785,1.785,0,0,0,0,3.559H56.7a1.785,1.785,0,0,0,0-3.559Zm40.79,0H61.906a1.779,1.779,0,1,0,0,3.559H76.088v1.779H69.024a1.779,1.779,0,1,0,0,3.559H91.267a1.779,1.779,0,1,0,0-3.559H83.313v-1.779H97.495a1.779,1.779,0,1,0,0-3.559Zm16.06-83.324a7.715,7.715,0,0,0,2.939.577,9.167,9.167,0,0,0,8.249-5.717,9.335,9.335,0,0,0,.119-7.149,7.853,7.853,0,0,0-4.281-4.343c-4.227-1.734-9.245.571-11.188,5.139a9.336,9.336,0,0,0-.119,7.15,7.852,7.852,0,0,0,4.281,4.343Zm-.887-10.1a5.594,5.594,0,0,1,4.951-3.556,4.219,4.219,0,0,1,1.61.315,4.32,4.32,0,0,1,2.341,2.4,5.757,5.757,0,0,1-.1,4.405c-1.186,2.786-4.13,4.24-6.562,3.241a4.319,4.319,0,0,1-2.341-2.4A5.76,5.76,0,0,1,112.668,48.875ZM47.427,68.087l-1.469,1.971a1.779,1.779,0,0,0,2.853,2.127l1.357-1.821a8.937,8.937,0,0,0,2.247.9,7.548,7.548,0,0,0,1.777.212A6.352,6.352,0,0,0,60.4,67.3c1.309-3.7-.812-6.608-2.516-8.942-1.338-1.833-2.494-3.417-2.3-5.168A3.627,3.627,0,0,1,57.752,50.2c1.883-.712,4.128.555,5.516,2.123a5.752,5.752,0,0,1,1,5.452,1.78,1.78,0,0,0,3.312,1.3,9.205,9.205,0,0,0-1.643-9.11c-.106-.119-.219-.238-.333-.357a1.738,1.738,0,0,0,.144-.152l1.63-2.187a1.779,1.779,0,0,0-2.853-2.126l-1.63,2.187a1.741,1.741,0,0,0-.092.154A7.526,7.526,0,0,0,56.5,46.87a7.162,7.162,0,0,0-4.442,5.921c-.355,3.129,1.4,5.54,2.957,7.667,1.686,2.309,2.686,3.818,2.037,5.653a3.069,3.069,0,0,1-3.791,1.7,6.507,6.507,0,0,1-4.421-7.989A1.779,1.779,0,1,0,45.458,58.7a9.722,9.722,0,0,0,.831,7.729A10.564,10.564,0,0,0,47.427,68.087Z" transform="translate(-4.964 -24.852)" fill="#01579b"/><path d="M159.449,146.759h-2.669a1.779,1.779,0,0,0,0,3.559h2.669a1.779,1.779,0,0,0,0-3.559Z" transform="translate(-17.093 -36.431)" fill="#01579b"/><circle cx="1.779" cy="1.779" r="1.779" transform="translate(145.915 110.328)" fill="#01579b"/><path d="M133.333,133.084V127.6a1.779,1.779,0,0,0-1.432-1.718l-6.9-3.109,5.07-.918a4.016,4.016,0,0,0,2.753-1.692,5.059,5.059,0,0,0,.191-3.975c-.49-1.833-2.393-2.52-3.9-2.773l-1.617-21.3c0-.056-.011-.113-.021-.169a3.868,3.868,0,0,0-.354-1.036c-.091-.182-.214-.429-6.206-8.3l-1.317-10.7,11.433-8.439c2.07-1.412,2.84-3.584,1.894-5.448l-.847-1.562-.186-.277c-1.388-1.7-3.968-1.858-6.159-.361l-7.57,5.346q-.157-.57-.363-1.11a12.094,12.094,0,0,1-3.475.891,7.534,7.534,0,0,1,.562,1.817l2.554,20.754a1.781,1.781,0,0,0,.35.861c2.143,2.814,5.6,7.378,6.169,8.18l1.717,22.627a1.784,1.784,0,0,0,1.756,1.645,5.558,5.558,0,0,1,2.183.436,3.984,3.984,0,0,1,.152.987,2.274,2.274,0,0,1-.381.109l-6.542,1.18-5.065-25.5a3.584,3.584,0,0,0-1.225-2.059c-.03-.024-.062-.047-.094-.069L104.954,83.99a2.089,2.089,0,0,1-.464-.821l-2.916-16.746,2.849-1.193a1.779,1.779,0,1,0-1.375-3.283L88.854,67.893a1.928,1.928,0,0,1-1.121.227l-.662-1.233a1.917,1.917,0,0,1,1.112-1.09l17.427-7.715a11.393,11.393,0,0,1-1.284-1.378l0,0a11.833,11.833,0,0,1-.813-1.177c-.065-.108-.136-.211-.2-.321l-16.6,7.35c-1.992.919-3.794,3.02-3.042,5.463l1,1.923A3.63,3.63,0,0,0,87.936,71.7a5.633,5.633,0,0,0,2.351-.546l7.92-3.317,2.777,15.95a4.6,4.6,0,0,0,.3.983l-4,5.635L81.531,96c-.036.013-.072.028-.107.043-.154.066-.328.129-.506.193-.947.345-2.245.817-2.645,2.122a2.5,2.5,0,0,0,.412,2.212l1.194,1.851L41.145,84.959a4.56,4.56,0,0,0,.808-.833l1.858-2.548a26.475,26.475,0,0,0,6.365,1.552l.484,3.112a5.088,5.088,0,0,0,5.158,4.137,5.843,5.843,0,0,0,.889-.069l3.519-.548a5.559,5.559,0,0,0,3.449-1.931,4.738,4.738,0,0,0,1.074-3.78l-.484-3.113a26.434,26.434,0,0,0,5.595-3.412L72.4,79.388a5.172,5.172,0,0,0,7.15-1.4l2.1-2.881a5.17,5.17,0,0,0-.844-7.235l-2.547-1.86a26.538,26.538,0,0,0,1.551-6.366l3.111-.484A5.164,5.164,0,0,0,87,53.122L86.45,49.6a5.17,5.17,0,0,0-5.713-4.521l-3.111.484a26.512,26.512,0,0,0-3.412-5.6l1.861-2.546a5.166,5.166,0,0,0-1.4-7.147L71.8,28.168a5.166,5.166,0,0,0-7.234.845L62.705,31.56a26.449,26.449,0,0,0-6.367-1.55L55.854,26.9a4.737,4.737,0,0,0-2.173-3.277,5.546,5.546,0,0,0-3.871-.791l-3.519.548a5.561,5.561,0,0,0-3.449,1.929,4.737,4.737,0,0,0-1.075,3.783l.484,3.113a26.46,26.46,0,0,0-5.592,3.411l-2.544-1.861a5.169,5.169,0,0,0-7.152,1.4l-2.1,2.879a5.552,5.552,0,0,0-1.075,3.8A4.74,4.74,0,0,0,25.7,45.264l2.548,1.859a26.494,26.494,0,0,0-1.55,6.367l-3.113.484a4.739,4.739,0,0,0-3.277,2.171,5.557,5.557,0,0,0-.791,3.872l.548,3.522a5.165,5.165,0,0,0,5.712,4.52l3.113-.484A26.56,26.56,0,0,0,32.3,73.168l-1.863,2.547a4.792,4.792,0,0,0-.711,4.1L21.69,76.187a1.926,1.926,0,0,0-.408-.044A1.8,1.8,0,0,0,19.449,77.9v55.18H17.027a1.795,1.795,0,1,0,0,3.559H135.754A1.795,1.795,0,0,0,137.5,133.9ZM118.764,65.1l9-6.359a1.662,1.662,0,0,1,1.315-.354l.691,1.26c0,.1-.183.5-.8.918L119.1,67.852ZM114.3,94.738l5.063,25.487-28.52-12.86a3.847,3.847,0,0,0,.986-4.4l8.208-1.649a1.783,1.783,0,0,0,.586-.231l12.064-7.462Zm-31.524,4.6L99,93.565a1.78,1.78,0,0,0,.854-.646l3.873-5.449,5.747,3.953L99.018,97.894,88.735,99.959a1.779,1.779,0,0,0-1.145,2.708l.285.441c.9,1.345.7,1.527.464,1.737a1.946,1.946,0,0,1-1.432.649,3.156,3.156,0,0,1-1.8-1.536L82.253,99.54c.182-.066.358-.133.52-.2Zm-51.12-34.38a1.781,1.781,0,0,0-1.933-1.115l-4.489.7c-.74.113-1.5-.595-1.648-1.552l-.548-3.522a2.031,2.031,0,0,1,.267-1.4,1.249,1.249,0,0,1,.832-.582l4.489-.7a1.779,1.779,0,0,0,1.5-1.65,23,23,0,0,1,1.927-7.916,1.779,1.779,0,0,0-.579-2.156L27.8,42.39a1.248,1.248,0,0,1-.472-.9,2,2,0,0,1,.406-1.364l2.1-2.879a1.65,1.65,0,0,1,2.177-.624l3.669,2.684a1.777,1.777,0,0,0,2.229-.1,22.975,22.975,0,0,1,6.954-4.24,1.779,1.779,0,0,0,1.116-1.933l-.7-4.489a1.249,1.249,0,0,1,.3-.969,2.04,2.04,0,0,1,1.253-.68l3.519-.548a2.033,2.033,0,0,1,1.4.267,1.25,1.25,0,0,1,.582.832l.7,4.49a1.779,1.779,0,0,0,1.651,1.5A22.949,22.949,0,0,1,62.6,35.363a1.78,1.78,0,0,0,2.156-.579l2.682-3.673a1.65,1.65,0,0,1,2.262-.069l2.879,2.106a1.649,1.649,0,0,1,.623,2.175l-2.683,3.67a1.78,1.78,0,0,0,.1,2.23,23,23,0,0,1,4.241,6.956A1.774,1.774,0,0,0,76.8,49.294l4.487-.7c.74-.118,1.5.6,1.649,1.552l.548,3.522a1.649,1.649,0,0,1-1.1,1.979l-4.487.7a1.779,1.779,0,0,0-1.5,1.65,23.032,23.032,0,0,1-1.928,7.916,1.78,1.78,0,0,0,.579,2.155l3.671,2.68a1.652,1.652,0,0,1,.069,2.264l-2.1,2.877a1.654,1.654,0,0,1-2.177.626l-3.671-2.687a1.778,1.778,0,0,0-2.231.1,22.957,22.957,0,0,1-6.955,4.242,1.779,1.779,0,0,0-1.115,1.933l.7,4.489a1.252,1.252,0,0,1-.3.968,2.035,2.035,0,0,1-1.251.679l-3.519.548a1.647,1.647,0,0,1-1.983-1.1l-.7-4.489a1.779,1.779,0,0,0-1.65-1.5,22.96,22.96,0,0,1-7.913-1.929,1.78,1.78,0,0,0-2.158.579l-2.679,3.673a1.648,1.648,0,0,1-2.263.068l-2.879-2.1a1.651,1.651,0,0,1-.625-2.176L36,74.145a1.779,1.779,0,0,0-.1-2.23,23.036,23.036,0,0,1-4.241-6.956Zm91,68.125v-2.669a1.779,1.779,0,0,0-3.559,0v2.669h-8.9v-2.669a1.779,1.779,0,0,0-3.559,0v2.669h-8.9v-2.669a1.779,1.779,0,0,0-3.559,0v2.669h-8.9v-2.669a1.779,1.779,0,0,0-1.779-1.779c-.983,0-1.779.8-1.779,4.449h-8.9v-2.669a1.779,1.779,0,0,0-3.559,0v2.669h-8.9v-2.669a1.779,1.779,0,0,0-1.779-1.779c-.983,0-1.779.8-1.779,4.449h-8.9v-2.669a1.779,1.779,0,0,0-3.559,0v2.669h-8.9v-2.669a1.779,1.779,0,0,0-1.779-1.779c-.983,0-1.779.8-1.779,4.449h-8.9v-52.4l106.766,48.141v4.259Z" transform="translate(-1.654 -22.756)" fill="#01579b"/></g><path d="M4.073,1.988A2.045,2.045,0,0,0,2.06,4.057V113.932a2.045,2.045,0,0,0,.583,2.036,2.045,2.045,0,0,0,2,.551H114.515a2.045,2.045,0,1,0,0-4.089H6.149V4.057A2.045,2.045,0,0,0,4.073,1.988ZM110.458,26.628a6.165,6.165,0,0,0-6.134,6.134,6.015,6.015,0,0,0,.775,2.9L76,67.992a6,6,0,0,0-4.976.144L58.719,55.828a6,6,0,0,0,.623-2.62,6.134,6.134,0,1,0-12.268,0,6.015,6.015,0,0,0,.463,2.3L19.344,80.579a6.027,6.027,0,0,0-2.939-.79,6.134,6.134,0,1,0,6.134,6.134,6.052,6.052,0,0,0-.463-2.3l28.2-25.071a5.823,5.823,0,0,0,5.551.168L68.143,71.035a6.038,6.038,0,0,0-.623,2.62,6.134,6.134,0,1,0,12.268,0,6.042,6.042,0,0,0-.775-2.907l29.1-32.331a6.06,6.06,0,0,0,2.34.479,6.134,6.134,0,0,0,0-12.268Zm0,4.089a2.045,2.045,0,1,1-2.045,2.045A2.014,2.014,0,0,1,110.458,30.717ZM53.208,51.164a2.045,2.045,0,1,1-1.35,3.562,2.044,2.044,0,0,0-.24-.272,2.015,2.015,0,0,1,1.59-3.291ZM73.654,71.61a2.045,2.045,0,1,1-2.045,2.045A2.014,2.014,0,0,1,73.654,71.61ZM16.4,83.878a2.029,2.029,0,0,1,1.454.583,2.054,2.054,0,0,1,.591,1.461A2.045,2.045,0,1,1,16.4,83.878Z" transform="translate(472.221 2365.481)" fill="#01579b" fill-rule="evenodd"/><line x2="159.616" transform="translate(278.159 2448.573)" fill="none" stroke="#01579b" stroke-width="2" stroke-dasharray="5 3"/><line x2="159.616" transform="translate(278.159 2714.395)" fill="none" stroke="#01579b" stroke-width="2" stroke-dasharray="5 3"/><line x2="159.616" transform="translate(278.159 3056.856)" fill="none" stroke="#01579b" stroke-width="2" stroke-dasharray="5 3"/><line x2="159.616" transform="translate(630.354 2448.573)" fill="none" stroke="#01579b" stroke-width="2" stroke-dasharray="5 3"/><line y2="58.506" transform="translate(914.887 2576.96)" fill="none" stroke="#01579b" stroke-width="2" stroke-dasharray="5 3"/><line y2="56.925" transform="translate(144.567 2913.541)" fill="none" stroke="#01579b" stroke-width="2" stroke-dasharray="5 3"/><line x2="159.616" transform="translate(630.354 2714.395)" fill="none" stroke="#01579b" stroke-width="2" stroke-dasharray="5 3"/><line x2="159.616" transform="translate(630.354 3056.856)" fill="none" stroke="#01579b" stroke-width="2" stroke-dasharray="5 3"/><g transform="translate(102.928 2991.887)"><path d="M166.589,47.12A10.118,10.118,0,0,0,156.469,37H85.12A10.118,10.118,0,0,0,75,47.12V137.7a10.118,10.118,0,0,0,10.12,10.12h71.349a10.118,10.118,0,0,0,10.12-10.12Zm-5.06,90.577a5.075,5.075,0,0,1-5.06,5.06H85.12a5.075,5.075,0,0,1-5.06-5.06V47.12a5.075,5.075,0,0,1,5.06-5.06h71.349a5.075,5.075,0,0,1,5.06,5.06Z" transform="translate(-75 -37)" fill="#01579b"/><path d="M150.241,91.53a2.537,2.537,0,0,0-2.53-2.53H132.53A2.537,2.537,0,0,0,130,91.53v15.181a2.537,2.537,0,0,0,2.53,2.53h15.181a2.537,2.537,0,0,0,2.53-2.53ZM135.06,94.06h10.12v10.12H135.06Z" transform="translate(-116.084 -75.844)" fill="#01579b"/><path d="M226.53,104.06h19.735a2.53,2.53,0,1,0,0-5.06H226.53a2.53,2.53,0,1,0,0,5.06Z" transform="translate(-186.302 -83.313)" fill="#01579b"/><path d="M261.445,139H226.53a2.53,2.53,0,1,0,0,5.06h34.915a2.53,2.53,0,0,0,0-5.06Z" transform="translate(-186.302 -113.193)" fill="#01579b"/><path d="M150.241,201.53a2.537,2.537,0,0,0-2.53-2.53H132.53a2.537,2.537,0,0,0-2.53,2.53v15.181a2.537,2.537,0,0,0,2.53,2.53h15.181a2.537,2.537,0,0,0,2.53-2.53Zm-15.181,2.53h10.12v10.12H135.06Z" transform="translate(-116.084 -158.012)" fill="#01579b"/><path d="M226.53,214.06h19.735a2.53,2.53,0,1,0,0-5.06H226.53a2.53,2.53,0,1,0,0,5.06Z" transform="translate(-186.302 -165.482)" fill="#01579b"/><path d="M261.445,249H226.53a2.53,2.53,0,1,0,0,5.06h34.915a2.53,2.53,0,0,0,0-5.06Z" transform="translate(-186.302 -195.362)" fill="#01579b"/><path d="M126.53,324.06h29.855a2.53,2.53,0,1,0,0-5.06H126.53a2.53,2.53,0,1,0,0,5.06Z" transform="translate(-111.603 -247.651)" fill="#01579b"/><path d="M186.746,359H126.53a2.53,2.53,0,0,0,0,5.06h60.216a2.53,2.53,0,0,0,0-5.06Zm0,10.12H126.53a2.53,2.53,0,0,0,0,5.06h60.216a2.53,2.53,0,0,0,0-5.06Z" transform="translate(-111.603 -277.531)" fill="#01579b"/></g><g transform="translate(488.089 3015.897)"><path d="M89.424,2.51s-32.545-.076-57.917,25.3a27.981,27.981,0,0,0-3.117,3.759c-4.5-.359-11.392-.228-14.908,3.295C5.255,43.087,2.511,56.8,2.511,56.8L21.7,54.062v5.3L32.573,70.235h5.3L35.128,89.427s13.715-2.744,21.943-10.972c3.519-3.519,3.65-10.41,3.295-14.908a27.709,27.709,0,0,0,3.759-3.117C89.5,35.059,89.424,2.51,89.424,2.51ZM53.251,31.434A7.249,7.249,0,1,1,60.5,38.519,7.249,7.249,0,0,1,53.251,31.434Z" transform="translate(-2.511 -2.51)" fill="#01579b"/><path d="M18.667,28.909c-3.331,3.331-7.554,1.145-7.554,1.145S9.054,25.705,12.258,22.5a4.276,4.276,0,0,1,.935-.62l-2.229-2.229a8.235,8.235,0,0,0-3.19,1.957c-3.255,3.255-3.066,14.85-3.066,14.85s11.6.185,14.85-3.066a8.235,8.235,0,0,0,1.957-3.19L19.29,27.978a4.5,4.5,0,0,1-.623.932Z" transform="translate(3.251 42.48)" fill="#01579b"/></g><g transform="translate(99.459 2656.461)"><path d="M131.778,18.753A2.449,2.449,0,0,0,130.031,18H78.23A12.261,12.261,0,0,0,66,30.2v91.492a12.261,12.261,0,0,0,12.23,12.2h68.063a12.26,12.26,0,0,0,12.23-12.2V47.25a2.478,2.478,0,0,0-.716-1.7Zm.692,7.714,17.8,18.315H134.9a2.407,2.407,0,0,1-2.43-2.382Zm13.823,102.56H78.23a7.385,7.385,0,0,1-7.36-7.333V30.2a7.386,7.386,0,0,1,7.36-7.333H127.6V42.38a7.28,7.28,0,0,0,7.288,7.272h18.765v72.042A7.385,7.385,0,0,1,146.293,129.028Z" transform="translate(-66 -18)" fill="#01579b"/><path d="M186.3,400h-56.05a2.435,2.435,0,0,0,0,4.87H186.3a2.435,2.435,0,1,0,0-4.87Z" transform="translate(-112.768 -306.99)" fill="#01579b"/><path d="M130.255,350.87h33.556a2.435,2.435,0,0,0,0-4.87H130.255a2.435,2.435,0,0,0,0,4.87Z" transform="translate(-112.768 -266.138)" fill="#01579b"/><path d="M132.251,147.649l3.4.326a20.942,20.942,0,0,0,1.583,3.735l-2.128,2.578a2.435,2.435,0,0,0,.157,3.275l4.821,4.821a2.435,2.435,0,0,0,3.276.154l2.588-2.143a21.2,21.2,0,0,0,3.725,1.576l.326,3.414a2.465,2.465,0,0,0,2.424,2.235h6.833a2.465,2.465,0,0,0,2.424-2.236l.325-3.394a20.918,20.918,0,0,0,3.736-1.579l2.578,2.13a2.435,2.435,0,0,0,3.275-.156l4.82-4.821a2.435,2.435,0,0,0,.154-3.275l-2.143-2.588A21.187,21.187,0,0,0,176,147.973l3.37-.324a2.479,2.479,0,0,0,2.248-2.423v-6.833a2.479,2.479,0,0,0-2.251-2.424l-3.4-.325a20.943,20.943,0,0,0-1.583-3.736l2.128-2.577a2.435,2.435,0,0,0-.146-3.263l-4.76-4.821a2.435,2.435,0,0,0-3.287-.165l-2.588,2.143A21.2,21.2,0,0,0,162,121.649l-.326-3.414A2.466,2.466,0,0,0,159.256,116h-6.833A2.466,2.466,0,0,0,150,118.236l-.326,3.394a20.933,20.933,0,0,0-3.735,1.579l-2.577-2.13a2.435,2.435,0,0,0-3.275.156l-4.819,4.821a2.435,2.435,0,0,0-.153,3.275l2.143,2.588a21.218,21.218,0,0,0-1.576,3.725l-3.429.326A2.479,2.479,0,0,0,130,138.393v6.833A2.479,2.479,0,0,0,132.251,147.649Zm2.618-7.045,2.912-.276a2.463,2.463,0,0,0,2.171-1.909,16.426,16.426,0,0,1,2.3-5.417,2.435,2.435,0,0,0-.165-2.873l-1.816-2.2,1.686-1.685,2.2,1.819a2.435,2.435,0,0,0,2.9.151,15.842,15.842,0,0,1,5.387-2.269,2.475,2.475,0,0,0,1.909-2.181l.276-2.9h2.41l.276,2.9a2.455,2.455,0,0,0,1.909,2.164,16.416,16.416,0,0,1,5.417,2.3,2.435,2.435,0,0,0,2.873-.166l2.186-1.808,1.644,1.666-1.829,2.209a2.434,2.434,0,0,0-.151,2.9,15.842,15.842,0,0,1,2.269,5.387,2.492,2.492,0,0,0,2.2,1.909l2.912.276v2.412l-2.854.274a2.464,2.464,0,0,0-2.168,1.909,16.414,16.414,0,0,1-2.3,5.417,2.435,2.435,0,0,0,.164,2.873l1.816,2.2-1.686,1.685-2.2-1.82a2.435,2.435,0,0,0-2.9-.151,15.838,15.838,0,0,1-5.387,2.269,2.475,2.475,0,0,0-1.909,2.181l-.276,2.9h-2.411l-.276-2.9a2.454,2.454,0,0,0-1.909-2.164,16.414,16.414,0,0,1-5.417-2.3,2.435,2.435,0,0,0-2.873.166l-2.2,1.817-1.684-1.685,1.819-2.2a2.434,2.434,0,0,0,.15-2.9,15.838,15.838,0,0,1-2.269-5.387,2.493,2.493,0,0,0-2.2-1.909l-2.912-.276Z" transform="translate(-114.417 -92.139)" fill="#01579b"/><path d="M203.128,199.623A10.62,10.62,0,1,0,192.508,189,10.62,10.62,0,0,0,203.128,199.623Zm0-16.37a5.75,5.75,0,1,1-5.75,5.75A5.75,5.75,0,0,1,203.128,183.253Z" transform="translate(-161.706 -139.333)" fill="#01579b"/></g><g transform="translate(470.739 2661.722)"><path d="M146.054,29.158a1.494,1.494,0,0,0-1.432-1.536H113.893V24.43H125.93a1.374,1.374,0,0,0,1.465-1.36V15.276A8.284,8.284,0,0,0,119.137,7H70.151A7.905,7.905,0,0,0,62.2,14.845l-.069,12.776h-20.7A1.493,1.493,0,0,0,40,29.158V111.5a1.508,1.508,0,0,0,1.431,1.553H77.4L73.67,126.312H67.142a1.473,1.473,0,1,0,0,2.946H118.91a1.473,1.473,0,1,0,0-2.946h-6.528l-3.734-13.257h35.974a1.509,1.509,0,0,0,1.432-1.553V95.877h0V92.931h0ZM98.731,67.932a13.707,13.707,0,1,1,13.707,13.707A13.707,13.707,0,0,1,98.731,67.932ZM119.124,9.945h.01A5.342,5.342,0,0,1,124.45,15.3v6.183H113.893V15.3A5.258,5.258,0,0,1,119.1,9.945ZM65.142,14.885a4.984,4.984,0,0,1,5.01-4.939h42.635a8.146,8.146,0,0,0-1.839,5.355V51.357a14.687,14.687,0,0,0-3.7.774,1.587,1.587,0,0,0-1.116-.451H69.524a1.473,1.473,0,1,0,0,2.946h32.921a18.169,18.169,0,0,0-3.252,3.191H69.524a1.473,1.473,0,1,0,0,2.946h27.87a18.828,18.828,0,0,0-1.143,3.191H69.524a1.473,1.473,0,1,0,0,2.946h26.29c-.018.491-.029.672-.029.993a16.688,16.688,0,0,0,.895,5.392c-11.937,0-27.116,0-31.854,0Zm-22.2,15.683H62.11l-.238,44.167A1.51,1.51,0,0,0,62.3,75.8a1.48,1.48,0,0,0,1.044.442s20.222.007,34.676.007a16.668,16.668,0,1,0,15.873-24.907V30.567h29.213V92.924H42.944Zm66.378,95.745H76.73l3.734-13.257h25.124Zm33.786-16.2H42.944V95.87H143.108Z" transform="translate(-39.997 -6.999)" fill="#01579b"/><path d="M192.337,66.04A13.636,13.636,0,1,0,178.7,52.4,13.636,13.636,0,0,0,192.337,66.04Zm0-24.325A10.69,10.69,0,1,1,181.646,52.4,10.689,10.689,0,0,1,192.337,41.714Z" transform="translate(-144.648 -30.969)" fill="#01579b"/><path d="M173.9,72.262a1.379,1.379,0,0,1-1.378-1.378,1.473,1.473,0,0,0-2.946,0,4.327,4.327,0,0,0,2.545,3.936v.628a1.473,1.473,0,1,0,2.946,0v-.405a4.321,4.321,0,0,0-1.167-8.482,1.378,1.378,0,1,1,1.378-1.378,1.473,1.473,0,1,0,2.946,0,4.328,4.328,0,0,0-2.911-4.083v-.627a1.473,1.473,0,1,0-2.946,0v.672a4.321,4.321,0,0,0,1.533,8.361,1.378,1.378,0,0,1,0,2.755ZM155.741,87.723h36.612a1.473,1.473,0,1,0,0-2.946H155.741a1.473,1.473,0,0,0,0,2.946Zm40.378,23.868a1.469,1.469,0,0,0,1.043.436h0a1.472,1.472,0,0,0,1.042-.431l6.779-6.778a1.473,1.473,0,1,0-2.083-2.083l-5.732,5.732-2.757-2.785a1.473,1.473,0,1,0-2.093,2.073Z" transform="translate(-126.215 -46.234)" fill="#01579b"/></g><text transform="translate(911 2543.966)" fill="#01579b" font-size="35" font-family="NunitoSans-Regular, Nunito Sans"><tspan x="-54.81" y="0">Design</tspan></text><g transform="translate(845.488 2374.41)"><path d="M1.135,113.82l11.984,6.537a2.181,2.181,0,0,0,2.087,0l11.984-6.537a2.179,2.179,0,0,0,1.135-1.913V98.833a2.179,2.179,0,0,0-1.135-1.913L15.207,90.383a2.177,2.177,0,0,0-2.087,0L1.135,96.92A2.179,2.179,0,0,0,0,98.833v13.074a2.179,2.179,0,0,0,1.135,1.913ZM55.564,98.833v13.074A2.179,2.179,0,0,0,56.7,113.82l11.984,6.537a2.181,2.181,0,0,0,2.087,0l11.984-6.537a2.179,2.179,0,0,0,1.135-1.913V98.833a2.179,2.179,0,0,0-1.135-1.913L70.771,90.383a2.177,2.177,0,0,0-2.087,0L56.7,96.92A2.179,2.179,0,0,0,55.564,98.833ZM138.32,96.92l-11.984-6.537a2.177,2.177,0,0,0-2.087,0L112.264,96.92a2.179,2.179,0,0,0-1.135,1.913v13.074a2.179,2.179,0,0,0,1.135,1.913l11.984,6.537a2.18,2.18,0,0,0,2.087,0l11.984-6.537a2.179,2.179,0,0,0,1.135-1.913V98.833a2.179,2.179,0,0,0-1.135-1.913ZM35.953,80.311a2.179,2.179,0,0,0,2.179,2.179h6.537a2.179,2.179,0,0,0,0-4.358H38.132a2.179,2.179,0,0,0-2.179,2.179Zm56.654,0a2.179,2.179,0,0,0,2.179,2.179h6.537a2.179,2.179,0,0,0,0-4.358H94.786a2.179,2.179,0,0,0-2.179,2.179Zm7.576-35.953h20.751a2.182,2.182,0,0,1,2.179,2.179V86.469a7.142,7.142,0,0,1,4.358-.585V46.537A6.544,6.544,0,0,0,120.934,40H100.183c.015.244.051.482.051.73v2.9C100.234,43.876,100.2,44.114,100.183,44.358ZM71.907,86.143V76.992c-.242.015-.479.051-.725.051H68.277c-.247,0-.484-.036-.728-.051v9.151A6.526,6.526,0,0,1,71.907,86.143Z" transform="translate(0 -16.026)" fill="#01579b"/><rect width="17.614" height="4.358" transform="translate(89.157 87.164)" fill="#01579b"/><path d="M38.288,40H17.537A6.544,6.544,0,0,0,11,46.537V86.143a6.526,6.526,0,0,1,4.358,0V46.537a2.182,2.182,0,0,1,2.179-2.179H38.288c-.015-.244-.051-.482-.051-.73v-2.9C38.237,40.482,38.273,40.244,38.288,40Z" transform="translate(0.984 -16.026)" fill="#01579b"/><rect width="16.705" height="4.358" transform="translate(33.592 87.164)" fill="#01579b"/><path d="M42.582,39.79A2.756,2.756,0,0,0,40,42.7v2.9a2.756,2.756,0,0,0,2.582,2.909h3.7a20.31,20.31,0,0,0,2.735,6.6L46.4,57.734a2.754,2.754,0,0,0,.24,3.879l2.048,2.048a3.073,3.073,0,0,0,2.157.926,2.377,2.377,0,0,0,1.721-.7l2.626-2.615a20.31,20.31,0,0,0,6.6,2.735v3.7A2.756,2.756,0,0,0,64.7,70.3h2.9a2.756,2.756,0,0,0,2.909-2.582v-3.7a20.311,20.311,0,0,0,6.6-2.735l2.626,2.615a2.377,2.377,0,0,0,1.721.7,3.073,3.073,0,0,0,2.157-.926l2.048-2.048a2.743,2.743,0,0,0,.229-3.879l-2.615-2.626a20.31,20.31,0,0,0,2.735-6.6h3.7A2.756,2.756,0,0,0,92.3,45.6V42.7a2.756,2.756,0,0,0-2.582-2.909h-3.7a20.309,20.309,0,0,0-2.735-6.6l2.615-2.615a2.756,2.756,0,0,0-.229-3.889l-2.048-2.048a3.092,3.092,0,0,0-2.157-.926,2.377,2.377,0,0,0-1.721.7l-2.626,2.615a20.313,20.313,0,0,0-6.6-2.735v-3.7A2.756,2.756,0,0,0,67.6,18H64.7a2.756,2.756,0,0,0-2.909,2.582v3.7a20.313,20.313,0,0,0-6.6,2.735l-2.626-2.615a2.377,2.377,0,0,0-1.721-.7,3.092,3.092,0,0,0-2.157.926l-2.048,2.048a2.768,2.768,0,0,0-.24,3.889l2.626,2.615a20.31,20.31,0,0,0-2.735,6.6Zm23.566-7.626A11.984,11.984,0,1,1,54.164,44.148,11.984,11.984,0,0,1,66.148,32.164Z" transform="translate(3.579 -17.996)" fill="#01579b"/></g><text transform="translate(907 2848.966)" fill="#01579b" font-size="35" font-family="NunitoSans-Regular, Nunito Sans"><tspan x="-100.188" y="0">Architecture </tspan></text><path d="M37.568,57.5H26.692a2.506,2.506,0,0,0-2.653,2.653V87.216a20.692,20.692,0,1,0,5.306,0V62.81h8.224L54.546,79.788a2.564,2.564,0,0,0,3.714,0L75.238,62.81h8.224V87.216a20.692,20.692,0,1,0,5.306,0V60.158A2.506,2.506,0,0,0,86.115,57.5H75.238L59.056,41.323V32.834H98.583a2.506,2.506,0,0,0,2.653-2.653V3.653A2.506,2.506,0,0,0,98.583,1H14.224a2.506,2.506,0,0,0-2.653,2.653V30.181a2.506,2.506,0,0,0,2.653,2.653H53.751v8.489Zm4.51,50.138A15.386,15.386,0,1,1,26.692,92.257,15.4,15.4,0,0,1,42.078,107.643Zm59.423,0A15.386,15.386,0,1,1,86.115,92.257,15.4,15.4,0,0,1,101.5,107.643ZM16.877,6.306H96.2V27.528H16.877ZM56.4,74.217l-14.06-14.06L56.4,46.1l14.06,14.06Z" transform="translate(860.308 2657.281)" fill="#01579b"/><text transform="translate(911 3158.966)" fill="#01579b" font-size="37" font-family="NunitoSans-Regular, Nunito Sans"><tspan x="-117.271" y="0">Live Feedback</tspan></text><path d="M27.7,73.57a27.7,27.7,0,1,0,27.7,27.7A27.7,27.7,0,0,0,27.7,73.57Zm0,51.982A24.281,24.281,0,1,1,51.981,101.27,24.281,24.281,0,0,1,27.7,125.551Zm10.146-24.986a1.71,1.71,0,0,0,1.71-1.71V89.736a1.71,1.71,0,1,0-3.42,0v9.12a1.71,1.71,0,0,0,1.71,1.71ZM68.511,49.5a1.71,1.71,0,0,0,1.71-1.71V38.666a1.71,1.71,0,1,0-3.42,0v9.12a1.71,1.71,0,0,0,1.71,1.71ZM40.233,110.843H15.168a1.71,1.71,0,1,0,0,3.42H40.233a1.71,1.71,0,1,0,0-3.42ZM17.555,100.565a1.71,1.71,0,0,0,1.71-1.71V89.736a1.71,1.71,0,1,0-3.42,0v9.12a1.71,1.71,0,0,0,1.71,1.71Zm61.329,0a1.71,1.71,0,0,0,1.71-1.71V89.736a1.71,1.71,0,1,0-3.42,0v9.12a1.71,1.71,0,0,0,1.71,1.71Zm10.146,6.3a18.616,18.616,0,0,0-13.8,6.153,1.71,1.71,0,0,0,2.54,2.29,15.138,15.138,0,0,1,22.525,0,1.71,1.71,0,1,0,2.54-2.29,18.616,18.616,0,0,0-13.8-6.153Zm0-33.3a27.7,27.7,0,1,0,27.7,27.7,27.7,27.7,0,0,0-27.7-27.7Zm0,51.981A24.281,24.281,0,1,1,113.31,101.27,24.281,24.281,0,0,1,89.03,125.551ZM48.22,49.5a1.71,1.71,0,0,0,1.71-1.71V38.666a1.71,1.71,0,1,0-3.42,0v9.12a1.71,1.71,0,0,0,1.71,1.71Zm50.956,51.07a1.71,1.71,0,0,0,1.71-1.71V89.736a1.71,1.71,0,0,0-3.42,0v9.12a1.71,1.71,0,0,0,1.71,1.71ZM72.042,60.213a1.71,1.71,0,0,0-2.415.126,15.138,15.138,0,0,1-22.525,0,1.71,1.71,0,0,0-2.54,2.289,18.557,18.557,0,0,0,27.606,0A1.71,1.71,0,0,0,72.042,60.213ZM86.066,50.2a27.7,27.7,0,1,0-27.7,27.7,27.7,27.7,0,0,0,27.7-27.7Zm-27.7,24.281A24.281,24.281,0,1,1,82.646,50.2,24.281,24.281,0,0,1,58.365,74.481Z" transform="translate(856.902 2974.844)" fill="#01579b"/></g></svg>