<svg xmlns="http://www.w3.org/2000/svg" width="60.879" height="41.178" viewBox="0 0 60.879 41.178"><path d="M48.2,41.178H15.22a14.946,14.946,0,0,1-5.926-1.213,15.148,15.148,0,0,1-2.585-1.423A15.429,15.429,0,0,1,1.2,31.749,15.579,15.579,0,0,1,3.927,15.387a15.123,15.123,0,0,1,9.644-5,19.355,19.355,0,0,1,6.879-7.5A18.784,18.784,0,0,1,42.584,4.446,19.337,19.337,0,0,1,49.1,15.532a12.624,12.624,0,0,1,8.355,4.02,12.942,12.942,0,0,1-.289,17.856,12.64,12.64,0,0,1-4.032,2.759A12.438,12.438,0,0,1,48.2,41.178ZM23.012,28.218a1.724,1.724,0,0,0-1.735,1.709v3.418a1.724,1.724,0,0,0,1.735,1.709H40.366A1.724,1.724,0,0,0,42.1,33.346V29.928a1.724,1.724,0,0,0-1.735-1.709Zm0-8.545a1.724,1.724,0,0,0-1.735,1.709V24.8a1.724,1.724,0,0,0,1.735,1.709H40.366A1.724,1.724,0,0,0,42.1,24.8V21.382a1.724,1.724,0,0,0-1.735-1.709Zm0-8.545a1.724,1.724,0,0,0-1.735,1.709v3.418a1.724,1.724,0,0,0,1.735,1.709H40.366A1.724,1.724,0,0,0,42.1,16.255V12.837a1.724,1.724,0,0,0-1.735-1.709ZM35.16,33.346H33.424V29.928H35.16v3.418Zm-3.471,0H29.954V29.928h1.735v3.418Zm-3.471,0H26.483V29.928h1.735v3.418Zm-3.471,0H23.012V29.928h1.735v3.418ZM35.16,24.8H33.424V21.382H35.16V24.8Zm-3.471,0H29.954V21.382h1.735V24.8Zm-3.471,0H26.483V21.382h1.735V24.8Zm-3.471,0H23.012V21.382h1.735V24.8ZM35.16,16.255H33.424V12.837H35.16v3.418Zm-3.471,0H29.954V12.837h1.735v3.418Zm-3.471,0H26.483V12.837h1.735v3.418Zm-3.471,0H23.012V12.837h1.735v3.418Zm15.619-1.709H38.631V12.837h1.735v1.709Z" fill="#fff"/></svg>