<svg xmlns="http://www.w3.org/2000/svg" width="50" height="42.947" viewBox="0 0 50 42.947"><path d="M42.775,42.947a1.823,1.823,0,0,1-1.824-1.827V17.9h7.115V41.12a1.823,1.823,0,0,1-1.824,1.827ZM4.11,38.04Q0,33.923,0,26.018V2.962H6.905V26.4q0,5,2.357,7.548t6.9,2.553q4.494,0,6.85-2.58T25.373,26.4V2.962h6.905V26.018q0,7.85-4.11,11.994t-12,4.145Q8.22,42.157,4.11,38.04Zm36.518-25a7.337,7.337,0,0,1,0-10.367A9.456,9.456,0,0,1,48.389.082a3.723,3.723,0,0,0,0,5.183,5.493,5.493,0,1,1-7.762,7.775Z" fill="#fff"/></svg>