<svg xmlns="http://www.w3.org/2000/svg" width="609.418" height="185.369" viewBox="0 0 609.418 185.369"><g transform="translate(264.902)"><path d="M-22.59,25.333q-37.432,0-56.793-19.471T-98.745-50.995v-109.04h32.527V-49.177q0,23.625,11.1,35.7T-22.59-1.407q21.168,0,32.269-12.2t11.1-35.568V-160.035H53.306v109.04q0,37.126-19.361,56.727T-22.59,25.333Zm114.1-185.368h33.3V23h-33.3Z" transform="translate(-166.157 160.035)" fill="#fff"/><path d="M-64.833,25.333q-37.645,0-57.116-19.471t-19.471-56.857v-109.04h32.712V-49.177q0,23.625,11.164,35.7T-64.833-1.407q21.289,0,32.452-12.2t11.164-35.568V-160.035H11.5v109.04q0,37.126-19.471,56.727T-64.833,25.333ZM203.094,23H164.151l-49.587-68.54L64.717,23H25.774l69.838-93.2L28.37-160.035H67.313l47.251,65.684,47.51-65.684h38.943l-67.5,90.088Z" transform="translate(141.421 160.035)" fill="#fff"/></g></svg>