<svg xmlns="http://www.w3.org/2000/svg" width="50" height="50" viewBox="0 0 50 50"><path d="M47,50H3a3,3,0,0,1-3-3V3A3,3,0,0,1,3,0H47a3,3,0,0,1,3,3V47A3,3,0,0,1,47,50Zm-9.034-6.246v3.054h7.825V43.754Zm-10.455,0v3.054h7.825V43.754Zm-10.455,0v3.054h7.825V43.754Zm-10.313,0v3.054h7.825V43.754ZM39.274,27.013v0L42.939,39.5V18.7H6.68V39.5L8.832,21.523l7.32,9.149,4.658-4.824,3.161,5.989,5.489,6.155,6.988-2.163,2.827-8.813ZM9.733,7.061a3.053,3.053,0,1,0,3.054,3.053A3.056,3.056,0,0,0,9.733,7.061Z" fill="#fff"/></svg>