<svg xmlns="http://www.w3.org/2000/svg" width="435.019" height="435.019" viewBox="0 0 435.019 435.019"><path d="M161.629,43.171c-65.138,0-123.255,58.117-123.255,123.255,0,62.728,53.845,118.727,116,122.8v181.71a7.251,7.251,0,0,0,7.25,7.25H466.142a7.251,7.251,0,0,0,7.25-7.25V166.426a7.251,7.251,0,0,0-7.25-7.25H284.432C280.356,97.016,224.356,43.171,161.629,43.171ZM151.208,58.126c1.056-.146,2.11.145,3.171,0v43.048H114.956a362.956,362.956,0,0,1,12.688-37.158A99.7,99.7,0,0,1,151.208,58.126Zm17.672,0a95.635,95.635,0,0,1,25.83,5.438,353.619,353.619,0,0,1,12.688,37.61H168.88ZM108.612,73.079c-3.308,9.354-6.177,18.8-8.61,28.095H76.892A120.6,120.6,0,0,1,108.612,73.079Zm105.129,0a119.2,119.2,0,0,1,31.266,28.095H222.351C219.936,91.815,217.058,82.505,213.742,73.079Zm-146.819,42.6H96.377a272.036,272.036,0,0,0-5.438,43.5H53.328A102.308,102.308,0,0,1,66.922,115.674Zm43.955,0h43.5v43.5H105.44A252.057,252.057,0,0,1,110.877,115.674Zm58,0h42.143a263.172,263.172,0,0,1,6.344,43.5H168.88Zm56.644,0h29.454a107.254,107.254,0,0,1,13.594,43.5H231.414A280.807,280.807,0,0,0,225.523,115.674Zm-172.2,58H90.487a249.289,249.289,0,0,0,4.078,43.5H67.376A100.58,100.58,0,0,1,53.328,173.677Zm51.659,0h49.392v43.5H109.519A235.641,235.641,0,0,1,104.987,173.677Zm63.893,0H458.892v43.5H168.88Zm21.751,14.5a7.25,7.25,0,1,0,7.25,7.25A7.25,7.25,0,0,0,190.631,188.177Zm29,0a7.25,7.25,0,1,0,7.25,7.25A7.25,7.25,0,0,0,219.632,188.177Zm29,0a7.25,7.25,0,1,0,7.25,7.25A7.25,7.25,0,0,0,248.633,188.177ZM77.8,231.679H97.737c1.956,7.977,4.472,15.932,7.25,24.017A120.264,120.264,0,0,1,77.8,231.679Zm34.891,0h41.689v41.689a105.144,105.144,0,0,1-29.907-7.25A283.312,283.312,0,0,1,112.69,231.679Zm56.19,0H458.892v232.01H168.88V283.337a7.254,7.254,0,0,0,0-.906Z" transform="translate(-38.374 -43.171)" fill="#fff"/></svg>