<svg xmlns="http://www.w3.org/2000/svg" width="50" height="50" viewBox="0 0 50 50"><g transform="translate(17786 6969)"><g transform="translate(-17786 -6969)" fill="#fff" stroke="#707070" stroke-width="1" opacity="0"><rect width="50" height="50" stroke="none"/><rect x="0.5" y="0.5" width="49" height="49" fill="none"/></g><g transform="translate(-17790 -6973.038)"><path d="M10.25,48.286H7.571A3.571,3.571,0,0,1,4,44.714V37.571A3.571,3.571,0,0,1,7.571,34H10.25a.893.893,0,0,1,.893.893v12.5A.893.893,0,0,1,10.25,48.286Zm-2.679-12.5a1.786,1.786,0,0,0-1.786,1.786v7.143A1.786,1.786,0,0,0,7.571,46.5H9.357V35.786Z" transform="translate(0 -3.21)" fill="#fff"/><path d="M13.571,50.643A3.571,3.571,0,0,1,10,47.071v-12.5a3.571,3.571,0,1,1,7.143,0v12.5A3.571,3.571,0,0,1,13.571,50.643Zm0-17.857a1.786,1.786,0,0,0-1.786,1.786v12.5a1.786,1.786,0,0,0,3.571,0v-12.5A1.786,1.786,0,0,0,13.571,32.786Zm37.5,15.179H48.393a.893.893,0,0,1-.893-.893v-12.5a.893.893,0,0,1,.893-.893h2.679a3.571,3.571,0,0,1,3.571,3.571v7.143A3.571,3.571,0,0,1,51.071,47.964Zm-1.786-1.786h1.786a1.786,1.786,0,0,0,1.786-1.786V37.25a1.786,1.786,0,0,0-1.786-1.786H49.286Z" transform="translate(-0.643 -2.889)" fill="#fff"/><path d="M47.536,50.643a3.571,3.571,0,0,1-3.571-3.571v-12.5a3.571,3.571,0,0,1,7.143,0v12.5A3.571,3.571,0,0,1,47.536,50.643Zm0-17.857a1.786,1.786,0,0,0-1.786,1.786v12.5a1.786,1.786,0,0,0,3.571,0v-12.5A1.786,1.786,0,0,0,47.536,32.786ZM33.25,56.893H29.679a2.679,2.679,0,1,1,0-5.357H33.25a2.679,2.679,0,0,1,0,5.357Zm-3.571-3.571a.893.893,0,1,0,0,1.786H33.25a.893.893,0,0,0,0-1.786Z" transform="translate(-2.464 -2.889)" fill="#fff"/><path d="M45.5,54.356H33a.893.893,0,0,1,0-1.786H45.5a4.464,4.464,0,0,0,4.464-4.464V46.321a.893.893,0,0,1,1.786,0v1.786a6.25,6.25,0,0,1-6.25,6.25Zm4.464-19.643a.893.893,0,0,1-.893-.893v-6.25a19.1,19.1,0,0,0-.17-2.562.9.9,0,1,1,1.786-.232,20.99,20.99,0,0,1,.17,2.795v6.25A.893.893,0,0,1,49.964,34.713Zm-41.071,0A.893.893,0,0,1,8,33.821v-6.25a20.974,20.974,0,0,1,.187-2.79.9.9,0,0,1,1.786.227,19.1,19.1,0,0,0-.188,2.563v6.25A.893.893,0,0,1,8.893,34.713Z" transform="translate(-0.429 -2.138)" fill="#fff"/><path d="M49.806,23.647a7.143,7.143,0,0,1-6.464-4.33,15.179,15.179,0,0,0-27.848.161,6.723,6.723,0,0,1-6.143,4.17H9.092A.893.893,0,0,1,8.2,22.638a21.429,21.429,0,0,1,42.482,0,.893.893,0,0,1-.893,1.009ZM29.449,5.79a19.643,19.643,0,0,0-19.3,16,5.009,5.009,0,0,0,3.706-3.019,17.021,17.021,0,0,1,31.17-.2,5.437,5.437,0,0,0,3.768,3.152,19.741,19.741,0,0,0-5.411-10.2A19.491,19.491,0,0,0,29.449,5.79Z" transform="translate(-0.449 0)" fill="#fff"/><path d="M29.357,30.821H24.893A.893.893,0,0,1,24,29.929v-.893a.893.893,0,0,1,.259-.634l3.911-3.911a1,1,0,0,0-.705-1.705h-.679a1,1,0,0,0-1,1v.786a.893.893,0,1,1-1.786,0v-.786A2.786,2.786,0,0,1,26.786,21h.679a2.791,2.791,0,0,1,1.973,4.759l-3.286,3.277h3.205a.893.893,0,1,1,0,1.786Zm8.036-3.571H35.607a3.571,3.571,0,0,1-3.571-3.571V21.893a.893.893,0,0,1,1.786,0v1.786a1.786,1.786,0,0,0,1.786,1.786H36.5V21.893a.893.893,0,0,1,1.786,0v4.464A.893.893,0,0,1,37.393,27.25Z" transform="translate(-2.143 -1.817)" fill="#fff"/><path d="M38.893,31.357A.893.893,0,0,1,38,30.464V26.893a.893.893,0,1,1,1.786,0v3.571A.893.893,0,0,1,38.893,31.357Z" transform="translate(-3.643 -2.353)" fill="#fff"/><path d="M30.607,37.214A11.607,11.607,0,1,1,42.214,25.607a.893.893,0,0,1-1.786,0,9.821,9.821,0,1,0-9.821,9.821.893.893,0,0,1,0,1.786Z" transform="translate(-1.607 -1.067)" fill="#fff"/><path d="M30.892,42.142a.893.893,0,0,1-.634-1.527l2.054-2.045-2.054-2.045a.9.9,0,1,1,1.268-1.268L34.2,37.937a.893.893,0,0,1,0,1.268l-2.679,2.679A.893.893,0,0,1,30.892,42.142Z" transform="translate(-2.785 -3.317)" fill="#fff"/></g></g></svg>