<svg xmlns="http://www.w3.org/2000/svg" width="51" height="50" viewBox="0 0 51 50"><g transform="translate(17307.5 6329)"><path d="M30.731,20.98a11.866,11.866,0,0,1-1.554-1.528l-3.785-3.721-.433-.471-3.344-3.395h0l-.1-.1-.259-.259L15.608,5.858a7.017,7.017,0,1,0,.56,11.453A12.408,12.408,0,0,0,17.376,16.1l2.816-2.816L23.519,16.7l-2.413,2.413-1.995,1.995A11.815,11.815,0,0,1,.24,14.2,11.81,11.81,0,0,1,11.815,0a11.757,11.757,0,0,1,6.9,2.222L30.687,14.2s4.5,4.6,7.531,4.6a6.984,6.984,0,0,0,4.152-1.36,2.481,2.481,0,0,1,3.911,2.98,11.814,11.814,0,0,1-15.55.561ZM7.839,14.2a4.636,4.636,0,1,1,3.976,2.252A4.612,4.612,0,0,1,7.839,14.2Zm36.98-.03v0H43.4l-8.275-.015V9.481h9.721c-.005-.016-.011-.033-.017-.049A7.02,7.02,0,0,0,34.164,6.054L32.489,7.728l-1.7,1.7-.956.955L26.467,7.012,28.676,4.8l0,0,2.493-2.493,0,0A11.815,11.815,0,0,1,49.76,9.432l.01.049a11.921,11.921,0,0,1,0,4.683.057.057,0,0,1,0,.012Z" transform="translate(-17307 -6316)" fill="#fff" stroke="rgba(0,0,0,0)" stroke-miterlimit="10" stroke-width="1"/><g transform="translate(-17307 -6329)" fill="#fff" stroke="#707070" stroke-width="1" opacity="0"><rect width="50" height="50" stroke="none"/><rect x="0.5" y="0.5" width="49" height="49" fill="none"/></g></g></svg>