<svg xmlns="http://www.w3.org/2000/svg" width="200" height="200" viewBox="0 0 200 200"><g transform="translate(16506 6342)"><g transform="translate(-16506 -6404.615)"><g transform="translate(0 103.615)"><path d="M210.994,156.924a26.654,26.654,0,1,0-26.607-26.65A26.643,26.643,0,0,0,210.994,156.924Z" transform="translate(-111.02 -103.615)" fill="#fff"/><path d="M219.352,248.506H176.626c-7.639,0-13.9,7-13.9,15.6v42.915c0,.472.24.893.266,1.382h69.96a13.828,13.828,0,0,0,.249-1.382V264.1C233.23,255.51,226.973,248.506,219.352,248.506Z" transform="translate(-97.98 -190.854)" fill="#fff"/><path d="M399.326,204.906a21.363,21.363,0,1,0-21.32-21.354A21.33,21.33,0,0,0,399.326,204.906Z" transform="translate(-227.598 -138.877)" fill="#fff"/><path d="M406,278.317H371.765c-6.146,0-11.167,5.613-11.167,12.523v34.384c0,.369.18.721.206,1.124H416.92c.026-.4.2-.755.2-1.124V290.84C417.143,283.93,412.13,278.317,406,278.317Z" transform="translate(-217.117 -208.804)" fill="#fff"/><path d="M38.736,204.906a21.363,21.363,0,1,0-21.328-21.354,21.333,21.333,0,0,0,21.328,21.354Z" transform="translate(-10.481 -138.877)" fill="#fff"/><path d="M45.4,278.317H11.132C5,278.317,0,283.93,0,290.84v34.384c0,.369.18.721.214,1.124H56.33c.026-.4.189-.755.189-1.124V290.84C56.536,283.93,51.523,278.317,45.4,278.317Z" transform="translate(0 -208.804)" fill="#fff"/></g></g><g transform="translate(-16506 -6342)" fill="#fff" stroke="#707070" stroke-width="1" opacity="0"><rect width="200" height="200" stroke="none"/><rect x="0.5" y="0.5" width="199" height="199" fill="none"/></g></g></svg>