<svg xmlns="http://www.w3.org/2000/svg" width="50" height="50" viewBox="0 0 50 50"><g transform="translate(17289 6836)"><g transform="translate(-17294.988 -6836)"><g transform="translate(8.988 0.001)"><g transform="translate(0 0)"><path d="M54.349,21.981a11.891,11.891,0,0,0-1.5-4.363c.264-4.333-.595-7.6-2.554-9.7A7.213,7.213,0,0,0,46.08,5.682C44.7,2.761,42.349,2.2,40.921,2.333,38.247-.158,35.774-.217,34.144.19a7.157,7.157,0,0,0-2.438,1.152A7.147,7.147,0,0,0,29.267.19c-1.63-.407-4.1-.348-6.777,2.143-1.43-.138-3.778.428-5.16,3.35a7.21,7.21,0,0,0-4.218,2.236c-1.96,2.1-2.819,5.367-2.554,9.7a11.9,11.9,0,0,0-1.5,4.363,8.63,8.63,0,0,0,3.845,8.387c-.428,2.524-.023,6.869,4.008,9.005a5.67,5.67,0,0,0,.541,3.872,4.67,4.67,0,0,0,3.168,2.1C21.361,46.48,23.9,50,27.069,50h.061c1.7-.024,3.234-1.028,4.575-2.989,1.342,1.96,2.877,2.965,4.575,2.989,3.192.047,5.764-3.513,6.506-4.657a4.669,4.669,0,0,0,3.168-2.1,5.67,5.67,0,0,0,.541-3.872c4.032-2.137,4.436-6.481,4.009-9.005A8.628,8.628,0,0,0,54.349,21.981Zm-5.29,7.284a.867.867,0,0,0-.36.931c.059.236,1.384,5.788-3.55,7.9a.866.866,0,0,0-.481,1.071,4.447,4.447,0,0,1-.2,3.183,3.192,3.192,0,0,1-2.362,1.357.867.867,0,0,0-.606.417c-.678,1.157-2.919,4.14-5.161,4.14H36.3c-1.349-.021-2.634-1.134-3.82-3.308a.92.92,0,0,0-.794-.451.866.866,0,0,0-.761.451c-1.186,2.174-2.471,3.287-3.82,3.308-2.245.036-4.518-2.977-5.2-4.14a.868.868,0,0,0-.606-.417,3.2,3.2,0,0,1-2.357-1.35,4.422,4.422,0,0,1-.2-3.191.867.867,0,0,0-.481-1.071c-4.908-2.1-3.607-7.668-3.55-7.9a.867.867,0,0,0-.36-.931c-6.466-4.311-2.366-10.679-2.189-10.947a.869.869,0,0,0,.143-.543c-.283-3.952.407-6.861,2.049-8.648A5.312,5.312,0,0,1,17.92,7.364a.867.867,0,0,0,.8-.545c.97-2.424,2.529-2.771,3.339-2.771a2.323,2.323,0,0,1,.505.05.866.866,0,0,0,.823-.228c1.764-1.763,3.577-2.44,5.388-2.015a5.356,5.356,0,0,1,2.3,1.205.867.867,0,0,0,.613.254h.033a.867.867,0,0,0,.613-.254,5.346,5.346,0,0,1,2.23-1.19c1.833-.458,3.668.214,5.454,2a.882.882,0,0,0,.815.23c.259-.059,2.57-.487,3.853,2.719a.874.874,0,0,0,.8.545,5.311,5.311,0,0,1,3.571,1.763c1.642,1.787,2.332,4.7,2.049,8.648a.869.869,0,0,0,.143.543,10.023,10.023,0,0,1,1.38,3.879C52.987,25.068,51.786,27.446,49.059,29.264Z" transform="translate(-8.988 -0.001)" fill="#fff"/></g></g><g transform="translate(39.731 5.631)"><path d="M136.61,22.765a.868.868,0,0,0-1.1-.548c-5.39,1.8-5.452,6.3-5.452,6.492a.864.864,0,0,0,.861.864h.006a.87.87,0,0,0,.867-.858c0-.141.1-3.463,4.267-4.853A.867.867,0,0,0,136.61,22.765Z" transform="translate(-130.061 -22.173)" fill="#fff"/></g><g transform="translate(40.541 26.688)"><path d="M142.9,107.871a.867.867,0,0,0-1.215-.164c-1.412,1.076-2.69,1.46-3.794,1.141-1.967-.567-2.958-3.158-2.968-3.184a.867.867,0,0,0-1.625.6c.052.14,1.3,3.428,4.1,4.244a4.557,4.557,0,0,0,1.28.183,6.783,6.783,0,0,0,4.055-1.608A.867.867,0,0,0,142.9,107.871Z" transform="translate(-133.248 -105.099)" fill="#fff"/></g><g transform="translate(34.062 29.928)"><g transform="translate(0)"><path d="M109.215,118.115a.867.867,0,0,0-1.225,1.225c2.814,2.814,2.23,5.533,2.2,5.662a.867.867,0,0,0,.632,1.046.881.881,0,0,0,.211.026.867.867,0,0,0,.84-.657C111.91,125.266,112.76,121.661,109.215,118.115Z" transform="translate(-107.735 -117.861)" fill="#fff"/></g></g><g transform="translate(35.961 13.648)"><path d="M128.24,62.157a.868.868,0,0,0-1.109-.52c-.175.063-4.308,1.508-6.5-1.414a14.19,14.19,0,0,1-2.024-3.86c-.483-1.281-.939-2.49-2.454-2.615a.867.867,0,1,0-.142,1.727c.363.029.5.24.974,1.5a15.916,15.916,0,0,0,2.26,4.29,6.412,6.412,0,0,0,5.355,2.515,9.946,9.946,0,0,0,3.127-.513A.866.866,0,0,0,128.24,62.157Z" transform="translate(-115.212 -53.745)" fill="#fff"/></g><g transform="translate(30.822 1.581)"><g transform="translate(0)"><path d="M95.843,6.226a.867.867,0,0,0-.867.867V50.018a.867.867,0,0,0,1.733,0V7.093A.867.867,0,0,0,95.843,6.226Z" transform="translate(-94.976 -6.226)" fill="#fff"/></g></g><g transform="translate(33.452 8.194)"><g transform="translate(0)"><path d="M109.907,33.121a.855.855,0,0,0-.879-.854.867.867,0,0,0-.854.879c0,.054.048,5.458-2.654,8.885a.867.867,0,1,0,1.361,1.074C109.959,39.2,109.91,33.368,109.907,33.121Z" transform="translate(-105.332 -32.267)" fill="#fff"/></g></g><g transform="translate(34.062 35.597)"><g transform="translate(0)"><path d="M113.459,140.187c-3.821,0-5.608,5.229-5.682,5.452a.867.867,0,0,0,1.644.549c.4-1.187,1.9-4.268,4.038-4.268a.867.867,0,1,0,0-1.733Z" transform="translate(-107.733 -140.187)" fill="#fff"/></g></g><g transform="translate(37.301 2.026)"><path d="M123.954,8.15a.867.867,0,0,0-1.212.178l-2.079,2.794a.867.867,0,1,0,1.39,1.034l2.079-2.794A.867.867,0,0,0,123.954,8.15Z" transform="translate(-120.491 -7.979)" fill="#fff"/></g><g transform="translate(19.554 7.8)"><path d="M54.065,30.715a3.467,3.467,0,1,0,3.467,3.467A3.471,3.471,0,0,0,54.065,30.715Zm0,5.2A1.734,1.734,0,1,1,55.8,34.182,1.735,1.735,0,0,1,54.065,35.915Z" transform="translate(-50.598 -30.715)" fill="#fff"/></g><g transform="translate(13.486 19.067)"><g transform="translate(0)"><path d="M30.171,75.088a3.467,3.467,0,1,0,3.467,3.467A3.471,3.471,0,0,0,30.171,75.088Zm0,5.2A1.734,1.734,0,1,1,31.9,78.555,1.735,1.735,0,0,1,30.171,80.288Z" transform="translate(-26.704 -75.088)" fill="#fff"/></g></g><g transform="translate(22.154 26.868)"><path d="M64.3,105.808a3.467,3.467,0,1,0,3.467,3.467A3.471,3.471,0,0,0,64.3,105.808Zm0,5.2a1.734,1.734,0,1,1,1.734-1.734A1.735,1.735,0,0,1,64.3,111.008Z" transform="translate(-60.838 -105.808)" fill="#fff"/></g><g transform="translate(22.154 36.402)"><path d="M64.3,143.355a3.467,3.467,0,1,0,3.467,3.467A3.471,3.471,0,0,0,64.3,143.355Zm0,5.2a1.734,1.734,0,1,1,1.734-1.734A1.735,1.735,0,0,1,64.3,148.555Z" transform="translate(-60.838 -143.355)" fill="#fff"/></g><g transform="translate(22.154 13)"><path d="M61.7,51.195a.867.867,0,0,0-.867.867v8.667a.867.867,0,0,0,1.733,0V52.062A.867.867,0,0,0,61.7,51.195Z" transform="translate(-60.838 -51.195)" fill="#fff"/></g><g transform="translate(18.687 21.667)"><path d="M54.118,85.328H48.051a.867.867,0,1,0,0,1.733h6.067a.867.867,0,0,0,0-1.733Z" transform="translate(-47.184 -85.328)" fill="#fff"/></g><g transform="translate(24.754 21.667)"><g transform="translate(0)"><path d="M71.945,85.328a.867.867,0,0,0-.867.867v5.2a.867.867,0,0,0,1.733,0v-5.2A.867.867,0,0,0,71.945,85.328Z" transform="translate(-71.078 -85.328)" fill="#fff"/></g></g><g transform="translate(24.754 32.068)"><g transform="translate(0)"><path d="M71.945,126.288a.867.867,0,0,0-.867.867v4.334a.867.867,0,0,0,1.733,0v-4.334A.867.867,0,0,0,71.945,126.288Z" transform="translate(-71.078 -126.288)" fill="#fff"/></g></g></g><g transform="translate(-17289 -6836)" fill="#fff" stroke="#707070" stroke-width="1" opacity="0"><rect width="50" height="49.745" stroke="none"/><rect x="0.5" y="0.5" width="49" height="48.745" fill="none"/></g></g></svg>