<svg xmlns="http://www.w3.org/2000/svg" width="47.652" height="50" viewBox="0 0 47.652 50">
  <g id="aspect" transform="translate(-12.02)">
    <path id="Path_1150" data-name="Path 1150" d="M213.145,58.932a.733.733,0,0,0-1-.274c-.008,0-.212.121-.537.334a.733.733,0,1,0,.8,1.226c.279-.183.454-.283.459-.286A.733.733,0,0,0,213.145,58.932Z" transform="translate(-179.798 -52.843)" fill="#fff"/>
    <path id="Path_1151" data-name="Path 1151" d="M283.715,412.592c-.247.289-.507.582-.774.87a.733.733,0,1,0,1.075,1c.281-.3.555-.611.815-.916a.733.733,0,1,0-1.116-.951Z" transform="translate(-244.288 -372.067)" fill="#fff"/>
    <path id="Path_1152" data-name="Path 1152" d="M316.167,368.455a.733.733,0,0,0-.978.345c-.159.331-.337.67-.531,1.008a.733.733,0,1,0,1.271.731c.212-.369.408-.741.583-1.106A.733.733,0,0,0,316.167,368.455Z" transform="translate(-272.996 -332.408)" fill="#fff"/>
    <path id="Path_1153" data-name="Path 1153" d="M332.9,319.2c.019-.236.028-.473.028-.706,0-.2-.007-.4-.021-.6a.733.733,0,0,0-1.462.1c.011.163.017.328.017.493,0,.194-.008.392-.024.59a.733.733,0,1,0,1.461.116Z" transform="translate(-288.226 -286.241)" fill="#fff"/>
    <path id="Path_1154" data-name="Path 1154" d="M312.244,269.683a.733.733,0,0,0-1.113.954,8.884,8.884,0,0,1,.665.878.733.733,0,0,0,1.223-.809,10.35,10.35,0,0,0-.775-1.023Z" transform="translate(-269.742 -243.116)" fill="#fff"/>
    <path id="Path_1155" data-name="Path 1155" d="M271.665,237.6c-.336-.217-.692-.432-1.059-.639a.733.733,0,0,0-.721,1.276c.342.193.673.393.985.595a.733.733,0,0,0,.795-1.232Z" transform="translate(-232.347 -213.736)" fill="#fff"/>
    <path id="Path_1156" data-name="Path 1156" d="M223.279,213.2a.733.733,0,0,0-.713,1.281c.345.192.708.384,1.079.573a.733.733,0,1,0,.663-1.308C223.953,213.563,223.607,213.379,223.279,213.2Z" transform="translate(-189.644 -192.293)" fill="#fff"/>
    <path id="Path_1157" data-name="Path 1157" d="M180.712,184.066a.733.733,0,1,0,.951-1.116c-.3-.253-.573-.511-.821-.767a.733.733,0,1,0-1.053,1.02C180.07,183.493,180.381,183.784,180.712,184.066Z" transform="translate(-151.199 -164.191)" fill="#fff"/>
    <path id="Path_1158" data-name="Path 1158" d="M159.085,135.034a.735.735,0,0,0-.753.713c0,.052,0,.1,0,.157a5.823,5.823,0,0,0,.126,1.2.733.733,0,0,0,1.434-.3,4.36,4.36,0,0,1-.094-.9q0-.058,0-.116A.733.733,0,0,0,159.085,135.034Z" transform="translate(-132.021 -121.847)" fill="#fff"/>
    <path id="Path_1159" data-name="Path 1159" d="M172.833,90.249a.733.733,0,0,0,1.024-.164,10.439,10.439,0,0,1,.7-.865.733.733,0,0,0-1.088-.982,11.89,11.89,0,0,0-.8.988A.733.733,0,0,0,172.833,90.249Z" transform="translate(-144.835 -79.403)" fill="#fff"/>
    <path id="Path_1160" data-name="Path 1160" d="M249.084,449.778c-.271.224-.432.346-.433.348a.733.733,0,0,0,.886,1.168c.007-.006.184-.14.481-.386a.733.733,0,0,0-.934-1.13Z" transform="translate(-213.26 -405.703)" fill="#fff"/>
    <path id="Path_1161" data-name="Path 1161" d="M38.733,50H53a3.25,3.25,0,0,0,2.906-1.9c6.638-13.668,5.114-25.977-9.526-30.5C41.668,16.145,36,13.765,35.761,10.7c-.191-2.451,3.063-5.334,9.671-8.57A1.125,1.125,0,0,0,44.968,0H39.654A5.993,5.993,0,0,0,37,.619a70.034,70.034,0,0,0-7.356,4.131C21.89,9.1,17.92,13.315,17.844,17.276c-.052,2.712,1.731,5.194,5.3,7.379,3.232,1.979,4.871,4.2,4.872,6.6,0,6.4-11.462,13.424-15.229,15.733A1.633,1.633,0,0,0,13.558,50H35.315a.732.732,0,0,0,0-1.465H19.129c12.474-8.2,20.124-18.521,7.393-26.316-7.937-4.859-4.635-10.395,3.071-15.673a66.12,66.12,0,0,1,8.052-4.611,4.541,4.541,0,0,1,2.009-.47H41.6c-3.88,2.094-9.572,5.821-9.337,10.224A6.715,6.715,0,0,0,35.1,16.44a28.7,28.7,0,0,0,8.658,4.312C50.445,23.036,54.1,26.82,54.616,32a.732.732,0,0,0,1.458-.146c-.582-5.8-4.565-10-11.838-12.489-6.729-2.3-10.364-4.981-10.512-7.755a4.742,4.742,0,0,1,.923-2.853C32.459,14.081,40.434,17.3,45.948,19c5.567,1.72,9.279,4.642,11.033,8.685,2.962,6.825-.227,15.32-2.392,19.777A1.8,1.8,0,0,1,53,48.535H50.629c2.533-3.846,4.824-8.544,5.386-13.1a.732.732,0,1,0-1.454-.179c-.283,2.3-1.4,7.044-5.7,13.279H38.733a.732.732,0,0,0,0,1.465ZM16.4,48.535H13.545a.214.214,0,0,1-.059-.156c0-.1.047-.135.064-.145,6.838-4.192,15.93-10.513,15.928-16.982,0-2.943-1.875-5.583-5.572-7.846-4.7-2.881-6.152-6.222-2.662-10.464-2.076,4.291.15,7.748,4.184,10.321.292.186.382.235.685.428,11.923,7.6,2.3,17.458-9.716,24.843Z" fill="#fff"/>
  </g>
</svg>
