<svg xmlns="http://www.w3.org/2000/svg" width="50.287" height="50" viewBox="0 0 50.287 50"><g transform="translate(17797 7034)"><path d="M40.323,20.953A15.753,15.753,0,0,0,25,8a15.59,15.59,0,0,0-13.854,8.66A12.75,12.75,0,0,0,0,29.463,12.69,12.69,0,0,0,12.5,42.341H39.583a10.722,10.722,0,0,0,.74-21.388Zm-.74,17.1H12.5a8.589,8.589,0,0,1,0-17.17h1.479A11.521,11.521,0,0,1,25,12.293,11.629,11.629,0,0,1,36.458,24.1V25.17h3.125a6.442,6.442,0,0,1,0,12.878Z" transform="translate(-17796.713 -7033.891)" fill="#fff"/><g transform="translate(-17797 -7034)" fill="#fff" stroke="#707070" stroke-width="1" opacity="0"><rect width="50" height="50" stroke="none"/><rect x="0.5" y="0.5" width="49" height="49" fill="none"/></g></g></svg>