<svg xmlns="http://www.w3.org/2000/svg" width="50" height="50" viewBox="0 0 50 50"><g transform="translate(17697 6931)"><path d="M39.583,33.82H12.5a12.275,12.275,0,0,1-4.867-1A12.441,12.441,0,0,1,5.51,31.654,12.672,12.672,0,0,1,.982,26.075,12.8,12.8,0,0,1,3.225,12.637a12.421,12.421,0,0,1,7.921-4.109A15.9,15.9,0,0,1,16.8,2.366,15.427,15.427,0,0,1,34.974,3.651a15.881,15.881,0,0,1,5.349,9.1,10.368,10.368,0,0,1,6.862,3.3,10.629,10.629,0,0,1-.237,14.665,10.381,10.381,0,0,1-3.311,2.266A10.215,10.215,0,0,1,39.583,33.82ZM18.9,23.176a1.416,1.416,0,0,0-1.425,1.4v2.807a1.416,1.416,0,0,0,1.425,1.4H33.152a1.416,1.416,0,0,0,1.425-1.4V24.579a1.416,1.416,0,0,0-1.425-1.4Zm0-7.018a1.416,1.416,0,0,0-1.425,1.4v2.807a1.416,1.416,0,0,0,1.425,1.4H33.152a1.416,1.416,0,0,0,1.425-1.4V17.561a1.416,1.416,0,0,0-1.425-1.4Zm0-7.018a1.416,1.416,0,0,0-1.425,1.4V13.35a1.416,1.416,0,0,0,1.425,1.4H33.152a1.416,1.416,0,0,0,1.425-1.4V10.543a1.416,1.416,0,0,0-1.425-1.4Zm9.977,18.247H27.451V24.579h1.425v2.807Zm-2.85,0H24.6V24.579h1.425v2.807Zm-2.851,0H21.75V24.579h1.425v2.807Zm-2.85,0H18.9V24.579h1.425v2.807Zm8.552-7.018H27.451V17.561h1.425v2.807Zm-2.85,0H24.6V17.561h1.425v2.807Zm-2.851,0H21.75V17.561h1.425v2.807Zm-2.85,0H18.9V17.561h1.425v2.807Zm8.552-7.018H27.451V10.543h1.425V13.35Zm-2.85,0H24.6V10.543h1.425V13.35Zm-2.851,0H21.75V10.543h1.425V13.35Zm-2.85,0H18.9V10.543h1.425V13.35Zm12.827-1.4H31.727v-1.4h1.425v1.4Z" transform="translate(-17697 -6923)" fill="#fff"/><g transform="translate(-17697 -6931)" fill="#fff" stroke="#707070" stroke-width="1" opacity="0"><rect width="50" height="50" stroke="none"/><rect x="0.5" y="0.5" width="49" height="49" fill="none"/></g></g></svg>