<svg xmlns="http://www.w3.org/2000/svg" width="49.998" height="48.213" viewBox="0 0 49.998 48.213"><g transform="translate(0 -3.574)"><path d="M39.252,104.037a3.046,3.046,0,0,0-.988-1.618,3.619,3.619,0,0,0-1.831-.827L25.748,99.524l3.091,2.051-4.88,15.3L21.211,105.51l-2.749,11.364-4.879-15.3,3.09-2.051L5.987,101.592a3.615,3.615,0,0,0-1.83.827,3.043,3.043,0,0,0-.989,1.618L0,117.952l5.975,2.075c1.986,2.062,7.539,3.579,14.2,3.723h2.071c6.662-.144,12.214-1.662,14.2-3.723l5.976-2.075Z" transform="translate(0 -71.963)" fill="#fff"/><path d="M77.451,105.735l-2.464.883,2.464,3.551,2.463-3.551Z" transform="translate(-56.24 -76.621)" fill="#fff"/><path d="M64.171,17.13c0-6.316-2.6-11.265-9.144-11.265s-9.145,4.95-9.145,11.265c-.685.357-1.134,1.2-.462,2.992a4.942,4.942,0,0,0,1.444,2.054c1.865,4.645,5.534,8.23,8.162,8.23s6.3-3.586,8.161-8.23a4.927,4.927,0,0,0,1.444-2.053C65.305,18.326,64.856,17.487,64.171,17.13Z" transform="translate(-33.816 -1.718)" fill="#fff"/><g transform="translate(26.423 3.574)"><path d="M132.781,40.985h-4.856c.031.276.058.556.079.841h4.777v-.841Z" transform="translate(-122.367 -31.632)" fill="#fff"/><path d="M140.866,29.385H125.613c.082.274.153.556.221.842h15.032Z" transform="translate(-120.633 -22.932)" fill="#fff"/><path d="M128.693,4.149a1.96,1.96,0,0,0-1.389-.575H105.691a9.217,9.217,0,0,1,2.54,1.964H127.3V19.285h-5.256l-3.979,3.979V19.285h-6.44a7,7,0,0,1-1.26,1.965h5.736v5.4a.561.561,0,0,0,.958.4l5.8-5.8H127.3a1.964,1.964,0,0,0,1.964-1.964V5.538A1.958,1.958,0,0,0,128.693,4.149Z" transform="translate(-105.691 -3.574)" fill="#fff"/><path d="M137.079,17.79H120.563q.244.405.461.842h16.055Z" transform="translate(-116.845 -14.236)" fill="#fff"/></g></g></svg>