<svg xmlns="http://www.w3.org/2000/svg" width="50" height="50" viewBox="0 0 50 50"><g transform="translate(0 -0.498)"><path d="M181.309,151.5H166.465v2.832H165v2.93h1.465v3.027H165v2.93h1.465v3.027H165v2.93h1.465v2.832h14.844v-2.832h1.465v-2.93h-1.465v-3.027h1.465v-2.93h-1.465v-3.027h1.465v-2.93h-1.465Zm-2.93,11.719h-8.984v-2.93h8.984Zm0,5.859h-8.984v-2.93h8.984Zm-8.984-11.719v-2.93h8.984v2.93Zm0,0" transform="translate(-148.887 -136.255)" fill="#fff"/><path d="M49.169,31.1a33.28,33.28,0,0,0-2.058-5.618c3.025-6.478,3.769-12.859,1.733-17.628a4.391,4.391,0,0,0-6.2-6.2C37.87-.381,31.489.363,25.011,3.388a33.327,33.327,0,0,0-5.618-2.059C12.792-.405,7.2.6,3.649,4.147S-.9,13.29.831,19.892A33.271,33.271,0,0,0,2.89,25.51C-.135,31.988-.879,38.368,1.157,43.138a4.391,4.391,0,0,0,6.2,6.2A15.312,15.312,0,0,0,13.4,50.486a27.924,27.924,0,0,0,11.591-2.877,33.291,33.291,0,0,0,5.618,2.058,23.708,23.708,0,0,0,6,.831,13.352,13.352,0,0,0,9.742-3.649C49.9,43.3,50.9,37.706,49.169,31.1ZM45.6,3.434A1.464,1.464,0,1,1,44.135,4.9,1.466,1.466,0,0,1,45.6,3.434ZM29.617,4.681c4.494-1.506,8.569-1.646,11.638-.428A4.391,4.391,0,0,0,45.6,9.292a4.448,4.448,0,0,0,.645-.048c1.218,3.069,1.078,7.143-.428,11.638-.142.424-.3.85-.462,1.276A48.155,48.155,0,0,0,37.9,12.6a48.153,48.153,0,0,0-9.556-7.459c.426-.165.852-.32,1.276-.462ZM43.852,25.49a44.33,44.33,0,0,1-8.026,10.834A44.338,44.338,0,0,1,24.991,44.35a44.074,44.074,0,0,1-10.817-8.026A44.075,44.075,0,0,1,6.149,25.507a45.77,45.77,0,0,1,18.86-18.86,44.074,44.074,0,0,1,10.817,8.026A44.066,44.066,0,0,1,43.852,25.49ZM3.664,19.148C2.2,13.595,2.935,9,5.72,6.218A10.517,10.517,0,0,1,13.4,3.428a20.789,20.789,0,0,1,5.25.734,28.877,28.877,0,0,1,3.025.983A49.21,49.21,0,0,0,4.647,22.173a28.876,28.876,0,0,1-.983-3.025ZM4.4,47.563A1.464,1.464,0,1,1,5.865,46.1,1.466,1.466,0,0,1,4.4,47.563Zm15.983-1.247c-4.494,1.506-8.569,1.646-11.638.428a4.391,4.391,0,0,0-4.991-4.991c-1.218-3.069-1.078-7.144.428-11.638q.213-.637.462-1.276A48.155,48.155,0,0,0,12.1,38.4a48.142,48.142,0,0,0,9.556,7.459c-.426.165-.852.32-1.276.462Zm23.9-1.537c-2.785,2.785-7.376,3.515-12.93,2.056a28.826,28.826,0,0,1-3.024-.983A47.985,47.985,0,0,0,37.9,38.4a47.975,47.975,0,0,0,7.456-9.571,28.87,28.87,0,0,1,.983,3.025c1.459,5.553.729,10.145-2.056,12.93Zm0,0" transform="translate(0 0)" fill="#fff"/></g></svg>