<svg xmlns="http://www.w3.org/2000/svg" width="48.387" height="50" viewBox="0 0 48.387 50"><g transform="translate(-2 -1)"><path d="M34.258,14.71a.8.8,0,0,0,.57-.236l9.441-9.441H45.7a2.419,2.419,0,1,0,0-1.613H43.935a.8.8,0,0,0-.57.236L33.924,13.1H32.645V12.29a2.419,2.419,0,1,0-4.839,0V14.71H23.693a4.039,4.039,0,0,0-3.951-3.226,4,4,0,0,0-2.631,1l-7.465-5.7a3.985,3.985,0,0,0,.418-1.753,4.08,4.08,0,1,0-1.4,3.031l7.465,5.7a3.976,3.976,0,0,0-.336.946H9.983a4.032,4.032,0,1,0-3.951,4.84,4,4,0,0,0,2.631-1l2.9,2.211-2.9,2.211a4.032,4.032,0,1,0,0,6.061l2.9,2.211-2.9,2.211a4.024,4.024,0,1,0-2.631,7.063A4.04,4.04,0,0,0,9.983,37.29h5.808a3.976,3.976,0,0,0,.336.946l-7.465,5.7a4.015,4.015,0,1,0,1.4,3.031,3.979,3.979,0,0,0-.418-1.752l7.465-5.7a4.009,4.009,0,0,0,6.581-2.225h4.114V38.9a2.419,2.419,0,0,0,4.839,0h1.279l9.441,9.441a.8.8,0,0,0,.57.236H45.7a2.419,2.419,0,1,0,0-1.613H44.269l-9.441-9.441a.8.8,0,0,0-.57-.236H32.645V34.871h3.7l6.215,6.215a.8.8,0,0,0,.57.236H45.7a2.419,2.419,0,1,0,0-1.613H43.463l-6.215-6.215a.8.8,0,0,0-.57-.236H32.645V30.839h6.924l2.99,2.99a.8.8,0,0,0,.57.236H45.7a2.419,2.419,0,1,0,0-1.613H43.463l-2.99-2.99a.8.8,0,0,0-.57-.236H32.645V26.806H45.7a2.419,2.419,0,1,0,0-1.613H32.645V22.774H39.9a.8.8,0,0,0,.57-.236l2.99-2.99H45.7a2.419,2.419,0,1,0,0-1.613H43.129a.8.8,0,0,0-.57.236l-2.99,2.99H32.645V18.742h4.032a.8.8,0,0,0,.57-.236l6.215-6.215H45.7a2.419,2.419,0,1,0,0-1.613H43.129a.8.8,0,0,0-.57.236l-6.215,6.215h-3.7V14.71Zm13.71-11.29a.806.806,0,1,1-.806.806A.807.807,0,0,1,47.968,3.419Zm0,43.548a.806.806,0,1,1-.806.806A.807.807,0,0,1,47.968,46.968Zm0-7.258a.806.806,0,1,1-.806.806A.807.807,0,0,1,47.968,39.71Zm0-7.258a.806.806,0,1,1-.806.806A.807.807,0,0,1,47.968,32.452Zm0-7.258a.806.806,0,1,1-.806.806A.807.807,0,0,1,47.968,25.194Zm0-7.258a.806.806,0,1,1-.806.806A.807.807,0,0,1,47.968,17.935Zm0-7.258a.806.806,0,1,1-.806.806A.807.807,0,0,1,47.968,10.677ZM23.693,16.323h4.114v8.871H23.693a4.039,4.039,0,0,0-3.951-3.226,4,4,0,0,0-2.631,1l-2.9-2.211,2.9-2.211a4,4,0,0,0,2.631,1A4.04,4.04,0,0,0,23.693,16.323ZM17.323,26a2.419,2.419,0,1,1,2.419,2.419A2.422,2.422,0,0,1,17.323,26Zm2.419-12.9a2.419,2.419,0,1,1-2.419,2.419A2.422,2.422,0,0,1,19.742,13.1ZM6.032,7.452A2.419,2.419,0,1,1,8.452,5.032,2.422,2.422,0,0,1,6.032,7.452Zm0,10.484a2.419,2.419,0,1,1,2.419-2.419A2.422,2.422,0,0,1,6.032,17.935Zm3.615-.667a3.976,3.976,0,0,0,.336-.946h5.808a3.976,3.976,0,0,0,.336.946l-3.24,2.475Zm6.481,6.979a3.976,3.976,0,0,0-.336.946H9.983a3.976,3.976,0,0,0-.336-.946l3.24-2.474Zm-10.1,4.172A2.419,2.419,0,1,1,8.452,26,2.422,2.422,0,0,1,6.032,28.419Zm3.615-.667a3.976,3.976,0,0,0,.336-.946h5.808a3.976,3.976,0,0,0,.336.946l-3.24,2.475Zm6.144,7.925H9.983a3.976,3.976,0,0,0-.336-.946l3.24-2.474,3.24,2.474A3.976,3.976,0,0,0,15.791,35.677ZM6.032,38.9a2.419,2.419,0,1,1,2.419-2.419A2.422,2.422,0,0,1,6.032,38.9Zm0,10.484a2.419,2.419,0,1,1,2.419-2.419A2.422,2.422,0,0,1,6.032,49.387ZM19.742,38.9a2.419,2.419,0,1,1,2.419-2.419A2.422,2.422,0,0,1,19.742,38.9Zm3.951-3.226a4.039,4.039,0,0,0-3.951-3.226,4,4,0,0,0-2.631,1l-2.9-2.211,2.9-2.211a4,4,0,0,0,2.631,1,4.04,4.04,0,0,0,3.951-3.226h4.114v8.871Zm7.34,3.226a.806.806,0,0,1-1.613,0V12.29a.806.806,0,1,1,1.613,0Z" fill="#fff"/><path d="M30,23h1.613v1.613H30Z" transform="translate(-5.419 -4.258)" fill="#fff"/><path d="M30,27h1.613v1.613H30Z" transform="translate(-5.419 -5.032)" fill="#fff"/><path d="M30,35h1.613v1.613H30Z" transform="translate(-5.419 -6.581)" fill="#fff"/><path d="M30,39h1.613v1.613H30Z" transform="translate(-5.419 -7.355)" fill="#fff"/></g></svg>