<svg xmlns="http://www.w3.org/2000/svg" width="50" height="50" viewBox="0 0 50 50"><g transform="translate(17869 6527)"><path d="M70.64,155.275a11.672,11.672,0,0,0-16.212,0l-4.214,4.085,2.7,2.662,4.186-4.072a7.8,7.8,0,0,1,10.838,0,7.337,7.337,0,0,1,0,10.533,7.8,7.8,0,0,1-10.839,0L43.574,155.273a11.672,11.672,0,0,0-16.212,0,11.053,11.053,0,0,0,0,15.876,11.672,11.672,0,0,0,16.213,0l4.2-4.087-2.7-2.642-4.184,4.055a7.8,7.8,0,0,1-10.838,0,7.336,7.336,0,0,1,0-10.533,7.8,7.8,0,0,1,10.839,0l13.527,13.206a11.672,11.672,0,0,0,16.21,0,11.042,11.042,0,0,0,.015-15.878Z" transform="translate(-17893 -6665.578)" fill="#fff"/><g transform="translate(-17869 -6527)" fill="#fff" stroke="#707070" stroke-width="1" opacity="0"><rect width="50" height="50" stroke="none"/><rect x="0.5" y="0.5" width="49" height="49" fill="none"/></g></g></svg>