<svg xmlns="http://www.w3.org/2000/svg" width="50" height="50" viewBox="0 0 50 50"><g transform="translate(7444.088 -7910)"><path d="M20.833,0A2.083,2.083,0,0,0,18.75,2.083v3.3A20.759,20.759,0,0,0,15.535,6.7L13.216,4.378a2.083,2.083,0,0,0-2.946,0L4.378,10.27a2.084,2.084,0,0,0,0,2.946l2.328,2.328A20.713,20.713,0,0,0,5.371,18.75H2.083A2.083,2.083,0,0,0,0,20.833v8.334A2.083,2.083,0,0,0,2.083,31.25h3.3A20.714,20.714,0,0,0,6.7,34.464l-2.319,2.32a2.084,2.084,0,0,0,0,2.946l5.892,5.892a2.083,2.083,0,0,0,2.946,0l2.328-2.327a20.726,20.726,0,0,0,3.206,1.335v3.288A2.084,2.084,0,0,0,20.833,50h8.334a2.084,2.084,0,0,0,2.083-2.083v-3.3A20.685,20.685,0,0,0,34.465,43.3l2.319,2.32a2.084,2.084,0,0,0,2.946,0l5.892-5.892a2.084,2.084,0,0,0,0-2.946l-2.327-2.327a20.689,20.689,0,0,0,1.335-3.206h3.288A2.084,2.084,0,0,0,50,29.167V20.833a2.083,2.083,0,0,0-2.083-2.083h-3.3A20.759,20.759,0,0,0,43.3,15.535l2.319-2.319a2.084,2.084,0,0,0,0-2.946L39.73,4.378a2.084,2.084,0,0,0-2.946,0L34.456,6.706A20.73,20.73,0,0,0,31.25,5.371V2.083A2.083,2.083,0,0,0,29.167,0Zm2.083,4.167h4.167V6.738A2.084,2.084,0,0,0,28.7,8.773a16.68,16.68,0,0,1,5.16,2.132,2.083,2.083,0,0,0,2.58-.293L38.257,8.8,41.2,11.743,39.4,13.55a2.083,2.083,0,0,0-.293,2.58,16.638,16.638,0,0,1,2.116,5.159,2.083,2.083,0,0,0,2.035,1.628h2.58v4.167H43.262A2.083,2.083,0,0,0,41.227,28.7a16.675,16.675,0,0,1-2.132,5.16,2.083,2.083,0,0,0,.293,2.58L41.2,38.257,38.257,41.2,36.45,39.4a2.084,2.084,0,0,0-2.58-.293,16.625,16.625,0,0,1-5.16,2.116,2.083,2.083,0,0,0-1.628,2.035v2.58H22.917V43.262a2.084,2.084,0,0,0-1.62-2.035,16.679,16.679,0,0,1-5.16-2.132,2.083,2.083,0,0,0-2.58.285l-1.815,1.815L8.8,38.248,10.6,36.442a2.083,2.083,0,0,0,.293-2.58A16.639,16.639,0,0,1,8.781,28.7a2.084,2.084,0,0,0-2.034-1.628H4.167V22.908H6.738a2.084,2.084,0,0,0,2.035-1.62,16.674,16.674,0,0,1,2.132-5.159,2.084,2.084,0,0,0-.293-2.58L8.8,11.735l2.946-2.946L13.55,10.6a2.084,2.084,0,0,0,2.571.293,16.674,16.674,0,0,1,5.168-2.116,2.083,2.083,0,0,0,1.627-2.026ZM25,14.583A10.417,10.417,0,1,0,35.417,25,10.463,10.463,0,0,0,25,14.583Zm0,4.167A6.25,6.25,0,1,1,18.75,25,6.262,6.262,0,0,1,25,18.75Z" transform="translate(-7444.089 7910)" fill="#fff"/></g></svg>