<svg xmlns="http://www.w3.org/2000/svg" width="50" height="50" viewBox="0 0 50 50"><g transform="translate(-466.484 -1844.119)"><g transform="translate(466.484 1844.119)"><path d="M4.089,49.2.8,45.877a2.484,2.484,0,0,1-.148-3.5l5.111-5.163C1.732,30.281,2.538,21.878,7.738,16.632L33.075,42.2c-5.2,5.242-13.525,6.057-20.4,1.987l-5.113,5.16a2.226,2.226,0,0,1-1.6.655A2.644,2.644,0,0,1,4.089,49.2ZM35.972,30.559l-1.66,1.676a2.566,2.566,0,0,1-3.654,0l-.994-1a2.621,2.621,0,0,1,0-3.683l1.662-1.671v-.006l-6.971-7.034-1.666,1.676a2.56,2.56,0,0,1-3.648,0l-.994-1a2.617,2.617,0,0,1,0-3.683l1.66-1.671L15.06,9.47A17.955,17.955,0,0,1,36.648,6.439L42.269.764a2.567,2.567,0,0,1,3.654,0l3.32,3.352a2.617,2.617,0,0,1,0,3.683l-5.621,5.674a18.354,18.354,0,0,1-3.008,21.772Z" transform="translate(0 0)" fill="#fff"/></g></g></svg>