<svg xmlns="http://www.w3.org/2000/svg" width="50.125" height="50.234" viewBox="0 0 50.125 50.234"><g transform="translate(18696.125 6516)"><path d="M9.076,2a.893.893,0,0,0-.1.01H2.9A.893.893,0,1,0,2.9,3.8H8.417l1.1,4.552.01.035,5.226,21.751,2.313,9.627a6.237,6.237,0,1,0,6.078,1.545H35.591a6.259,6.259,0,1,0,5.16-1.73,1.152,1.152,0,0,0-.272-.056l-.063,0h-.269c-.059,0-.115-.017-.175-.017s-.115.016-.174.017H18.936c-.033,0-.064-.01-.1-.011l-2.153-8.96H44.153A.893.893,0,0,0,45,29.93L51.964,8.486a.893.893,0,0,0-.848-1.168H12.178l-1.085-.042L9.99,2.7A.892.892,0,0,0,9.076,2Zm2.449,7.077.6.024H49.885l-2.9,8.943H28.076a.894.894,0,1,0,0,1.786H46.4l-2.9,8.933H16.438a.893.893,0,0,0-.178.014Zm7.016,32.228h.433a4.462,4.462,0,1,1-.433,0Zm21.215,0h.433a4.466,4.466,0,1,1-.433,0Z" transform="translate(-18698.133 -6517.767)" fill="#fff"/><g transform="translate(-18696 -6516)" fill="#fff" stroke="#707070" stroke-width="1" opacity="0"><rect width="50" height="50" stroke="none"/><rect x="0.5" y="0.5" width="49" height="49" fill="none"/></g></g></svg>