<svg xmlns="http://www.w3.org/2000/svg" width="50" height="49.998" viewBox="0 0 50 49.998"><g transform="translate(0 -0.012)"><g transform="translate(0 0.012)"><g transform="translate(0 0)"><path d="M355.1,251.69v-18.4a.732.732,0,1,0-1.465,0v18.489a2.655,2.655,0,0,0-1.654,1.747H344.4a.732.732,0,0,0,0,1.465h7.58a2.643,2.643,0,1,0,3.125-3.3Zm-.582,3.757a1.178,1.178,0,1,1,1.179-1.179A1.179,1.179,0,0,1,354.519,255.447Z" transform="translate(-310.103 -209.846)" fill="#fff"/><path d="M32.029,35.194V57.364a.732.732,0,0,0,1.465,0V35.19a2.655,2.655,0,0,0,1.8-1.8h11.2a.732.732,0,1,0,0-1.465h-11.2a2.643,2.643,0,1,0-3.263,3.274Zm.724-3.721a1.178,1.178,0,1,1-1.179,1.179A1.18,1.18,0,0,1,32.753,31.474Z" transform="translate(-27.169 -27.08)" fill="#fff"/><path d="M217.019,6.54a4.592,4.592,0,0,0-5.41-3.865,7.175,7.175,0,0,0-11.157,0,4.591,4.591,0,0,0-5.41,3.865A7.175,7.175,0,0,0,197.5,20.456h6.823a.732.732,0,1,0,0-1.465H197.5a5.71,5.71,0,0,1-1.567-11.2.732.732,0,0,0,.532-.686,3.119,3.119,0,0,1,4.063-2.9.732.732,0,0,0,.82-.28,5.711,5.711,0,0,1,9.369,0,.732.732,0,0,0,.82.279A3.128,3.128,0,0,1,215.6,7.1a.732.732,0,0,0,.532.686,5.71,5.71,0,0,1-1.567,11.2H207.74a.732.732,0,0,0,0,1.465h6.822A7.175,7.175,0,0,0,217.019,6.54Z" transform="translate(-171.738 -0.012)" fill="#fff"/><path d="M30.656,316.842a.733.733,0,0,0-.894.523,5.711,5.711,0,0,1-5.523,4.258H7.175a5.71,5.71,0,0,1-1.567-11.2.732.732,0,0,0,.532-.686,3.119,3.119,0,0,1,4.062-2.9.732.732,0,0,0,.82-.279,5.711,5.711,0,0,1,9.369,0,.732.732,0,0,0,.82.279,3.118,3.118,0,0,1,4.062,2.9.732.732,0,0,0,.532.686,5.747,5.747,0,0,1,3.921,3.913.732.732,0,1,0,1.408-.4,7.229,7.229,0,0,0-4.44-4.759,4.592,4.592,0,0,0-5.41-3.866,7.176,7.176,0,0,0-11.157,0,4.592,4.592,0,0,0-5.41,3.865,7.175,7.175,0,0,0,2.457,13.916H24.239a7.177,7.177,0,0,0,6.94-5.351A.732.732,0,0,0,30.656,316.842Z" transform="translate(0 -273.089)" fill="#fff"/></g></g></g></svg>