<svg xmlns="http://www.w3.org/2000/svg" width="50" height="50" viewBox="0 0 50 50"><path d="M50,20.968H48.188l-2.7,1.421a4.009,4.009,0,0,0-.961-.4l-3.4-.85v-.386a5.663,5.663,0,0,0,2.42-4.628v-1.41a5.794,5.794,0,0,0-5.472-5.846c-.153,0-.3,0-.456.009L38.5,6.82l-4.27-4.269L31.714,4.189a13.641,13.641,0,0,0-3.019-1.252L28.073,0H21.927l-.622,2.938A13.625,13.625,0,0,0,18.287,4.19L15.769,2.552,11.5,6.819l.866,2.064c-.033,0-.065-.007-.1-.008a5.647,5.647,0,0,0-5.819,5.642v1.613a5.661,5.661,0,0,0,2.419,4.627v.387L6.655,21.7,2.638,19.355H0V36.065L7.934,38.71H9.479l.193-.676,2.432,1.46a2.511,2.511,0,0,0,2.421,2.433,2.511,2.511,0,0,0,2.419,2.419,2.511,2.511,0,0,0,2.419,2.419,2.508,2.508,0,0,0,3.922,1.991l.714.631A2.456,2.456,0,0,0,25.622,50h.149a2.455,2.455,0,0,0,2.451-2.423,2.453,2.453,0,0,0,2.419-2.419,2.453,2.453,0,0,0,2.419-2.422,2.48,2.48,0,0,0,2.423-2.474,2.362,2.362,0,0,0-.012-.242L50,32.757Zm-8.065-6.248v1.41a4.048,4.048,0,0,1-2.018,3.49l-.4.233,0,2.552,4.029,1.006-8.869,4.668V25.906a4.013,4.013,0,0,0-1.155-2.81L36.29,22.4V19.85l-.4-.233a4.044,4.044,0,0,1-2.017-3.488V14.516a4.032,4.032,0,0,1,4.157-4.03,4.17,4.17,0,0,1,3.907,4.233ZM26.216,27.444l-3.651-1.167a9.959,9.959,0,0,0-5.168-.235l-.462.1v-.239a2.418,2.418,0,0,1,1.832-2.348L23.387,22.4V19.85l-.4-.233a4.044,4.044,0,0,1-2.017-3.488V14.516a4.032,4.032,0,0,1,4.157-4.03,4.17,4.17,0,0,1,3.907,4.233v1.41a4.048,4.048,0,0,1-2.018,3.49l-.4.233,0,2.552,4.619,1.154a2.418,2.418,0,0,1,1.832,2.348v3.022l-.2.1h-.494l-4.958-1.417a5.084,5.084,0,0,0-1.2-.171Zm-9.1-15.374A8.865,8.865,0,0,1,32.85,12a5.609,5.609,0,0,0-.593,2.511v1.613a5.661,5.661,0,0,0,2.419,4.627v.387l-3.226.808-3.227-.808v-.386a5.663,5.663,0,0,0,2.42-4.628v-1.41a5.794,5.794,0,0,0-5.472-5.846,5.646,5.646,0,0,0-5.818,5.643v1.613a5.661,5.661,0,0,0,2.419,4.627v.387l-3.226.808-3.227-.808v-.386a5.663,5.663,0,0,0,2.42-4.628v-1.41a5.944,5.944,0,0,0-.626-2.649ZM13.407,7.193l2.576-2.576,2.268,1.476.434-.266a12.034,12.034,0,0,1,3.492-1.448l.5-.119.561-2.646h3.531l.56,2.645.5.119a12.046,12.046,0,0,1,3.492,1.449l.434.266,2.268-1.476,2.573,2.574-.915,2.142a5.637,5.637,0,0,0-1.7,1.132c-.033.032-.061.067-.094.1a10.473,10.473,0,0,0-17.787.048A5.688,5.688,0,0,0,14.312,9.35ZM10.484,22.4V19.85l-.4-.233a4.044,4.044,0,0,1-2.017-3.488V14.516a4.032,4.032,0,0,1,4.157-4.03,4.17,4.17,0,0,1,3.907,4.233v1.41a4.048,4.048,0,0,1-2.018,3.49l-.4.233,0,2.552,2.767.691a4.013,4.013,0,0,0-1.155,2.81v.6l-2.515.559.065-.228.031-1.49L8.65,22.862ZM1.613,20.968H2.2L8,24.351,5.074,36.056,1.613,34.9ZM8.195,37.1l-1.587-.529L9.451,25.2l1.839,1.073v.23L8.263,37.1Zm5.514,2.322a.91.91,0,0,1,.265-.639l1.418-1.418a.9.9,0,0,1,1.279,1.279l-1.418,1.418a.9.9,0,0,1-1.544-.639Zm2.419,2.419a.91.91,0,0,1,.265-.639l1.418-1.418A.9.9,0,0,1,19.09,41.06l-1.418,1.418a.9.9,0,0,1-1.544-.639Zm2.419,2.419a.91.91,0,0,1,.265-.639L20.23,42.2a.9.9,0,0,1,1.279,1.279L20.092,44.9a.9.9,0,0,1-1.544-.639Zm3.323,3.323a.9.9,0,0,1-.639-1.544l1.418-1.418A.9.9,0,0,1,23.929,45.9l-1.418,1.418A.91.91,0,0,1,21.872,47.581Zm3.9.806h-.149a.836.836,0,0,1-.556-.211l-.6-.532.606-.606a2.507,2.507,0,0,0,.508-.749l.733.61a.841.841,0,0,1-.539,1.487ZM33,41.129h-.139a.865.865,0,0,1-.555-.2l-4.373-3.644L26.9,38.523l4.247,3.538a.842.842,0,0,1-.539,1.487h-.176a.841.841,0,0,1-.538-.2l-4.38-3.65-1.033,1.24,4.247,3.539a.84.84,0,0,1-.539,1.486,1.332,1.332,0,0,1-.849-.307l-1.8-1.5a2.509,2.509,0,0,0-2.165-1.409,2.511,2.511,0,0,0-2.419-2.419,2.511,2.511,0,0,0-2.419-2.419,2.511,2.511,0,0,0-4.287-1.691l-1.418,1.418a2.485,2.485,0,0,0-.226.276L10.13,36.428l2.172-7.6,5.444-1.21a8.308,8.308,0,0,1,4.327.2l1.188.38-4.028,2.014a2.688,2.688,0,0,0-1.492,2.416v.159A2.7,2.7,0,0,0,21.833,35.1l3-1.8a1.665,1.665,0,0,1,1.934.186l6.814,6.132A.868.868,0,0,1,33,41.129Zm15.383-9.369L34.8,38.553c-.044-.047-.09-.091-.139-.135l-6.813-6.132a3.245,3.245,0,0,0-3.844-.372l-3,1.8a1.088,1.088,0,0,1-1.647-.934v-.159a1.082,1.082,0,0,1,.6-.973l4.5-2.249a3.505,3.505,0,0,1,2.513-.233l5.068,1.448,1.227.031,15.123-7.96Zm0,0" fill="#fff"/></svg>