<svg xmlns="http://www.w3.org/2000/svg" width="50" height="50" viewBox="0 0 50 50">
  <g id="hybrid" transform="translate(-1 -1)">
    <path id="Path_1138" data-name="Path 1138" d="M40.516,30.032A10.491,10.491,0,0,0,30.073,39.71h-.848a.807.807,0,0,1-.806-.806V26a.807.807,0,0,1,.806-.806h12.1A7.26,7.26,0,0,0,42.71,10.807a7.5,7.5,0,0,0-1.806-.115,7.263,7.263,0,0,0-6.84-4.853,7.144,7.144,0,0,0-2.528.459A11.284,11.284,0,0,0,10.8,10.684a7.471,7.471,0,0,0-1.572.135A7.228,7.228,0,0,0,3.56,16.487a7.264,7.264,0,0,0,7.117,8.706h12.1a.807.807,0,0,1,.806.806V37.29a.807.807,0,0,1-.806.806h-.806V30.839a4.037,4.037,0,0,0-4.032-4.032H5.032A4.037,4.037,0,0,0,1,30.839V46.968A4.037,4.037,0,0,0,5.032,51h12.9a4.037,4.037,0,0,0,4.032-4.032V39.71h.806a2.422,2.422,0,0,0,2.419-2.419V26a2.422,2.422,0,0,0-2.419-2.419h-12.1a5.631,5.631,0,0,1-4.358-2.056A5.694,5.694,0,0,1,5.144,16.8,5.6,5.6,0,0,1,9.537,12.4a5.7,5.7,0,0,1,4.728,1.176,5.63,5.63,0,0,1,2.057,4.358h1.613A7.242,7.242,0,0,0,12.4,10.89,9.673,9.673,0,0,1,30.49,7.7l.37.686.7-.347a5.584,5.584,0,0,1,2.506-.593,5.645,5.645,0,0,1,0,11.29v1.613A7.239,7.239,0,0,0,41.277,12.3a5.911,5.911,0,0,1,1.139.091,5.6,5.6,0,0,1,4.441,4.4,5.694,5.694,0,0,1-1.176,4.729,5.629,5.629,0,0,1-4.358,2.057h-12.1A2.422,2.422,0,0,0,26.806,26V38.9a2.422,2.422,0,0,0,2.419,2.419h.848a10.479,10.479,0,1,0,10.443-11.29ZM5.032,28.419h12.9a2.422,2.422,0,0,1,2.419,2.419v12.1H2.613v-12.1A2.422,2.422,0,0,1,5.032,28.419Zm12.9,20.968H5.032a2.422,2.422,0,0,1-2.419-2.419V44.548H20.355v2.419A2.422,2.422,0,0,1,17.935,49.387ZM40.516,31.645a8.867,8.867,0,0,1,7.36,13.819,7.2,7.2,0,0,0-4.165-3.741,4.839,4.839,0,1,0-6.388,0,7.208,7.208,0,0,0-4.165,3.741,8.866,8.866,0,0,1,7.359-13.819ZM37.29,38.1a3.226,3.226,0,1,1,3.226,3.226A3.229,3.229,0,0,1,37.29,38.1Zm-2.944,8.781a5.605,5.605,0,0,1,5.363-3.942h1.613a5.6,5.6,0,0,1,5.363,3.942,8.838,8.838,0,0,1-12.339,0Z" transform="translate(0 0)" fill="#fff"/>
    <path id="Path_1139" data-name="Path 1139" d="M6.613,41.839H17.9a1.615,1.615,0,0,0,1.613-1.613V38.613A1.615,1.615,0,0,0,17.9,37H6.613A1.615,1.615,0,0,0,5,38.613v1.613A1.615,1.615,0,0,0,6.613,41.839Zm0-3.226H17.9v1.613H6.613Z" transform="translate(-0.774 -6.968)" fill="#fff"/>
    <path id="Path_1140" data-name="Path 1140" d="M6.613,49.839H17.9a1.615,1.615,0,0,0,1.613-1.613V46.613A1.615,1.615,0,0,0,17.9,45H6.613A1.615,1.615,0,0,0,5,46.613v1.613A1.615,1.615,0,0,0,6.613,49.839Zm0-3.226H17.9v1.613H6.613Z" transform="translate(-0.774 -8.516)" fill="#fff"/>
    <path id="Path_1141" data-name="Path 1141" d="M21,57h1.613v1.613H21Z" transform="translate(-3.871 -10.839)" fill="#fff"/>
    <path id="Path_1142" data-name="Path 1142" d="M17,57h1.613v1.613H17Z" transform="translate(-3.097 -10.839)" fill="#fff"/>
    <path id="Path_1143" data-name="Path 1143" d="M13,57h1.613v1.613H13Z" transform="translate(-2.323 -10.839)" fill="#fff"/>
    <path id="Path_1144" data-name="Path 1144" d="M15.419,21.032h1.613A4.037,4.037,0,0,0,13,17v1.613A2.422,2.422,0,0,1,15.419,21.032Z" transform="translate(-2.323 -3.097)" fill="#fff"/>
    <path id="Path_1145" data-name="Path 1145" d="M34.226,9.479A8.023,8.023,0,0,0,27,5V6.613A6.418,6.418,0,0,1,32.781,10.2Z" transform="translate(-5.032 -0.774)" fill="#fff"/>
    <path id="Path_1146" data-name="Path 1146" d="M44.419,16A2.422,2.422,0,0,1,42,18.419v1.613A4.037,4.037,0,0,0,46.032,16Z" transform="translate(-7.935 -2.903)" fill="#fff"/>
    <path id="Path_1147" data-name="Path 1147" d="M13,25h1.613v1.613H13Z" transform="translate(-2.323 -4.645)" fill="#fff"/>
    <path id="Path_1148" data-name="Path 1148" d="M17,25h1.613v1.613H17Z" transform="translate(-3.097 -4.645)" fill="#fff"/>
    <path id="Path_1149" data-name="Path 1149" d="M21,25h1.613v1.613H21Z" transform="translate(-3.871 -4.645)" fill="#fff"/>
  </g>
</svg>
