<svg xmlns="http://www.w3.org/2000/svg" width="50" height="50" viewBox="0 0 50 50"><path d="M42.547-1.946A2.083,2.083,0,0,0,40.464.137v3.3a20.759,20.759,0,0,0-3.215,1.318L34.93,2.432a2.083,2.083,0,0,0-2.946,0L26.092,8.324a2.084,2.084,0,0,0,0,2.946L28.419,13.6A20.713,20.713,0,0,0,27.085,16.8H23.8a2.083,2.083,0,0,0-2.083,2.083v8.334A2.083,2.083,0,0,0,23.8,29.3h3.3a20.714,20.714,0,0,0,1.318,3.214l-2.319,2.32a2.084,2.084,0,0,0,0,2.946l5.892,5.892a2.083,2.083,0,0,0,2.946,0l2.328-2.327a20.726,20.726,0,0,0,3.206,1.335v3.288a2.084,2.084,0,0,0,2.083,2.083H50.88a2.084,2.084,0,0,0,2.083-2.083v-3.3a20.685,20.685,0,0,0,3.215-1.318l2.319,2.32a2.084,2.084,0,0,0,2.946,0l5.892-5.892a2.084,2.084,0,0,0,0-2.946L65.008,32.51A20.689,20.689,0,0,0,66.342,29.3H69.63a2.084,2.084,0,0,0,2.083-2.083V18.888A2.083,2.083,0,0,0,69.631,16.8h-3.3a20.759,20.759,0,0,0-1.318-3.215l2.319-2.319a2.084,2.084,0,0,0,0-2.946L61.444,2.432a2.084,2.084,0,0,0-2.946,0L56.17,4.76a20.73,20.73,0,0,0-3.206-1.335V.137a2.084,2.084,0,0,0-2.083-2.083ZM44.63,2.221H48.8V4.792a2.084,2.084,0,0,0,1.62,2.035,16.68,16.68,0,0,1,5.16,2.132,2.083,2.083,0,0,0,2.58-.293L59.97,6.851,62.917,9.8,61.11,11.6a2.083,2.083,0,0,0-.293,2.58,16.638,16.638,0,0,1,2.116,5.159,2.083,2.083,0,0,0,2.035,1.628h2.58v4.167H64.975a2.083,2.083,0,0,0-2.035,1.619,16.675,16.675,0,0,1-2.132,5.16A2.083,2.083,0,0,0,61.1,34.5l1.815,1.815L59.97,39.257,58.164,37.45a2.084,2.084,0,0,0-2.58-.293,16.625,16.625,0,0,1-5.16,2.116A2.083,2.083,0,0,0,48.8,41.308v2.58H44.63V41.316a2.084,2.084,0,0,0-1.62-2.035,16.679,16.679,0,0,1-5.16-2.132,2.083,2.083,0,0,0-2.58.285l-1.815,1.815L30.511,36.3,32.317,34.5a2.083,2.083,0,0,0,.293-2.58,16.639,16.639,0,0,1-2.116-5.16,2.084,2.084,0,0,0-2.034-1.628H25.88V20.962h2.572a2.084,2.084,0,0,0,2.035-1.62,16.674,16.674,0,0,1,2.132-5.159,2.084,2.084,0,0,0-.293-2.58L30.511,9.789l2.946-2.946L35.264,8.65a2.084,2.084,0,0,0,2.571.293A16.674,16.674,0,0,1,43,6.827,2.084,2.084,0,0,0,44.63,4.8Zm2.083,10.417A10.417,10.417,0,1,0,57.13,23.054,10.463,10.463,0,0,0,46.714,12.637Zm0,4.167a6.25,6.25,0,1,1-6.25,6.25A6.262,6.262,0,0,1,46.714,16.8Z" transform="translate(-21.713 1.946)" fill="#fff"/></svg>