<svg xmlns="http://www.w3.org/2000/svg" width="50" height="50" viewBox="0 0 50 50"><g transform="translate(17584 7053)"><g transform="translate(-17669.002 -6733.207)"><path d="M17680.439,6861.207a3.654,3.654,0,0,1-1.045-7.156v-9.116l-4.912-4.914a1.032,1.032,0,0,1-.3-.737v-1.566h2.086v1.133l4.914,4.913a1.032,1.032,0,0,1,.3.737v9.549a3.654,3.654,0,0,1-1.043,7.156Zm13.568,0a3.654,3.654,0,0,1-1.043-7.155V6844.5a1.04,1.04,0,0,1,.3-.737l4.914-4.913v-1.133h2.09v1.566a1.046,1.046,0,0,1-.309.737l-4.912,4.914v9.116a3.654,3.654,0,0,1-.689,7.138C17694.246,6861.2,17694.125,6861.206,17694.008,6861.206Zm-6.781-8.352c-.117,0-.238-.006-.355-.018a3.652,3.652,0,0,1-.689-7.135v-7.982h2.088v7.982a3.653,3.653,0,0,1-1.043,7.153Zm13.119-17.136h-26.24a2.07,2.07,0,0,1-.816-.167,5.433,5.433,0,0,1,.773-10.249,7.986,7.986,0,0,1,4.676-6.64,3.084,3.084,0,0,0,.783,1.931,5.918,5.918,0,0,0-3.225,6.77,3.248,3.248,0,0,0-.93-.135,3.337,3.337,0,0,0-1.262,6.4h26.24a3.337,3.337,0,0,0-1.266-6.4,3.245,3.245,0,0,0-.928.135,5.752,5.752,0,0,0,.172-1.414,5.909,5.909,0,0,0-3.363-5.337,3.107,3.107,0,0,0,.625-1.668h.008a3.149,3.149,0,0,0,.586-.058,8,8,0,0,1,4.205,6.417,5.432,5.432,0,0,1,.775,10.249A2.068,2.068,0,0,1,17700.346,6835.717Zm-10.973-13.036a1.034,1.034,0,0,1-.746-.314,2.226,2.226,0,0,0-3.1-.064,1.047,1.047,0,0,1-1.477-.044,1.049,1.049,0,0,1,.051-1.478,4.317,4.317,0,0,1,6.014.128,1.044,1.044,0,0,1-.746,1.772Zm3.1-2.913a1.034,1.034,0,0,1-.744-.313,6.588,6.588,0,0,0-9.17-.191,1.043,1.043,0,0,1-1.473-.046,1.047,1.047,0,0,1,.045-1.478,8.681,8.681,0,0,1,12.088.256,1.043,1.043,0,0,1-.746,1.772Zm3.1-2.913h0a1.038,1.038,0,0,1-.746-.313,10.943,10.943,0,0,0-15.24-.319,1.043,1.043,0,1,1-1.428-1.521,13.03,13.03,0,0,1,18.16.381,1.042,1.042,0,0,1-.746,1.772Z" transform="translate(-17578 -7131)" fill="#fff"/></g><g transform="translate(-17584 -7053)" fill="#fff" stroke="#707070" stroke-width="1" opacity="0"><rect width="50" height="49.745" stroke="none"/><rect x="0.5" y="0.5" width="49" height="48.745" fill="none"/></g></g></svg>