<svg xmlns="http://www.w3.org/2000/svg" width="50" height="49.999" viewBox="0 0 50 49.999"><g transform="translate(0 -0.006)"><g transform="translate(0 0.006)"><path d="M47.07,26.723V22.076a1.465,1.465,0,0,0-1.465-1.465,44.19,44.19,0,0,0-8.513.777,13.226,13.226,0,0,0-5.5-3.184,10.254,10.254,0,1,0-13.186,0,13.228,13.228,0,0,0-5.5,3.184,44.2,44.2,0,0,0-8.513-.777A1.465,1.465,0,0,0,2.93,22.076v4.646A4.4,4.4,0,0,0,0,30.865v2.93a4.4,4.4,0,0,0,2.93,4.143v4.646a1.465,1.465,0,0,0,1.465,1.465A34.089,34.089,0,0,1,24.187,49.76a1.47,1.47,0,0,0,1.625,0,34.088,34.088,0,0,1,19.793-5.711,1.465,1.465,0,0,0,1.465-1.465V37.937A4.4,4.4,0,0,0,50,33.795v-2.93A4.4,4.4,0,0,0,47.07,26.723ZM17.676,10.358A7.324,7.324,0,1,1,25,17.682,7.382,7.382,0,0,1,17.676,10.358ZM4.394,35.26A1.467,1.467,0,0,1,2.93,33.795v-2.93a1.465,1.465,0,1,1,2.93,0v2.93A1.467,1.467,0,0,1,4.394,35.26ZM23.535,45.913A36.651,36.651,0,0,0,5.859,41.14v-3.2a4.4,4.4,0,0,0,2.93-4.143v-2.93a4.4,4.4,0,0,0-2.93-4.143V23.562a33.11,33.11,0,0,1,17.676,5.168ZM25,26.191a34.813,34.813,0,0,0-8.522-3.918,10.275,10.275,0,0,1,5.593-1.662H27.93a10.275,10.275,0,0,1,5.593,1.662A34.812,34.812,0,0,0,25,26.191ZM44.14,41.14a36.653,36.653,0,0,0-17.676,4.773V28.731A33.107,33.107,0,0,1,44.14,23.562v3.161a4.4,4.4,0,0,0-2.93,4.143v2.93a4.4,4.4,0,0,0,2.93,4.143Zm2.93-7.345a1.465,1.465,0,0,1-2.93,0v-2.93a1.465,1.465,0,1,1,2.93,0Z" transform="translate(0 -0.006)" fill="#fff"/></g></g></svg>