<svg xmlns="http://www.w3.org/2000/svg" width="50" height="49.999" viewBox="0 0 50 49.999"><g transform="translate(-2 -2)"><path d="M18.82,22.167H11.167a.831.831,0,0,0-.589.244L7.488,25.5H6.847a2.5,2.5,0,1,0,0,1.667h.987a.831.831,0,0,0,.589-.244l3.089-3.089H18.82a2.475,2.475,0,0,0,3.992,1.033l3.4,1.889a2.469,2.469,0,0,0-.042.411,2.5,2.5,0,1,0,5,0,2.469,2.469,0,0,0-.042-.411l3.4-1.889A2.491,2.491,0,1,0,37,20.653V17.012A2.493,2.493,0,1,0,34.52,12.8l-3.4-1.889a2.45,2.45,0,0,0,.042-.41,2.5,2.5,0,0,0-5,0,2.469,2.469,0,0,0,.042.411l-3.4,1.889a2.475,2.475,0,0,0-3.992,1.033H11.512L8.422,10.744a.831.831,0,0,0-.589-.244H6.847a2.5,2.5,0,1,0,0,1.667h.642l3.089,3.089a.831.831,0,0,0,.589.244H18.82a2.5,2.5,0,0,0,1.513,1.513V18H6.847a2.5,2.5,0,1,0,0,1.667H20.333v.987a2.5,2.5,0,0,0-1.513,1.513Zm-14.32,5a.833.833,0,1,1,.833-.833A.835.835,0,0,1,4.5,27.166Zm0-15a.833.833,0,1,1,.833-.833A.835.835,0,0,1,4.5,12.167Zm0,7.5a.833.833,0,1,1,.833-.833A.835.835,0,0,1,4.5,19.667Zm16.666,4.167A.833.833,0,1,1,22,23,.835.835,0,0,1,21.166,23.833Zm1.646-7.3,3.4,1.889a2.046,2.046,0,0,0,0,.822l-3.4,1.889a2.5,2.5,0,0,0-.812-.48V17.012a2.465,2.465,0,0,0,.812-.479Zm11.708,4.6-3.4-1.889a2.046,2.046,0,0,0,0-.822l3.4-1.889a2.5,2.5,0,0,0,.812.48v3.641A2.465,2.465,0,0,0,34.52,21.133Zm-10.9,1.456,3.4-1.889a2.5,2.5,0,0,0,.812.48v3.641a2.481,2.481,0,0,0-.812.48l-3.4-1.889a2.05,2.05,0,0,0,0-.822ZM28.666,18a.833.833,0,1,1-.833.833A.835.835,0,0,1,28.666,18Zm.833,3.18a2.481,2.481,0,0,0,.812-.48l3.4,1.889a2.046,2.046,0,0,0,0,.822l-3.4,1.889a2.5,2.5,0,0,0-.812-.48Zm4.208-6.1-3.4,1.889a2.5,2.5,0,0,0-.812-.48V12.846a2.481,2.481,0,0,0,.812-.48l3.4,1.889a2.05,2.05,0,0,0,0,.822Zm-5.875,1.409a2.481,2.481,0,0,0-.812.48l-3.4-1.889a2.046,2.046,0,0,0,0-.822l3.4-1.889a2.5,2.5,0,0,0,.812.48ZM28.666,28a.833.833,0,1,1,.833-.833A.835.835,0,0,1,28.666,28Zm7.5-4.167A.833.833,0,1,1,37,23,.835.835,0,0,1,36.166,23.833Zm0-10a.833.833,0,1,1-.833.833A.835.835,0,0,1,36.166,13.833Zm-7.5-4.167a.833.833,0,1,1-.833.833A.835.835,0,0,1,28.666,9.667Zm-7.5,4.167a.833.833,0,1,1-.833.833A.835.835,0,0,1,21.166,13.833Z" transform="translate(0 -1)" fill="#fff"/><path d="M21.291,52H34.624a.834.834,0,0,0,.833-.833V45.333H46.29a.834.834,0,0,0,.833-.833v-10h5.833a.834.834,0,0,0,.8-1.082L49.6,20.122A18.738,18.738,0,0,0,29.748,2.033a18.824,18.824,0,0,0-14.659,8.683l1.4.9A17.154,17.154,0,0,1,29.846,3.7,17.073,17.073,0,0,1,47.937,20.374a.8.8,0,0,0,.118.4l3.769,12.062H46.29a.834.834,0,0,0-.833.833V37h-2.5a2.5,2.5,0,0,1-2.5-2.5H38.791a4.171,4.171,0,0,0,4.167,4.167h2.5v5H34.624a.834.834,0,0,0-.833.833v5.833H22.124v-.806A38.537,38.537,0,0,0,16.262,29.59a16.929,16.929,0,0,1-1.906-4.47l-1.612.427a18.6,18.6,0,0,0,2.093,4.91,36.876,36.876,0,0,1,5.619,19.071v1.639a.834.834,0,0,0,.833.833Z" transform="translate(-1.791 0)" fill="#fff"/></g></svg>