<svg xmlns="http://www.w3.org/2000/svg" width="50" height="50.004" viewBox="0 0 50 50.004"><g transform="translate(-0.004)"><path d="M31.636,10.251A15.113,15.113,0,0,0,6.486,25.328a.741.741,0,0,0,.044.125,15.113,15.113,0,1,0,25.107-15.2ZM11.325,11.319a13.607,13.607,0,0,1,19.243,0c.034.034.063.072.1.107l-3.349,1.055a2.215,2.215,0,1,0-3.141,3.072L21.658,22.4a2.108,2.108,0,0,0-1.41.208l-5.01-4.175c0-.04.012-.078.012-.118a2.223,2.223,0,0,0-4.447,0c0,.062.014.119.018.179L7.564,23.341A13.6,13.6,0,0,1,11.325,11.319Zm14.233,3.218a.711.711,0,1,1,.711-.711A.712.712,0,0,1,25.558,14.538ZM21.249,23.87a.693.693,0,0,1,.317.083.881.881,0,0,0,.1.067.7.7,0,0,1,.3.561.711.711,0,1,1-.711-.711Zm-8.933-5.555a.711.711,0,1,1,.711.711A.712.712,0,0,1,12.316,18.316ZM30.568,30.562A13.577,13.577,0,0,1,8.073,25.3l3.546-5.276a2.2,2.2,0,0,0,2.989-.144l4.6,3.833a2.223,2.223,0,1,0,4.267.874,2.2,2.2,0,0,0-.5-1.384l2.63-7.154a2.217,2.217,0,0,0,2.166-2.122l3.967-1.249a13.579,13.579,0,0,1-1.17,17.889Z" transform="translate(-1.288 -1.285)" fill="#fff"/><path d="M47.577,40.114,36.433,30.126a19.772,19.772,0,0,0,.137-20.619L42.8,7.542l-.477.841a.758.758,0,1,0,1.319.747l1.431-2.523a.416.416,0,0,0,.016-.053.759.759,0,0,0,.04-.123.7.7,0,0,0,.032-.169.584.584,0,0,0-.01-.1.669.669,0,0,0-.016-.158.458.458,0,0,0-.023-.043c-.006-.015-.016-.027-.023-.041a.7.7,0,0,0-.145-.216l0,0a.685.685,0,0,0-.091-.068.8.8,0,0,0-.113-.086L42.121,4.307a.758.758,0,1,0-.649,1.369l.884.42L35.7,8.193a19.79,19.79,0,0,0-2.056-2.42,19.71,19.71,0,0,0-31.57,22.74L.4,30.712a.757.757,0,0,0,.145,1.062.756.756,0,0,0,1.061-.145l1.268-1.667A19.731,19.731,0,0,0,30.13,36.428l9.994,11.144A6.627,6.627,0,0,0,44.78,50c.047,0,.093,0,.138,0A5.265,5.265,0,0,0,50,44.771,6.627,6.627,0,0,0,47.577,40.114ZM6.847,32.571a18.24,18.24,0,0,1-3.208-4.323c-.009-.016-.015-.033-.024-.049a18.212,18.212,0,1,1,3.232,4.372ZM47.389,47.393a3.362,3.362,0,0,1-2.567,1.094,5.226,5.226,0,0,1-3.57-1.924L31.4,35.574a19.807,19.807,0,0,0,4.18-4.181l10.989,9.85a5.212,5.212,0,0,1,1.918,3.571A3.427,3.427,0,0,1,47.389,47.393Z" fill="#fff"/></g></svg>