<svg xmlns="http://www.w3.org/2000/svg" width="50" height="45.142" viewBox="0 0 50 45.142"><g transform="translate(-9 -33)"><path d="M53.727,33H21.4a5.069,5.069,0,0,0-5.089,5.032L16.1,66.5H9.789A.821.821,0,0,0,9,67.345v3.918a6.865,6.865,0,0,0,6.478,6.832v.047H42.7v-.053c.2.008.325.053.464.053h.019a6.844,6.844,0,0,0,6.8-6.88V46.36h8.219A.829.829,0,0,0,59,45.509V38.32A5.31,5.31,0,0,0,53.727,33Zm-37.9,43.522h-.006a5.247,5.247,0,0,1-5.207-5.261v-3.14H36.328v3.127a6.855,6.855,0,0,0,2,4.863,2.9,2.9,0,0,1,.427.411Zm32.54-5.261a5.229,5.229,0,0,1-5.186,5.261H43.17a5.261,5.261,0,0,1-5.223-5.273v-3.9a.839.839,0,0,0-.81-.843H17.718l.208-28.464A3.449,3.449,0,0,1,21.4,34.619H49.9a5.526,5.526,0,0,0-1.532,3.722Zm9.008-32.927v6.407H49.992v-6.4A3.75,3.75,0,0,1,53.7,34.619h.023a3.691,3.691,0,0,1,3.654,3.708Z" fill="#fff"/><path d="M174.513,101.083l4.175,2.854a.8.8,0,0,0,.905,0l4.162-2.854a6.288,6.288,0,0,0,2.514-4.8V90.512a.791.791,0,0,0-.432-.727l-6.356-3.127a.8.8,0,0,0-.708,0l-6.344,3.118A.789.789,0,0,0,172,90.5v5.783A6.289,6.289,0,0,0,174.513,101.083Zm-.9-10.075,5.516-2.722,5.516,2.73v5.271a4.667,4.667,0,0,1-1.808,3.459l-3.718,2.543-3.7-2.542a4.664,4.664,0,0,1-1.8-3.459Z" transform="translate(-146.499 -48.153)" fill="#fff"/><path d="M150.8,153.731a.81.81,0,0,0,.573.243h0a.813.813,0,0,0,.573-.24l3.221-3.222a.81.81,0,0,0-1.145-1.146l-2.646,2.646-1.058-1.068a.81.81,0,0,0-1.151,1.141Zm11.44,8.745H142.81a.81.81,0,0,0,0,1.619h19.433a.81.81,0,0,0,0-1.619Zm0,3.745H142.81a.81.81,0,1,0,0,1.619h19.433a.81.81,0,0,0,0-1.619Z" transform="translate(-119.538 -104.375)" fill="#fff"/></g></svg>