<svg xmlns="http://www.w3.org/2000/svg" width="50" height="47.69" viewBox="0 0 50 47.69"><path d="M32.02,15.306A16.713,16.713,0,1,0,48.733,32.019,16.713,16.713,0,0,0,32.02,15.306ZM43.359,30.1l-4.624,4.394,1,6.3a1.492,1.492,0,0,1-.62,1.461,1.428,1.428,0,0,1-.861.28,1.538,1.538,0,0,1-.721-.18L31.93,39.3l-5.675,2.9A1.507,1.507,0,0,1,24.094,40.6l1.161-6.265-4.514-4.514a1.5,1.5,0,0,1,.861-2.552l6.325-.831,2.892-5.685a1.589,1.589,0,0,1,1.351-.821,1.526,1.526,0,0,1,1.341.851l2.742,5.755,6.305,1a1.5,1.5,0,0,1,1.2,1.031,1.52,1.52,0,0,1-.4,1.531Zm11.609,4.964c1.011-1.051,2.052-2.142,2.052-3.042s-1.041-1.992-2.052-3.042a9.874,9.874,0,0,1-2.562-3.583,10.223,10.223,0,0,1-.05-4.544c.19-1.411.38-2.862-.11-3.533s-1.952-.941-3.353-1.2a10.35,10.35,0,0,1-4.283-1.431,10.265,10.265,0,0,1-2.652-3.6C41.277,9.811,40.577,8.5,39.746,8.23c-.751-.24-2.062.38-3.323.991a10.569,10.569,0,0,1-4.4,1.371,10.569,10.569,0,0,1-4.4-1.371c-1.261-.61-2.572-1.241-3.323-.991-.831.27-1.531,1.581-2.212,2.852a10.265,10.265,0,0,1-2.652,3.6,10.35,10.35,0,0,1-4.283,1.431c-1.4.26-2.862.52-3.353,1.2s-.3,2.122-.11,3.533a10.223,10.223,0,0,1-.05,4.544,9.874,9.874,0,0,1-2.562,3.583C8.061,30.027,7.02,31.118,7.02,32.019s1.041,1.992,2.052,3.042a9.874,9.874,0,0,1,2.562,3.583,10.223,10.223,0,0,1,.05,4.544c-.19,1.411-.38,2.862.11,3.533s1.952.941,3.353,1.2a10.35,10.35,0,0,1,4.283,1.431,10.265,10.265,0,0,1,2.652,3.6c.681,1.271,1.381,2.582,2.212,2.852.751.24,2.062-.38,3.323-.991a10.569,10.569,0,0,1,4.4-1.371,10.569,10.569,0,0,1,4.4,1.371c1.261.61,2.572,1.241,3.323.991.831-.27,1.531-1.581,2.212-2.852a10.265,10.265,0,0,1,2.652-3.6,10.35,10.35,0,0,1,4.283-1.431c1.4-.26,2.862-.52,3.353-1.2s.3-2.122.11-3.533a10.223,10.223,0,0,1,.05-4.544A9.874,9.874,0,0,1,54.968,35.062ZM32.02,51.735A19.716,19.716,0,1,1,51.736,32.019,19.716,19.716,0,0,1,32.02,51.735Zm2.992-22.358,4.073.641L36.093,32.86a1.529,1.529,0,0,0-.45,1.331l.651,4.063-3.623-1.962a1.538,1.538,0,0,0-.721-.18,1.508,1.508,0,0,0-.681.16L27.6,38.144l.751-4.053a1.5,1.5,0,0,0-.42-1.331l-2.912-2.912,4.083-.54a1.51,1.51,0,0,0,1.141-.811l1.872-3.673,1.781,3.723a1.507,1.507,0,0,0,1.121.831Z" transform="translate(-7.02 -8.174)" fill="#fff"/></svg>