<svg xmlns="http://www.w3.org/2000/svg" width="50" height="50.002" viewBox="0 0 50 50.002"><g transform="translate(-16.77 -16.769)"><path d="M65.279,37.056V25.112a.926.926,0,0,0-.926-.926H43.134a.926.926,0,0,0-.926.926V37.056a.926.926,0,0,0,.926.926H64.352a.926.926,0,0,0,.926-.926Zm-1.853-.926H44.061V26.039H63.426Z" transform="translate(-11.973 -3.491)" fill="#fff"/><path d="M55.02,37.471a.926.926,0,0,0,.926-.926V33.832a.926.926,0,0,0-1.853,0v2.713a.926.926,0,0,0,.926.926Z" transform="translate(-17.568 -7.595)" fill="#fff"/><path d="M71.332,37.471a.926.926,0,0,0,.926-.926V33.832a.926.926,0,0,0-1.853,0v2.713a.926.926,0,0,0,.926.926Z" transform="translate(-25.245 -7.595)" fill="#fff"/><path d="M63.384,51.865V49.7a5.063,5.063,0,0,0-5.058-5.058H55.136V43.623a.926.926,0,0,0-.926-.926H45.761V38.419H56.938a.926.926,0,0,0,.926-.926V17.7a.926.926,0,0,0-.926-.926H26.6a.926.926,0,0,0-.926.926v19.8a.926.926,0,0,0,.926.926H37.779V42.7H29.331a.926.926,0,0,0-.926.926v1.015H25.213A5.063,5.063,0,0,0,20.156,49.7v2.17a5.539,5.539,0,0,0,2.152,10.643.926.926,0,1,0,0-1.853A3.687,3.687,0,1,1,26,56.969a.926.926,0,0,0,1.853,0,5.545,5.545,0,0,0-5.541-5.539c-.1,0-.2.01-.3.015V49.7a3.209,3.209,0,0,1,3.205-3.205H28.4v6.916a13.366,13.366,0,1,0,26.731,0V46.49h3.191A3.209,3.209,0,0,1,61.532,49.7v1.751c-.1-.006-.2-.015-.3-.015a5.545,5.545,0,0,0-5.541,5.539.926.926,0,1,0,1.853,0,3.686,3.686,0,1,1,3.686,3.687.926.926,0,1,0,0,1.853,5.539,5.539,0,0,0,2.152-10.643ZM34.6,44.549H48.94v8.618a7.17,7.17,0,0,1-14.341,0ZM27.531,18.621H56.014V36.566H27.531Zm12.1,19.8h4.277V42.7h-4.28ZM53.283,53.406a11.513,11.513,0,1,1-23.026,0V44.549h2.488v8.618a9.023,9.023,0,0,0,18.046,0V44.549h2.488Z" transform="translate(0 0)" fill="#fff"/></g></svg>