<svg xmlns="http://www.w3.org/2000/svg" width="44.176" height="55.971" viewBox="0 0 44.176 55.971"><path d="M38.088,46.971h0a59.423,59.423,0,0,1-11.044-7.7,39.263,39.263,0,0,1-7.593-8.833A21.982,21.982,0,0,1,16,18.986V-3.4L38.088-9,60.176-3.4V18.986a21.982,21.982,0,0,1-3.451,11.456,39.262,39.262,0,0,1-7.593,8.833,59.424,59.424,0,0,1-11.044,7.7ZM31.481,16.866a1.154,1.154,0,0,0-1.145,1.161V27.89a1.154,1.154,0,0,0,1.145,1.161H44.648a1.154,1.154,0,0,0,1.145-1.161V18.026a1.154,1.154,0,0,0-1.145-1.161H43.5V14.835a5.439,5.439,0,1,0-10.877,0v2.031Zm14.6-3.482a.87.87,0,0,0,0,1.741h3.435a.87.87,0,0,0,0-1.741Zm-19.464,0a.87.87,0,0,0,0,1.741H30.05a.87.87,0,0,0,0-1.741Zm3.186-7.8h0a.843.843,0,0,0-.605.253.885.885,0,0,0,0,1.231l2.542,2.577a.85.85,0,0,0,1.214,0,.88.88,0,0,0,0-1.231L30.406,5.841A.853.853,0,0,0,29.8,5.587Zm16.532,0h-.007a.841.841,0,0,0-.6.254L43.181,8.418a.886.886,0,0,0,0,1.231.853.853,0,0,0,1.214,0l2.543-2.577a.885.885,0,0,0,0-1.231A.843.843,0,0,0,46.333,5.587ZM38.065,2.359a.866.866,0,0,0-.859.871V6.712a.859.859,0,1,0,1.718,0V3.23A.866.866,0,0,0,38.065,2.359Zm0,23.21a.865.865,0,0,1-.859-.87V23.531a1.431,1.431,0,1,1,1.718,0V24.7A.865.865,0,0,1,38.065,25.569Zm2-8.7H36.061V14.835a2,2,0,1,1,4.008,0v2.031Z" transform="translate(-16 9)" fill="#fff"/></svg>