<svg xmlns="http://www.w3.org/2000/svg" width="50" height="50" viewBox="0 0 50 50">
  <g id="technology" transform="translate(17745 6898)">
    <path id="laptop" d="M49.571,26.849a1.464,1.464,0,0,0-1.036-.429h-2.5V1.465A1.465,1.465,0,0,0,44.572,0H5.425A1.465,1.465,0,0,0,3.96,1.465V26.42h-2.5A1.465,1.465,0,0,0,0,27.885v.978a6.355,6.355,0,0,0,6.348,6.345h37.3A6.355,6.355,0,0,0,50,28.862v-.977a1.464,1.464,0,0,0-.429-1.036ZM22.187,21.582a6.894,6.894,0,0,1-4.03-6.079,6.8,6.8,0,0,1,2.227-5.219v4.2A3.422,3.422,0,0,0,23.8,17.9h2.392a3.422,3.422,0,0,0,3.418-3.418V10.289a6.847,6.847,0,0,1-1.8,11.3,1.465,1.465,0,0,0-.861,1.334v3.5H23.045v-3.5a1.464,1.464,0,0,0-.858-1.334ZM6.89,2.93H43.107V26.42H29.881V23.811A9.772,9.772,0,0,0,28.7,6.3a1.465,1.465,0,0,0-2.021,1.355v6.823a.489.489,0,0,1-.488.488H23.8a.489.489,0,0,1-.488-.488V7.658A1.465,1.465,0,0,0,21.293,6.3a9.768,9.768,0,0,0-1.178,17.5V26.42H6.89ZM43.652,32.279H6.348a3.423,3.423,0,0,1-3.383-2.93H47.035A3.423,3.423,0,0,1,43.652,32.279Zm0,0" transform="translate(-17745 -6891)" fill="#fff"/>
    <g id="Rectangle_273" data-name="Rectangle 273" transform="translate(-17745 -6898)" fill="#fff" stroke="#707070" stroke-width="1" opacity="0">
      <rect width="50" height="50" stroke="none"/>
      <rect x="0.5" y="0.5" width="49" height="49" fill="none"/>
    </g>
  </g>
</svg>
