<svg xmlns="http://www.w3.org/2000/svg" width="50" height="50" viewBox="0 0 50 50"><g transform="translate(16734 6461)"><g transform="translate(-16734 -6461)"><path d="M0,0H50V50H0Z" fill="none"/><path d="M20.667,10.653v3.729a1.031,1.031,0,0,0,1.771.729L28.25,9.3a1.031,1.031,0,0,0,0-1.479L22.438,2.007a1.042,1.042,0,0,0-1.771.75V6.486A16.662,16.662,0,0,0,4,23.153,16.308,16.308,0,0,0,5.187,29.3a2.088,2.088,0,0,0,3.417.708,2,2,0,0,0,.479-2.167,12.131,12.131,0,0,1-.917-4.687A12.51,12.51,0,0,1,20.667,10.653ZM32.729,16.3a2.01,2.01,0,0,0-.479,2.167A12.491,12.491,0,0,1,20.667,35.653V31.923a1.031,1.031,0,0,0-1.771-.729l-5.812,5.812a1.031,1.031,0,0,0,0,1.479L18.9,44.3a1.04,1.04,0,0,0,1.771-.729v-3.75A16.662,16.662,0,0,0,37.333,23.153a16.308,16.308,0,0,0-1.187-6.146,2.088,2.088,0,0,0-3.417-.708Z" transform="translate(4.333 1.847)" fill="#fff"/></g><path d="M-956.96,973.981l3.889,5.019,10.276-8.267" transform="translate(-15759.071 -7409.733)" fill="none" stroke="#fff" stroke-linecap="round" stroke-linejoin="round" stroke-width="3"/></g></svg>