<svg xmlns="http://www.w3.org/2000/svg" width="50.275" height="50" viewBox="0 0 50.275 50"><g transform="translate(18418.275 6553)"><path d="M17.066,18.89q-2.217-2.218-2.217-6.474V0h3.724V12.622a5.793,5.793,0,0,0,1.271,4.065,4.825,4.825,0,0,0,3.725,1.375,4.756,4.756,0,0,0,3.695-1.39,5.8,5.8,0,0,0,1.271-4.05V0H32.26V12.416q0,4.227-2.217,6.459t-6.473,2.232Q19.283,21.107,17.066,18.89Zm19.569,1.95V0h3.813V20.84Zm6.331-7.132L48.954,9.79,42.966,5.9V1.983l9.673,6.278v3.087l-9.673,6.3ZM2.639,11.3V8.209l9.65-6.278V5.822L6.3,9.738l5.989,3.917V17.6Z" transform="translate(-18420.914 -6538.382)" fill="#fff"/><g transform="translate(-18418 -6553)" fill="#fff" stroke="#707070" stroke-width="1" opacity="0"><rect width="50" height="50" stroke="none"/><rect x="0.5" y="0.5" width="49" height="49" fill="none"/></g></g></svg>