<svg xmlns="http://www.w3.org/2000/svg" width="50" height="50" viewBox="0 0 50 50"><g transform="translate(18418 6604)"><path d="M23.1,22.947a.979.979,0,0,1-.985-.976V9.564h3.842V21.971a.979.979,0,0,1-.985.976ZM2.219,20.325Q0,18.125,0,13.9V1.583H3.729V14.107A5.714,5.714,0,0,0,5,18.14,4.854,4.854,0,0,0,8.73,19.5a4.785,4.785,0,0,0,3.7-1.379A5.724,5.724,0,0,0,13.7,14.107V1.583H17.43V13.9q0,4.194-2.22,6.409T8.73,22.525Q4.439,22.525,2.219,20.325ZM21.939,6.967a3.891,3.891,0,0,1,0-5.539A5.14,5.14,0,0,1,26.13.044a1.974,1.974,0,0,0,0,2.769,2.915,2.915,0,0,1,0,4.154,2.979,2.979,0,0,1-4.191,0Z" transform="translate(-18404.684 -6590.383)" fill="#fff"/><g transform="translate(-18418 -6604)" fill="#fff" stroke="#707070" stroke-width="1" opacity="0"><rect width="50" height="50" stroke="none"/><rect x="0.5" y="0.5" width="49" height="49" fill="none"/></g></g></svg>