<svg xmlns="http://www.w3.org/2000/svg" width="50" height="49.998" viewBox="0 0 50 49.998"><g transform="translate(-2 -2.001)"><path d="M51.333,11.447,27.375,2.072a1.063,1.063,0,0,0-.76,0L2.656,11.447A1.042,1.042,0,0,0,2,12.416v3.125a1.038,1.038,0,0,0,1.042,1.042H7.208V50.957A1.038,1.038,0,0,0,8.25,52h37.5a1.038,1.038,0,0,0,1.042-1.042V16.582h4.167A1.038,1.038,0,0,0,52,15.541V12.416A1.036,1.036,0,0,0,51.333,11.447ZM49.917,14.5H45.75a1.045,1.045,0,0,0-1.042,1.042V49.916H9.292V15.541A1.045,1.045,0,0,0,8.25,14.5H4.083V13.134L27,4.166l22.917,8.969V14.5Z" transform="translate(0)" fill="#fff"/><g transform="translate(12.417 18.666)"><path d="M41.167,19.041v31.25a1.042,1.042,0,1,1-2.083,0V20.082h-25V50.291a1.042,1.042,0,1,1-2.083,0V19.041A1.045,1.045,0,0,1,13.042,18H40.125A1.045,1.045,0,0,1,41.167,19.041Z" transform="translate(-12 -17.999)" fill="#fff"/></g><g transform="translate(16.583 41.582)"><path d="M26.417,41.041v8.333a1.042,1.042,0,1,1-2.083,0V42.082h-6.25v7.292a1.042,1.042,0,1,1-2.083,0V41.041A1.045,1.045,0,0,1,17.042,40h8.333A1.045,1.045,0,0,1,26.417,41.041Z" transform="translate(-16 -39.999)" fill="#fff"/></g><g transform="translate(16.583 33.249)"><path d="M26.417,33.041v8.333a1.042,1.042,0,1,1-2.083,0V34.082h-6.25v7.292a1.042,1.042,0,1,1-2.083,0V33.041A1.045,1.045,0,0,1,17.042,32h8.333A1.045,1.045,0,0,1,26.417,33.041Z" transform="translate(-16 -31.999)" fill="#fff"/></g><g transform="translate(16.583 24.916)"><path d="M26.417,25.041v8.333a1.042,1.042,0,0,1-2.083,0V26.082h-6.25v7.292a1.042,1.042,0,0,1-2.083,0V25.041A1.045,1.045,0,0,1,17.042,24h8.333A1.045,1.045,0,0,1,26.417,25.041Z" transform="translate(-16 -23.999)" fill="#fff"/></g><g transform="translate(24.917 41.582)"><path d="M34.417,41.041v8.333a1.042,1.042,0,1,1-2.083,0V42.082H25.042a1.042,1.042,0,0,1,0-2.083h8.333A1.045,1.045,0,0,1,34.417,41.041Z" transform="translate(-24 -39.999)" fill="#fff"/></g><g transform="translate(24.917 33.249)"><path d="M34.417,33.041v8.333a1.038,1.038,0,0,1-1.042,1.042H25.042a1.042,1.042,0,0,1,0-2.083h7.292v-6.25H25.042a1.042,1.042,0,0,1,0-2.083h8.333A1.045,1.045,0,0,1,34.417,33.041Z" transform="translate(-24 -31.999)" fill="#fff"/></g></g></svg>